<svg width="46" height="48" viewBox="0 0 46 48" fill="none" xmlns="http://www.w3.org/2000/svg">
<path d="M24.1212 0C20.8105 0 17.6932 0.627333 14.7692 1.882C11.8887 3.08099 9.26722 4.82568 7.04916 7.02C4.84973 9.2101 3.09601 11.806 1.88516 14.664C0.597164 17.5587 -0.0308364 20.6627 0.00116364 23.976C0.00116364 27.2907 0.628497 30.4107 1.88316 33.336C3.59116 37.276 7.23716 42.878 14.7672 46.07C17.6925 47.3567 20.8105 48 24.1212 48V38.016C22.1612 38.016 20.3278 37.646 18.6212 36.906C15.259 35.4682 12.5811 32.7889 11.1452 29.426C10.4116 27.7023 10.0335 25.8483 10.0335 23.975C10.0335 22.1017 10.4116 20.2477 11.1452 18.524C12.5815 15.1618 15.2594 12.4833 18.6212 11.046C20.3576 10.2984 22.2307 9.92105 24.1212 9.938V0ZM24.4612 19.684V29.57H36.0872V41.2H45.9772V19.684H24.4612Z" fill="#00B5EA"/>
</svg>
