<svg id="Camada_1" data-name="Camada 1" xmlns="http://www.w3.org/2000/svg" viewBox="0 0 62 62">
  <defs>
    <style>
      .cls-1 {
        fill: #ce2029;
      }

      .cls-2 {
        fill: #fff;
      }
    </style>
  </defs>
  <title>russelLogo</title>
  <g>
    <circle class="cls-1" cx="31" cy="31" r="30"/>
    <g>
      <path class="cls-2" d="M35.32759,29.04046c.37155.10018.46242.01475.33166-.3677a5.58293,5.58293,0,0,0-1.82136-2.26147,8.82327,8.82327,0,0,0-4.72642-2.05636A17.11119,17.11119,0,0,0,21.171,25.085a12.83337,12.83337,0,0,0-3.68152,1.64691,26.69258,26.69258,0,0,0-3.83217,3.4377,19.77391,19.77391,0,0,0-3.09885,5.33609,9.89786,9.89786,0,0,0-.67522,2.66862,15.80062,15.80062,0,0,0,.1274,6.30316,16.56607,16.56607,0,0,0,2.93488,6.14225c.1149.14758.19081.44144.39972.35715.26529-.107.08956-.3837.04389-.57361a11.913,11.913,0,0,1-.54162-3.85395,18.61117,18.61117,0,0,1,.88512-6.27232,19.42714,19.42714,0,0,1,1.49448-3.30686A14.69925,14.69925,0,0,1,18.23981,33.167a23.30721,23.30721,0,0,1,3.4714-2.47978A16.421,16.421,0,0,1,30.45149,28.373,18.33132,18.33132,0,0,1,35.32759,29.04046Z"/>
      <path class="cls-2" d="M14.87451,16.11161a25.02964,25.02964,0,0,1,9.92971-2.613A29.26712,29.26712,0,0,1,36.6166,15.3888a28.89027,28.89027,0,0,1,4.3303,2.08547,11.04054,11.04054,0,0,1,2.30686,1.61162,9.25263,9.25263,0,0,1,3.07811,6.26075,8.90668,8.90668,0,0,1-3.9424,8.13791,10.14965,10.14965,0,0,1-2.13016,1.1057c-.13856.05588-.3187.12624-.2732.328.03427.15192.19267.18369.32627.21276a5.80324,5.80324,0,0,0,2.738-.04189,13.7313,13.7313,0,0,0,4.4647-1.86631A10.37673,10.37673,0,0,0,50.08906,30.611a10.8478,10.8478,0,0,0,1.41721-2.8122,10.01752,10.01752,0,0,0-.3051-7.23875,15.69856,15.69856,0,0,0-5.228-6.36959,24.07224,24.07224,0,0,0-6.99364-3.61374,28.85271,28.85271,0,0,0-9.265-1.34708,25.76409,25.76409,0,0,0-9.04468,1.54995,31.03947,31.03947,0,0,0-3.971,1.86924,20.21546,20.21546,0,0,0-3.64516,2.54173,18.41828,18.41828,0,0,0-3.69342,3.90066c-.12454.19705-.5136.38169-.29472.60906.21216.2204.44741-.12779.62811-.26959A28.57964,28.57964,0,0,1,14.87451,16.11161Z"/>
      <path class="cls-2" d="M52.32277,48.17472a16.73306,16.73306,0,0,1-5.11566.95378,17.86785,17.86785,0,0,1-7.69437-1.59616,14.85731,14.85731,0,0,1-5.88606-4.50691,8.43606,8.43606,0,0,1-1.57492-3.5067,10.4595,10.4595,0,0,1,.05339-4.37287.513.513,0,0,0-.08906-.55309c-.19654-.16173-.36864.01875-.52743.11707a8.43233,8.43233,0,0,0-2.881,3.40152,7.962,7.962,0,0,0-.80023,3.34915A7.8503,7.8503,0,0,0,28.86,45.96843a10.89248,10.89248,0,0,0,3.29635,3.58749,16.41037,16.41037,0,0,0,2.76767,1.6546,19.48488,19.48488,0,0,0,5.01457,1.4058,14.80627,14.80627,0,0,0,5.54245-.22953A17.71748,17.71748,0,0,0,49.979,50.72787a11.502,11.502,0,0,0,2.71292-2.02634c.13319-.14092.41326-.29624.26681-.52983C52.79321,47.90767,52.5326,48.107,52.32277,48.17472Z"/>
    </g>
  </g>
</svg>
