<svg id="Camada_1" data-name="Camada 1" xmlns="http://www.w3.org/2000/svg" viewBox="0 0 120 90">
  <defs>
    <style>
      .cls-1 {
        fill: #fff;
      }
    </style>
  </defs>
  <title>aiLogo</title>
  <g>
    <path class="cls-1" d="M75.35341,87.497q-3.48525.00038-6.97051,0c-.28531,0-.57063-.00519-.85594-.00455a1.11906,1.11906,0,0,1-1.12771-.77088c-.10426-.26508-.19062-.53725-.28355-.80675q-2.72792-7.91175-5.45888-15.82246c-.50342-1.45239-.24709-1.24252-1.77918-1.24386q-12.59584-.011-25.1917-.00134c-1.48971.00077-1.24918-.15351-1.683,1.18881q-2.51709,7.78834-5.01266,15.58364c-.09968.31008-.18333.62735-.30976.92633a1.38655,1.38655,0,0,1-1.30333.94145q-.3055.0087-.61123.00906-6.5425.00081-13.085-.00057a6.27923,6.27923,0,0,1-.73239-.02773.72364.72364,0,0,1-.68595-.83651,6.11384,6.11384,0,0,1,.29217-1.057q1.45313-4.21588,2.91794-8.42771Q22.824,50.196,32.17609,23.24545c.801-2.30844,1.61535-4.61236,2.4028-6.92543a20.115,20.115,0,0,0,1.03454-6.24289C35.63311,8.68555,35.72315,8.6009,37.063,8.6q8.98832-.00587,17.97661.00031c1.36835.00084,1.37089.00859,1.82459,1.28916q3.08044,8.69466,6.159,17.39,9.94845,28.0369,19.90082,56.0724c.3133.88274.63975,1.76119.93225,2.65079.38893,1.18281.17925,1.48528-1.04311,1.49073C80.32655,87.5045,77.84,87.49673,75.35341,87.497ZM55.55929,53.5636a.64884.64884,0,0,0,.03754-.11586.89776.89776,0,0,0,.01625-.23848,2.2953,2.2953,0,0,0-.08487-.355c-3.09569-9.9896-6.44111-19.90263-9.19874-29.99594a.20415.20415,0,0,0-.07862-.0901.3994.3994,0,0,0-.11421-.03009c-2.58315,10.421-6.08458,20.56755-9.30568,30.80969C37.88226,53.70234,54.53392,53.70679,55.55929,53.5636Z"/>
    <path class="cls-1" d="M108.68928,57.61709q0,13.87337-.00112,27.74676a10.50031,10.50031,0,0,1-.03235,1.2204.88777.88777,0,0,1-.95539.90072c-.28383.021-.57009.01175-.85525.01179q-6.47832.00084-12.95664.00012c-.2852,0-.5713.01077-.85542-.00767-.72493-.047-1.012-.30982-1.10624-1.04347a7.69945,7.69945,0,0,1-.02829-.97613q-.0016-27.99121.00015-55.98246c.00017-1.725.17027-1.89493,1.87223-1.896q6.53943-.00418,13.07887.00064a6.83568,6.83568,0,0,1,.97466.04214.88982.88982,0,0,1,.84227.89285c.03794.40425.02184.814.02187,1.22133Q108.69,43.68258,108.68928,57.61709Z"/>
    <path class="cls-1" d="M109.73008,11.852a8.913,8.913,0,0,1-.98638,4.61365,8.541,8.541,0,0,1-4.80659,4.28724,10.089,10.089,0,0,1-6.36628.27313,8.5737,8.5737,0,0,1-6.19753-6.47546A10.00867,10.00867,0,0,1,91.287,9.70573a8.74528,8.74528,0,0,1,6.59265-6.84032,10.44931,10.44931,0,0,1,6.37591.29769,7.80047,7.80047,0,0,1,4.20713,3.55325A8.86769,8.86769,0,0,1,109.73008,11.852Z"/>
  </g>
</svg>
