<svg id="Camada_1" data-name="Camada 1" xmlns="http://www.w3.org/2000/svg" xmlns:xlink="http://www.w3.org/1999/xlink" viewBox="0 0 110 90">
  <defs>
    <style>
      .cls-1 {
        fill: url(#Gradiente_sem_nome_143);
      }

      .cls-2 {
        fill: url(#Gradiente_sem_nome_143-2);
      }
    </style>
    <linearGradient id="Gradiente_sem_nome_143" data-name="Gradiente sem nome 143" x1="18.24168" y1="16.64513" x2="92.43551" y2="90.83896" gradientUnits="userSpaceOnUse">
      <stop offset="0" stop-color="#845600"/>
      <stop offset="0.21357" stop-color="#b98b04"/>
      <stop offset="0.46985" stop-color="#efd421"/>
      <stop offset="0.73116" stop-color="#d8aa23"/>
      <stop offset="1" stop-color="#a47406"/>
    </linearGradient>
    <linearGradient id="Gradiente_sem_nome_143-2" x1="31.72347" y1="-6.39364" x2="83.77657" y2="45.65946" xlink:href="#Gradiente_sem_nome_143"/>
  </defs>
  <title>panelIconPrancheta 29</title>
  <g>
    <path class="cls-1" d="M9.63987,54.805c-.02271,4.77822,2.9895,7.50309,6.35257,9.78249,5.96308,4.04162,12.74288,6.24936,19.74367,7.5234A106.30614,106.30614,0,0,0,57.45189,74.211c9.2279-.23266,18.38718-.963,27.311-3.55171a3.14041,3.14041,0,0,1,2.51061-.23406c-.67421,1.18671-1.89289,1.42207-2.92967,1.84994C69.85764,78.25363,54.74333,79.321,39.31612,78.06993A87.89714,87.89714,0,0,1,20.229,74.7535C14.9701,73.12237,9.9404,71.06715,5.55806,67.65069-.95179,62.57563-.98961,55.4166,5.50422,50.26783a47.85755,47.85755,0,0,1,4.48-3.12364c1.25339-.77878,1.23355-1.40268.09954-2.25082A18.553,18.553,0,0,1,5.66907,40.3323,9.50175,9.50175,0,0,1,7.64231,27.331c.93413-.755,1.90912-1.5142,2.72193-.00576,3.80805,7.0672,10.71218,9.76868,17.669,11.86369,18.23826,5.49242,36.75267,5.52712,55.235,1.277A46.09326,46.09326,0,0,0,97.61453,34.782c.62929-.39635,1.34626-1.20391,2.15758-.47563.66917.60067.4502,1.53177.30647,2.31109a11.21965,11.21965,0,0,1-3.755,6.09933c-5.04027,4.74035-11.3181,7.12233-17.81877,8.747a104.38541,104.38541,0,0,1-58.66908-1.73842,41.31435,41.31435,0,0,1-4.76061-1.98266,2.48527,2.48527,0,0,0-3.6062,1.0816c-.97754,1.62774.1372,2.44019,1.31136,3.14267A44.7944,44.7944,0,0,0,24.0097,56.50447,105.73549,105.73549,0,0,0,60.68622,59.821c10.30652-.80821,20.27635-2.5812,29.52474-7.38037,3.82422-1.98444,7.27318-4.481,9.17646-8.52995.9213-1.95994,1.84249-1.76841,3.1257-.39251,3.66145,3.926,4.173,8.34166.90144,12.66829-1.7955,2.37452-1.46172,3.41067.886,5.12591,6.373,4.656,6.6636,11.049,1.12219,16.539-5.82132,5.76731-13.36174,7.95374-20.98956,9.58781A105.52133,105.52133,0,0,1,31.29929,85.6655a39.28107,39.28107,0,0,1-13.048-6.61282c1.0819-.8524,1.91651-.20262,2.67361-.00322a103.20633,103.20633,0,0,0,30.94442,3.62811C63.44792,82.16842,74.86406,80.761,85.52766,75.724c4.0079-1.89318,7.60151-4.26234,9.96067-8.12871a11.80372,11.80372,0,0,0,1.10882-2.80277c.1915-.646.54069-1.44872-.14647-1.985-.67856-.52957-1.35031.01351-1.96721.30888a63.47492,63.47492,0,0,1-20.33653,5.88857c-17.356,1.97286-34.57179,2.0264-51.157-4.61721C17.78507,62.30277,13.114,59.42757,9.63987,54.805Z"/>
    <path class="cls-2" d="M58.68916.01659c13.58507.20625,26.8201,2.01836,39.02907,8.54025,6.53253,3.48962,9.774,9.68153,7.26807,14.777-1.919,3.90208-5.39729,6.48384-9.27574,8.4324A69.84891,69.84891,0,0,1,74.287,38.20076a109.27717,109.27717,0,0,1-38.59983-1.05668c-6.64879-1.39621-13.11081-3.34276-18.95265-7.05935C7.66074,24.312,7.13011,16.119,15.84226,9.91506c7.076-5.03886,15.36311-7.1724,23.8-8.52873A107.84044,107.84044,0,0,1,58.68916.01659ZM30.84962,23.99894a34.2595,34.2595,0,0,0,9.29144,1.05018c1.4045.03673,3.4557-.17837,3.95326.9688.94952,2.18913,2.509,1.97535,4.17913,1.94771,1.69928-.02811,3.59525.4611,4.99291-.761,2.25764-1.974,4.90379-2.13521,7.666-2.24141a45.03567,45.03567,0,0,0,12.813-2.21372c1.37811-.468,3.14321-1.16533,3.04914-2.96608-.09122-1.74642-1.89293-1.92653-3.24014-2.19864a90.01849,90.01849,0,0,0-11.39276-1.74636c-2.35948-.16872-4.76395-.29066-6.92462-1.66429.78733-1.28942,1.99525-1.18045,3.02849-1.40129,5.86547-1.25371,11.6917.0115,17.52074.40224,2.364.15847,4.26515-.07408,5.67817-2.38948A22.891,22.891,0,0,0,73.74654,9.798c-.89445-.01174-2.128.32237-2.59137-.47288C69.02555,5.67052,65.13379,6.78971,63.194,7.89615c-3.70286,2.1121-7.57607,1.78458-11.33961,2.60273-2.56712.55806-5.21056.779-7.76119,1.39407-1.81294.43718-4.3087.90665-4.27148,3.13876.0338,2.02765,2.56585,2.061,4.12881,2.33639,4.875.859,9.80061,1.42875,14.70222,2.14087.85435.12412,2.065.0173,2.10649,1.24551.03829,1.1338-1.1029,1.32284-1.95983,1.54128a9.70487,9.70487,0,0,1-2.10755.21088A106.25013,106.25013,0,0,1,37.6092,21.7319C35.07706,21.34609,33.16492,22.35931,30.84962,23.99894Z"/>
  </g>
</svg>
