<svg id="Camada_1" data-name="Camada 1" xmlns="http://www.w3.org/2000/svg" xmlns:xlink="http://www.w3.org/1999/xlink" viewBox="0 0 90 89.99991">
  <defs>
    <style>
      .cls-1 {
        fill: #fff;
      }

      .cls-2 {
        fill: url(#Gradiente_sem_nome_34);
      }
    </style>
    <linearGradient id="Gradiente_sem_nome_34" data-name="Gradiente sem nome 34" x1="27.98708" y1="32.46805" x2="62.02497" y2="66.50594" gradientUnits="userSpaceOnUse">
      <stop offset="0" stop-color="#fff"/>
      <stop offset="0.23367" stop-color="#fff" stop-opacity="0.7"/>
      <stop offset="0.51256" stop-color="#fff" stop-opacity="0.6"/>
      <stop offset="0.77638" stop-color="#fff" stop-opacity="0.7"/>
      <stop offset="1" stop-color="#fff"/>
    </linearGradient>
  </defs>
  <title>panelIconPrancheta 35</title>
  <g>
    <path class="cls-1" d="M0,44.29351a3.65853,3.65853,0,0,1,4.02639-2.517c2.45676.09378,4.91995.00425,7.37945.04678a3.04511,3.04511,0,0,1,2.87894,2.18283,2.98775,2.98775,0,0,1-.97635,3.396,3.8727,3.8727,0,0,1-1.99117.74926c-2.72118.08367-5.44658.052-8.17012.02839C1.48184,48.16539.58206,47.11971,0,45.69986Z"/>
    <path class="cls-1" d="M44.12426,89.99991A5.59273,5.59273,0,0,1,41.027,87.878c-.18223-.2894-.33042-.60024-.5515-1.0064h8.97024c-.56572,1.78809-1.97095,2.56255-3.56355,3.12834Z"/>
    <path class="cls-2" d="M54.65645,73.87446h-19.306c0-.51367-.00813-1.00041.00127-1.4868a16.47,16.47,0,0,0-4.89491-12.3775,21.48649,21.48649,0,0,1-6.08746-11.8153A20.86708,20.86708,0,0,1,65.42,40.74606a19.95813,19.95813,0,0,1-4.98177,18.24409c-1.92764,2.14605-3.83629,4.26315-4.8051,7.0526a16.769,16.769,0,0,0-.97761,5.67935C54.66121,72.41961,54.65645,73.1172,54.65645,73.87446Z"/>
    <path class="cls-1" d="M53.02376,77.20312c0,1.65273.05625,3.25684-.02118,4.85446a1.47474,1.47474,0,0,1-1.63665,1.48606q-6.3645.03891-12.72934-.0006a1.475,1.475,0,0,1-1.6339-1.48929c-.07682-1.59746-.021-3.20129-.021-4.85063Z"/>
    <path class="cls-1" d="M11.21685,75.08137a7.671,7.671,0,0,1,1.04683-1.84131c1.78083-1.89942,3.64318-3.72411,5.51072-5.54a3.20325,3.20325,0,1,1,4.53414,4.51576Q19.5867,75.019,16.78276,77.74193a3.11087,3.11087,0,0,1-3.64232.67331C11.8821,77.86434,11.324,76.8316,11.21685,75.08137Z"/>
    <path class="cls-1" d="M78.78717,75.244a3.331,3.331,0,0,1-1.8244,3.13028,2.88,2.88,0,0,1-3.37459-.35543C71.437,75.996,69.34065,73.90752,67.33157,71.744a3.149,3.149,0,0,1,4.40133-4.43185c2.18709,2.02677,4.2815,4.15769,6.33747,6.31855A4.65824,4.65824,0,0,1,78.78717,75.244Z"/>
    <path class="cls-1" d="M48.19663,7.25274c.00055,1.31825.02628,2.63712-.00558,3.95459a3.18577,3.18577,0,1,1-6.3713.031q-.05555-3.99791-.00208-7.9971a3.18613,3.18613,0,1,1,6.3717-.03089C48.22369,4.557,48.19608,5.9052,48.19663,7.25274Z"/>
    <path class="cls-1" d="M11.22045,14.76175a3.39272,3.39272,0,0,1,1.80316-3.15241,2.81994,2.81994,0,0,1,3.36775.33141c2.15355,2.02271,4.25089,4.112,6.26821,6.27034a3.02919,3.02919,0,0,1-.21209,4.15511,3.10627,3.10627,0,0,1-4.23352.27417c-2.16446-2.01014-4.2361-4.12434-6.26989-6.26778A4.72018,4.72018,0,0,1,11.22045,14.76175Z"/>
    <path class="cls-1" d="M78.79882,14.8383A8.04017,8.04017,0,0,1,77.713,16.78111c-1.77525,1.90278-3.64058,3.72332-5.5077,5.538a3.232,3.232,0,0,1-4.647.04654,3.16006,3.16006,0,0,1,.11534-4.565q2.72527-2.79756,5.52171-5.5255a3.08539,3.08539,0,0,1,3.624-.72768C78.08091,12.09622,78.63912,13.12234,78.79882,14.8383Z"/>
    <path class="cls-1" d="M82.72388,48.1902c-1.31824-.00043-2.63717.02655-3.95456-.00691a3.18575,3.18575,0,1,1,.01554-6.37132q3.998-.05294,7.99711.00064a3.1861,3.1861,0,1,1-.01562,6.37169C85.41961,48.21691,84.07142,48.19063,82.72388,48.1902Z"/>
  </g>
</svg>
