<svg id="Camada_1" data-name="Camada 1" xmlns="http://www.w3.org/2000/svg" viewBox="0 0 82 90">
  <defs>
    <style>
      .cls-1 {
        fill: #323232;
      }
    </style>
  </defs>
  <title>panelIconPrancheta 31</title>
  <path class="cls-1" d="M48.60164,89.99537A61.87051,61.87051,0,0,1,29.45379,87.365,41.08147,41.08147,0,0,1,14.305,79.02778,37.64837,37.64837,0,0,1,4.3614,65.07368a51.22385,51.22385,0,0,1-3.698-19.45332A50.48147,50.48147,0,0,1,3.72028,26.919a39.67539,39.67539,0,0,1,9.41313-14.48035,41.275,41.275,0,0,1,14.87055-9.06A58.59314,58.59314,0,0,1,47.50429.00675,81.5138,81.5138,0,0,1,58.07891.50926a82.72993,82.72993,0,0,1,8.70376,1.50588,63.12631,63.12631,0,0,1,7.60712,2.39718c2.2828.87945,4.27411,1.71044,5.98746,2.467l.26889,20.99117-2.74207.0306c-1.17523-.91767-2.65744-2.01289-4.43248-3.26a57.17081,57.17081,0,0,0-6.05841-3.68135,43.66306,43.66306,0,0,0-7.46306-3.04516,27.83177,27.83177,0,0,0-8.54745-1.19737,30.96574,30.96574,0,0,0-9.5919,1.60662,23.28063,23.28063,0,0,0-8.34333,5.00553,23.8589,23.8589,0,0,0-5.84275,8.83,34.34382,34.34382,0,0,0-2.102,13.2353A33.01191,33.01191,0,0,0,28.162,58.96489a23.56733,23.56733,0,0,0,6.30038,8.51352,22.95152,22.95152,0,0,0,8.53378,4.45523A32.16212,32.16212,0,0,0,52.237,73.20083a30.83359,30.83359,0,0,0,8.62612-1.31144,35.26024,35.26024,0,0,0,7.83794-3.371,56.51521,56.51521,0,0,0,5.61815-3.65652c1.72873-1.28618,3.15477-2.41386,4.26461-3.357l2.49279-.02781.26525,20.7068c-2.314,1.00831-4.53209,1.938-6.62619,2.81456a53.74142,53.74142,0,0,1-6.647,2.27184,78.91312,78.91312,0,0,1-8.50705,1.95648A71.40488,71.40488,0,0,1,48.60164,89.99537Z"/>
</svg>
