<svg id="Camada_1" data-name="Camada 1" xmlns="http://www.w3.org/2000/svg" viewBox="0 0 73 90">
  <defs>
    <style>
      .cls-1 {
        fill: #fff;
      }
    </style>
  </defs>
  <title>panelIcon</title>
  <g>
    <path class="cls-1" d="M36.526,89.99865A81.95166,81.95166,0,0,1,16.72624,87.77,35.58911,35.58911,0,0,1,6.64941,83.80988,13.52732,13.52732,0,0,1,1.7103,79.02547a9.93681,9.93681,0,0,1-.98812-5.728A35.88117,35.88117,0,0,1,18.10612,44.38841a.78782.78782,0,0,1,1.0477-.014,27.26783,27.26783,0,0,0,14.05605,5.83808A27.56127,27.56127,0,0,0,51.421,46.0993a16.98728,16.98728,0,0,0,2.33543-1.6498.8245.8245,0,0,1,1.14-.06469,37.25166,37.25166,0,0,1,6.42141,4.94013A35.5282,35.5282,0,0,1,71.644,68.25947a38.95952,38.95952,0,0,1,.66772,6.20544,9.19365,9.19365,0,0,1-3.64634,7.67,26.88791,26.88791,0,0,1-9.47525,4.80464,66.11131,66.11131,0,0,1-13.50906,2.60827A87.96065,87.96065,0,0,1,36.526,89.99865Z"/>
    <path class="cls-1" d="M14.097,22.43415A22.41124,22.41124,0,1,1,36.4417,44.86963,22.42058,22.42058,0,0,1,14.097,22.43415Z"/>
  </g>
</svg>
