<svg id="Camada_1" data-name="Camada 1" xmlns="http://www.w3.org/2000/svg" viewBox="0 0 106 90">
  <defs>
    <style>
      .cls-1 {
        fill: #323232;
      }
    </style>
  </defs>
  <title>panelIconPrancheta 27</title>
  <g>
    <path class="cls-1" d="M86.63346,89.998q2.44714-.01281,4.89437.001c.42688.003.59383-.18.58842-.59394-.01075-.82476-.00317-1.6498-.00376-2.47467,0-.82492-.00495-1.64985.00221-2.47467.00329-.38105-.14292-.57679-.54975-.57486q-2.47465.01185-4.94937-.0007c-.40224-.00226-.55618.17527-.55447.56492q.01092,2.50218.00049,5.00436C86.05993,89.85187,86.24444,90.00006,86.63346,89.998Z"/>
    <path class="cls-1" d="M104.66437,81.44932c.6692-.001.7283-.06351.73162-.72036.00484-.95356.00168-1.90717.00168-2.86078q0-14.60648-.00038-29.213c0-.87758-.00212-.87962-.89546-.87994-2.73241-.00089-5.46487.00763-8.1972-.00742a.989.989,0,0,0-.97365.54687c-.8857,1.52122-1.80092,3.02525-2.70962,4.533-.09182.15235-.15111.39965-.3447.39476-.24552-.00621-.2474-.28467-.31113-.46286q-3.41661-9.55662-6.825-19.11616Q80.02068,19.31213,74.90022,4.961a2.91532,2.91532,0,0,0-3.1167-2.17827c-2.40232-.00217-4.8048-.01469-7.20687.0097A1.41812,1.41812,0,0,1,63.28246,2.18,5.61628,5.61628,0,0,0,53.342,6.74608a5.63006,5.63006,0,0,0,10.02264,2.266,1.19193,1.19193,0,0,1,1.05569-.532c1.63188.01905,3.26442.02461,4.8961-.00212a.90479.90479,0,0,1,1.0054.70014q6.58959,18.52847,13.2,37.04949c.06325.17758.2501.39347.06766.55743-.165.14824-.38275-.01547-.56745-.0753-3.73293-1.20918-7.4628-2.42785-11.19888-3.62725a1.05848,1.05848,0,0,1-.77775-.81291,25.78164,25.78164,0,0,0-5.97328-10.70461,1.34286,1.34286,0,0,1-.3928-.98483c.01478-1.17348.00709-2.34725.00322-3.52089-.00231-.6997-.04154-.738-.75827-.74065q-1.56791-.00572-3.13586-.00027c-.76464.00226-.79016.02886-.79082.82015-.00174,2.12725.026,4.255-.01618,6.38142a2.15607,2.15607,0,0,0,.66728,1.64313,20.14442,20.14442,0,0,1,5.5669,16.65243,20.18743,20.18743,0,0,1-7.39159,13.63368,19.99469,19.99469,0,0,1-14.81048,4.73946A20.08445,20.08445,0,0,1,30.0464,63.22522a20.81213,20.81213,0,0,1-.01806-27.64349,1.6355,1.6355,0,0,0,.4513-1.18788c-.02413-1.17318-.027-2.3476.00025-3.52062.01242-.53373-.19182-.69543-.711-.693q-5.22588.02482-10.4519.00017a.95238.95238,0,0,0-.95042.57112Q10.83127,44.4686,3.27049,58.17168A19.94794,19.94794,0,0,0,.68261,69.85359a15.32771,15.32771,0,0,0,2.43093,7.281,8.91928,8.91928,0,0,0,7.94681,4.3464c10.92907-.0807,21.85911-.02939,32.78877-.02961q17.08216,0,34.16435-.00059c.84027-.0001.86691-.02815.86731-.86436.00138-2.86078.00974-5.72161-.00584-8.58233a3.4855,3.4855,0,0,1,.52008-1.876q2.69832-4.47568,5.37344-8.96535c.13671-.22911.44567-.47675.32086-.71564-.14761-.28257-.5333-.13274-.81192-.13322q-6.90436-.012-13.80877-.00793c-.6789-.00051-.74-.07716-.50821-.62421a26.91817,26.91817,0,0,0,2.07835-9.84414c.01684-.59765.06118-.63069.65618-.43761q6.48784,2.10547,12.97572,4.21084a1.10307,1.10307,0,0,1,.77316.76348q.84654,2.44271,1.74176,4.86834a1.29523,1.29523,0,0,1-.12284,1.23591C85.92923,64.01,83.81931,67.55567,81.6909,71.0902a2.29759,2.29759,0,0,0-.34519,1.24488c.01153,2.73237.00508,5.46481.00583,8.19722.00027.91246.00551.91858.9217.9188q6.84937.00137,13.69874.00043Q100.3182,81.45144,104.66437,81.44932Z"/>
    <path class="cls-1" d="M10.72584,89.99952q2.47559-.0174,4.95135.00043c.425.00323.58722-.16216.58387-.58657q-.01956-2.47559-.00008-4.95133c.00337-.42667-.16425-.58711-.58681-.58394q-2.47557.01845-4.95135.00048c-.42241-.003-.59835.16474-.59141.58668.01358.825.004,1.65039.004,2.47564s.00982,1.65066-.00406,2.47564C10.12422,89.8415,10.30606,90.00248,10.72584,89.99952Z"/>
    <path class="cls-1" d="M41.30116,37.41364c1.29139-.45614,1.29139-.45614,1.27961-1.85875-.00613-.73077-.04552-.76075-.75876-.57723a14.89557,14.89557,0,0,0,3.90025,29.30316,12.47746,12.47746,0,0,0,3.2167-.32652,14.92827,14.92827,0,0,0,.38426-29.01441c-.58446-.142-.64525-.09817-.65623.48709-.00481.25662.02358.51627-.00627.76948-.06932.588.15521.864.74881,1.04463a12.75073,12.75073,0,1,1-8.10837.17255Z"/>
  </g>
</svg>
