<svg id="Camada_1" data-name="Camada 1" xmlns="http://www.w3.org/2000/svg" viewBox="0 0 95 90">
  <defs>
    <style>
      .cls-1 {
        fill: #323232;
      }
    </style>
  </defs>
  <title>panelIconPrancheta 32</title>
  <g>
    <path class="cls-1" d="M86.41957,85.78687c-.08151,1.57825-.14208,2.75119-.21463,4.15617H77.409l-.2667-3.8396H17.92936L17.653,90H8.87223l-.247-4.09724H1.65235V46.75358c4.049,0,8.10413-.11339,12.14392.08538.92763.04565,1.83266,1.12545,2.6958,1.79657,2.35,1.82724,4.67208,3.69046,7.17462,5.67368q6.21782-3.35941,12.47917-6.74433a40.1628,40.1628,0,0,1,4.71154-2.5451C48.055,42.29942,52.32572,37.13914,55.33372,30.088c4.03367-9.45553,9.0074-18.51014,13.58257-27.73438C69.28594,1.60829,69.69441.88227,70.16308,0l3.922,1.93461c-.27594.69809-.47173,1.32009-.75745,1.89759C67.13977,16.33934,60.96861,28.85494,54.706,41.32456a22.96584,22.96584,0,0,1-3.01149,3.69334l2.23973,6.97691L89.7357,39.46542c.65087,1.96526,1.25381,3.78583,1.94557,5.87458-3.23858,1.15491-6.32465,2.27233-9.42212,3.35723C64.59934,54.88259,46.94967,61.09748,29.25786,67.19c-2.05081.70622-2.80362,1.66088-2.64379,3.79671.18893,2.52476.04436,5.07449.04436,7.86542H93.34765v6.93479Zm-63.43-6.95574c0-3.75927-.43775-7.60994.09641-11.32071.94377-6.5562-1.44529-10.82495-6.82354-14.62308C12.60815,50.30664,9.23239,50.25005,5.32,50.58089V78.83113ZM46.511,47.17958c-6.0401,3.29174-11.79772,6.55328-17.68108,9.56957-2.09564,1.07438-2.60874,2.3871-1.85339,4.69459l21.69261-7.60389Z"/>
    <path class="cls-1" d="M71.89982,60.465l1.9075,2.75733-2.86883,3.42354c4.718,4.93864,4.61636,6.90541-.4717,10.32065l-1.6366-2.24385c.50739-.33837.95781-.5849,1.34573-.90676,1.69556-1.40681,2.18009-2.60243-.155-4.05693-2.07349-1.29154-2.221-3.403-.78951-5.54274C70.02092,63.03613,70.87564,61.89967,71.89982,60.465Z"/>
    <path class="cls-1" d="M51.80835,77.10345l-1.714-2.57449a10.42379,10.42379,0,0,0,2.36441-1.834,2.12889,2.12889,0,0,0-.10256-2.05851c-3.75277-3.81776-3.44862-6.2304,1.46087-9.25768l1.50265,2.11581c-.78431.6947-1.52047,1.26561-2.1579,1.93109-.87232.91072-.75467,1.64516.2897,2.50794,3.15832,2.60919,3.17721,4.915.198,7.71751C53.16279,76.109,52.59869,76.48467,51.80835,77.10345Z"/>
    <path class="cls-1" d="M61.03635,76.98555l-1.35018-2.08682c.45441-.42294.80656-.77206,1.18094-1.09548,1.66856-1.44139,2.071-2.59656-.20314-4.05636-2.24117-1.43867-2.288-3.62448-.45106-5.91584a31.13374,31.13374,0,0,1,2.78184-2.70485l1.51482,2.17292a12.38684,12.38684,0,0,0-2.071,2.29639,2.25883,2.25883,0,0,0,.11,2.07874C66.30626,71.50766,66.026,73.74127,61.03635,76.98555Z"/>
  </g>
</svg>
