<svg id="Camada_1" data-name="Camada 1" xmlns="http://www.w3.org/2000/svg" viewBox="0 0 70 90">
  <defs>
    <style>
      .cls-1 {
        fill: #323232;
      }
    </style>
  </defs>
  <title>panelIconPrancheta 34</title>
  <g>
    <path class="cls-1" d="M1.13834.01783h9.40093c12.61247,0,25.226-.07762,37.83619.09089a8.30736,8.30736,0,0,1,5.085,2.02767c4.751,4.39871,9.26874,9.054,13.77226,13.71137A5.31329,5.31329,0,0,1,68.825,19.05468c.0688,23.37194.02575,46.7442-.007,70.11639A3.20436,3.20436,0,0,1,68.49872,90H1.13834ZM5.1102,85.84514H64.47727V20.31367c-4.32228,0-8.35882-.08943-12.38892.03269-2.52049.07638-3.57073-.86186-3.49356-3.43423.12392-4.13053.03323-8.26751.03323-12.47363H5.1102ZM53.01749,8.01934v7.901H60.8231Z"/>
    <g>
      <path class="cls-1" d="M35.36688,58.0253H29.91536l-1.42594-4.13813H20.91425L19.48831,58.0253H14.169l7.56093-20.46964h6.076Zm-8.14677-7.89114L24.70183,42.801l-2.51827,7.33311Z"/>
      <path class="cls-1" d="M54.59976,53.31014H51.80891v4.77008H46.76354V53.31014H36.85181V49.43306l9.5822-11.8774h5.3749v12.015h2.79085ZM46.76354,49.5707V42.16029L40.80348,49.5707Z"/>
    </g>
  </g>
</svg>
