<svg id="Camada_1" data-name="Camada 1" xmlns="http://www.w3.org/2000/svg" viewBox="0 0 70 90">
  <defs>
    <style>
      .cls-1 {
        fill: #323232;
      }
    </style>
  </defs>
  <title>panelIconPrancheta 33</title>
  <g>
    <path class="cls-1" d="M1.13834.01783h9.40093c12.61247,0,25.226-.07762,37.83619.09089a8.30736,8.30736,0,0,1,5.085,2.02767c4.751,4.39871,9.26874,9.054,13.77226,13.71137A5.31329,5.31329,0,0,1,68.825,19.05468c.0688,23.37194.02575,46.7442-.007,70.11639A3.20436,3.20436,0,0,1,68.49872,90H1.13834ZM5.1102,85.84514H64.47727V20.31367c-4.32228,0-8.35882-.08943-12.38892.03269-2.52049.07638-3.57073-.86186-3.49356-3.43423.12392-4.13053.03323-8.26751.03323-12.47363H5.1102ZM53.01749,8.01934v7.901H60.8231Z"/>
    <g>
      <path class="cls-1" d="M35.36688,58.0253H29.91536l-1.42594-4.13813H20.91425L19.48831,58.0253H14.169l7.56093-20.46964h6.076Zm-8.14677-7.89114L24.70183,42.801l-2.51827,7.33311Z"/>
      <path class="cls-1" d="M40.12312,53.17715a10.94147,10.94147,0,0,0,4.61246,1.222c2.41253,0,3.63453-1.16071,3.63453-2.65716,0-1.95476-1.95476-2.841-4.00118-2.841h-1.894V45.5718h1.80235c1.55774-.03037,3.54341-.61073,3.54341-2.2905,0-1.19108-.97738-2.0768-2.93214-2.0768a9.06267,9.06267,0,0,0-4.15414,1.19108l-.947-3.35954a12.44383,12.44383,0,0,1,6.13928-1.497c4.2458,0,6.59759,2.22975,6.59759,4.9482,0,2.10717-1.19162,3.75711-3.63507,4.61191v.06129a4.93289,4.93289,0,0,1,4.30655,4.82562c0,3.51249-3.08456,6.078-8.12441,6.078a11.72579,11.72579,0,0,1-5.89466-1.40478Z"/>
    </g>
  </g>
</svg>
