<svg id="Camada_1" data-name="Camada 1" xmlns="http://www.w3.org/2000/svg" viewBox="0 0 120 90">
  <defs>
    <style>
      .cls-1 {
        fill: #fff;
      }
    </style>
  </defs>
  <title>psLogo</title>
  <g>
    <path class="cls-1" d="M20.02722,59.45673a4.16343,4.16343,0,0,0-.13286,1.59213q-.00819,11.30743-.00452,22.61486c0,.392.014.78626-.02237,1.17543a.98207.98207,0,0,1-.92515.94069,7.03742,7.03742,0,0,1-.92051.02754q-6.719.002-13.438,0a8.83932,8.83932,0,0,1-.92129-.02163.81569.81569,0,0,1-.84228-.82628c-.03476-.34576-.03092-.69611-.03093-1.0444q-.00181-39.60864.001-79.21731c0-.39134.01428-.78418.05166-1.17352a.56372.56372,0,0,1,.508-.52176,5.73831,5.73831,0,0,1,.78589-.0635q4.34607-.09692,8.69231-.18535c4.39037-.08317,8.781-.15308,13.17134-.23777A70.2683,70.2683,0,0,1,36.381,3.03443,35.88869,35.88869,0,0,1,48.65963,6.72076a25.06043,25.06043,0,0,1,12.19,13.35845,27.30408,27.30408,0,0,1,1.81946,8.65954,34.96562,34.96562,0,0,1-.96837,10.50082A24.77184,24.77184,0,0,1,50.55968,54.22088a30.74436,30.74436,0,0,1-9.72107,3.88178A51.741,51.741,0,0,1,33.16689,59.23c-3.51105.28205-7.01945.20149-10.53151.15074A9.43145,9.43145,0,0,0,20.02722,59.45673Zm-.03407-41.241A4.60265,4.60265,0,0,0,19.8935,19.731q-.00624,11.56422-.00264,23.12847c0,.30488-.01634.61157.01164.91407A6.48032,6.48032,0,0,0,20.06,44.527c.356.04137.65729.10248.95951.10731,2.1939.03507,4.38837.09857,6.58189.07671a29.552,29.552,0,0,0,9.41778-1.63922,14.02783,14.02783,0,0,0,5.30384-3.305,9.63558,9.63558,0,0,0,2.64639-4.5923,16.068,16.068,0,0,0,.36393-6.60488,11.43565,11.43565,0,0,0-7.65192-9.35138A19.33379,19.33379,0,0,0,30.886,17.82124c-3.24722-.02534-6.49516.03174-9.7427.06232A1.57307,1.57307,0,0,0,19.99315,18.21573Z"/>
    <path class="cls-1" d="M71.148,75.61593c.0005-2.09185-.01038-4.1838.00458-6.27555.00895-1.25346.33077-1.46187,1.38236-.86255a37.62661,37.62661,0,0,0,12.77076,4.29392c1.77168.28717,3.57489.40879,5.369.52577a17.82359,17.82359,0,0,0,5.22976-.45678A8.9753,8.9753,0,0,0,98.11014,72.02a3.4673,3.4673,0,0,0,.9795-5.54394,6.83349,6.83349,0,0,0-2.04306-1.6294c-1.16672-.60237-2.33917-1.20112-3.54479-1.72-1.327-.57115-2.68807-1.06686-4.04524-1.56613a47.32224,47.32224,0,0,1-10.26647-5.269,19.21888,19.21888,0,0,1-5.033-4.93395,16.54658,16.54658,0,0,1-2.88343-11.66806c.77674-6.904,4.53355-11.72909,10.70341-14.81271a27.23049,27.23049,0,0,1,8.93458-2.544,55.44808,55.44808,0,0,1,9.99719-.1673,40.12388,40.12388,0,0,1,8.58,1.25053c1.053.295,2.07488.69847,3.11532,1.03936a1.481,1.481,0,0,1,1.0811,1.47264c.01329.261.01468.52273.01477.78413q.00159,5.68725-.00107,11.37451a5.72191,5.72191,0,0,1-.05778,1.04077.82917.82917,0,0,1-1.00949.61133,5.09156,5.09156,0,0,1-.84945-.34863,34.489,34.489,0,0,0-10.44557-3.00569,44.83493,44.83493,0,0,0-5.7719-.44871,18.51255,18.51255,0,0,0-4.43038.55549,4.84855,4.84855,0,0,0-2.00278.94884,3.53558,3.53558,0,0,0-.44346,5.12431,8.52188,8.52188,0,0,0,2.47936,1.91914,48.49656,48.49656,0,0,0,6.71528,3.00021A55.42638,55.42638,0,0,1,108.88,52.76987a20.23737,20.23737,0,0,1,3.49968,2.75785,15.5814,15.5814,0,0,1,4.71229,9.82845,19.06142,19.06142,0,0,1-1.09743,9.00137,18.66113,18.66113,0,0,1-9.737,10.1704,30.26986,30.26986,0,0,1-9.85438,2.66947,53.62345,53.62345,0,0,1-9.34049.18289,43.04132,43.04132,0,0,1-13.59752-2.81816c-.40626-.164-.806-.34394-1.209-.51581a1.7003,1.7003,0,0,1-1.10118-1.6319c-.00958-.30483-.00715-.61007-.00724-.91512Q71.14691,78.55763,71.148,75.61593Z"/>
  </g>
</svg>
