<svg id="Camada_1" data-name="Camada 1" xmlns="http://www.w3.org/2000/svg" viewBox="0 0 120 90">
  <defs>
    <style>
      .cls-1 {
        fill: #fff;
      }

      .cls-2 {
        fill: #3f97b5;
      }
    </style>
  </defs>
  <title>silhouetteLogo</title>
  <g>
    <circle class="cls-1" cx="60" cy="45" r="42.5"/>
    <g>
      <path class="cls-2" d="M38.99324,73.95324c1.866.11215,3.54935.22418,5.23392.31269,7.08842.37242,13.80061-.86873,19.63956-5.12039a15.47719,15.47719,0,0,0,6.77016-14.38482,10.73342,10.73342,0,0,0-6.08273-8.94561,27.87468,27.87468,0,0,0-9.41573-2.80953,98.42,98.42,0,0,1-14.83918-2.87137,11.21214,11.21214,0,0,1-5.38487-3.10507c-2.28167-2.61351-2.432-7.27142-.35315-10.45711a13.72367,13.72367,0,0,1,9.12351-5.88314,24.21619,24.21619,0,0,1,10.97133.23893,13.29621,13.29621,0,0,1,6.9537,4.39572,4.97252,4.97252,0,0,0,.60512.63048.68169.68169,0,0,0,1.09131-.12229,39.13709,39.13709,0,0,0,2.74118-3.71553c.30412-.4684.16365-.64971-.30515-.772-4.72429-1.23193-9.419-2.5491-14.35263-2.77722a41.5682,41.5682,0,0,0-11.23112.84493,23.114,23.114,0,0,0-7.14676,2.84544c-.31311.19464-.63379.3771-.984.58479.56529-2.11645,7.69137-7.923,12.65942-10.29675A35.894,35.894,0,0,1,77.70188,76.236C63.9488,84.001,48.15818,81.13723,38.99324,73.95324Z"/>
      <path class="cls-2" d="M25.56211,35.54666a20.47678,20.47678,0,0,0,.83144,3.30321c1.36966,3.32082,4.01751,5.2719,7.17308,6.63739a42.01841,42.01841,0,0,0,12.06745,3.06933A45.35316,45.35316,0,0,1,56.16915,50.5622c2.90218,1.05646,5.33542,2.78,6.19646,5.9304a11.27335,11.27335,0,0,1-1.60876,9.582,13.69543,13.69543,0,0,1-8.39348,5.65191,23.44608,23.44608,0,0,1-16.59492-1.57418,13.0199,13.0199,0,0,1-5.10089-4.43016,36.12208,36.12208,0,0,1-6.50822-22.852,33.4525,33.4525,0,0,1,1.083-6.8294C25.28744,35.86931,25.28357,35.66285,25.56211,35.54666Z"/>
    </g>
  </g>
</svg>
