<svg id="Camada_1" data-name="Camada 1" xmlns="http://www.w3.org/2000/svg" viewBox="0 0 148 90">
  <defs>
    <style>
      .cls-1 {
        fill: #323232;
      }

      .cls-2 {
        fill: #646464;
      }
    </style>
  </defs>
  <title>panelIconPrancheta 28</title>
  <g>
    <path class="cls-1" d="M144.76937,57.9655c-11.30892,9.90935-22.27171,6.50764-29.8352-8.91546a5.90562,5.90562,0,0,0-4.61074-3.05268C75.3113,45.8258,40.29916,45.86721,5.2849,45.89088a37.8389,37.8389,0,0,0-3.9484.46145c0,5.53149-.00428,10.79676.00427,16.05611C1.35786,75.46513,5.0691,80.87238,14.36109,80.8073c2.81387-.01775,4.64065.9939,6.12343,4.5021,2.70919,6.42482,12.87076,6.058,16.10554.071,1.12812-2.09428,3.38007-4.27138,5.13634-4.295,21.71192-.284,43.43239-.2189,65.14859-.10058,1.32041.00592,3.51254.82233,3.81593,1.98779,2.1259,8.24695,6.97593,6.45439,11.42643,6.691,2.77328.142,4.89918-.57977,6.00379-4.5021,1.00419-3.56145,3.01685-4.34828,5.67475-4.3542,10.65513-.01775,15.45175-9.22309,12.49045-23.96585C145.75219,57.23191,145.23941,57.55138,144.76937,57.9655Z"/>
    <polygon class="cls-1" points="147.148 66.192 147.148 45.295 144.057 40.685 136.496 42.549 127.135 50.618 117.452 47.39 110.996 47.713 107.769 54.169 118.743 66.112 135.85 70.953 147.148 66.192"/>
    <g>
      <path class="cls-1" d="M146.424,44.82827c-7.06421-11.63782-13.45983-22.37092-20.08334-32.84923-.90925-1.438-2.90712-2.07728-4.46048-2.22624-13.82057-1.3395-27.657-2.48331-41.48885-3.692C74.173,5.51742,67.95514,4.955,60.43705,4.28661c.01361.01938.02167.03483.03528.05421-.11533-.04521-.23633-.06281-.35166-.108l-7.3426-.68033c-.28768.0347-.58039.04636-.8643.09835-.03993-.06482-.07986-.12964-.12194-.19354L16.47235.15945c-.0184.00157-.03555.00889-.054.01046-.212-.048-.4345-.04744-.64916-.07541L14.78084.00023a12.08883,12.08883,0,0,0-4.59716,1c-4.7849,1.943-7.354,6.90714-7.89561,13.53706-.52914,6.42937-.84021,12.89156-1.29722,20.134,1.924.31183,3.41665.64416,4.92173.776,33.95326,3.01856,67.902,6.10206,101.86816,8.901,4.272.35442,7.63615,1.63819,10.25426,6.4588,2.02991,3.73671,4.674,6.85212,7.38656,10.73181C130.08213,50.303,137.10964,45.72065,146.424,44.82827Z"/>
      <g>
        <path class="cls-2" d="M24.56557,19.80667a1.5428,1.5428,0,0,1,.48348,1.34057,2.47715,2.47715,0,0,1-.28444,1.02251,2.1457,2.1457,0,0,1-.7259.782,3.26471,3.26471,0,0,1-1.07572.4444,5.20589,5.20589,0,0,1-1.46721.08537,7.99029,7.99029,0,0,1-1.66853-.25865,6.35688,6.35688,0,0,1-1.11734-.41537l.10869-1.72834.2061.013a5.05108,5.05108,0,0,0,1.05629.54438,3.84686,3.84686,0,0,0,1.14205.27339,4.84716,4.84716,0,0,0,.6691-.00831,1.41182,1.41182,0,0,0,.62169-.1813,1.06,1.06,0,0,0,.33192-.30031,1.0374,1.0374,0,0,0,.15041-.53415.80192.80192,0,0,0-.12528-.54131.8653.8653,0,0,0-.40074-.29294,2.193,2.193,0,0,0-.61776-.132q-.36418-.03054-.67611-.05016l-.43348-.02726.08842-1.40589.44945.02826q.41218.02592.731.0195a1.74453,1.74453,0,0,0,.54658-.08778.79814.79814,0,0,0,.36587-.24524.8553.8553,0,0,0,.14684-.48144.5805.5805,0,0,0-.09732-.39092.85846.85846,0,0,0-.29229-.249,1.57613,1.57613,0,0,0-.47824-.15732,4.34493,4.34493,0,0,0-.47887-.06219,3.82731,3.82731,0,0,0-1.08893.10407,4.97356,4.97356,0,0,0-1.15687.42352l-.1957-.0123.10739-1.70756a7.64935,7.64935,0,0,1,1.19986-.2615,7.17449,7.17449,0,0,1,1.52172-.06565,5.85961,5.85961,0,0,1,1.29712.21137,3.24517,3.24517,0,0,1,.90323.40445,1.7586,1.7586,0,0,1,.60536.66922,1.72218,1.72218,0,0,1,.1569.88026,1.84261,1.84261,0,0,1-.48074,1.145,1.8082,1.8082,0,0,1-1.11418.59061l-.00466.074a2.752,2.752,0,0,1,.56157.18394A1.81209,1.81209,0,0,1,24.56557,19.80667Z"/>
        <path class="cls-2" d="M34.33183,20.18163a3.8739,3.8739,0,0,1-.62577,1.9376,3.67275,3.67275,0,0,1-1.35241,1.25464,3.89892,3.89892,0,0,1-1.29376.40676,8.4111,8.4111,0,0,1-1.6366.035l-2.77477-.1745.4949-7.86957,2.85413.1795a7.47075,7.47075,0,0,1,1.6495.26559,3.86785,3.86785,0,0,1,1.14446.53059,3.58392,3.58392,0,0,1,1.19741,1.42058A4.03471,4.03471,0,0,1,34.33183,20.18163ZM32.23462,20.034a2.897,2.897,0,0,0-.199-1.34711,1.97873,1.97873,0,0,0-.84153-.92026,2.32716,2.32716,0,0,0-.6239-.24894,6.35144,6.35144,0,0,0-.9768-.11691l-.51257-.03224-.30978,4.926.51257.03223a6.11114,6.11114,0,0,0,1.06658.0004,2.33086,2.33086,0,0,0,.67573-.19877,1.96164,1.96164,0,0,0,.86732-.797A2.99412,2.99412,0,0,0,32.23462,20.034Z"/>
      </g>
      <polygon class="cls-1" points="23.684 36.513 0.852 35.077 1.282 29.879 24.052 31.311 23.684 36.513"/>
    </g>
    <g>
      <polygon class="cls-2" points="1.3 44.347 1.251 44.347 1.251 44.411 1.3 44.347"/>
      <polygon class="cls-2" points="1.251 44.485 1.251 46.422 145.211 45.778 145.211 45.109 145 44.808 1.251 44.485"/>
    </g>
    <rect class="cls-1" x="108.73036" y="46.08486" width="16.21076" height="3.24215"/>
  </g>
</svg>
