<svg id="Camada_1" data-name="Camada 1" xmlns="http://www.w3.org/2000/svg" viewBox="0 0 90 90">
  <defs>
    <style>
      .cls-1 {
        fill: #fff;
      }
    </style>
  </defs>
  <title>panelIcon</title>
  <g>
    <path class="cls-1" d="M88.95772,35.375q-16.40139-.00616-32.80277-.01934c-.41331-.00049-1.01791.2112-1.19592-.18471-.18961-.42173.4087-.676.69248-.96123Q62.01207,27.816,68.40682,21.45646c.51039-.506.51653-.7806-.01522-1.27286a33.62115,33.62115,0,0,0-19.16826-9.01954A34.11588,34.11588,0,1,0,78.39169,51.92372a41.95919,41.95919,0,0,0,.71109-6.2178c.02726-.46375.1198-.76619.67122-.76141,3.06117.02653,6.12247.03852,9.18372.05549v3.60938c-.20872,1.44073-.37673,2.88873-.63239,4.32108A44.20332,44.20332,0,0,1,55.3392,87.86568c-2.22944.53068-4.49155.818-6.7527,1.13432H41.37122c-1.38248-.20393-2.77017-.37777-4.14665-.61636A44.13651,44.13651,0,0,1,2.30134,56.03255,63.59592,63.59592,0,0,1,1,48.60938V41.39063c.272-1.749.39066-3.52193.804-5.24884Q8.07013,9.96445,33.87238,2.335A48.21058,48.21058,0,0,1,41.37122,1H48.5865a3.48668,3.48668,0,0,0,.49814.11248,41.93259,41.93259,0,0,1,11.904,2.80131A43.63452,43.63452,0,0,1,75.429,13.166c.35077.33534.62358.638,1.1205.13573Q82.65118,7.13449,88.78593,1c.35515.15466.16118.46468.16141.68751Q88.96507,18.53125,88.95772,35.375Z"/>
    <path class="cls-1" d="M39.97315,37.72087c0-3.75087.02152-7.502-.01611-11.25246-.00867-.8641.26349-1.15444,1.13236-1.12695q2.70177.08548,5.40793.00077c.84981-.02552,1.07384.30254,1.07084,1.10023-.02268,6.01278.009,12.02583-.03413,18.03839a1.89733,1.89733,0,0,0,1.09468,1.89108c5.08891,2.97554,10.14056,6.01481,15.225,8.998.694.40721.85376.72147.3875,1.43886-1.01337,1.55911-1.95784,3.16441-2.89005,4.77425-.33582.5799-.64983.648-1.22231.30664q-9.69676-5.7813-19.42032-11.51755a1.40811,1.40811,0,0,1-.7457-1.39871C39.98366,45.22268,39.97312,41.47175,39.97315,37.72087Z"/>
  </g>
</svg>
