<svg id="Camada_1" data-name="Camada 1" xmlns="http://www.w3.org/2000/svg" viewBox="0 0 85 90">
  <defs>
    <style>
      .cls-1 {
        fill: #fff;
      }
    </style>
  </defs>
  <title>panelIcon</title>
  <path class="cls-1" d="M.99716,3.64519,16.73158,5.92111V0H68.43676V5.92567L83.966,3.68433c0,2.61468.115,5.14167-.02342,7.6547a103.573,103.573,0,0,1-1.995,16.71759c-.08223.37207-.17555.74172-.25483,1.11438a12.35989,12.35989,0,0,1-4.6294,7.40119,50.94416,50.94416,0,0,1-14.31683,8.33092,2.19978,2.19978,0,0,0-1.04738.88645A24.61257,24.61257,0,0,1,48.5139,56.71272c-.31848.11337-.7527.5901-.73132.86666A29.60456,29.60456,0,0,0,50.999,69.85377a19.2243,19.2243,0,0,0,5.76639,6.19263c1.429,1.0399,2.88515,2.06039,4.20324,3.23127C64.1525,82.106,65.05516,85.882,65.26481,90H19.95513c.21441-4.129,1.13089-7.90065,4.30961-10.74106a28.78613,28.78613,0,0,1,3.53961-2.72772c5.45826-3.52347,8.174-8.70306,9.16717-14.94563.20141-1.266.31284-2.54616.49906-3.8149a.83152.83152,0,0,0-.67241-1.05819,24.374,24.374,0,0,1-13.337-11.02921,2.03338,2.03338,0,0,0-1.00233-.78971A48.85882,48.85882,0,0,1,7.05161,35.59379a8.40415,8.40415,0,0,1-2.96184-4.65392c-.82028-3.96462-1.709-7.935-2.16908-11.949-.5325-4.64549-.63618-9.34023-.9205-14.01392C.97727,4.60013.99716,4.22069.99716,3.64519ZM65.25458,37.78351c1.40924-.59409,2.66353-1.08661,3.88742-1.64571a12.66192,12.66192,0,0,0,7.19922-7.49494,45.15451,45.15451,0,0,0,2.25544-17.72845,2.559,2.559,0,0,0-.16227-.53029c-.34145.03821-.646.05767-.94524.10806-2.70023.45466-5.39394.9529-8.1023,1.35174-.90309.133-1.1712.47406-1.1871,1.38423a112.10523,112.10523,0,0,1-1.45984,17.50246C66.3395,33.00715,65.79141,35.2577,65.25458,37.78351Zm-45.30622-.086c-.51958-2.44795-1.06717-4.69984-1.46738-6.97762a113.24548,113.24548,0,0,1-1.46348-17.6065c-.01483-.82578-.27032-1.16126-1.09069-1.25248-1.20388-.13383-2.39478-.38429-3.5913-.58445-1.83633-.3072-3.67275-.61387-5.55009-.9276a4.098,4.098,0,0,0-.1708.67754A43.71356,43.71356,0,0,0,8.87294,28.5445a11.378,11.378,0,0,0,2.81041,4.6821A22.35112,22.35112,0,0,0,19.94836,37.69748Z"/>
</svg>
