<svg id="Camada_1" data-name="Camada 1" xmlns="http://www.w3.org/2000/svg" viewBox="0 0 90 89.99991">
  <defs>
    <style>
      .cls-1 {
        fill: #f5eb5f;
      }
    </style>
  </defs>
  <title>panelIcon (15)</title>
  <g>
    <path class="cls-1" d="M1,44.3092a3.57723,3.57723,0,0,1,3.93691-2.461c2.40217.0917,4.81062.00416,7.21546.04574a2.97745,2.97745,0,0,1,2.815,2.13433,2.92137,2.92137,0,0,1-.95465,3.32057,3.78661,3.78661,0,0,1-1.94693.7326c-2.6607.08182-5.32554.05089-7.98856.02777C2.44891,48.09505,1.56912,47.0726,1,45.6843Z"/>
    <path class="cls-1" d="M44.14372,88.99991a5.46847,5.46847,0,0,1-3.02842-2.07478c-.17818-.283-.32308-.58691-.53924-.984H49.347c-.55315,1.74835-1.92716,2.50561-3.48436,3.05882Z"/>
    <path class="cls-1" d="M54.44186,73.2328h-18.877c0-.50225-.008-.97817.00123-1.45376A16.104,16.104,0,0,0,30.78,59.6766a21.009,21.009,0,0,1-5.95218-11.55274,20.40336,20.40336,0,0,1,40.13845-7.28327,19.5146,19.5146,0,0,1-4.87106,17.83867c-1.88481,2.09836-3.751,4.16841-4.69832,6.89587a16.39628,16.39628,0,0,0-.95588,5.55314C54.44651,71.81029,54.44186,72.49238,54.44186,73.2328Z"/>
    <path class="cls-1" d="M52.84545,76.48749c0,1.616.055,3.18447-.0207,4.74659a1.442,1.442,0,0,1-1.60029,1.453q-6.22306.03805-12.44646-.00058a1.44222,1.44222,0,0,1-1.59759-1.45619c-.07511-1.562-.02053-3.13016-.02053-4.74285Z"/>
    <path class="cls-1" d="M11.96759,74.41289a7.50015,7.50015,0,0,1,1.02357-1.80039c1.74125-1.85721,3.56221-3.64135,5.38826-5.41684a3.13207,3.13207,0,1,1,4.43338,4.41541q-2.66136,2.74083-5.403,5.40326a3.04175,3.04175,0,0,1-3.56138.65835C12.61805,77.134,12.07238,76.12423,11.96759,74.41289Z"/>
    <path class="cls-1" d="M78.03634,74.57186a3.257,3.257,0,0,1-1.78385,3.06072,2.816,2.816,0,0,1-3.29961-.34753c-2.10337-1.97784-4.15314-4.01992-6.11757-6.13536a3.079,3.079,0,0,1,4.30352-4.33336c2.1385,1.98172,4.18636,4.06529,6.19664,6.17813A4.5547,4.5547,0,0,1,78.03634,74.57186Z"/>
    <path class="cls-1" d="M48.12559,8.09157c.00054,1.28895.0257,2.57851-.00545,3.86671a3.115,3.115,0,1,1-6.22972.03028q-.05431-3.90906-.002-7.81938A3.11533,3.11533,0,1,1,48.1185,4.139C48.15205,5.4557,48.12506,6.774,48.12559,8.09157Z"/>
    <path class="cls-1" d="M11.97111,15.43371a3.31732,3.31732,0,0,1,1.76309-3.08236,2.75726,2.75726,0,0,1,3.29291.324c2.10569,1.97776,4.15642,4.0206,6.12891,6.131a2.96187,2.96187,0,0,1-.20737,4.06278,3.03725,3.03725,0,0,1-4.13945.26808c-2.11635-1.96547-4.142-4.03269-6.13056-6.12849A4.61539,4.61539,0,0,1,11.97111,15.43371Z"/>
    <path class="cls-1" d="M78.04773,15.50856a7.86136,7.86136,0,0,1-1.06165,1.89964c-1.7358,1.86049-3.55967,3.64057-5.3853,5.41491a3.16014,3.16014,0,0,1-4.54369.0455,3.08983,3.08983,0,0,1,.11278-4.4636q2.66472-2.73538,5.399-5.40271a3.01683,3.01683,0,0,1,3.54344-.71151C77.34578,12.82742,77.89158,13.83073,78.04773,15.50856Z"/>
    <path class="cls-1" d="M81.88557,48.1193c-1.28895-.00041-2.57856.026-3.86668-.00675a3.115,3.115,0,1,1,.0152-6.22974q3.90912-.05175,7.81939.00063a3.1153,3.1153,0,1,1-.01527,6.2301C84.52139,48.14543,83.20317,48.11972,81.88557,48.1193Z"/>
  </g>
</svg>
