<svg id="Camada_1" data-name="Camada 1" xmlns="http://www.w3.org/2000/svg" viewBox="0 0 78 90">
  <defs>
    <style>
      .cls-1 {
        fill: #fff;
      }
    </style>
  </defs>
  <title>panelIcon</title>
  <g>
    <path class="cls-1" d="M34.48692,6.99461V0L52.48919,11.24647,34.507,22.49118V16.22724c-9.83486,1.23643-20.32738,8.90291-23.73194,21.03121a29.47617,29.47617,0,0,0,16.8856,34.78637c-.20979.14768-.391.28829-.58436.40937-2.50591,1.56887-5.01821,3.12762-7.51617,4.709a.91063.91063,0,0,1-1.163.02095c-9.04-5.97595-14.91778-14.20493-16.9093-24.85842-2.40792-12.881,1.00376-24.24759,10.01308-33.81511A37.61623,37.61623,0,0,1,30.97631,7.61425c.56916-.13038,1.15623-.18086,1.73271-.28148C33.27793,7.23346,33.844,7.11765,34.48692,6.99461Z"/>
    <path class="cls-1" d="M43.468,83.00227V90L25.48835,78.76314l18.00094-11.254v6.2975a29.19692,29.19692,0,0,0,6.80457-55.79927c.20257-.15408.3664-.29995.54964-.41487,2.52954-1.58639,5.06835-3.15816,7.587-4.76165a.91146.91146,0,0,1,1.16259.01175c9.01069,5.95853,14.80332,14.17328,16.89375,24.777A36.98106,36.98106,0,0,1,70.802,66.12729,37.47421,37.47421,0,0,1,50.51552,81.41368c-1.93859.62548-3.97981.93339-5.97464,1.3837C44.2286,82.86788,43.91176,82.91819,43.468,83.00227Z"/>
    <path class="cls-1" d="M41.14236,64.64373H36.46841V60.12945a20.55131,20.55131,0,0,1-8.213-2.12607l1.384-5.40977c1.8207.56181,3.57213,1.19234,5.37036,1.63095a9.18823,9.18823,0,0,0,5.11936-.08714A2.77739,2.77739,0,0,0,42.284,51.84134a2.58928,2.58928,0,0,0-1.36691-2.74441,46.84366,46.84366,0,0,0-4.69693-2.13341,15.83715,15.83715,0,0,1-5.74346-3.44635c-2.75553-2.84628-2.50034-7.983.4794-10.78862a9.77184,9.77184,0,0,1,4.65632-2.5076c.82688-.18112,1.16371-.50609,1.09357-1.39284-.08932-1.129-.02164-2.27043-.02164-3.45523h4.70743v4.12691c1.29766.196,2.51639.32139,3.70666.5785a17.46876,17.46876,0,0,1,2.746.88688.881.881,0,0,1,.38.7602c-.36157,1.59481-.79217,3.174-1.20951,4.79174-1.188-.38083-2.32882-.80329-3.50013-1.10853a10.36044,10.36044,0,0,0-5.21079-.2175,4.244,4.244,0,0,0-1.80646.98434,2.00975,2.00975,0,0,0,.15138,3.03746,14.7352,14.7352,0,0,0,2.92708,1.72665c1.79846.844,3.69592,1.48613,5.46131,2.38982a8.19287,8.19287,0,0,1,3.59709,11.63993,9.31444,9.31444,0,0,1-5.977,4.42206c-1.50331.43711-1.51514.39642-1.51514,1.986C41.14235,62.452,41.14236,63.52661,41.14236,64.64373Z"/>
  </g>
</svg>
