<svg id="Camada_1" data-name="Camada 1" xmlns="http://www.w3.org/2000/svg" viewBox="0 0 105 90">
  <defs>
    <style>
      .cls-1 {
        fill: #fff;
      }
    </style>
  </defs>
  <title>panelIconPrancheta 26</title>
  <g>
    <path class="cls-1" d="M52.31369,89.84713c-15.27116,0-30.54357-.106-45.81263.07326-3.90179.04581-5.01973-1.29415-5.00075-5.10008q.19942-39.98531.00541-79.972C1.48905,1.195,2.6188-.00837,6.31432.00581Q52.529.18311,98.74448.00014c3.81663-.01615,4.73593,1.39276,4.72172,4.92836-.10716,26.65713-.1477,53.31549.03332,79.97182.02884,4.24655-1.50333,5.14366-5.37406,5.09806-15.26876-.17987-30.54089-.07378-45.81178-.07378ZM96.205,68.13955a18.356,18.356,0,0,0,.36127-2.21678c.01464-18.34992-.04922-36.70029.07288-55.04942.02323-3.49163-1.70893-3.84222-4.5054-3.8359-26.38634.0597-52.77318.09662-79.159-.03658C9.38541,6.98275,8.41192,8.16518,8.4393,11.627c.14191,17.947.05548,35.89582.09515,53.8439.002.92273-.55,2.1056.86907,2.93194Q21.149,46.121,32.82965,23.97718c.60493-1.14584.74728-2.9956,2.25347-3.05707,1.8187-.07422,1.93277,1.94488,2.54441,3.18881,4.96276,10.09288,9.939,20.18013,14.76659,30.33776,1.14879,2.41713,2.23621,2.92328,4.507,1.32118,4.04634-2.85482,8.33654-5.36831,12.33663-8.28276,2.31884-1.68949,3.80654-1.40972,5.81142.55607C81.82458,54.68452,88.79379,61.13021,96.205,68.13955Z"/>
    <path class="cls-1" d="M80.88351,13.75167c5.53759-.04249,9.50136,3.7103,9.55982,9.051a9.41163,9.41163,0,1,1-18.82053.28683C71.52167,17.70647,75.40212,13.79372,80.88351,13.75167Z"/>
  </g>
</svg>
