<svg width="56" height="32" viewBox="0 0 56 32" fill="none" xmlns="http://www.w3.org/2000/svg">
<path d="M38.5 1H47.5C48.2956 1 49.0587 1.31607 49.6213 1.87868C50.1839 2.44129 50.5 3.20435 50.5 4C50.5 4.79565 50.1839 5.55871 49.6213 6.12132C49.0587 6.68393 48.2956 7 47.5 7H41.5M43 7L44.5 17.5L40 25H16V22C16 20.4087 16.6321 18.8826 17.7574 17.7574C18.8826 16.6321 20.4087 16 22 16H31M34 25L29.5 7H20.5M28 26.5C28 27.6935 27.5259 28.8381 26.682 29.682C25.8381 30.5259 24.6935 31 23.5 31C22.3065 31 21.1619 30.5259 20.318 29.682C19.4741 28.8381 19 27.6935 19 26.5M55 26.5C55 27.6935 54.5259 28.8381 53.682 29.682C52.8381 30.5259 51.6935 31 50.5 31C49.3065 31 48.1619 30.5259 47.318 29.682C46.4741 28.8381 46 27.6935 46 26.5C46 25.3065 46.4741 24.1619 47.318 23.318C48.1619 22.4741 49.3065 22 50.5 22C51.6935 22 52.8381 22.4741 53.682 23.318C54.5259 24.1619 55 25.3065 55 26.5Z" stroke="#828282" stroke-width="2"/>
<path d="M11.7833 24.3247C11.7367 24.0132 11.6667 23.72 11.6667 23.4085V20.6598H2.33333C1.04533 20.6598 0 21.4844 0 22.4923C0 23.5001 1.04533 24.3247 2.33333 24.3247H11.7833Z" fill="#828282"/>
<path d="M11.7833 6H7C5.71667 6 4.66667 6.82461 4.66667 7.83247C4.66667 8.84033 5.71667 9.66495 7 9.66495H11.6667V6.91624C11.6667 6.60472 11.7367 6.31152 11.7833 6Z" fill="#828282"/>
<path d="M4.66667 13.3299C3.38333 13.3299 2.33333 14.1545 2.33333 15.1624C2.33333 16.1702 3.38333 16.9948 4.66667 16.9948H11.6667V13.3299H4.66667Z" fill="#828282"/>
</svg>
