<svg width="35" height="35" viewBox="0 0 35 35" fill="none" xmlns="http://www.w3.org/2000/svg">
<path fill-rule="evenodd" clip-rule="evenodd" d="M18.759 0.512382C18.4308 0.184304 17.9857 0 17.5217 0C17.0576 0 16.6126 0.184304 16.2844 0.512382L4.0343 12.7625L0.53426 16.2626C0.367115 16.424 0.233795 16.6171 0.142079 16.8306C0.0503618 17.0441 0.00208528 17.2737 6.6075e-05 17.5061C-0.00195313 17.7385 0.0423254 17.9689 0.130318 18.184C0.21831 18.3991 0.348255 18.5945 0.512569 18.7588C0.676883 18.9231 0.872275 19.053 1.08735 19.141C1.30242 19.229 1.53286 19.2733 1.76523 19.2713C1.99759 19.2693 2.22723 19.221 2.44074 19.1293C2.65425 19.0375 2.84735 18.9042 3.00879 18.7371L3.52154 18.2243V29.7499C3.52154 31.1423 4.07467 32.4777 5.05925 33.4623C6.04382 34.4469 7.3792 35 8.7716 35H26.2718C27.6642 35 28.9996 34.4469 29.9841 33.4623C30.9687 32.4777 31.5218 31.1423 31.5218 29.7499V18.2243L32.0346 18.7371C32.3647 19.0559 32.8067 19.2322 33.2656 19.2283C33.7244 19.2243 34.1633 19.0402 34.4878 18.7158C34.8123 18.3913 34.9963 17.9524 35.0003 17.4935C35.0043 17.0347 34.8279 16.5926 34.5091 16.2626L18.759 0.512382Z" fill="#828282"/>
</svg>
