<svg width="37" height="37" viewBox="0 0 37 37" fill="none" xmlns="http://www.w3.org/2000/svg">
<path d="M23.6562 31C23.6562 33.7617 22.043 36 19.2812 36H8.96875C6.20703 36 4.59375 33.7617 4.59375 31M24.75 24.75C26.1305 24.75 27.25 26.1492 27.25 27.875C27.25 29.6008 26.1305 31 24.75 31H3.5C2.11953 31 1 29.6008 1 27.875C1 26.1492 2.11953 24.75 3.5 24.75" stroke="#828282" stroke-width="2" stroke-miterlimit="10" stroke-linecap="round"/>
<path d="M3.5 20.0625V20.0453C3.5 15.7484 7.01562 13.5 11.3125 13.5H16.9375C21.2344 13.5 24.75 15.7656 24.75 20.0625V20.0453M17.3281 7.25L17.9094 12.2477M25.375 24.75H12.5086C12.3431 24.7501 12.1843 24.8158 12.0672 24.9328L9.97109 27.0289C9.94207 27.058 9.90761 27.081 9.86967 27.0967C9.83173 27.1125 9.79107 27.1206 9.75 27.1206C9.70893 27.1206 9.66827 27.1125 9.63033 27.0967C9.59239 27.081 9.55793 27.058 9.52891 27.0289L7.43281 24.9328C7.31569 24.8158 7.15695 24.7501 6.99141 24.75H2.875C2.37772 24.75 1.90081 24.5525 1.54917 24.2008C1.19754 23.8492 1 23.3723 1 22.875C1 22.3777 1.19754 21.9008 1.54917 21.5492C1.90081 21.1975 2.37772 21 2.875 21H25.375C25.8723 21 26.3492 21.1975 26.7008 21.5492C27.0525 21.9008 27.25 22.3777 27.25 22.875C27.25 23.3723 27.0525 23.8492 26.7008 24.2008C26.3492 24.5525 25.8723 24.75 25.375 24.75Z" stroke="#828282" stroke-width="2" stroke-miterlimit="10" stroke-linecap="round"/>
<path d="M18.5 36H29.3836C30.0143 36 30.6217 35.7616 31.084 35.3326C31.5464 34.9036 31.8295 34.3157 31.8766 33.6867L34.6719 7.25" stroke="#828282" stroke-width="2" stroke-miterlimit="10" stroke-linecap="round"/>
<path d="M27.25 7.25L28.5 2.25L32.1719 1" stroke="#828282" stroke-width="2" stroke-linecap="round" stroke-linejoin="round"/>
<path d="M16 7.25H36" stroke="#828282" stroke-width="2" stroke-miterlimit="10" stroke-linecap="round"/>
</svg>
