<svg width="16" height="16" viewBox="0 0 16 16" fill="none" xmlns="http://www.w3.org/2000/svg">
<path d="M7.85241 13.0662L4.04585 15.3593C3.87769 15.4664 3.70188 15.5122 3.51843 15.4969C3.33498 15.4816 3.17447 15.4205 3.03688 15.3135C2.89929 15.2065 2.79228 15.0729 2.71584 14.9126C2.63941 14.7524 2.62412 14.5727 2.66998 14.3733L3.67895 10.0393L0.30808 7.12708C0.155206 6.9895 0.0598126 6.83265 0.0218999 6.65654C-0.0160128 6.48043 -0.0047002 6.3086 0.0558379 6.14105C0.116376 5.9735 0.2081 5.83591 0.331011 5.72829C0.453921 5.62066 0.622083 5.55187 0.835495 5.52191L5.28413 5.13208L7.00396 1.05035C7.08039 0.866898 7.19902 0.729311 7.35985 0.637586C7.52067 0.545862 7.68486 0.5 7.85241 0.5C8.01996 0.5 8.18414 0.545862 8.34497 0.637586C8.50579 0.729311 8.62442 0.866898 8.70086 1.05035L10.4207 5.13208L14.8693 5.52191C15.0833 5.55248 15.2515 5.62128 15.3738 5.72829C15.4961 5.8353 15.5878 5.97289 15.649 6.14105C15.7101 6.30921 15.7217 6.48135 15.6838 6.65746C15.6459 6.83357 15.5502 6.99011 15.3967 7.12708L12.0259 10.0393L13.0348 14.3733C13.0807 14.572 13.0654 14.7518 12.989 14.9126C12.9125 15.0735 12.8055 15.2071 12.6679 15.3135C12.5303 15.4199 12.3698 15.481 12.1864 15.4969C12.0029 15.5128 11.8271 15.467 11.659 15.3593L7.85241 13.0662Z" fill="#191919"/>
</svg>
