<svg id="Camada_1" data-name="Camada 1" xmlns="http://www.w3.org/2000/svg" viewBox="0 0 500 350">
  <defs>
    <style>
      .cls-1 {
        fill: #009a3a;
      }

      .cls-2 {
        fill: #fbdd01;
      }

      .cls-3 {
        fill: #032976;
      }

      .cls-4 {
        fill: #032975;
      }

      .cls-5 {
        fill: #e7f0ee;
      }

      .cls-6 {
        fill: #fff;
      }
    </style>
  </defs>
  <title>bandeiraBrasil</title>
  <g>
    <g>
      <path class="cls-1" d="M499.90474,349.90618Q252.2492,349.90624,4.59371,350c-3.7476.00247-4.59682-.8433-4.593-4.59131Q.17461,174.75083,0,4.09281C-.00342.67107.67079-.00225,4.09356,0q245.9063.16264,491.81261,0C499.3285-.00222,500.00338.67043,500,4.09259Q499.82785,176.99925,499.90474,349.90618ZM458.99527,174.60432c-1.10589-1.885-2.87929-2.55456-4.37913-3.51292q-100.1935-64.02127-200.36292-128.08c-3.08651-1.97711-5.23558-2.12-8.40759-.08778Q145.51993,107.20067,45.06379,171.2743c-1.36075.86961-3.05618,1.38838-3.93509,3.25142,1.05316.74169,2.07831,1.5258,3.16213,2.218Q145.33868,241.283,246.33543,305.90181c3.26673,2.09452,5.244,1.22271,7.958-.5143q70.05938-44.83971,140.20019-89.55223Q426.69142,195.27672,458.99527,174.60432Z"/>
      <path class="cls-1" d="M499.99925,4.59128c.00383-3.748-.84538-4.59371-4.593-4.59127Q249.42214.16179,3.438.0937,1.74955,1.0562.09519,2.08214.09543,173.99489,0,345.90739c-.00333,3.42215.67154,4.0948,4.09382,4.0926q245.9063-.16263,491.81258,0c3.42277.00228,4.097-.671,4.09358-4.09276Q499.82744,175.24929,499.99925,4.59128ZM454.93619,178.72573Q354.536,242.88661,254.15438,307.07642c-3.17205,2.03228-5.32105,1.88937-8.4076-.08776Q145.62526,242.855,45.38384,178.90858c-1.49983-.95831-3.27317-1.62787-4.37911-3.51292q32.37718-20.69758,64.50171-41.231Q175.614,89.40037,245.70659,44.61253c2.714-1.737,4.69125-2.60887,7.958-.51429q100.93431,64.71611,202.04459,129.158c1.08381.69217,2.109,1.47634,3.16212,2.218C457.99239,177.33732,456.297,177.85609,454.93619,178.72573Z"/>
      <path class="cls-2" d="M41.00473,175.39569q32.37714-20.6976,64.50167-41.231Q175.614,89.40038,245.70659,44.61249c2.714-1.737,4.69125-2.60882,7.958-.51429q100.93434,64.71612,202.0446,129.158c1.08382.69224,2.109,1.47635,3.16213,2.21805-.87891,1.863-2.57434,2.3818-3.93509,3.25142Q354.53595,242.88658,254.15437,307.07643c-3.172,2.03227-5.32108,1.88934-8.40759-.08778Q145.62527,242.855,45.38386,178.90861C43.884,177.95025,42.11063,177.28069,41.00473,175.39569ZM337.40346,187.931c9.5317-60.321-47.412-112.63781-107.21435-98.21905-28.2309,6.80665-48.73636,23.45894-60.6996,50.18687a38.99406,38.99406,0,0,0-4.817,13.49737,77.94354,77.94354,0,0,0-1.9194,36.10086c8.66191,49.753,52.46855,80.96041,102.54427,73.30557,31.5538-4.82348,61.30662-31.13594,68.93482-60.96369A42.96172,42.96172,0,0,0,337.40346,187.931Z"/>
      <path class="cls-3" d="M334.23212,201.83887c-7.62817,29.82781-37.381,56.14027-68.93479,60.96375-50.07572,7.65484-93.88236-23.55253-102.54427-73.30557a77.94707,77.94707,0,0,1,1.91907-36.1007c1.48268-.17623,2.97113-.31585,4.44789-.5345a201.98586,201.98586,0,0,1,86.33987,5.64252C285.0147,166.99251,311.06217,181.78368,334.23212,201.83887Zm-146.31429-5.42c.02172-.95751-1.3226-1.58791-2.20514-1.64527s-2.3903.70983-2.16767,1.97837c.12744.72612-.26952,2.35475,1.66088,2.30264C186.80476,199.01149,187.60823,198.47015,187.91783,196.41891Zm-7.68507-37.0964c.09508-.85848-1.366-1.40348-2.06016-1.55415-1.16737-.25342-2.13322.7671-2.65059,1.94214.9965.3996.02189,2.20919,1.89259,2.255C179.1341,162.0075,179.621,161.17444,180.23276,159.32251Zm71.78391,56.472a1.87809,1.87809,0,0,0-1.68674-2.53716,1.99894,1.99894,0,0,0-2.39012,2.25533c.10358,1.06374.10311,2.118,1.97646,1.94856C251.35917,217.3307,251.98877,217.09832,252.01667,215.79447ZM216.7,222.42432c-.31345-1.23743-1.31346-2.17371-2.30219-1.99827-.813.14424-2.2962.76846-1.88286,2.35791.30027,1.15469.74078,1.87211,2.26157,1.89343C216.65273,224.7037,216.15622,223.256,216.7,222.42432Zm97.57585-16.0698a2.30653,2.30653,0,0,0-2.41015-1.67366c-.97582.06654-2.50808.40928-2.11818,2.05494.2521,1.06417.55124,2.149,2.23526,2.10387C313.64237,208.79523,313.7452,207.67442,314.27585,206.35452Zm-35.95724,28.70255a1.79047,1.79047,0,0,0-2.06184-1.54783,1.56417,1.56417,0,0,0-1.63152,1.49883,1.73949,1.73949,0,0,0,1.77451,1.90184C277.59711,236.93353,278.073,236.11712,278.31861,235.05707Z"/>
      <path class="cls-4" d="M169.48951,139.89882c11.96324-26.72793,32.4687-43.38022,60.6996-50.18687,59.80239-14.41876,116.74605,37.8981,107.215,98.21949a221.07156,221.07156,0,0,0-35.8632-24.31115,20.87852,20.87852,0,0,0-6.45036-2.243c-.826-.66488-.99318-2.6421-2.77915-1.39471-4.45653-4.74325-11.28925-5.04446-16.40394-8.55038.52977-1.09406,1.3645-.93415,2.18041-1.07947a1.98257,1.98257,0,0,0,1.436-2.63527,2.82439,2.82439,0,0,0-2.17453-1.64065c-.74285.04181-2.12559,1.31493-2.02672,1.80823,1.342,6.69667-3.11511,2.51936-4.41473,2.06588A216.495,216.495,0,0,0,169.48951,139.89882Z"/>
      <path class="cls-5" d="M169.48951,139.89882a216.495,216.495,0,0,1,101.41841,10.05209c1.29962.45348,5.75678,4.63079,4.41473-2.06588-.09887-.4933,1.28387-1.76642,2.02672-1.80823a2.82439,2.82439,0,0,1,2.17453,1.64065,1.98257,1.98257,0,0,1-1.436,2.63527c-.81591.14532-1.65064-.01459-2.18041,1.07947,5.11469,3.50592,11.94741,3.80713,16.40372,8.5497-2.654,2.00555-3.709,4.84977-4.99169,9.201,4.64112-4.32574,5.20093-1.14479,5.70651,1.87536,2.86951-3.09927,5.26667-5.86775,2.06455-9.68093a20.87852,20.87852,0,0,1,6.45036,2.243,221.07156,221.07156,0,0,1,35.8632,24.31115,42.97889,42.97889,0,0,1-3.172,13.90746c-23.17-20.05522-49.21745-34.84639-78.77226-43.33453A201.98586,201.98586,0,0,0,169.12,152.86185c-1.47676.21865-2.96521.35827-4.44789.5345A39.001,39.001,0,0,1,169.48951,139.89882Zm157.48393,47.07643c-2.82516,1.65073-2.32166,3.82132-.495,5.66005,1.66,1.671,3.70449,1.23029,5.334-.36271,1.7968-1.75653,2.18349-3.85008.348-5.72155-1.73045-1.76437-3.67789-2.08318-5.20871.44576Zm-22.97608-17.005c2.19841-1.46088.67742-2.29925-.57342-3.05665-1.09492-.663-2.46708-1.72829-3.3641.06315-1.00225,2.00147-3.73778,3.85975-2.61488,6.0187a6.03766,6.03766,0,0,0,6.1931,2.92289c-.6351-2.34932-3.691-1.92062-4.11812-4.23719,1.24044-1.39373,4.73352,2.79547,4.54371-1.83234ZM181.94347,148.78039c1.90813-4.69564,4.025-2.452,6.57625-.39637-1.71406-2.58373,2.28994-5.91479-1.67452-7.84674-1.52864-.74491-3.614-.74956-4.744.25868C179.57868,143.04672,181.504,145.86875,181.94347,148.78039Zm81.78054,10.1344c.69554-1.70352,1.10365-2.7688,1.56145-3.81228,1.52554-3.47707-.29777-6.31175-4.01-6.05283-3.09287.21575-2.35655,3.15268-3.16685,4.92947-.33145.72674-.3266,2.3491,1.33088,1.46833C263.1113,153.49634,262.39618,157.09256,263.724,158.91479Zm-49.2849-18.73835c-.36218,2.43389-.67816,4.48-.9651,6.53008-.093.6642-.08667,1.67253.63706,1.6438,2.33875-.09289,5.04019.17708,6.88473-.90963,1.57135-.92578.96053-3.66225.50587-5.58618-.12922-.54678-1.35884-.64644-1.67145-.03418C216.609,148.12939,216.77276,141.42624,214.43911,140.17644Zm101.27754,35.73145c-.794-2.37556-2.41217-3.64478-4.20509-3.57014-4.41492.18372-1.90211,4.48545-3.31463,6.6593-.86414,1.33,1.76364,2.3808,3.47048,2.29188C315.42346,181.09328,312.66584,176.36684,315.71665,175.90789ZM194.878,139.95392c-3.74762-.37724-3.00334,2.387-3.06023,4.60125-.05822,2.26689-.02067,4.385,3.23561,4.17289,2.91915-.19014,4.7675-1.57877,4.74365-4.5199C199.77309,141.25647,197.97609,139.78412,194.878,139.95392Zm15.38124.29273c-2.81873.10548-5.6621-1.70692-7.0232,1.11148-.904,1.87192-1.45971,4.98467.25816,6.55082a5.08533,5.08533,0,0,0,6.58152-.05838c-1.38239-1.84879-3.85595-.03245-4.937-1.97365.642-1.82081,2.90863.08008,3.53562-1.53831-.15279-1.90981-2.80987-.2897-2.87428-2.18829C206.997,141.26628,208.834,142.79008,210.25923,140.24665ZM247.459,154.12718c1.6975-1.028,2.46231-2.74142,4.50749-1.98034a2.68013,2.68013,0,0,0,3.81638-2.09684c.44264-2.71872-1.96747-3.00613-3.80178-3.68044-1.9554-.71883-3.22556-.17381-3.63649,1.931C248.00817,150.0236,246.98283,151.63131,247.459,154.12718Zm70.5802,29.4112c-.15826,1.54343-.76732,3.62193,2.08008,3.75637,5.37466.25375.61823-4.96676,3.39266-6.59125.73443-.43-1.6087-2.34057-2.95359-2.28677C317.197,178.55118,318.41774,181.40377,318.03916,183.53838Zm-84.8941-35.23823c.77,0,1.48231-.034,2.19042.00619,2.35161.13338.41389-3.03683,2.43649-3.14183-.262-1.623-1.71326-1.23507-2.70812-1.541-1.10959-.34119-2.58672-.64373-2.97529.75932-.54894,1.982-1.94233,4.31933-.46729,6.08408a4.57847,4.57847,0,0,0,5.24695.84964C236.1705,149.21076,233.75016,150.667,233.14506,148.30015Zm43.25872,8.92921c-.17824-2.22706-1.22127-3.9287-3.51441-4.05786-2.82775-.15929-4.19341,1.88149-4.38224,4.35021a3.57746,3.57746,0,0,0,3.45,4.07607C274.61641,161.68431,276.027,159.83145,276.40378,157.22936Zm9.21637,3.61084c-.37089-2.85608-1.77206-4.28182-4.30476-3.15969a4.209,4.209,0,0,0-2.65124,4.83846c.45106,2.65046,2.80749,3.02085,4.81637,3.708.99861.34161,1.45215-.43344,1.84817-1.20059.38343-.74275.85515-1.49082.11306-2.24244-.61235-.62024-1.43579-1.08344-2.163-.338-.69795.71544-1.19892,1.77439-2.20357.5008a2.15686,2.15686,0,0,1,.11427-2.76417,1.7791,1.7791,0,0,1,2.56681-.66045C284.40366,159.919,285.00057,160.39806,285.62015,160.8402ZM172.70284,149.91381c.17684-3.11383-1.95481-5.79049,1.1819-6.23947,2.94824-.422,1.40855,3.04945,3.12976,4.58669,1.55472-2.61081,1.10789-4.50684-.99744-6.10421-1.808-1.37184-3.5153-.80548-4.79787.76587C169.49385,145.03648,169.8964,147.01991,172.70284,149.91381Z"/>
      <path class="cls-5" d="M304.06365,169.84879c-1.05471,1.04423-1.70748.0403-2.45484-.48158q.31243-.30873.62034-.622a1.92311,1.92311,0,0,1,1.7669,1.22765Z"/>
      <path class="cls-5" d="M301.60881,169.36721c-.32507-.33942-.54231-.71789-.03036-1.031.09652-.05905.42678.26386.64993.40978Q301.92166,169.05809,301.60881,169.36721Z"/>
      <path class="cls-6" d="M337.4041,187.93144s-68.93778-64.66173-167.91459-48.03262a67.66558,67.66558,0,0,0-4.81738,13.49753s88.17051-20.85929,169.56,48.44255A46.05346,46.05346,0,0,0,337.4041,187.93144Z"/>
      <path class="cls-4" d="M266.74678,148.00269a170.79315,170.79315,0,0,1,23.18832,9.379c11.13738,5.64045,5.83749-28.05931,5.83749-28.05931L264.837,127.95472Z"/>
    </g>
    <path class="cls-3" d="M194.23234,153.974s-14.081,1.5448-16.35274,1.5448-7.69192,6.08187-7.69192,6.08187l5.33433,37.45518,24.27524,29.68666,34.571,10.09982s33.573,5.36553,34.12531,5.36553,19.49249-6.07322,22.33352-7.29747,22.2753-18.84311,23.44874-21.55379,1.4408-12.49489,1.4408-12.49489-10.68443-11.08266-27.09923-13.43181S232.744,173.24877,228.32461,168.329,210.51394,157.497,206.319,157.297,194.23234,153.974,194.23234,153.974Z"/>
  </g>
</svg>
