<svg id="Camada_1" data-name="Camada 1" xmlns="http://www.w3.org/2000/svg" viewBox="0 0 500 350">
  <defs>
    <style>
      .cls-1 {
        fill: #072852;
      }

      .cls-2 {
        fill: #fdfbfa;
      }

      .cls-3 {
        fill: #bd1e14;
      }
    </style>
  </defs>
  <title>bandeiraEua</title>
  <g>
    <path class="cls-1" d="M.1201,188.97569q0-92.34832-.10559-184.69642C.00565.593.87662-.02986,4.394-.02458Q123.19858.15376,242.00356.06671l.23976,25.886q.04248,13.50549.085,27.011c-.52836,9.03914-.38823,18.08-.06984,27.12132q-.02075,13.49955-.04206,26.99823.024,13.61933.04906,27.24041-.018,13.46432-.03608,26.92862l-.18441,27.11221c-1.81856.09416-3.6371.27029-5.45568.27068q-115.26174.02508-230.52345.03411C4.0839,188.6697,2.102,188.86907.1201,188.97569ZM214.171,12.92244l-.219.02851.32669-.10412c-.78031,1.395.56346,1.79286,1.2482,2.10324,3.765,1.70661,3.91987,4.35751,2.3163,7.65546-.3021.62129-.94585,1.38743.17831,2.37434,3.3997-3.88709,7.07287-5.30587,11.45538.28545-2.90689-5.8416-.91642-9.49272,4.26617-12.36015-6.55022,1.73531-9.20513-1.458-10.36407-7.3619C222.67959,11.71259,219.7033,14.04045,214.171,12.92244ZM44.19594,120.94765c-.42605.26039-.43079.52563.01743.72422.12168.05391.31281-.0489.47207-.07978l-.6082-.565c-1.50579-4.57633-1.54378-8.63878,4.57107-11.03272-6.28091,1.07511-9.57255-1.038-10.27359-7.56592-.80487,6.46214-4.24006,8.60222-10.39521,7.563,6.27111,2.58136,6.49356,6.71749,3.50511,12.31219,6.44847-4.14427,6.4456-4.13921,11.91465-1.036C43.55477,121.35586,43.92675,121.06258,44.19594,120.94765Zm147.6455-108.097c-5.76726,1.39343-8.33145-1.6685-9.37822-7.37425-.47675,6.58412-3.99655,8.639-10.24317,7.63257,6.31206,2.69988,6.76935,6.65353,4.04067,12.09985,4.36237-4.56629,8.37844-4.75111,12.80991.12135-3.09648-5.40858-1.84918-9.13387,3.0011-11.767a6.35427,6.35427,0,0,0-.29348-.77175l.3623.16748ZM31.96207,43.95207c3.90562-1.26342,7.72449-6.49329,12.291.55672-2.36193-5.7368-1.28234-9.5491,4.41544-12.08292-6.21028,1.042-9.54161-1.09381-10.59347-7.79377.35212,7.82462-4.46121,8.117-10.08913,8.04259,7.1438,2.52848,5.915,6.85253,3.89388,11.38081l.16673.11443Zm52.73665.53027L85.014,44.23l-.40418.24368a1.759,1.759,0,0,0,.40529-2.26c-2.11349-3.858-.89022-6.48761,2.85726-8.29679.63414-.30615,1.04013-.78524.60415-2.09674-5.79523,2.42881-7.94377-1.27758-9.56108-6.74519-.175,6.80717-4.09444,8.01609-9.893,7.51323,6.00621,2.54723,6.59043,6.46813,3.92159,11.94341C77.2879,40.074,81.12175,39.58392,84.69872,44.48234ZM13.24331,140.13922c3.8374-3.44754,7.6947-4.60066,11.72068.4807-.39956-2.81906-1.90869-5.31473-1.29382-7.06368.6837-1.94472,3.30275-3.20907,5.07924-4.76961-5.86554,1.01518-8.74876-1.83436-9.45773-8.013-1.913,3.028-1.29938,6.161-3.52306,7.12936-1.88374.82033-4.32318.3646-6.51671.47357,6.276,2.34935,5.263,6.823,3.81631,11.45669-.0327.10474.15635.27875.23361.4014l-.438.01911Zm41.04619.15625c3.79193-4.09112,7.65618-4.226,12.02711.38022-3.12434-5.59619-1.84587-9.4251,3.83491-12.3659-6.70539,1.71045-9.18017-1.52276-10.5468-7.519.28743,7.74976-4.55376,7.91025-10.0499,7.92053,5.75123,2.36876,6.64423,6.0609,4.31076,10.88609-.0772.15964.304.541.4615.78834l-.62886-.27778c.03988.06711.07284.18538.12093.19191A2.90974,2.90974,0,0,0,54.2895,140.29547Zm-.0589-77.04866c3.44428-2.8678,6.8969-5.096,10.62986-.36307.17937.22741.87688.04614,1.32225.04269l.03466.2207.074-.11107c-3.09054-4.87629-1.66744-8.64637,3.716-11.787-7.05123,2.26263-8.85474-1.952-10.334-7.24414-.30744,6.91592-4.139,8.2846-10.1752,7.70888,6.42029,2.34376,6.08339,6.59084,4.50053,11.26344-.03079.09092.17948.26349.27047.3723l-.53215-.27187c.029.06988.0532.19658.08795.19955A2.24163,2.24163,0,0,0,54.2306,63.24681Zm100.22008,96.41767c1.30081,1.17525,2.19979.04769,2.94446-.68768,2.41331-2.38324,4.69772-2.79056,7.15271-.06609.4611.5117,1.20565,1.221,2.51968.07208-3.70323-4.77744.04856-7.52259,3.96852-10.57569-6.77944,2.15889-8.67614-1.86694-10.20461-7.22851-.23449,6.97525-4.25169,8.13174-10.147,7.16139,6.37954,5.73422,6.37954,5.73422,3.87669,11.37634a4.31675,4.31675,0,0,0,.27179.34182c.0405.0424.12.04749.1818.06956Zm53.9199-.12759-.10566.30242.145-.23068c-3.78454-4.87877-.9342-8.09418,3.5975-11.2374-6.97819,2.33956-8.68349-1.99156-10.27963-7.19645-.2004,7.03293-4.26172,8.109-10.18906,7.777,6.60825,2.25752,6.391,6.2568,4.29607,10.87181l.1353.211-.27046-.29251c4.09256-2.418,8.17656-3.06471,12.25789.03737C208.00376,159.81457,208.226,159.61815,208.37058,159.53689Zm-98.33731-10.6434c6.33285,2.32118,6.10277,6.514,4.12158,12.10444,4.32723-6.54946,8.19294-3.4417,12.46941-.46079-3.45287-5.45947-1.79891-9.03463,3.66962-11.82142-6.34523,1.20221-9.21883-1.43527-10.14562-7.38033C119.1842,147.29381,116.32146,149.958,110.03327,148.89349Zm-24.39834,11.785c-3.36751-5.56365-1.56882-9.26774,3.95858-12.17324-6.46668,1.44426-9.49852-.99017-10.2952-7.25093-1.07033,5.92973-3.84613,8.7034-10.06261,6.92327,5.45811,5.93749,5.45811,5.93749,4.09052,12.35563C77.97721,155.51516,81.69466,157.12562,85.63493,160.67852ZM48.88335,147.73046c-7.21215,2.288-9.60593-.73942-10.48126-6.62314-1.05059,5.83125-3.75508,9.00551-10.32674,7.56174,5.476,2.678,6.98891,6.13311,4.16039,11.77764,4.27186-4.60563,8.1661-4.02277,12.46413,1.15077C42.8907,153.88647,42.8907,153.88647,48.88335,147.73046ZM29.028,51.61621c-6.48674,1.47353-8.99155-1.76-10.22639-7.526-.35436,6.7026-4.15569,8.13376-10.01909,7.72728,6.40046,2.43346,6.35179,6.58442,3.93952,11.81907,4.26427-4.70262,8.16255-4.69608,12.45238-.0901C22.55007,58.13519,23.1123,54.316,29.028,51.61621ZM195.64338,121.872c4.28311-4.62815,8.23582-4.44775,12.93676.18484-4.24652-6.03592-1.42074-9.2316,4.58241-12.20191-5.71627-.77329-11.03118-.0171-11.3227-7.50662.32483,8.0138-5.78078,6.31341-11.06708,7.73136C196.94044,112.7937,199.16535,116.04543,195.64338,121.872Zm-69.32619.2661c-2.5502-5.43583-1.90642-9.52688,4.09689-12.09336-4.92342-.89444-10.11914-.25645-10.43757-7.75628.25856,8.06032-5.68539,6.58366-10.11187,7.85622,6.22052,2.47992,6.67152,6.482,3.94637,11.96909C118.15308,117.42431,122.02843,117.24462,126.31719,122.13805Zm23.48534-11.83819c7.22449,2.23167,7.42148,6.43632,5.10524,12.0712,4.29336-6.13338,8.14122-4.26778,12.45041-.38707-2.83159-5.4271-2.09529-9.36654,3.83127-11.33-2.23376-2.12264-4.48478-1.44971-6.56814-1.6119-2.96932-.23115-1.02254-4.51242-3.9156-4.84224C158.93667,107.98863,158.93667,107.98863,149.80253,110.29986Zm58.333-66.04159c-3.43853-5.79559-.92339-9.08051,4.10607-11.91175-5.98131,1.08311-9.41787-.93454-10.381-7.438-.41968,7.15478-4.45021,8.17963-10.23912,7.51167,5.8532,2.68825,6.84913,6.61135,4.05454,12.079C199.84756,40.28137,203.595,39.53992,208.13556,44.25827Zm-97.15094,84.30688c-6.54,1.50112-8.99035-1.98079-10.496-7.373-.09983,7.05335-4.52733,7.6322-10.01289,7.57687,6.50271,2.33791,6.365,6.59721,4.07065,12.1644,4.45283-6.12219,8.39223-4.15649,12.67442-.24069C104.90349,135.5332,104.20285,131.22463,110.98462,128.56515Zm-.1155-76.64139c-6.55758-.69331-6.55758-.69331-10.7249-8.05208.09745,6.691-3.56018,8.50954-9.90407,7.24809,2.43131,2.81884,5.61832,3.22014,5.88723,5.61273.22222,1.97734-1.01055,4.1182-1.68788,6.50056,6.791-3.66573,6.791-3.66573,13.505,1.16532C104.83087,58.74588,104.07408,54.28385,110.86912,51.92376Zm19.46361-19.409c-6.04793.98657-9.37462-1.02187-10.14442-7.50721-.86054,6.28679-4.0444,8.5463-10.20891,7.37792,5.40331,2.84918,7.07575,6.45492,3.83466,12.32343,4.28632-5.37711,8.19925-4.46337,12.45519-.436C123.80188,38.81532,124.43192,35.01344,130.33273,32.51479Zm93.17482,88.36856c-.65066,6.462-4.13845,8.5153-10.29532,7.67129,5.32382,2.75418,7.82487,5.94654,2.9264,11.47582,3.63867-.2214,4.71186-2.57993,6.62024-3.175,2.636-.822,3.6402,2.53562,6.76237,2.77118-2.98672-5.19648-.44538-8.49972,4.21525-11.26857C227.39877,129.59584,224.24665,127.29562,223.50755,120.88335ZM192.51062,128.338c-6.41788,1.65491-8.9338-1.57326-10.04057-7.43184-.39791,6.58508-4.07755,8.43385-10.209,7.71329,6.54238,2.6285,6.5197,6.73707,3.997,11.91374,3.75423-2.99906,7.25194-5.5758,12.06848-1.08961C185.06783,133.39107,189.09284,131.28256,192.51062,128.338Zm-56.69613,12.14395a31.02444,31.02444,0,0,0,4.00529-2.916c2.93782-2.92323,4.68858,2.726,6.86539,1.022,2.04814-1.60327-2.62452-4.88936,1.0918-6.91016,1.26981-.69048,3.09149-1.23559,3.67967-3.78812-6.21375,2.14937-8.62521-1.36-10.081-6.92964-.09718,6.92139-4.09523,8.08878-10.05436,7.69817C137.53537,131.16184,138.393,134.96729,135.81449,140.48191ZM89.28035,110.033c-6.062,1.10367-9.22162-1.183-10.1644-7.64532.3321,8.07965-5.84645,6.22667-10.29133,7.537,3.52814,2.73147,7.7899,4.38539,4.49881,9.48878-.78256,1.2135.938,2.2563,1.97661,1.01885,3.04387-3.62669,5.83832-1.76887,9.47891,1.0792C82.97008,115.81361,84.39183,112.39969,89.28035,110.033ZM192.3349,51.3249c-6.68006,2.15316-8.42735-2.08514-9.91605-7.19249-.54885,6.28677-3.84739,8.39476-10.30248,7.60806,6.76422,2.27485,6.69889,6.28345,4.06579,11.66885,3.86515-3.28752,7.53561-4.98979,12.42159-.854C184.32859,56.23052,189.45459,54.55192,192.3349,51.3249Zm21.15916.13349c4.05345,2.83327,7.84371,5.26347,3.43252,10.44137,1.09156.09223,1.96417.44323,2.33587.15291,2.65527-2.074,5.18394-3.16934,8.00688-.20806.60234.63186,2.09726.00275,1.684-.74216-2.78661-5.02257,1.57276-6.74263,4.561-9.77428-6.26744,1.62788-8.97585-1.42444-10.09157-7.16C222.36471,49.86844,220.054,53.07557,213.49406,51.45839ZM148.08957,25.09445c-3.46666-5.703-1.67351-9.21025,3.95511-12.11162-6.92179,1.762-9.28595-1.89474-10.64918-7.704.15361,7.24245-4.009,8.48677-9.98605,7.988,6.32727,2.46991,6.5331,6.60484,3.92078,12.01782C139.751,20.48175,143.6514,20.45105,148.08957,25.09445Zm22.92912,7.24864c-6.61658,1.87263-8.72893-1.90287-10.19042-7.377-.15683,7.14462-4.46908,7.86727-10.0351,7.76044,6.14679,2.34423,6.62691,6.33158,4.09659,11.84243,4.18-5.3758,8.10243-4.11787,12.50738-.4082C164.19408,38.59262,165.89274,35.16425,171.01869,32.34309ZM211.648,70.98747c-6.12108,1.91368-8.51693-1.4958-9.98448-7.35565.10237,7.39486-4.3843,7.91569-9.76321,7.92911,6.25419,2.52,6.48107,6.4618,3.4783,12.03593,4.27916-4.97372,8.30546-5.30962,12.6328.21628C206.73708,75.74729,206.73708,75.74729,211.648,70.98747ZM151.38685,51.31015c-6.72822,2.08547-8.51851-2.08278-9.84009-7.40359-.47569,6.38407-3.8555,8.56114-10.12136,7.81465,5.51471,2.34336,7.02994,5.84505,3.23086,12.1099,4.68583-2.87161,7.55847-5.74434,11.02771-1.927.56466.62131,1.88639-.40413,1.42472-1.16269C144.039,55.69783,149.06407,54.47144,151.38685,51.31015Zm.40514,38.87338c-6.84327,1.63065-8.95853-2.29015-10.28917-7.71659-.49223,6.34422-3.82764,8.58148-10.05293,7.7908,6.59313,2.54269,6.32374,6.67907,3.89842,11.91152,4.31095-4.396,8.32477-4.9347,12.73371.09738C145.77606,97.06259,145.16045,92.80172,151.792,90.18353ZM12.76819,24.24284c6.35991-2.72894,6.35991-2.72894,13.26328.66832-5.10452-5.73108-1.65342-8.90167,3.115-12.07308-6.88852,2.15031-8.98117-1.73443-9.87092-7.596-1.83515,3.06256-1.376,5.93862-3.37258,7.30885-1.79053,1.22882-4.3826-.35691-7.08314,1.17441C14.0104,15.851,15.61563,19.18139,12.76819,24.24284Zm176.34925,78.04725c-3.21754-5.60889-2.11478-9.48891,3.9277-12.5215-7.33376,2.43138-9.11008-1.9816-10.662-7.16042-.521,6.1479-3.64459,8.47493-9.94383,7.18644,5.3998,4.78275,5.3998,4.78275,4.03786,12.914C180.63788,97.55693,184.63788,97.22742,189.11744,102.29009Zm24.25917-12.048c6.672,2.44419,5.99517,6.76807,3.93319,11.98427,4.44629-5.43791,8.33374-4.26929,12.67313.03382-3.114-5.50448-2.12633-9.44973,3.8507-12.28634-6.73827,1.59289-9.37654-1.48446-10.3493-7.47428C222.60674,88.57977,219.83068,91.46781,213.37661,90.2421ZM110.17671,71.10193c4.16794,2.89837,7.60885,5.66371,2.98182,11.16789,7.71222-2.21466,7.71222-2.21466,14.60762,1.06717-5.30624-6.08739-2.1216-9.20155,2.33494-12.28481-6.14748,1.47971-9.01618-1.14969-10.113-7.46683C119.63818,70.49657,116.09833,72.22163,110.17671,71.10193ZM167.33506,82.676c-3.62724-5.42162-.97745-8.717,3.94865-11.80685-6.95218,2.38008-8.83921-1.71389-10.50318-6.9656-.2113,6.72771-4.206,7.92235-10.04124,7.09989,2.47185,2.20407,4.81354,3.415,5.66817,5.30011.85948,1.8958-1.78974,4.076-1.16915,6.54489C161.12227,79.1451,161.12227,79.1451,167.33506,82.676ZM69.1978,71.25347c6.03281,2.642,6.1831,6.71784,3.87742,11.979,4.197-4.62182,7.97895-4.80959,12.33962-.05973-3.16293-5.70746-1.26376-9.27669,4-12.12409-6.64066,1.8501-8.97548-1.62681-10.35013-7.06234C78.29229,70.01727,75.43689,72.50388,69.1978,71.25347Zm148.11791,107.954c4.19574-5.01062,8.20182-4.57358,12.55576-.11529-3.07847-5.52369-1.8462-9.2428,3.813-12.13995-6.44422,1.5975-9.08947-1.57572-10.40281-7.26926-.31471,6.91409-4.47809,8.16027-10.18642,7.76971C219.99938,169.6207,219.42426,173.90806,217.31571,179.2075ZM65.52754,24.67832c-3.13536-5.32443-.6898-8.65764,4.51538-11.77826-6.80022,2.07163-8.71883-1.99758-10.3685-7.16381-.72357,5.91807-3.4423,8.7544-9.74094,7.23862,4.10671,3.1056,7.85667,5.80132,3.10017,10.79382,3.32362.76666,4.61095-2.71468,6.58422-2.46562C61.69665,21.56544,63.56645,23.4836,65.52754,24.67832ZM28.23768,71.21368c6.16006,2.65185,6.24056,6.70482,3.88567,12.13615,4.16167-4.78913,7.98134-5.08773,12.24208-.06974-2.3551-5.45344-1.69607-9.41756,4.08026-12.09158-6.38793,1.2609-9.31367-1.2425-10.01437-7.51243C37.20717,69.31417,34.98611,72.951,28.23768,71.21368ZM148.06394,178.95045c-3.20525-5.23523-1.76235-8.76737,3.21153-11.92606-7.7158,2.6524-7.90144-3.22974-9.92738-8.69807-.68578,6.67515-2.711,10.38021-9.60082,8.62259,5.56619,3.0005,6.57514,6.792,3.54024,12.22816C139.64991,174.39069,143.65285,174.39054,148.06394,178.95045ZM110.775,167.0445c-6.71051,1.86835-8.66141-2.20154-10.12063-7.44857-.69562,6.03-3.587,8.6434-9.78181,7.46825,4.68746,2.88635,7.16571,5.9309,3.44793,11.87378,4.64592-5.41211,8.61686-3.55337,13.04661-.04027C103.89941,173.44016,105.26661,169.95989,110.775,167.0445ZM25.27478,100.8529c-3.77832-5.21639-.35535-7.99376,3.73161-10.96175-6.6717,1.95855-8.86187-1.75691-10.356-7.40612.05158,7.23485-4.26355,7.993-10.88792,7.3838C13.35026,93.079,16.89553,95.735,12.105,100.69317c3.26925.93047,4.39659-2.05447,6.53769-2.49746C21.19108,97.66845,21.68869,101.7461,25.27478,100.8529Zm23.68735,65.386c3.02444,2.69307,5.29866,3.88619,6.20947,5.74676,1.05889,2.16307-1.93574,4.21506-1.76745,6.86995,6.42214-3.50721,6.42214-3.50721,11.53863-1.26779.07193-6.244.07193-6.244,5.49524-11.34062-6.998,2.42458-9.29876-1.11834-10.70115-6.62236C59.02014,165.69431,56.12918,168.31365,48.96213,166.23892Zm.95624-76.09741c5.02736,2.82319,7.15793,5.91039,3.35622,11.21189,4.18945-1.83889,7.82069-5.3105,12.18486-.03289-2.98821-5.86518.463-8.48218,4.41534-11.402-6.29013,1.62438-8.91392-1.41218-10.06131-7.26485C58.8903,88.58621,56.22063,91.5282,49.91837,90.14151ZM26.08756,179.33742c-3.766-5.71743-2.71283-9.53572,3.04323-12.36051-6.352,1.45837-9.13308-1.40129-9.7975-7.59893-3.08045,6.91467-3.08045,6.91467-10.05,7.98854,1.79162,2.5938,7.52415,3.2643,3.9664,8.35456-.81965,1.1727,1.24862,1.74874,1.76107,1.25155C19.12185,172.9839,21.73463,177.32253,26.08756,179.33742Zm163.06061-.16377c-4.47046-5.909-1.35857-9.18943,3.57224-12.32077-7.06236,1.98881-8.97159-2.023-10.20624-7.39-.91035,5.6004-3.09464,9.13967-9.78306,7.4223,4.17668,3.09523,7.66693,5.86808,3.3308,11.56425C180.77607,174.912,184.79753,174.12236,189.14817,179.17365ZM94.34639,100.98851c3.98672-1.16649,7.70554-5.26228,11.87584.46086-2.19638-5.58093-.08744-8.891,4.727-11.53571-6.85348,1.9621-8.9809-1.82127-9.84654-7.8686-2.95195,7.22716-2.95195,7.22716-10.41708,8.43371C95.02489,92.99,98.4919,95.65932,94.34639,100.98851Zm.088-76.95887c3.89894-1.21708,7.62515-5.241,11.103.37079.22744-.55394,4.64259-11.30744,4.90512-11.94684-6.67983,2.69278-8.27716-1.81421-9.47432-7.30687-2.786,7.28458-2.786,7.28458-10.90165,8.36C95.56914,15.82815,98.06884,18.78169,94.43442,24.02964ZM135.7618,63.36011l-.22092-.14184-.0067.27269Z"/>
    <path class="cls-2" d="M499.87932,242.94969v26.987H.1201v-26.987c1.32912-.04347,2.65824-.125,3.98737-.125q245.89221-.00856,491.78446,0C497.22106,242.82473,498.55019,242.90622,499.87932,242.94969Z"/>
    <path class="cls-3" d="M499.87932,242.94969c-1.32913-.04347-2.65826-.125-3.98739-.125q-245.89226-.00852-491.78446,0c-1.32913,0-2.65825.08156-3.98737.125v-26.987c1.81938-.09825,3.63875-.28239,5.45813-.28253q244.42146-.01977,488.84291,0c1.8194.00015,3.63878.18427,5.45818.28253Z"/>
    <path class="cls-2" d="M499.87932,215.96269c-1.8194-.09826-3.63878-.28238-5.45818-.28253q-244.42147-.01974-488.84291,0c-1.81938.00014-3.63875.18428-5.45813.28253v-26.987c1.98191-.10662,3.9638-.306,5.94574-.30647q115.26173-.02812,230.52345-.03411c1.81858-.00039,3.63712-.17652,5.455-.27063,1.98461.08623,3.96986.24748,5.95512.24779q122.971.01895,245.942.02559c1.97933.00041,3.95857.22031,5.93787.33783Z"/>
    <path class="cls-2" d="M.1201,323.91068v-26.987c1.32952.03974,2.659.11423,3.98856.11426q245.89106.00783,491.78211,0c1.32953,0,2.659-.07455,3.98855-.11426v26.987c-1.32916.043-2.65829.12366-3.98746.12369q-245.89215.00848-491.78429,0C2.77841,324.03431,1.44926,323.95369.1201,323.91068Z"/>
    <path class="cls-3" d="M499.87932,296.92369c-1.32953.03971-2.659.11423-3.98855.11426q-245.89105.00783-491.78211,0c-1.32952,0-2.659-.07452-3.98856-.11426v-26.987H499.87932Z"/>
    <path class="cls-3" d="M.1201,323.91068c1.32916.043,2.65831.12363,3.98747.12369q245.89217.00848,491.78429,0c1.32917,0,2.6583-.08071,3.98746-.12369,0,7.82958-.101,15.66128.06583,23.48728.046,2.154-.41356,2.94707-2.5685,2.51979a10.44561,10.44561,0,0,0-1.99516-.01959q-245.38176,0-490.76343.0938c-3.74745.0025-4.78085-.82178-4.598-4.59642C.3661,338.24908.1201,331.07392.1201,323.91068Z"/>
    <path class="cls-3" d="M499.87932,188.97569c-1.9793-.11752-3.95854-.33742-5.93787-.33783q-122.971-.02584-245.942-.02559c-1.98526-.00031-3.97051-.16156-5.95512-.24779q.09316-13.55619.18431-27.11347c.83107.02627,1.66287.07777,2.49468.07783q125.85377.00806,251.70753-.00584c1.14953-.0002,2.299-.21771,3.44847-.33382Z"/>
    <path class="cls-3" d="M242.25846,80.085c-.31839-9.04132-.45852-18.08218.06923-27.12218q128.03085-.03078,256.06288-.05414c.49625-.00008.9925.08646,1.48875.13254v26.987Z"/>
    <path class="cls-2" d="M242.25846,80.085l257.62086-.05678v26.987l-257.66237.06888Q242.2377,93.58451,242.25846,80.085Z"/>
    <path class="cls-2" d="M499.87932,53.04118c-.49625-.04608-.9925-.13262-1.48875-.13254q-128.03176.02057-256.06288.05414-.04156-13.5042-.08485-27.0093,128.07338-.01933,256.1477-.03447c.49625,0,.99253.08818,1.48878.13518Z"/>
    <path class="cls-2" d="M499.87932,160.98918c-1.1495.11611-2.29894.33362-3.44847.33382q-125.85377.02113-251.70753.00584c-.83181-.00006-1.66361-.05156-2.49468-.07783q.01915-13.4625.03676-26.92727,125.826-.02322,251.65217-.0582c1.98729-.00069,3.97449-.17176,5.96175-.26336Z"/>
    <path class="cls-3" d="M499.87932,134.00218c-1.98726.0916-3.97446.26267-5.96175.26336q-125.82614.04344-251.65217.0582-.02474-13.62084-.049-27.24055,128.832-.03314,257.66292-.068Z"/>
    <path class="cls-3" d="M499.87932,26.05419c-.49625-.047-.99253-.13522-1.48878-.13518q-128.07408.01144-256.1477.03447-.11916-12.9442-.23928-25.88677,126.93884,0,253.87754-.09589c3.42266-.00495,4.25915.64965,4.10071,4.09867C499.64579,11.38386,499.87932,18.72438,499.87932,26.05419Z"/>
    <path class="cls-2" d="M110.03327,148.89349c6.28819,1.06446,9.15093-1.59968,10.115-7.5581.92679,5.94506,3.80039,8.58254,10.14562,7.38033-5.46853,2.78679-7.12249,6.362-3.66962,11.82142-4.27647-2.98091-8.14218-6.08867-12.46941.46079C116.136,155.40745,116.36612,151.21467,110.03327,148.89349Z"/>
    <path class="cls-2" d="M85.63493,160.67852c-3.94027-3.5529-7.65772-5.16336-12.30871-.14527,1.36759-6.41814,1.36759-6.41814-4.09052-12.35563,6.21648,1.78013,8.99228-.99354,10.06261-6.92327.79668,6.26076,3.82852,8.69519,10.2952,7.25093C84.06611,151.41078,82.26742,155.11487,85.63493,160.67852Z"/>
    <path class="cls-2" d="M48.88335,147.73046c-5.99265,6.156-5.99265,6.156-4.18348,13.867-4.298-5.17354-8.19227-5.7564-12.46413-1.15077,2.82852-5.64453,1.31562-9.09962-4.16039-11.77764,6.57166,1.44377,9.27615-1.73049,10.32674-7.56174C39.27742,146.991,41.6712,150.01851,48.88335,147.73046Z"/>
    <path class="cls-2" d="M70.30058,165.82331c-5.99265,6.156-5.99265,6.156-4.18348,13.867-4.298-5.17353-8.19227-5.7564-12.46413-1.15077,2.82852-5.64453,1.31562-9.09962-4.16039-11.77763,6.57166,1.44376,9.27615-1.73049,10.32674-7.56174C60.69465,165.08389,63.08843,168.11136,70.30058,165.82331Z"/>
    <path class="cls-2" d="M29.028,51.61621c-5.91571,2.69974-6.47794,6.519-3.85358,11.93023-4.28983-4.606-8.18811-4.61252-12.45238.0901,2.41227-5.23465,2.46094-9.38561-3.93952-11.81907,5.8634.40648,9.66473-1.02468,10.01909-7.72728C20.03646,49.85623,22.54127,53.08974,29.028,51.61621Z"/>
    <path class="cls-2" d="M195.64338,121.872c3.522-5.82652,1.29706-9.07825-4.87061-11.79233,5.2863-1.418,11.39191.28244,11.06708-7.73136.29152,7.48952,5.60643,6.73333,11.3227,7.50662-6.00315,2.97031-8.82893,6.166-4.58241,12.20191C203.8792,117.4242,199.92649,117.2438,195.64338,121.872Z"/>
    <path class="cls-2" d="M195.80742,159.8087c2.12232-4.60011,2.33957-8.59939-4.26868-10.85691,5.92734.332,9.98866-.74408,10.18906-7.777,1.59614,5.20489,3.30144,9.536,10.27963,7.19645-4.5317,3.14322-7.382,6.35863-3.5975,11.2374l-.04391-.0788c-.14005.08832-.36226.28474-.40848.24959-4.08133-3.10208-8.16533-2.45542-12.25789-.03737Z"/>
    <path class="cls-2" d="M154.512,159.70089c2.552-5.62669,2.552-5.62669-3.82755-11.36091,5.89535.97035,9.91255-.18614,10.147-7.16139,1.52847,5.36157,3.42517,9.3874,10.20461,7.22851-3.92,3.0531-7.67175,5.79825-3.96852,10.57569-1.314,1.14891-2.05858.43962-2.51968-.07208-2.455-2.72447-4.7394-2.31715-7.15271.06609-.74467.73537-1.64365,1.86293-2.94446.68768Z"/>
    <path class="cls-2" d="M126.31719,122.13805c-4.28876-4.89343-8.16411-4.71374-12.50618-.02433,2.72515-5.487,2.27415-9.48917-3.94637-11.96909,4.42648-1.27256,10.37043.2041,10.11187-7.85622.31843,7.49983,5.51415,6.86184,10.43757,7.75628C124.41077,112.61117,123.767,116.70222,126.31719,122.13805Z"/>
    <path class="cls-2" d="M66.19355,62.93893c-.45621-.00905-1.15372.17222-1.33309-.05519-3.733-4.73294-7.18558-2.50473-10.62986.36307l.0454.12838c-.0978-.13447-.30807-.307-.27728-.398,1.58286-4.6726,1.91976-8.91968-4.50053-11.26344,6.03618.57572,9.86776-.793,10.1752-7.70888,1.47928,5.29211,3.28279,9.50677,10.334,7.24414-5.38348,3.14064-6.80658,6.91072-3.716,11.787Z"/>
    <path class="cls-2" d="M149.80253,110.29986c9.13414-2.31123,9.13414-2.31123,10.90318-6.1,2.89306.32982.94628,4.61109,3.9156,4.84224,2.08336.16219,4.33438-.51074,6.56814,1.6119-5.92656,1.96348-6.66286,5.90292-3.83127,11.33-4.30919-3.88071-8.157-5.74631-12.45041.38707C157.224,116.73618,157.027,112.53153,149.80253,110.29986Z"/>
    <path class="cls-2" d="M54.33717,140.41639c-.16754-.278-.54879-.65931-.47159-.819,2.33347-4.82519,1.44047-8.51733-4.31076-10.88609,5.49614-.01028,10.33733-.17077,10.0499-7.92053,1.36663,5.99621,3.84141,9.22942,10.5468,7.519-5.68078,2.9408-6.95925,6.76971-3.83491,12.3659-4.37093-4.60625-8.23518-4.47134-12.02711-.38022Z"/>
    <path class="cls-2" d="M208.13556,44.25827c-4.54057-4.71835-8.288-3.9769-12.45951.24093,2.79459-5.46762,1.79866-9.39072-4.05454-12.079,5.78891.668,9.81944-.35689,10.23912-7.51167.96313,6.50342,4.39969,8.52107,10.381,7.438C207.21217,35.17776,204.697,38.46268,208.13556,44.25827Z"/>
    <path class="cls-2" d="M13.31019,140.25365c-.08562-.14168-.27467-.31569-.242-.42043,1.44667-4.63367,2.45965-9.10734-3.81631-11.45669,2.19353-.109,4.633.34676,6.51671-.47357,2.22368-.96837,1.61-4.10134,3.52306-7.12936.709,6.17867,3.59219,9.02821,9.45773,8.013-1.77649,1.56054-4.39554,2.82489-5.07924,4.76961-.61487,1.749.89426,4.24462,1.29382,7.06368-4.026-5.08136-7.88328-3.92824-11.72068-.4807Z"/>
    <path class="cls-2" d="M110.98462,128.56515c-6.78177,2.65948-6.08113,6.96805-3.7638,12.12762-4.28219-3.9158-8.22159-5.8815-12.67442.24069,2.29431-5.56719,2.43206-9.82649-4.07065-12.1644,5.48556.05533,9.91306-.52352,10.01289-7.57687C101.99427,126.58436,104.44462,130.06627,110.98462,128.56515Z"/>
    <path class="cls-2" d="M110.86912,51.92376c-6.795,2.36009-6.03825,6.82212-2.9246,12.47462-6.714-4.83105-6.714-4.83105-13.505-1.16532.67733-2.38236,1.9101-4.52322,1.68788-6.50056-.26891-2.39259-3.45592-2.79389-5.88723-5.61273,6.34389,1.26145,10.00152-.55713,9.90407-7.24809C104.31154,51.23045,104.31154,51.23045,110.86912,51.92376Z"/>
    <path class="cls-2" d="M84.67635,44.49187c-3.5546-4.90795-7.38845-4.41785-11.7324.03966,2.66884-5.47528,2.08462-9.39618-3.92159-11.94341,5.7986.50286,9.71808-.70606,9.893-7.51323,1.61731,5.46761,3.76585,9.174,9.56108,6.74519.436,1.3115.03,1.79059-.60415,2.09674-3.74748,1.80918-4.97075,4.4388-2.85726,8.29679a1.759,1.759,0,0,1-.40529,2.26Z"/>
    <path class="cls-2" d="M130.33273,32.51479c-5.90081,2.49865-6.53085,6.30053-4.06348,11.75812-4.25594-4.02735-8.16887-4.94109-12.45519.436,3.24109-5.86851,1.56865-9.47425-3.83466-12.32343,6.16451,1.16838,9.34837-1.09113,10.20891-7.37792C120.95811,31.49292,124.2848,33.50136,130.33273,32.51479Z"/>
    <path class="cls-2" d="M223.50755,120.88335c.7391,6.41227,3.89122,8.71249,10.22894,7.47476-4.66063,2.76885-7.202,6.07209-4.21525,11.26857-3.12217-.23556-4.12633-3.59316-6.76237-2.77118-1.90838.595-2.98157,2.95356-6.62024,3.175,4.89847-5.52928,2.39742-8.72164-2.9264-11.47582C219.3691,129.39865,222.85689,127.34531,223.50755,120.88335Z"/>
    <path class="cls-2" d="M192.51062,128.338c-3.41778,2.9446-7.44279,5.05311-4.18406,11.10558-4.81654-4.48619-8.31425-1.90945-12.06848,1.08961,2.52266-5.17667,2.54534-9.28524-3.997-11.91374,6.13146.72056,9.8111-1.12821,10.209-7.71329C183.57682,126.7647,186.09274,129.99287,192.51062,128.338Z"/>
    <path class="cls-2" d="M135.81449,140.48191c2.5785-5.51462,1.72088-9.32007-4.49321-11.82381,5.95913.39061,9.95718-.77678,10.05436-7.69817,1.45579,5.56961,3.86725,9.079,10.081,6.92964-.58818,2.55253-2.40986,3.09764-3.67967,3.78812-3.71632,2.0208.95634,5.30689-1.0918,6.91016-2.17681,1.704-3.92757-3.94519-6.86539-1.022A31.02444,31.02444,0,0,1,135.81449,140.48191Z"/>
    <path class="cls-2" d="M89.28035,110.033c-4.88852,2.36671-6.31027,5.78063-4.5014,11.47849-3.64059-2.84807-6.435-4.70589-9.47891-1.0792-1.03861,1.23745-2.75917.19465-1.97661-1.01885,3.29109-5.10339-.97067-6.75731-4.49881-9.48878,4.44488-1.31031,10.62343.54267,10.29133-7.537C80.05873,108.84994,83.21832,111.13665,89.28035,110.033Z"/>
    <path class="cls-2" d="M31.86913,44.076c2.03185-4.54877,3.26062-8.87282-3.88318-11.4013,5.62792.07439,10.44125-.218,10.08913-8.04259,1.05186,6.7,4.38319,8.83582,10.59347,7.79377-5.69778,2.53382-6.77737,6.34612-4.41544,12.08292-4.56655-7.05-8.38542-1.82014-12.291-.55672Z"/>
    <path class="cls-2" d="M192.3349,51.3249c-2.88031,3.227-8.00631,4.90562-3.73115,11.2304-4.886-4.13577-8.55644-2.4335-12.42159.854,2.6331-5.3854,2.69843-9.394-4.06579-11.66885,6.45509.7867,9.75363-1.32129,10.30248-7.60806C183.90755,49.23976,185.65484,53.47806,192.3349,51.3249Z"/>
    <path class="cls-2" d="M213.49406,51.45839c6.56,1.61718,8.87065-1.59,9.92866-7.2902,1.11572,5.73554,3.82413,8.78786,10.09157,7.16-2.98824,3.03165-7.34761,4.75171-4.561,9.77428.4133.74491-1.08162,1.374-1.684.74216-2.82294-2.96128-5.35161-1.86593-8.00688.20806-.3717.29032-1.24431-.06068-2.33587-.15291C221.33777,56.72186,217.54751,54.29166,213.49406,51.45839Z"/>
    <path class="cls-2" d="M148.08957,25.09445c-4.43817-4.6434-8.33859-4.6127-12.75934.19022,2.61232-5.413,2.40649-9.54791-3.92078-12.01782,5.97705.49874,10.13966-.74558,9.98605-7.988,1.36323,5.80927,3.72739,9.466,10.64918,7.704C146.41606,15.8842,144.62291,19.39141,148.08957,25.09445Z"/>
    <path class="cls-2" d="M171.01869,32.34309c-5.12595,2.82116-6.82461,6.24953-3.62155,11.81771-4.405-3.70967-8.32742-4.9676-12.50738.4082,2.53032-5.51085,2.0502-9.4982-4.09659-11.84243,5.566.10683,9.87827-.61582,10.0351-7.76044C162.28976,30.44022,164.40211,34.21572,171.01869,32.34309Z"/>
    <path class="cls-2" d="M211.648,70.98747c-4.911,4.75982-4.911,4.75982-3.63659,12.82567-4.32734-5.5259-8.35364-5.19-12.6328-.21628,3.00277-5.57413,2.77589-9.516-3.4783-12.03593,5.37891-.01342,9.86558-.53425,9.76321-7.92911C203.1311,69.49167,205.527,72.90115,211.648,70.98747Z"/>
    <path class="cls-2" d="M151.38685,51.31015c-2.32278,3.16129-7.34787,4.38768-4.27816,9.43129.46167.75856-.86006,1.784-1.42472,1.16269-3.46924-3.81736-6.34188-.94463-11.02771,1.927,3.79908-6.26485,2.28385-9.76654-3.23086-12.1099,6.26586.74649,9.64567-1.43058,10.12136-7.81465C142.86834,49.22737,144.65863,53.39562,151.38685,51.31015Z"/>
    <path class="cls-2" d="M151.792,90.18353c-6.63154,2.61819-6.01593,6.87906-3.71,12.08311-4.40894-5.03208-8.42276-4.4934-12.73371-.09738,2.42532-5.23245,2.69471-9.36883-3.89842-11.91152,6.22529.79068,9.5607-1.44658,10.05293-7.7908C142.83346,87.89338,144.94872,91.81418,151.792,90.18353Z"/>
    <path class="cls-2" d="M191.763,12.767a6.072,6.072,0,0,1,.30873.79608c-4.85028,2.63314-6.09758,6.35843-3.0011,11.767-4.43147-4.87246-8.44754-4.68764-12.80991-.12135,2.72868-5.44632,2.27139-9.4-4.04067-12.09985,6.24662,1.00645,9.76642-1.04845,10.24317-7.63257,1.04677,5.70575,3.611,8.76768,9.37822,7.37425Z"/>
    <path class="cls-2" d="M12.76819,24.24284c2.84744-5.06145,1.24221-8.39185-3.94836-10.51752,2.70054-1.53132,5.29261.05441,7.08314-1.17441,1.99657-1.37023,1.53743-4.24629,3.37258-7.30885.88975,5.86159,2.9824,9.74633,9.87092,7.596-4.76842,3.17141-8.21952,6.342-3.115,12.07308C19.1281,21.5139,19.1281,21.5139,12.76819,24.24284Z"/>
    <path class="cls-2" d="M189.11744,102.29009c-4.47956-5.06267-8.47956-4.73316-12.64029.41853,1.36194-8.13126,1.36194-8.13126-4.03786-12.914,6.29924,1.28849,9.42285-1.03854,9.94383-7.18644,1.55194,5.17882,3.32826,9.5918,10.662,7.16042C187.00266,92.80118,185.8999,96.6812,189.11744,102.29009Z"/>
    <path class="cls-2" d="M44.19778,120.94719c-.271.11539-.643.40867-.79851.32044-5.46905-3.10323-5.46618-3.10829-11.91465,1.036,2.98845-5.5947,2.766-9.73083-3.50511-12.31219,6.15515,1.0392,9.59034-1.10088,10.39521-7.563.701,6.528,3.99268,8.641,10.27359,7.56592-6.11485,2.39394-6.07686,6.45639-4.57107,11.03272Z"/>
    <path class="cls-2" d="M213.37661,90.2421c6.45407,1.22571,9.23013-1.66233,10.10772-7.74253.97276,5.98982,3.611,9.06717,10.3493,7.47428-5.977,2.83661-6.96473,6.78186-3.8507,12.28634-4.33939-4.30311-8.22684-5.47173-12.67313-.03382C219.37178,97.01017,220.04863,92.68629,213.37661,90.2421Z"/>
    <path class="cls-2" d="M110.17671,71.10193c5.92162,1.1197,9.46147-.60536,9.81134-7.51658,1.09686,6.31714,3.96556,8.94654,10.113,7.46683-4.45654,3.08326-7.64118,6.19742-2.33494,12.28481-6.8954-3.28183-6.8954-3.28183-14.60762-1.06717C117.78556,76.76564,114.34465,74.0003,110.17671,71.10193Z"/>
    <path class="cls-2" d="M167.33506,82.676c-6.21279-3.53092-6.21279-3.53092-12.09675.17244-.62059-2.46894,2.02863-4.64909,1.16915-6.54489-.85463-1.8851-3.19632-3.096-5.66817-5.30011,5.83522.82246,9.82994-.37218,10.04124-7.09989,1.664,5.25171,3.551,9.34568,10.50318,6.9656C166.35761,73.959,163.70782,77.2544,167.33506,82.676Z"/>
    <path class="cls-2" d="M69.1978,71.25347c6.23909,1.25041,9.09449-1.2362,9.867-7.26716,1.37465,5.43553,3.70947,8.91244,10.35013,7.06234-5.2638,2.8474-7.163,6.41663-4,12.12409-4.36067-4.74986-8.14263-4.56209-12.33962.05973C75.3809,77.97131,75.23061,73.89548,69.1978,71.25347Z"/>
    <path class="cls-2" d="M217.31571,179.2075c2.10855-5.29944,2.68367-9.5868-4.22043-11.75479,5.70833.39056,9.87171-.85562,10.18642-7.76971,1.31334,5.69354,3.95859,8.86676,10.40281,7.26926-5.65924,2.89715-6.89151,6.61626-3.813,12.13995C225.51753,174.63392,221.51145,174.19688,217.31571,179.2075Z"/>
    <path class="cls-2" d="M65.52754,24.67832c-1.96109-1.19472-3.83089-3.11288-5.90967-3.37525-1.97327-.24906-3.2606,3.23228-6.58422,2.46562,4.7565-4.9925,1.00654-7.68822-3.10017-10.79382,6.29864,1.51578,9.01737-1.32055,9.74094-7.23862,1.64967,5.16623,3.56828,9.23544,10.3685,7.16381C64.83774,16.02068,62.39218,19.35389,65.52754,24.67832Z"/>
    <path class="cls-2" d="M28.23768,71.21368c6.74843,1.73729,8.96949-1.89951,10.19364-7.5376.7007,6.26993,3.62644,8.77333,10.01437,7.51243-5.77633,2.674-6.43536,6.63814-4.08026,12.09158-4.26074-5.018-8.08041-4.71939-12.24208.06974C34.47824,77.9185,34.39774,73.86553,28.23768,71.21368Z"/>
    <path class="cls-2" d="M214.18539,12.90207c5.51791,1.13838,8.4942-1.18948,9.19359-7.3588,1.15894,5.90393,3.81385,9.09721,10.36407,7.3619-5.18259,2.86743-7.17306,6.51855-4.26617,12.36015-4.38251-5.59132-8.05568-4.17254-11.45538-.28545-1.12416-.98691-.48041-1.753-.17831-2.37434,1.60357-3.29795,1.44872-5.94885-2.3163-7.65546-.68474-.31038-2.02851-.70819-1.2482-2.10324Z"/>
    <path class="cls-2" d="M148.06394,178.95045c-4.41109-4.55991-8.414-4.55976-12.77643.22662,3.0349-5.43618,2.02595-9.22766-3.54024-12.22816,6.88983,1.75762,8.915-1.94744,9.60082-8.62259,2.02594,5.46833,2.21158,11.35047,9.92738,8.69807C146.30159,170.18308,144.85869,173.71522,148.06394,178.95045Z"/>
    <path class="cls-2" d="M110.775,167.0445c-5.50843,2.91539-6.87563,6.39566-3.4079,11.85319-4.42975-3.5131-8.40069-5.37184-13.04661.04027,3.71778-5.94288,1.23953-8.98743-3.44793-11.87378,6.19482,1.17515,9.08619-1.4382,9.78181-7.46825C102.11363,164.843,104.06453,168.91285,110.775,167.0445Z"/>
    <path class="cls-2" d="M25.27478,100.8529c-3.58609.8932-4.0837-3.18445-6.63212-2.65719-2.1411.443-3.26844,3.42793-6.53769,2.49746C16.89553,95.735,13.35026,93.079,7.76245,89.86883c6.62437.60921,10.9395-.14895,10.88792-7.3838,1.49415,5.64921,3.68432,9.36467,10.356,7.40612C24.91943,92.85914,21.49646,95.63651,25.27478,100.8529Z"/>
    <path class="cls-2" d="M48.96213,166.23892c7.167,2.07473,10.058-.54461,10.77474-6.61406,1.40239,5.504,3.70316,9.04694,10.70115,6.62236-5.42331,5.09665-5.42331,5.09665-5.49524,11.34062-5.11649-2.23942-5.11649-2.23942-11.53863,1.26779-.16829-2.65489,2.82634-4.70688,1.76745-6.86995C54.26079,170.12511,51.98657,168.932,48.96213,166.23892Z"/>
    <path class="cls-2" d="M49.91837,90.14151c6.30226,1.38669,8.97193-1.5553,9.89511-7.48789,1.14739,5.85267,3.77118,8.88923,10.06131,7.26485-3.95233,2.91986-7.40355,5.53686-4.41534,11.402-4.36417-5.27761-7.99541-1.806-12.18486.03289C57.0763,96.0519,54.94573,92.9647,49.91837,90.14151Z"/>
    <path class="cls-2" d="M26.08756,179.33742c-4.35293-2.01489-6.96571-6.35352-11.07677-2.36479-.51245.49719-2.58072-.07885-1.76107-1.25155,3.55775-5.09026-2.17478-5.76076-3.9664-8.35456,6.96952-1.07387,6.96952-1.07387,10.05-7.98854.66442,6.19764,3.44555,9.0573,9.7975,7.59893C23.37473,169.8017,22.32156,173.62,26.08756,179.33742Z"/>
    <path class="cls-2" d="M189.14817,179.17365c-4.35064-5.05129-8.3721-4.26166-13.08626-.72424,4.33613-5.69617.84588-8.469-3.3308-11.56425,6.68842,1.71737,8.87271-1.8219,9.78306-7.4223,1.23465,5.367,3.14388,9.37883,10.20624,7.39C187.7896,169.98422,184.67771,173.26467,189.14817,179.17365Z"/>
    <path class="cls-2" d="M94.34639,100.98851c4.14551-5.32919.6785-7.99854-3.66077-10.50974,7.46513-1.20655,7.46513-1.20655,10.41708-8.43371.86564,6.04733,2.99306,9.8307,9.84654,7.8686-4.81445,2.64468-6.92339,5.95478-4.727,11.53571C102.05193,95.72623,98.33311,99.822,94.34639,100.98851Z"/>
    <path class="cls-2" d="M94.43442,24.02964c3.63442-5.24795,1.13472-8.20149-4.36786-10.52292,8.11566-1.07542,8.11566-1.07542,10.90165-8.36,1.19716,5.49266,2.79449,9.99965,9.47432,7.30687-.26253.6394-4.67768,11.3929-4.90512,11.94684C102.05957,18.78863,98.33336,22.81256,94.43442,24.02964Z"/>
    <path class="cls-2" d="M214.27869,12.84683l-.32669.10412a1.98818,1.98818,0,0,0,.22618-.0387A1.03783,1.03783,0,0,1,214.27869,12.84683Z"/>
    <path class="cls-2" d="M154.45068,159.66448l.564.46322c-.06177-.02207-.1413-.02716-.1818-.06956-.10012-.10484-.18237-.22676-.29636-.34953A.68417.68417,0,0,1,154.45068,159.66448Z"/>
    <path class="cls-2" d="M195.69965,159.74205l.27046.29251c-.0451-.07033-.0902-.14063-.149-.2184C195.80742,159.8087,195.69965,159.74205,195.69965,159.74205Z"/>
    <path class="cls-2" d="M191.84144,12.8506l.29911.10824s-.3623-.16748-.36993-.17964S191.84144,12.8506,191.84144,12.8506Z"/>
    <path class="cls-2" d="M31.96207,43.95207l.08449.21786a1.172,1.172,0,0,0-.17208-.10419C31.86913,44.076,31.96207,43.95207,31.96207,43.95207Z"/>
    <path class="cls-2" d="M13.24331,140.13922l-.37945.11451c.146-.00638.292-.01275.44215-.00959C13.31019,140.25365,13.24331,140.13922,13.24331,140.13922Z"/>
    <polygon class="cls-2" points="135.762 63.36 135.534 63.491 135.541 63.218 135.762 63.36"/>
    <path class="cls-2" d="M66.29137,63.03606l-.074.11107s-.03466-.2207-.02924-.21445S66.29137,63.03606,66.29137,63.03606Z"/>
    <path class="cls-2" d="M54.2306,63.24681a2.24163,2.24163,0,0,1-.40561.0304c-.03475-.003-.05893-.12967-.08795-.19955.17738.09063.35476.18125.53555.2847C54.276,63.37519,54.2306,63.24681,54.2306,63.24681Z"/>
    <path class="cls-2" d="M54.2895,140.29547a2.90974,2.90974,0,0,1-.47035.00444c-.04809-.00653-.081-.1248-.12093-.19191.20962.09259.41924.18519.63391.29307C54.33717,140.41639,54.2895,140.29547,54.2895,140.29547Z"/>
    <path class="cls-2" d="M84.60978,44.47363,85.014,44.23c-.10508.08413-.21016.16826-.32642.25716A.3128.3128,0,0,1,84.60978,44.47363Z"/>
    <path class="cls-2" d="M44.07724,121.027l.6082.565c-.15926.03088-.35039.13369-.47207.07978-.44822-.19859-.44348-.46383-.01651-.72445Z"/>
    <path class="cls-2" d="M208.40993,159.60863l-.145.23068c.03523-.10081.07045-.20161.10339-.306Z"/>
  </g>
</svg>
