<svg id="Base" xmlns="http://www.w3.org/2000/svg" viewBox="0 0 1920.00022 1080">
  <defs>
    <style>
      .cls-1 {
        fill: #f2893c;
      }
    </style>
  </defs>
  <title>imagensPrancheta 29</title>
  <path class="cls-1" d="M1920.00022,0H.53952V345.56016a36.962,36.962,0,0,0-.5393,7.68674q.63171,355.51647.31884,711.03434c32.17871,1.6565,64.31006,1.72169,96.15992-3.275,6.69775-1.05075,14.42407-4.37327,19.18139.87535,17.94531,19.79708,40.34009,9.88613,60.05249,5.80124,15.91016-3.29723,27.81421-5.3254,45.04053.33269,16.43921,5.39942,38.55762-.1501,57.58667-3.461,16.56323-2.882,31.97314-3.00305,47.96826,1.39295,22.19092,6.09867,43.884,5.76134,64.32715-5.563,3.21558-1.78132,9.15112-4.025,11.04443-2.80075,22.36377,14.45915,46.05909,3.59745,69.07227,3.26011a312.09631,312.09631,0,0,0,36.39209-2.66409c11.19678-1.48645,20.93115-5.08737,21.65234,11.10252.37525,8.43008,13.03467,9.25114,21.67432,9.77361,35.44263,2.14325,70.478,1.69479,103.35864-12.84348,6.20386-2.7432,14.71558-8.1294,19.18628,3.53342,1.51294,3.94707,8.541,3.3072,13.03858,2.81513,36.08911-3.94708,73.00756-5.41868,105.56-21.75056,7.6814-3.85381,10.37305-.35751,15.26953,3.09725,18.2356,12.86621,37.01368,15.13637,57.60254,2.77963,14.53394-8.7231,61.1919-10.30049,65.65088-1.85626,8.63965,16.36088,26.08545,17.32834,41.51856,22.21967a29.70858,29.70858,0,0,0,13.93457,1.06536c36.4541-7.28793,73.50586-9.03955,110.70068-10.14528,19.8086-.58906,21.43872-3.73085,9.96948-18.68533a36.81945,36.81945,0,0,1,27.29908,1.24285c19.09594,8.20433,38.8042,9.47571,59.42529,5.56877,12.37305-2.34439,25.38037-1.17509,35.09643,5.39362,14.17994,9.58638,29.8501,10.69188,46.15137,9.92511a216.81615,216.81615,0,0,1,32.28931.51992c26.37158,2.65945,49.7456,5.012,75.75122-12.06975,25.29272-16.61353,61.46094-7.20417,92.13647-.11879,10.99732,2.54021,21.70459,7.05082,33.14063,6.82555,39.27563-.77374,77.10449,13.78285,116.7749,8.00342,4.64673-.67676,10.208.01021,13.84229-1.9943,25.31982-13.9629,51.396-8.51546,74.96753.80528,27.5083,10.87725,53.47827,3.97027,76.34472-4.48115,20.32422-7.512,40.3938-8.37277,60.54907-10.23065,22.91748-2.11239,45.665-4.42083,68.19043-8.55211q0-5.195-.00073-10.38981h1.7815Z"/>
</svg>
