<svg id="Base" xmlns="http://www.w3.org/2000/svg" viewBox="0 0 250 250">
  <defs>
    <style>
      .cls-1 {
        fill: #fff;
      }
    </style>
  </defs>
  <title>imagensPrancheta 8 cópia 6</title>
  <g>
    <path class="cls-1" d="M125.09649,40.78245c32.11411,0,64.2308.23666,96.34113-.11158a24.87238,24.87238,0,0,1,25.186,25.09887c-.14854,39.446-.03491,78.89286-.05958,118.33936-.00926,14.806-10.45462,25.20835-25.31422,25.21237q-96.20312.026-192.40622.00091C13.819,209.31875,3.44508,198.93884,3.43836,183.92131c-.01759-39.3537.107-78.7079-.06442-118.06086A24.89205,24.89205,0,0,1,28.47683,40.675C60.68033,41.00733,92.88957,40.78248,125.09649,40.78245Zm-.297,158.77258q48.02813,0,96.05622.01805a19.65209,19.65209,0,0,0,7.34954-1.24728c1.8061-.71129,1.95413-1.49814.629-3.00413q-31.81179-36.15518-63.50135-72.41755c-1.8816-2.157-3.09037-2.11527-5.1314-.2793-10.00264,8.99775-20.12536,17.862-30.19741,26.78269-4.00984,3.55147-5.92963,3.57731-9.85438.10241-10.21265-9.0421-20.45922-18.04632-30.61649-27.15017-1.69372-1.518-2.64373-1.5568-4.21147.24245Q64.20037,146.84283,42.9107,170.93688c-7.16344,8.15741-14.27031,16.36483-21.478,24.48278-1.452,1.63539-1.2076,2.39242.7644,3.07244a20.573,20.573,0,0,0,6.82461,1.07855Q76.91057,199.5357,124.79949,199.555Zm.18891-149.02539q-48.58062,0-97.16125.02186c-1.15742.001-2.90684-.524-3.34242.58547-.546,1.39085,1.27945,2.014,2.18,2.81152Q54.484,78.58284,82.36394,103.14871c13.49654,11.90888,27.02375,23.78327,40.46572,35.75337,1.68253,1.49829,2.75513,1.4986,4.38375-.02038,3.73007-3.47889,7.64372-6.76047,11.47-10.13675q42.1591-37.20126,84.29927-74.424c1.01111-.8936,2.98758-1.76159,2.58631-2.95444-.51609-1.53414-2.59409-.80646-3.97614-.80822Q173.29066,50.49715,124.9884,50.52964ZM13.20357,124.86008q0,28.817.00062,57.63391c0,1.02087-.02479,2.04333.02356,3.06212.04706.99161-.24674,2.34333.80494,2.74688.97323.37343,1.47026-.92157,2.04872-1.5709,4.01179-4.50331,7.97358-9.0512,11.95085-13.58528q24.96534-28.46032,49.97162-56.88449c1.6568-1.87518,1.45743-2.76623-.36416-4.35955C62.48424,98.6463,47.43053,85.27351,32.345,71.937q-7.2996-6.45327-14.60811-12.89647c-2.23557-1.96257-2.72707-1.80805-3.73109,1.04062a17.80719,17.80719,0,0,0-.81307,6.03132Q13.22156,95.48627,13.20357,124.86008Zm222.71128,63.78226a5.42264,5.42264,0,0,0,.87394-3.79113q.014-59.96763.01752-119.93523a15.01384,15.01384,0,0,0-.66752-4.38063c-1.01617-3.35987-1.51542-3.52079-4.13479-1.20855Q202.28158,85.56438,172.54,111.78c-1.99956,1.75344-1.82189,2.72861-.176,4.58359,12.92533,14.56752,25.7375,29.23545,38.588,43.86944C219.2052,169.63174,227.4642,179.0254,235.91485,188.64234Z"/>
    <path class="cls-1" d="M125.04946,212.70969q-48.109,0-96.20486-.01318C11.90564,212.68992.07275,200.857.06616,183.91807L.07933,145.1515Q.109,105.512.00027,65.87242A28.25769,28.25769,0,0,1,28.50859,37.30481c22.90811.23059,45.82282.1713,68.74411.14494l27.84288-.03953,27.75064.03953c22.84882.04612,45.70423.09224,68.55305-.15153a28.247,28.247,0,0,1,28.60056,28.482q-.14825,39.44189-.06589,78.88377l.00659,39.44518c-.01318,16.55683-12.08326,28.58079-28.69279,28.58738Q173.14859,212.7064,125.04946,212.70969ZM28.22528,44.0514A21.50786,21.50786,0,0,0,6.74687,65.84607q.168,39.64941.07906,79.312l-.01318,38.76c.00659,13.17035,8.8615,22.02526,22.03185,22.03184q96.18839.01977,192.40314,0c12.90681-.00658,21.933-8.98667,21.94619-21.84078l-.00658-39.44518q-.02966-39.45177.06588-78.91012a21.47377,21.47377,0,0,0-6.33811-15.45656,22.5542,22.5542,0,0,0-15.43679-6.25246c-22.88176.24378-45.76352.20425-68.64528.15154l-27.73747-.03953-27.8297.03953c-22.94765.03294-45.88871.08565-68.82318-.145ZM220.85243,202.94557q-40.01508-.03952-80.04334-.01976H108.83523q-39.87672.01975-79.81274.01976a23.88919,23.88919,0,0,1-7.92593-1.265c-.79062-.27012-3.19541-1.10027-3.8279-3.51165-.6325-2.418,1.08051-4.34839,1.64053-4.98747,4.64487-5.23125,9.24362-10.49544,13.849-15.75963l19.71271-22.46669Q67.6507,137.69,82.77783,120.38543a6.43458,6.43458,0,0,1,4.36157-2.51679,6.51177,6.51177,0,0,1,4.64487,1.98313q10.8018,9.67516,21.70243,19.26469l8.89443,7.87322c2.63539,2.31256,2.63539,2.31914,5.38937-.10541l8.822-7.79416c7.13532-6.30517,14.27063-12.60375,21.35324-18.9748a6.78385,6.78385,0,0,1,5.13242-2.21373,7.12826,7.12826,0,0,1,4.79641,2.78692q31.6543,36.27942,63.48651,72.40731c.53367.59955,2.18078,2.4575,1.60759,4.84252a5.33429,5.33429,0,0,1-3.52484,3.52484A22.67558,22.67558,0,0,1,220.85243,202.94557Zm-63.96088-6.76636q31.98044,0,63.96088.01977a19.1771,19.1771,0,0,0,3.92014-.36237c-20.84593-23.72509-41.45467-47.18663-61.98434-70.71406a1.69512,1.69512,0,0,0-.13836-.15813,2.12426,2.12426,0,0,0-.19107.1713q-10.64367,9.56646-21.40594,19.00774l-8.81537,7.78758c-5.25761,4.65805-9.1448,4.691-14.32334.112l-8.89444-7.86663Q98.28709,134.689,87.60718,125.16866c-10.25166,11.70772-20.16072,22.974-30.06979,34.24029L37.83786,181.85587q-6.13716,7.02661-12.30067,14.02027a17.8644,17.8644,0,0,0,3.4853.32284q39.91626-.03954,79.81274-.01977h48.05632Zm79.22637-2.18737-36.84933-41.95539q-14.68569-16.75119-29.4307-33.4299a6.756,6.756,0,0,1-2.1149-4.88865,6.68862,6.68862,0,0,1,2.58927-4.47357q20.5165-17.98653,40.93418-36.07847L229.77322,56.8001c1.33087-1.17934,3.32718-2.95823,5.81762-2.24008,2.47726.705,3.22835,3.18882,3.77519,5.00065a18.13484,18.13484,0,0,1,.81038,5.3696l-.01317,119.92336a8.60652,8.60652,0,0,1-1.54829,5.811Zm-61.19373-79.81933q14.77465,16.64247,29.41753,33.41013l29.08151,33.11366.00659-115.77921a11.06591,11.06591,0,0,0-.21083-2.161L215.71342,78.21922Q195.34516,96.22551,174.92419,114.17251ZM14.36314,191.75176a4.25779,4.25779,0,0,1-1.52194-.28989c-3.07022-1.19252-3.00434-4.31545-2.98457-5.34325-.03953-1.21887-.03295-2.049-.02636-2.87917L9.8171,66.11619a21.19027,21.19027,0,0,1,1.008-7.16166c.54026-1.52194,1.35064-3.84108,3.74884-4.467,2.36526-.6259,4.26274,1.0278,5.38937,2.01607l24.463,21.61678q17.69,15.66409,35.4328,31.24253a6.55308,6.55308,0,0,1,2.642,4.4604,6.45784,6.45784,0,0,1-1.97654,4.67781Q60.80857,140.81629,41.198,163.25l-13.88191,15.8321q-4.33851,4.96112-8.71655,9.89588C17.11712,191.12585,15.62154,191.75176,14.36314,191.75176ZM16.80088,62.71a19.0379,19.0379,0,0,0-.23719,3.39966l.01318,114.982q2.84622-3.22176,5.66608-6.4567l13.88191-15.8321q19.52823-22.2855,39.12235-44.5183Q57.5374,98.7983,39.95935,83.17375Zm108.23541,80.67584a6.73794,6.73794,0,0,1-4.45381-1.96995q-15.40715-13.7172-30.9197-27.33557L71.59719,98.14934q-23.59-20.82286-47.16686-41.67867c-3.12294-2.08195-4.019-4.19027-3.09-6.5687,1.265-3.202,4.75029-2.87258,5.90986-2.76716,28.337.01976,56.09425.01976,83.85807.01976H142.555q39.53084-.00989,79.04189.03295a5.423,5.423,0,0,0,.69179-.06589c1.32429-.11859,5.22466-.5732,6.48306,3.16906,1.09369,3.26788-1.825,5.31689-2.92528,6.09433a7.51841,7.51841,0,0,0-.63249.46778q-42.13,37.22817-84.2995,74.42338l-3.80813,3.32059c-2.55633,2.22031-5.11925,4.44063-7.59651,6.75318A6.57963,6.57963,0,0,1,125.03629,143.38579ZM31.72376,53.92093Q53.8808,73.53811,76.06418,93.0894l18.059,15.93092q15.45655,13.61837,30.8604,27.28286c2.76057-2.51679,5.23124-4.65805,7.70192-6.7993l3.762-3.28765Q177.40145,90.08506,218.329,53.92752q-37.87053-.05929-75.774-.02635H111.10826Q71.449,53.91106,31.72376,53.92093Z"/>
  </g>
</svg>
