<svg id="Base" xmlns="http://www.w3.org/2000/svg" viewBox="0 0 250 250">
  <defs>
    <style>
      .cls-1 {
        fill: #fff;
      }
    </style>
  </defs>
  <title>imagensPrancheta 8 cópia 10</title>
  <g>
    <path class="cls-1" d="M117.24609,0h20.00842c4.0901.58637,8.23146.93316,12.26247,1.79563Q221.81367,17.264,245.25425,87.42746c2.61642,7.88413,3.7236,16.1066,4.73067,24.32693v20.00842c-.78822,5.70733-1.47986,11.42452-2.775,17.05581-12.04652,52.37662-57.64271,91.30626-111.30055,94.75651-22.25546,1.431-43.54967-2.55474-63.54282-12.65378a8.101,8.101,0,0,0-6.69985-.4479c-16.47134,5.31888-32.9779,10.52868-49.47348,15.77248-3.71736,1.18171-7.40958,2.45306-11.16174,3.51169-3.59487,1.01423-5.76268-1.26043-4.77912-4.84725.12884-.46983.28805-.93179.44464-1.39351,6.3946-18.85563,12.74824-37.72539,19.23649-56.54875a7.75534,7.75534,0,0,0-.61959-6.85639C5.653,155.0006.70144,128.19086,6.39451,100.19621,16.27278,51.62159,45.661,20.04843,92.646,4.70761,100.63,2.1008,108.93271.979,117.24609,0Zm106.808,121.11385A87.63063,87.63063,0,0,0,217.36159,86.695c-9.06336-22.49586-24.496-39.29915-46.01357-50.37523A97.124,97.124,0,0,0,80.0788,37.9522,95.18059,95.18059,0,0,0,38.73,82.96233a93.71285,93.71285,0,0,0-6.93487,55.04482,92.53047,92.53047,0,0,0,16.02075,38.63941,6.61772,6.61772,0,0,1,.89577,6.61175c-3.00242,8.507-5.84806,17.06955-8.71144,25.625-.23548.70359-.99866,1.56484-.20807,2.23054.58046.48873,1.38955-.037,2.0749-.255,8.675-2.75862,17.38893-5.40308,26.00358-8.33886a9.44448,9.44448,0,0,1,8.67193.99247c26.78157,15.89127,54.97177,18.824,84.32221,8.2969A96.082,96.082,0,0,0,224.05411,121.11385Z"/>
    <path class="cls-1" d="M160.62259,180.708c-7.10043-.29084-13.36575-1.99506-19.608-3.842-24.1397-7.14227-42.61257-22.101-57.56583-41.84682C77.85582,127.63376,72.2742,120.213,68.853,111.46179c-4.68518-11.98431-4.68264-23.72894,1.45549-35.293,4.07892-7.68457,11.04483-10.30607,19.02089-11.38927,7.95027-1.07969,10.4437.285,13.58292,7.6731,2.8924,6.80714,5.69526,13.65259,8.623,20.44433a10.13824,10.13824,0,0,1-.455,9.35088,48.896,48.896,0,0,1-6.93617,9.08643c-.86506.9764-1.43558,1.83694-.47171,3.188,9.10458,12.76168,19.98906,23.5564,34.21506,30.51778,6.061,2.96591,4.73891,2.60237,8.53259-1.805,2.22607-2.58617,4.30947-5.29642,6.42429-7.97668,2.42024-3.06733,5.58372-4.06462,9.12007-2.646a246.83986,246.83986,0,0,1,26.41329,12.53681c2.47106,1.34985,3.23471,3.83626,3.12274,6.47842-.55945,13.20114-4.53883,20.74117-19.70318,27.149a19.88028,19.88028,0,0,1-4.67894,1.31815C164.79535,180.4511,162.43253,180.54792,160.62259,180.708Z"/>
  </g>
</svg>
