<svg id="Base" xmlns="http://www.w3.org/2000/svg" viewBox="0 0 250 250">
  <defs>
    <style>
      .cls-1 {
        fill: #fff;
      }
    </style>
  </defs>
  <title>imagensPrancheta 8 cópia 12</title>
  <path class="cls-1" d="M164.359.029C195.64148.81367,190.08894-2.251,190.68536,26.729c.05556,2.69856-.10184,5.40158-.04285,8.1.1243,5.68859-2.53449,8.04932-8.262,7.83838a162.49958,162.49958,0,0,0-19.78839.2294c-11.6968,1.00094-16.429,6.17492-16.86163,17.95366-.25316,6.89212.1528,13.81059-.16345,20.69764-.30764,6.69928,2.65245,9.07415,9.13742,8.81886,8.388-.33021,16.80965.18846,25.19717-.14776,6.18772-.248,8.88412,1.73048,7.923,8.2772-1.52352,10.37808-2.68341,20.81129-3.8839,31.23421-.55762,4.841-3.25841,6.61071-7.9121,6.51792-6.898-.13751-13.82849.37862-20.69485-.102-7.61683-.53319-9.88571,2.708-9.823,9.97278.259,30.00234.12058,60.00832.09464,90.0129-.0118,13.62843-.04725,13.63487-13.211,13.65458-8.10124.01212-16.24-.48582-24.29339.13446-8.34109.64242-11.07694-2.6153-10.98923-10.74749.30416-28.201.14042-56.40744.09875-84.61169-.03084-20.88,1.49938-18.04824-18.36207-18.33058-20.83981-.29625-19.5409,3.41283-19.56714-19.931-.02906-25.84486-.0026-26.18308,26.16009-25.81908,8.92366.12415,12.52606-2.35284,11.93275-11.6524a138.87055,138.87055,0,0,1,1.55049-34.09151C103.99121,17.27536,123.64649.67467,151.75761.04562,155.95606-.04833,160.15844.03255,164.359.029Z"/>
</svg>
