<svg xmlns="http://www.w3.org/2000/svg" viewBox="0 0 250 250">
  <defs>
    <style>
      .cls-1 {
        fill: #fff;
      }
    </style>
  </defs>
  <title>imagensPrancheta 8 cópia 14</title>
  <g id="Elementos_Frente" data-name="Elementos Frente">
    <g>
      <g>
        <path class="cls-1" d="M25.79825,154.7582c-15.141-1.44279-19.50639-10.25738-18.34377-23.95466.86539-10.19545-.19778-20.53976.25452-30.78876.68513-15.52415,6.824-28.55087,21.25505-35.46811C34.01,62.128,40.81686,63.002,46.81438,63.04822c7.10949.05472,14.54975,2.42932,21.25686,1.01043,20.42856-4.32177,37.94136,3.32635,41.61291,23.327,3.27143,17.82095,2.73755,36.63845,1.37212,54.82765-.39936,5.32028-9.38986,9.99555-17.13569,17.616,0,20.571.31733,45.34364-.2456,70.09625-.125,5.49462-1.89766,12.52054-5.59892,15.886-3.15957,2.87289-11.05882,3.40376-15.23368,1.46514-4.0082-1.86118-8.07664-8.08743-8.37069-12.63766-1.01881-15.766-.28166-31.63923-.50539-47.46751-.0524-3.70612-1.2556-7.396-1.92933-11.09343l-4.09251.07714c-.54024,3.79713-1.49842,7.58893-1.54663,11.39233-.18438,14.5454-.138,29.095-.05625,43.64231.05911,10.50824-4.04308,17.84937-15.38042,17.80994-11.38344-.03966-15.24965-7.46491-15.20083-17.96719C25.87754,205.82122,25.79825,180.60892,25.79825,154.7582Z"/>
        <path class="cls-1" d="M88.2546,30.37728c-.28613,16.25163-12.53768,28.22908-28.63366,27.993C44.03,58.14165,30.97615,44.98,31.06736,29.58094,31.16227,13.55468,44.87646.478,61.02477,1.016,77.20632,1.55521,88.54672,13.78327,88.2546,30.37728Z"/>
      </g>
      <path class="cls-1" d="M238.19456,214.29521c-8.34586-8.55536-16.67715-17.14292-25.40306-25.30124-4.00972-3.74894-3.64584-6.034.143-9.60731,8.69154-8.19727,17.072-16.73376,25.38581-25.31937,6.38964-6.59847,5.46862-15.42546-1.76227-19.73558-5.23708-3.12158-10.425-2.41719-15.50006,2.547q-13.40766,13.115-26.51775,26.53184c-2.64637,2.71975-4.47118,2.86672-7.18722.06347-8.4441-8.71532-17.07769-17.24871-25.713-25.77637-6.563-6.48109-13.5018-6.93015-18.89508-1.38774-5.26,5.40541-4.798,12.14546,1.46214,18.502,8.12873,8.25394,16.13388,16.6531,24.65211,24.49,4.28815,3.94516,3.82575,6.28216-.147,10.01748-8.83723,8.30933-17.29278,17.03053-25.76667,25.71775-3.60729,3.69806-4.92535,8.1621-2.78613,13.17653,2.081,4.87826,5.9662,7.26991,11.0929,7.83635,4.16093-.12068,7.33251-2.13262,10.15125-4.96551,8.43076-8.47281,17.03-16.78329,25.28554-25.42247,3.138-3.2837,5.18452-3.42777,8.39868-.06476,8.51027,8.90428,17.27176,17.57554,26.11344,26.15367,5.8918,5.71613,13.05193,5.65568,18.0816.24582C244.16843,226.74155,243.89027,220.13391,238.19456,214.29521Z"/>
    </g>
  </g>
</svg>
