<svg id="Base" xmlns="http://www.w3.org/2000/svg" viewBox="0 0 250 250">
  <defs>
    <style>
      .cls-1 {
        fill: #fff;
      }
    </style>
  </defs>
  <title>imagensPrancheta 8 cópia 13</title>
  <g>
    <path class="cls-1" d="M184.57617,250.25l-.27246-.0459a3.56837,3.56837,0,0,0-.44141-.06738,63.86937,63.86937,0,0,1-12.03613-1.96387,71.94882,71.94882,0,0,1-23.56347-11.43164,147.81086,147.81086,0,0,1-23.1543-20.82715c-.19043-.20605-.333-.31054-.42285-.31054-.08887,0-.22657.10351-.41992.31738-3.15625,3.47656-6.46485,6.834-9.834,9.97656A113.76283,113.76283,0,0,1,95.125,240.61133a69.16221,69.16221,0,0,1-24.17285,8.96484c-1.45215.24219-2.93457.38965-4.36914.53321l-1.36621.13964-5.71973.001c-.51758-.05176-1.01074-.0957-1.50391-.13867-1.06445-.09473-2.165-.19141-3.24121-.36035a52.60917,52.60917,0,0,1-20.92968-7.71973A53.15,53.15,0,0,1,9.874,206.96484c-.32422-1.5791-.51074-3.20019-.6914-4.76757-.07032-.60645-.13965-1.21289-.21778-1.81739l-.002-6.98925.15625-1.3584c.11328-.9961.22754-1.99219.36719-2.98535a57.398,57.398,0,0,1,4.293-14.66114l.24316-.56738c2.71484-6.33106,5.52246-12.87891,8.665-19.15918,1.84082-3.67871,3.57129-7.49316,5.24414-11.18262.88867-1.959,1.77734-3.918,2.68652-5.86718,7.96875-17.09864,16.64063-35.11524,27.291-56.7002,8.082-16.37793,16.46191-32.84961,24.31348-48.21094l.61523-1.207c1.2334-2.42383,2.50977-4.93066,3.95117-7.30176,2.748-4.52148,6.06836-9.6914,10.7041-13.81445a41.50768,41.50768,0,0,1,16.95508-9.22363A48.07935,48.07935,0,0,1,122.25-.249l6.19141-.001.24316.04492a3.19155,3.19155,0,0,0,.39551.06934,40.60053,40.60053,0,0,1,12.22265,3.02246,43.04,43.04,0,0,1,17.01172,12.97754,81.6199,81.6199,0,0,1,8.64356,13.8291c7.57617,14.60156,13.66406,26.49805,19.15918,37.43945,9.96582,19.84766,20.43554,41.46875,32.00683,66.09864q3.38233,7.20409,6.71582,14.43066,1.83691,3.96679,3.67871,7.92969c3.74805,8.05468,6.6543,14.76367,9.14649,21.11523a48.76406,48.76406,0,0,1,3.35059,16.16895,60.76309,60.76309,0,0,1-1.54395,13.9248,53.05625,53.05625,0,0,1-21.30078,33.47363,52.40808,52.40808,0,0,1-20.5791,9.001c-1.76465.36231-3.5752.5791-5.32617.79l-1.50684.18457ZM125.88477,16.08691a25.04709,25.04709,0,0,0-16.10938,5.74317,38.65481,38.65481,0,0,0-9.01855,11.68164c-3.51368,6.50976-6.90528,13.22461-10.18555,19.71777q-1.41065,2.79346-2.8252,5.583C78.70508,76.61523,70.876,92.416,63.81348,107.11621c-4.30957,8.9707-8.59278,18.0166-12.96778,27.26758-2.69726,5.70508-5.37109,11.53711-7.957,17.17773-2.456,5.35743-4.99512,10.89746-7.55176,16.32032a143.12937,143.12937,0,0,0-6.49609,15.49023A40.32083,40.32083,0,0,0,26.709,200.39063a35.13828,35.13828,0,0,0,9.22266,21.05761c7.57813,8.1377,16.67969,12.26465,27.05078,12.26465a44.162,44.162,0,0,0,7.67676-.70117,52.29027,52.29027,0,0,0,20.26367-8.62207,114.25964,114.25964,0,0,0,23.2666-20.69531c.669-.78711.669-.78711.043-1.56934a201.12256,201.12256,0,0,1-16.18359-23.3291A119.98539,119.98539,0,0,1,86.32031,152.877c-3.14746-10.30566-3.97754-18.93359-2.6123-27.15527,1.77441-10.68262,6.7373-19.27637,14.751-25.543a43.38952,43.38952,0,0,1,27.3711-9.28125c.53515,0,1.07031.00781,1.61035.02442a41.38246,41.38246,0,0,1,17.832,4.39941,40.87444,40.87444,0,0,1,18.27734,17.873c3.97364,7.668,5.38868,16.23242,4.32618,26.18261a80.87313,80.87313,0,0,1-5.62989,21.64258,141.08708,141.08708,0,0,1-13.40527,25.01563c-3.30469,5.01757-7.07812,10.16894-11.876,16.21093-.30664.38672-.38867.52637-.07031.88575a122.29088,122.29088,0,0,0,20.86231,18.94726,65.68127,65.68127,0,0,0,14.88867,8.44043,43.739,43.739,0,0,0,15.42285,2.95508h.001a37.80166,37.80166,0,0,0,7.42089-.73731,36.46359,36.46359,0,0,0,29.31153-36.45507,42.65448,42.65448,0,0,0-.51172-7.07813c-.57031-4-1.17188-7.58789-2.76953-10.99219-1.03906-2.21679-2.04-4.49414-3.00879-6.69628-1.52149-3.46094-3.09473-7.041-4.85352-10.46192-.9375-1.82617-1.7998-3.72656-2.63281-5.56445-.34082-.75-.68066-1.5-1.02637-2.2461-10.81738-23.35742-22.28515-47.248-35.05859-73.03906-6.5791-13.28418-13.665-27.26367-22.29785-43.99609a58.25806,58.25806,0,0,0-7.38477-11.40137A25.37111,25.37111,0,0,0,125.88477,16.08691Zm-.417,91.21094a26.56749,26.56749,0,0,0-9.2832,1.61133c-8.16406,3.03418-13.43262,8.63086-15.65918,16.63477a34.07543,34.07543,0,0,0-.48144,14.9414,72.37734,72.37734,0,0,0,6.501,19.5918c4.43164,9.21191,10.33789,18.47754,18.58594,29.16211.22656.29394.32129.3164.34473.3164.03027,0,.124-.03222.34961-.3291a203.44572,203.44572,0,0,0,12.17871-17.67285,104.8781,104.8781,0,0,0,10.64257-22.291c2.458-7.62207,3.23536-14.01172,2.44727-20.10938a23.60269,23.60269,0,0,0-4.3418-11.42578c-5.12207-6.85059-12.17285-10.35938-20.959-10.42774Z"/>
    <path class="cls-1" d="M128.44116,0a6.18253,6.18253,0,0,0,.61719.11328,40.18054,40.18054,0,0,1,12.14844,3.00366,42.54752,42.54752,0,0,1,16.91333,12.90479,80.67806,80.67806,0,0,1,8.6167,13.78638q9.68372,18.6643,19.157,37.43725c10.98535,21.8772,21.594,43.93652,32.00342,66.093,3.49487,7.439,6.92749,14.907,10.39453,22.3584,3.23242,6.94751,6.33789,13.96069,9.14136,21.10156a48.20607,48.20607,0,0,1,3.33276,16.08594,60.34854,60.34854,0,0,1-1.53955,13.86767A52.60739,52.60739,0,0,1,218.02319,240.072a51.94549,51.94549,0,0,1-20.48169,8.9585c-2.24609.46069-4.5271.68164-6.79809.96948h-6.167a6.98853,6.98853,0,0,0-.698-.11182,63.30409,63.30409,0,0,1-11.99-1.958A71.86384,71.86384,0,0,1,148.407,236.53711a147.60735,147.60735,0,0,1-23.115-20.792c-.24365-.26441-.42749-.39185-.60669-.39185-.18579-.00024-.36694.13648-.60522.39917q-4.70325,5.183-9.81934,9.96289a114.16434,114.16434,0,0,1-19.26391,14.6814,68.52087,68.52087,0,0,1-24.08594,8.93237c-1.89673.31665-3.81152.46753-5.72095.6709H59.49731c-1.56933-.16138-3.1499-.25195-4.70654-.49585a53.24148,53.24148,0,0,1-44.67139-42.58887c-.44531-2.16943-.62548-4.37524-.90649-6.56738v-6.95752c.17212-1.43628.31958-2.876.52124-4.30786a57.30536,57.30536,0,0,1,4.27441-14.5979c2.84229-6.62622,5.67164-13.25488,8.90235-19.71289,2.80444-5.60547,5.28442-11.373,7.93335-17.05689C39.70508,118.70313,48.85254,99.8291,58.134,81.01978,66.0979,64.88062,74.25342,48.83765,82.44556,32.813c1.46362-2.86328,2.88574-5.74439,4.55713-8.49414,3.032-4.98828,6.24658-9.834,10.65625-13.75781a41.076,41.076,0,0,1,16.85327-9.16871A47.61879,47.61879,0,0,1,122.27417,0h6.167m-65.458,233.96216a44.19412,44.19412,0,0,0,7.71973-.70435,52.72408,52.72408,0,0,0,20.35938-8.66089,113.88573,113.88573,0,0,0,23.31738-20.74072c.7998-.94263.81225-.93115.04785-1.88745a199.70942,199.70942,0,0,1-16.16333-23.3,120.10263,120.10263,0,0,1-11.70508-25.8645c-2.6997-8.84107-4.14233-17.781-2.60425-27.041,1.71338-10.31518,6.38306-18.91674,14.65845-25.3872a42.95768,42.95768,0,0,1,27.21655-9.229q.798,0,1.60279.02466a41.46093,41.46093,0,0,1,17.7268,4.37232,40.41779,40.41779,0,0,1,18.16846,17.76538c4.26172,8.22436,5.2688,16.9663,4.29907,26.04077a80.94771,80.94771,0,0,1-5.61352,21.57641,140.91825,140.91825,0,0,1-13.38208,24.97071c-3.68433,5.59619-7.698,10.95-11.86206,16.19384-.32447.40845-.50757.70386-.06177,1.20679a123.38985,123.38985,0,0,0,20.905,18.98535,65.57032,65.57032,0,0,0,14.9458,8.471,44.35776,44.35776,0,0,0,15.51,2.97022,37.86376,37.86376,0,0,0,7.4707-.742,36.9139,36.9139,0,0,0,29.5127-36.70459,43.3632,43.3632,0,0,0-.51441-7.10864,38.1846,38.1846,0,0,0-2.79-11.064c-2.67358-5.69751-4.98461-11.56-7.866-17.16577-1.312-2.55249-2.44922-5.19507-3.656-7.80127q-17.02587-36.765-35.061-73.04541-10.94678-22.10229-22.29883-43.99951A58.81421,58.81421,0,0,0,145.448,24.64478a25.71492,25.71492,0,0,0-19.56372-8.80762,25.22659,25.22659,0,0,0-16.26978,5.802,39.18715,39.18715,0,0,0-9.07715,11.75317c-4.5061,8.34864-8.719,16.84937-13.01391,25.30689Q75.31762,82.73474,63.58838,107.00757q-6.5387,13.60912-12.96851,27.27C45.35962,145.40137,40.35815,156.645,35.1106,167.77515a143.60444,143.60444,0,0,0-6.50708,15.51831A40.848,40.848,0,0,0,26.46,200.41528,35.37139,35.37139,0,0,0,35.749,221.61816c7.65577,8.22168,16.771,12.344,27.23413,12.344m62.49244-44.1565c.16821,0,.334-.14477.54858-.42749a206.61121,206.61121,0,0,0,12.19409-17.69409,105.945,105.945,0,0,0,10.66651-22.344c2.12036-6.5752,3.35669-13.26123,2.45654-20.21875a23.9807,23.9807,0,0,0-4.38892-11.54321c-5.26733-7.04468-12.39648-10.46021-21.15747-10.52833-.10888-.00122-.21826-.0017-.3269-.0017a26.65764,26.65764,0,0,0-9.37012,1.62719c-8.041,2.9878-13.498,8.47779-15.814,16.80127a34.56449,34.56449,0,0,0-.48755,15.04981,72.83268,72.83268,0,0,0,6.52295,19.65918,165.54121,165.54121,0,0,0,18.613,29.2063c.21485.27807.38037.41381.54322.41381M128.48779-.5h-6.21362a48.25974,48.25974,0,0,0-7.8916,1.40942A41.77428,41.77428,0,0,0,97.32666,10.1875c-4.66187,4.148-7.9939,9.33521-10.75122,13.87158-1.45068,2.38672-2.73218,4.90576-3.97168,7.342l-.60352,1.18433c-7.82788,15.31226-16.1914,31.75122-24.31445,48.21313C47.03833,102.37573,38.36523,120.394,30.39111,137.50366c-.907,1.9458-1.79394,3.90161-2.68115,5.85718-1.67407,3.69116-3.40527,7.50781-5.24634,11.18726-3.14453,6.28588-5.95361,12.83544-8.67016,19.16943l-.24439.57007A57.60149,57.60149,0,0,0,9.239,189.0127c-.1394.99072-.25488,1.99853-.36621,2.97314q-.07691.67273-.15625,1.345l-.00366.02979v7.01928l.00415.0315c.07715.602.14649,1.20508.21607,1.8081.18164,1.57471.36938,3.20313.69653,4.79639a53.74059,53.74059,0,0,0,45.08374,42.98218c1.08154.16943,2.18408.26684,3.25024.36108.49463.04395.989.0874,1.48267.13818l.02539.00269h5.74487l.02637-.00269c.45776-.04882.916-.09472,1.37427-.14038,1.43506-.14331,2.91894-.2915,4.376-.53466a69.41032,69.41032,0,0,0,24.26026-8.99634,114.00908,114.00908,0,0,0,19.34839-14.74488c3.37695-3.15063,6.69043-6.51245,9.84863-9.99267a1.43765,1.43765,0,0,1,.23608-.22315,1.36212,1.36212,0,0,1,.2378.21875,148.06611,148.06611,0,0,0,23.19384,20.86133,72.172,72.172,0,0,0,23.64478,11.46875,64.16641,64.16641,0,0,0,12.08447,1.97315,3.21616,3.21616,0,0,1,.41284.063c.07837.01513.1565.03027.23487.04321l.04028.00659h6.2395l.0315-.00391c.49438-.06274.98925-.12231,1.48413-.18164,1.75781-.21142,3.57519-.42993,5.35156-.79419a52.64863,52.64863,0,0,0,20.67627-9.04467,53.29149,53.29149,0,0,0,21.39844-33.62647,60.94873,60.94873,0,0,0,1.54883-13.98218,49.01243,49.01243,0,0,0-3.36719-16.25122c-2.49683-6.36035-5.40552-13.07446-9.15332-21.12988q-1.85853-3.99463-3.7085-7.99341c-2.1831-4.7124-4.44067-9.58545-6.68677-14.3667C206.7644,108.46631,196.29419,86.84326,186.34058,67.021c-5.477-10.90772-11.56543-22.80542-19.15992-37.44312A81.98316,81.98316,0,0,0,158.509,15.70752,43.29358,43.29358,0,0,0,141.39844,2.65527,40.856,40.856,0,0,0,129.09961-.385a2.79876,2.79876,0,0,1-.35571-.06274c-.07007-.01538-.14014-.03052-.21045-.04371L128.48779-.5ZM62.98315,233.46216c-10.29956,0-19.33935-4.09937-26.86816-12.18482a34.89356,34.89356,0,0,1-9.15747-20.91064,40.077,40.077,0,0,1,2.12012-16.91431A142.97088,142.97088,0,0,1,35.563,167.98828c2.55762-5.42529,5.09839-10.96753,7.55542-16.32715,2.58472-5.63818,5.25732-11.4685,7.95337-17.16967,4.56689-9.65748,8.69482-18.375,12.96728-27.26734,7.05054-14.6748,14.87818-30.47339,23.93018-48.29858q1.41174-2.7799,2.81567-5.56421c3.28247-6.49829,6.67676-13.218,10.19238-19.73145a38.39278,38.39278,0,0,1,8.9585-11.60766A24.79489,24.79489,0,0,1,125.884,16.33716a25.12132,25.12132,0,0,1,19.18409,8.63257,58.03625,58.03625,0,0,1,7.353,11.35278c8.64038,16.74731,15.72461,30.72607,22.29517,43.99219,12.77124,25.7854,24.238,49.675,35.05542,73.03369.34375.74243.68188,1.48779,1.02,2.23315.83642,1.84424,1.70166,3.75147,2.64477,5.58643,1.75367,3.41138,3.32373,6.98389,4.84229,10.43872.97,2.20679,1.97314,4.48877,3.01587,6.71094,1.58154,3.37036,2.18017,6.94043,2.74756,10.92212a42.206,42.206,0,0,1,.50976,7.02417,36.22078,36.22078,0,0,1-29.11133,36.22827,37.56616,37.56616,0,0,1-7.37231.73218,43.49617,43.49617,0,0,1-15.33569-2.939,65.46889,65.46889,0,0,1-14.83081-8.40991,122.03412,122.03412,0,0,1-20.82007-18.90918c-.19483-.21973-.19483-.21973.0791-.56421,4.802-6.04761,8.57959-11.20459,11.88818-16.23a141.19436,141.19436,0,0,0,13.42847-25.05957,81.04664,81.04664,0,0,0,5.64648-21.70923c1.06861-9.99951-.355-18.61011-4.35229-26.324A41.118,41.118,0,0,0,145.3855,95.0979a42.22009,42.22009,0,0,0-17.9375-4.426q-.81372-.02492-1.61817-.02491a43.62869,43.62869,0,0,0-27.52441,9.33521c-8.06445,6.30542-13.05859,14.9519-14.84375,25.699-1.37207,8.25952-.53955,16.92432,2.61914,27.269a120.231,120.231,0,0,0,11.75244,25.97241,201.449,201.449,0,0,0,16.20362,23.3584,3.49486,3.49486,0,0,1,.45434.634,5.15285,5.15285,0,0,1-.46.57886l-.033.03881a113.97742,113.97742,0,0,1-23.21558,20.64966,52.04745,52.04745,0,0,1-20.16723,8.583,43.88832,43.88832,0,0,1-7.63233.69678Zm62.491-44.20484a1.9178,1.9178,0,0,1-.146-.17114c-8.23682-10.66968-14.13379-19.92187-18.55811-29.11743a72.17335,72.17335,0,0,1-6.48047-19.52417,33.85889,33.85889,0,0,1,.47608-14.834C102.97,117.68823,108.187,112.14819,116.272,109.144a26.30473,26.30473,0,0,1,9.19605-1.59594l.32177.0017c8.70386.06763,15.68873,3.54249,20.76221,10.32764a23.35843,23.35843,0,0,1,4.29346,11.30811c.78393,6.05957.00976,12.415-2.43652,20.001a104.643,104.643,0,0,1-10.61817,22.23828A203.5002,203.5002,0,0,1,125.626,189.07593a2.04927,2.04927,0,0,1-.15186.18139Z"/>
  </g>
</svg>
