<svg id="Base" xmlns="http://www.w3.org/2000/svg" viewBox="0 0 250 250">
  <defs>
    <style>
      .cls-1 {
        fill: #fff;
      }
    </style>
  </defs>
  <title>imagensPrancheta 8 cópia 3</title>
  <g>
    <path class="cls-1" d="M173.39572,90.20231c-4.28691-1.05268-8.532-2.33993-12.86863-3.11363-12.5-2.23007-24.67462-1.18849-36.2637,4.34539a54.53853,54.53853,0,0,0-21.78525,18.76148c-5.61791,8.23856-10.72788,16.82811-15.93622,25.33987-4.2761,6.98824-8.45811,14.0296-13.76953,20.30949-5.70181,6.74147-12.30462,12.242-20.83267,15.09109-8.40983,2.80962-16.91191,2.53469-25.43612.70821-9.0414-1.93728-17.49112-5.4946-25.71646-9.63093A9.0886,9.0886,0,0,1,0,161.43788c2.97047.97416,5.48967,1.87549,8.0528,2.627A63.735,63.735,0,0,0,32.91,166.7008a39.6209,39.6209,0,0,0,27.10191-14.277,338.11121,338.11121,0,0,0,24.85025-33.39012c5.5051-8.44278,11.55179-16.42093,19.52314-22.75623,10.37159-8.24292,21.8544-14.12952,34.99963-16.41566A60.3985,60.3985,0,0,1,178.048,85.84609a29.48727,29.48727,0,0,1,10.43388,8.835,19.07849,19.07849,0,0,1,2.98911,18.01194,31.96706,31.96706,0,0,1-5.27366,9.74382c-.24708-3.4336-.25209-6.966-.80641-10.40992-.87235-5.42-3.17515-10.1215-8.29819-12.84614-8.22712-4.3755-18.1769-1.7303-22.53344,6.53342-5.26039,9.97827-5.98769,20.37345.26373,30.22451,8.89653,14.01927,21.37114,23.32707,37.86759,26.61234,11.11729,2.214,21.85328.40655,32.25035-3.82169a96.70188,96.70188,0,0,0,23.28971-13.9771A4.737,4.737,0,0,1,250,143.74692c-.728,1.14738-1.40164,2.3338-2.19238,3.43619a58.74436,58.74436,0,0,1-39.187,24.50675c-13.89715,2.3728-27.50313,1.197-40.42242-4.80752-10.89075-5.06171-19.38159-12.7146-24.638-23.70023-3.25056-6.79355-3.34361-13.88266-2.10493-21.104a48.34949,48.34949,0,0,1,7.15323-19.06182c5.76624-8.61736,13.67975-13.04249,24.22125-12.24037a3.50421,3.50421,0,0,0,.445-.02109Z"/>
    <path class="cls-1" d="M112.02262,132.54337c-2.40567,2.12344-4.75777,4.0385-6.9253,6.1436-6.03284,5.85908-10.5004,12.61992-12.07008,21.081a38.02708,38.02708,0,0,1-2.08343,6.70525c-4.06989,10.50445-11.98442,16.2216-22.87546,18.16976-7.84991,1.40416-15.71,1.0312-23.57446.1587-.69427-.077-1.39278-.1231-2.08329-.22459a8.70686,8.70686,0,0,0-1.98711-.19369c4.17073-.31256,8.38614-.34227,12.50356-.99241,10.95288-1.72944,19.54861-7.02991,25.01121-17.015,3.5429-6.47608,7.224-12.88988,11.15694-19.134a62.04834,62.04834,0,0,1,7.55417-9.62726A16.07589,16.07589,0,0,1,112.02262,132.54337Z"/>
    <path class="cls-1" d="M202.33441,113.79982c2.1441-5.36326,2.957-10.7212.44834-16.1388-2.412-5.20881-6.70926-8.53019-11.58072-11.27358,5.0333.77159,9.89408,1.93742,13.73926,5.55473a10.11509,10.11509,0,0,1,3.2397,8.22659C207.89368,105.394,205.451,109.74967,202.33441,113.79982Z"/>
    <path class="cls-1" d="M201.83447,180.91782a46.61835,46.61835,0,0,1-12.69387,4.19027c-6.15608,1.13325-12.29409,1.31534-18.32752-.74517a24.06486,24.06486,0,0,1-12.64478-10.02807c-.12557-.19313-.21-.413-.5029-.99937a6.50479,6.50479,0,0,1,.73247.48933c5.493,5.64623,12.42138,8.11892,20.04144,9.01323,7.47543.87733,14.82946-.01323,22.12255-1.65236C200.98479,181.09063,201.4102,181.00685,201.83447,180.91782Z"/>
    <path class="cls-1" d="M120.97387,72.33282c7.31944-5.24726,15.19273-8.82225,24.43776-8.20652a24.02238,24.02238,0,0,1,14.45347,6.19015C146.55933,64.72979,133.71493,67.41959,120.97387,72.33282Z"/>
  </g>
</svg>
