<svg xmlns="http://www.w3.org/2000/svg" viewBox="0 0 250 250">
  <defs>
    <style>
      .cls-1 {
        fill: #fff;
      }
    </style>
  </defs>
  <title>imagensPrancheta 8 cópia 9</title>
  <g id="Modais_e_Paletas" data-name="Modais e Paletas">
    <path class="cls-1" d="M128.946,44.6779c10.4994,7.96334,22.04607,14.03364,33.153,20.88676,27.189,16.7759,54.52961,33.26991,81.81128,49.87347,8.01666,4.87891,8.14755,9.85831.21935,15.01837q-55.98592,36.43844-111.98076,72.86082c-3.975,2.60054-7.22975,2.6886-11.17229.1617Q63.108,166.38929,5.1479,129.46334c-7.14647-4.57393-6.80053-9.81676.71539-14.34782q56.84616-34.27041,113.68614-68.5526c.956-.57666,1.85881-1.25441,2.78642-1.885Zm-11.30754,110.046a5.96451,5.96451,0,0,1-5.79431-3.69277,5.70062,5.70062,0,0,1,.86044-6.56556,43.60449,43.60449,0,0,1,5.93333-5.22116c18.90539-14.61248,37.75868-29.30522,56.822-43.67815,4.39939-3.317,3.4118-4.738-.509-7.0826q-23.07714-13.8-45.94387-28.00036c-3.0027-1.87128-5.23224-1.60694-8.05183.22162-6.27768,4.07121-12.73939,7.81809-19.14141,11.668-5.10436,3.06952-5.11825,3.24-.50178,7.57311,5.52183,5.18287,11.11587,10.283,16.51083,15.6138,5.21534,5.15327,4.88679,8.72289-.897,13.3027-1.0329.81789-2.10738,1.57555-3.16307,2.36042C97.92848,122.99512,82.15868,134.869,66.21606,146.47044c-4.168,3.03308-3.86085,4.6643.377,7.02414a122.8644,122.8644,0,0,1,13.6939,8.78058c3.88208,2.89545,6.88509,2.38474,10.196-.94418,3.06964-3.08631,6.4844-5.78821,9.819-8.56024,3.00963-2.50186,6.1683-2.85855,8.77944.49088,2.57052,3.29733,1.81861,6.70159-.90993,9.452-2.53332,2.55364-5.309,4.84414-8.07107,7.12109-2.3939,1.9735-2.59736,3.47233.30259,5.143,3.22963,1.86057,6.25719,4.122,9.47841,6.00113,5.61172,3.27357,10.807,9.93084,16.69646,9.35127,5.78424-.56922,11.15036-6.23668,16.6548-9.74806,2.83191-1.80652,6.986-3.169,8.00451-5.8415,1.46238-3.8372-3.60386-5.42787-5.43942-8.3352-2.0784-3.29191-2.08811-6.27829.56367-8.99454,2.50656-2.56751,5.35827-2.47584,7.941-.12973a60.13324,60.13324,0,0,1,6.306,6.579c2.1966,2.70924,4.15855,2.92255,7.08051.99737q29.78412-19.62386,59.76108-38.91129c3.10227-2.00229,3.71141-3.27148.07818-5.42907-10.75466-6.38665-21.42077-12.94719-32.04831-19.57432-2.36158-1.47263-4.21952-1.58245-6.50471.19879q-23.37749,18.222-46.90269,36.22595c-2.53249,1.937-3.06156,3.54754-.66349,6.00389a6.76451,6.76451,0,0,1,1.76485,7.00764c-1.41967,4.66166-6.63951,6.05053-10.20877,2.08637-3.29464-3.65916-5.89991-4.4986-9.47837-.76974A8.82424,8.82424,0,0,1,117.63841,154.72387Zm-68.03892-12.5944a15.18206,15.18206,0,0,0,2.52034-1.23291q25.12563-18.63945,50.22281-37.32289c2.42551-1.80052,1.82137-3.46558-.00958-5.192-4.82179-4.54638-9.686-9.0426-14.4461-13.66192-2.21751-2.15194-4.213-1.52117-6.48253-.14454Q51.938,102.44888,22.39666,120.18009c-3.34229,1.99707-2.9111,3.29258-.01011,5.10777,8.08272,5.05747,16.111,10.21465,24.17632,15.30429C47.49521,141.18051,48.5252,141.59142,49.59949,142.12947Z"/>
  </g>
</svg>
