<svg id="Camada_1" data-name="Camada 1" xmlns="http://www.w3.org/2000/svg" xmlns:xlink="http://www.w3.org/1999/xlink" viewBox="0 0 494.5899 194.27615">
  <defs>
    <style>
      .cls-1 {
        fill: url(#Gradiente_sem_nome_10);
      }

      .cls-2 {
        fill: #b8cfd5;
      }

      .cls-3 {
        fill: #33b3d0;
      }

      .cls-4 {
        fill: #f16b12;
      }

      .cls-5 {
        isolation: isolate;
      }

      .cls-6 {
        fill: #f28812;
      }
    </style>
    <linearGradient id="Gradiente_sem_nome_10" data-name="Gradiente sem nome 10" x1="371.29495" x2="371.29495" y2="178" gradientUnits="userSpaceOnUse">
      <stop offset="0" stop-color="#f57e4d"/>
      <stop offset="1" stop-color="#ffff25"/>
    </linearGradient>
  </defs>
  <title>logoSunset</title>
  <circle class="cls-1" cx="371.29495" cy="89" r="89"/>
  <g>
    <path class="cls-2" d="M40.497,133.03385c.07.08,2.57-.06,7.57-.34,3.59-.2,4.44-.29,6.94-.41,3.58-.18,6.33-.21,8.56-.24,2.34-.03,6.82-.06,12.61.1,4.2.12,9.05.26,15.49.81,6.7.57,11.75,1.31,16.09,1.95,4.09.6,11.93,1.77,21.75,3.92,10.54,2.31,18.13,4.6,26.01,6.99,5,1.52,16,4.93,30.38,10.42,12.56,4.8,12.54,5.32,29.23,12.1,11.99,4.87,22.74,9.22,37.08,14.06,12.41,4.19,20.17,6.81,31.68,9.36a227.32916,227.32916,0,0,0,32.29,4.79c8.67.63,16.63,1.21,26.33.13a79.06977,79.06977,0,0,0,26.55-7.62c3.41-1.56,4.51-2.31,4.24-2.51-.55-.4-6.17,1.9-14.87,2.85a92.10224,92.10224,0,0,1-14.55.23,214.08688,214.08688,0,0,1-29.57-3.24c-14.52-2.78-29.95-7.18-56.95-17.77-30.68-12.03-28.14-13.16-53.3-22.47-15.86-5.87-30.74-11.31-51.62-15.56a280.26567,280.26567,0,0,0-41.24-5.36C69.937,123.15384,40.047,132.49385,40.497,133.03385Z" transform="translate(-2.70505 -3)"/>
    <path class="cls-3" d="M2.717,153.95385c.12.18,3.68-1.51,10.81-4.88,5.12-2.42,6.32-3.1,9.89-4.75,5.11-2.35,9.06-3.89,12.26-5.14,3.37-1.31,9.81-3.74,18.2-6.33a209.91742,209.91742,0,0,1,22.55-5.93,196.313,196.313,0,0,1,23.74-3.16,242.40562,242.40562,0,0,1,32.44-.79c15.83.71,27.41,2.93,39.43,5.27a378.56319,378.56319,0,0,1,46.68,12.26c19.45,6.41,19.56,7.82,45.49,17.41,18.64,6.89,35.35,13.01,57.36,18.59,19.06,4.84,30.97,7.86,48.26,8.7a180.27134,180.27134,0,0,0,47.87-3.96c12.68-2.83,24.31-5.43,37.98-13.45,18.41-10.8,28.6-24.43,36.13-34.51,4.48-6,5.85-8.61,5.41-9.01-.9-.8-8.37,8.36-20.64,15.49-7.39,4.3-13.51,6.11-20.9,8.24a170.65424,170.65424,0,0,1-43.52,6.73c-21.7.08-45.17-3.73-87.03-18.2-47.56-16.44-44.23-20.85-83.08-32.84-24.5-7.56-47.46-14.46-78.73-15.03a224.42909,224.42909,0,0,0-60.92,7.12C42.387,111.82384,1.907,152.72385,2.717,153.95385Z" transform="translate(-2.70505 -3)"/>
    <g>
      <path class="cls-4" d="M37.997,88.68384a6.09768,6.09768,0,0,1-4.8-2.5,7.36017,7.36017,0,0,1-1.56-4.61,8.68191,8.68191,0,0,1,1.33-4.73q.51-.78.9-.78a.39463.39463,0,0,1,.2.35,6.41907,6.41907,0,0,1-.16.7,10.33227,10.33227,0,0,0-.27,2.85c.29,2.45,1.26,3.67,2.93,3.67a8.78461,8.78461,0,0,0,5.21-2.17,17.29247,17.29247,0,0,0,4.55-5.18,7.28127,7.28127,0,0,0,1.09-3.59,7.174,7.174,0,0,0-.66-2.54c-.44-1.07-2.4-1.69-5.86-1.88l-3.98-.23q-17.025-.54-17.03-10.47c0-.52.14-1.76.41-3.71s1.67-4.77,4.18-8.44a56.41038,56.41038,0,0,1,9.02-10.2,47.707,47.707,0,0,1,10.45-7.27,16.27159,16.27159,0,0,1,6.95-1.91,16.40657,16.40657,0,0,1,3.2.51c1.48.34,2.37,2.34,2.66,6.02q0,8.085-6.64,17.7a56.10268,56.10268,0,0,1-5.55,6.99c-2.06,2.14-3.54,3.2-4.45,3.2a1.67512,1.67512,0,0,1-1.45-.7,1.26782,1.26782,0,0,1-.23-.74,1.83343,1.83343,0,0,1,.59-1.21,46.42991,46.42991,0,0,0,6.11-7.23,58.51435,58.51435,0,0,0,4.94-8.4c1.59-3.33,2.38-5.94,2.38-7.81,0-1.69-.7-2.54-2.11-2.54s-3.69,1.07-6.84,3.2a50.50426,50.50426,0,0,0-10.31,9.81q-6.45,8.01-6.45,11.91a4.26141,4.26141,0,0,0,.84,2.4q.84,1.23,3.54,1.89a49.73582,49.73582,0,0,0,6.09,1.05,58.92707,58.92707,0,0,1,6.91,1.17,13.01806,13.01806,0,0,1,5.63,2.73,8.15044,8.15044,0,0,1,2.54,5.9,15.40741,15.40741,0,0,1-1.97,7.34,21.58338,21.58338,0,0,1-5.06,6.29C42.787,87.64385,40.367,88.68384,37.997,88.68384Z" transform="translate(-2.70505 -3)"/>
      <path class="cls-4" d="M64.457,78.33385c-.08,0-.5-.02-1.25-.06a4.12327,4.12327,0,0,1-2.54-1.54q-3.555-3.99-3.55-14.38a68.40237,68.40237,0,0,1,1.37-13.59,29.44729,29.44729,0,0,1,1.91-6.68,2.07134,2.07134,0,0,1,1.8-1.17,2.0492,2.0492,0,0,1,1.33.53,2.02405,2.02405,0,0,1,.66,1.58c-.08.65-.23,2.81-.47,6.48q-.345,5.04-.35,10.78c0,.37.01,1.71.02,4.04a22,22,0,0,0,1.19,6.97,4.53269,4.53269,0,0,0,.39.82q1.875-.66,4.1-4.73a115.695,115.695,0,0,0,7.62-18.75l1.76-5.51a2.241,2.241,0,0,1,1.99-1.21,8.39575,8.39575,0,0,1,1.13.16c.6.1,1.11,1.16,1.52,3.16a59.40753,59.40753,0,0,1,.82,9.3,79.24977,79.24977,0,0,1-.47,8.36,33.98579,33.98579,0,0,0-.27,3.95,14.1222,14.1222,0,0,0,.23,2.73.9389.9389,0,0,1,.08.31.42706.42706,0,0,1-.47.35q-1.215,0-2.77-6.25a76.40385,76.40385,0,0,1-1.68-8.16,28.45634,28.45634,0,0,0-1.52,4.02q-1.245,3.9-3.32,8.75a24.76441,24.76441,0,0,1-5.12,7.89A6.306,6.306,0,0,1,64.457,78.33385Z" transform="translate(-2.70505 -3)"/>
      <path class="cls-4" d="M93.697,79.93384a3.49076,3.49076,0,0,1-2.27-1.23q-1.245-1.23-1.29-4.94l.2-10.98q.075-6.405.18-10.49.09-4.08.23-6.37a21.10693,21.10693,0,0,1,.37-3.28,1.43446,1.43446,0,0,1,1.65-1.46,2.1142,2.1142,0,0,1,2.11,1.84q.63,3.045,1.48,20.98,1.095-3.63,2.58-7.52a37.57923,37.57923,0,0,1,3.38-6.84,8.90124,8.90124,0,0,1,4.2-3.81,3.26642,3.26642,0,0,1,1.25-.23,5.981,5.981,0,0,1,3.83,1.8q5.385,5.28,5.39,14.69a51.07371,51.07371,0,0,1-.51,7.11,15.34721,15.34721,0,0,0-.2,1.88l.04.51c0,.23-.13.35-.39.35-.34,0-.66-.23-.98-.7a24.34423,24.34423,0,0,1-2.15-5.66c-.57-2.21-1.09-4.43-1.56-6.64a59.62888,59.62888,0,0,0-1.6-6.6c-.47-1.43-1.03-2.15-1.68-2.15a3.72182,3.72182,0,0,0-.92.29c-.48.2-1.39,2.03-2.71,5.49q-1.995,5.19-5.12,16.72Q97.092,79.92384,93.697,79.93384Z" transform="translate(-2.70505 -3)"/>
      <path class="cls-4" d="M130.087,82.28385h-.43c-1.85,0-3.16-1.13-3.95-3.4a8.959,8.959,0,0,1-.31-2.34q0-4.185,4.14-9.26a3.95446,3.95446,0,0,0,.7-1.09,1.97979,1.97979,0,0,0-.94-.31q-6.84-.975-6.84-7.81,0-5.19,3.67-11.6a30.1685,30.1685,0,0,1,5.47-7.03q3.36-3.09,6.13-3.09a3.588,3.588,0,0,1,3.44,2.62,8.068,8.068,0,0,1,.43,2.85,26.43661,26.43661,0,0,1-.94,6.25.90547.90547,0,0,1-.9.74q-.66,0-.66-.78l.04-.35a21.746,21.746,0,0,0,.35-3.59c0-2.21-.51-3.32-1.52-3.32-.03,0-.27.03-.72.08-.46.05-1.45,1.19-2.99,3.4a33.22316,33.22316,0,0,0-3.05,5.23q-2.34,5.475-2.34,7.81c0,1.48.53,2.4,1.6,2.73a13.09915,13.09915,0,0,0,3.95.47,25.89769,25.89769,0,0,1,7.42.82c2.4.86,3.59,2.32,3.59,4.38,0,.05-.03.64-.08,1.78-.05,1.13-.92,2.94-2.62,5.41a28.24228,28.24228,0,0,1-6.05,6.43A13.05244,13.05244,0,0,1,130.087,82.28385Zm.82-5.51a4.95276,4.95276,0,0,0,1.13-.27,10.18246,10.18246,0,0,0,2.75-1.86,28.03687,28.03687,0,0,0,3.59-3.63,14.86625,14.86625,0,0,0,2.44-3.89,1.86649,1.86649,0,0,0,.12-.59.69451.69451,0,0,0-.66-.74,4.98832,4.98832,0,0,0-.7-.04,14.46639,14.46639,0,0,0-1.99.16,29.2093,29.2093,0,0,1-3.71.2q-1.335.075-2.58,4.49a33.782,33.782,0,0,0-1.17,5.16C130.147,76.43384,130.407,76.77385,130.907,76.77385Z" transform="translate(-2.70505 -3)"/>
      <path class="cls-4" d="M153.267,76.57384c-.21,0-1.13-.04-2.77-.12s-2.89-1.18-3.75-3.32a4.44144,4.44144,0,0,1-.31-1.68q0-4.185,5.74-9.92a11.91758,11.91758,0,0,0,.98-1.02c-.21-.03-.65-.14-1.33-.33a8.15034,8.15034,0,0,1-2.15-1.05,4.90394,4.90394,0,0,1-1.76-2.17,4.1221,4.1221,0,0,1-.35-1.76,10.99442,10.99442,0,0,1,.37-2.38,16.02417,16.02417,0,0,1,2.6-4.69,25.10362,25.10362,0,0,1,7.93-7.34,10.81356,10.81356,0,0,1,4.96-1.52,4.94137,4.94137,0,0,1,1.52.23c1.51.52,2.27,1.76,2.27,3.71,0,.23-.06,1.02-.18,2.34q-.18,1.995-4.82,8.16l.2.04a1.80543,1.80543,0,0,0,.49-.1,2.857,2.857,0,0,1,.76-.1,5.50823,5.50823,0,0,1,.68.06q.45.06.84.96a2.0446,2.0446,0,0,1,.16.7c0,.68-.56,1.32-1.68,1.91a4.86086,4.86086,0,0,0-.7.51,51.5804,51.5804,0,0,0-8.67,8.44c-1.3,1.69-1.95,3-1.95,3.91,0,.89.53,1.33,1.6,1.33,1.54,0,4.28-.92,8.24-2.77q10.74-5.28,13.09-8.28a1.31878,1.31878,0,0,1,.66-.51c.21,0,.31.09.31.27a3.87013,3.87013,0,0,1-.78,1.64q-5.775,8.055-11.95,11.56Q157.712,76.58385,153.267,76.57384Zm1.21-21.13a18.01809,18.01809,0,0,0,2.89-.35c.55-.18,1.3-.94,2.27-2.27a35.52272,35.52272,0,0,0,2.73-4.45q1.755-3.36,1.76-4.77c0-.49-.2-.74-.59-.74a1.462,1.462,0,0,0-.43.08,14.94656,14.94656,0,0,0-5.57,4.26,23.8057,23.8057,0,0,0-4.16,6.29,3.38141,3.38141,0,0,0-.35,1.29C153.027,55.22385,153.517,55.44385,154.477,55.44385Z" transform="translate(-2.70505 -3)"/>
      <path class="cls-4" d="M181.877,83.88385a14.22208,14.22208,0,0,1-2.46-.47c-1.28-.31-2.59-2.1-3.95-5.35a28.70583,28.70583,0,0,1-1.72-10.82c0-.88.02-1.75.06-2.6s.06-1.57.06-2.17c0-.21-.01-.54-.04-1s-.25-.7-.66-.72a1.9173,1.9173,0,0,1-1.52-.61,1.82243,1.82243,0,0,1-.55-1.19c0-.08.01-.25.04-.51s.39-.43,1.09-.51a2.00277,2.00277,0,0,0,1.31-.59,1.77734,1.77734,0,0,0,.53-1.13q.24-3.6.51-5.31a11.04,11.04,0,0,0,.16-1.52c0-.47-.14-.7-.43-.7a4.49077,4.49077,0,0,0-1.33.31,31.55876,31.55876,0,0,1-7.11,1.45,3.6597,3.6597,0,0,1-2.5-.74,1.73756,1.73756,0,0,1-.63-1.29,3.46789,3.46789,0,0,1,.27-1.07q.27-.72,2.7-1.35,7.305-1.725,8.09-1.95a3.21062,3.21062,0,0,0,1.74-1.07,5.25881,5.25881,0,0,0,.61-1.97,31.63614,31.63614,0,0,1,1.88-6.09,15.58385,15.58385,0,0,1,2.07-3.75,3.24339,3.24339,0,0,1,2.3-1.29,2.07484,2.07484,0,0,1,.86.2q1.41.66,1.41,3.36a62.37575,62.37575,0,0,1-.94,6.41,8.182,8.182,0,0,0-.23,1.6.88167.88167,0,0,0,.1.45c.06.12.29.18.68.18a5.139,5.139,0,0,0,.78-.08q.9-.075,2.46-.12a33.21845,33.21845,0,0,1,5.2.43c2.24.39,3.36.9,3.36,1.52-.05.29-.12.43-.2.43h-.23a3.816,3.816,0,0,0-1.8-.31,19.07436,19.07436,0,0,0-3.91.63q-5.235,1.29-6.13,1.56a3.01093,3.01093,0,0,0-1.43.78,3.326,3.326,0,0,0-.53,1.25,17.33558,17.33558,0,0,1-1.45,3.79q-.27.66-.27,9.38,0,16.83,2.93,16.84a1.54611,1.54611,0,0,0,.47-.08q4.485-2.31,8.71-10.82.855-1.68,1.02-1.68c.03,0,.04.03.04.08a9.61972,9.61972,0,0,1-.27,1.56q-2.265,9.375-5.63,13.36C185.537,82.77385,183.697,83.88385,181.877,83.88385Z" transform="translate(-2.70505 -3)"/>
      <path class="cls-4" d="M224.027,84.35384h-.43a3.11581,3.11581,0,0,1-1.29-.68,8.64745,8.64745,0,0,1-1.99-2.32,1.72526,1.72526,0,0,0-1.48-.63,15.66829,15.66829,0,0,0-5.04,1.41,15.0074,15.0074,0,0,1-4.34,1.21,3.25633,3.25633,0,0,1-3.2-2.07,4.062,4.062,0,0,1-.35-1.56,3.79076,3.79076,0,0,1,.78-2.25,46.10507,46.10507,0,0,1,5.82-5.14c1.35-1.07,2.33-1.89,2.93-2.46a3.18169,3.18169,0,0,0,1.02-2.3,10.21443,10.21443,0,0,0-.16-1.68,42.97715,42.97715,0,0,1-.39-6.41q0-3.36.63-10.08a57.63062,57.63062,0,0,1,.74-6.8l.04-.39a.76633.76633,0,0,0-.16-.43,7.13453,7.13453,0,0,0-1.6,1.13q-4.14,3.51-4.14,5.66a1.71072,1.71072,0,0,0,.2.72,1.26,1.26,0,0,0,.82.61,6.261,6.261,0,0,0,1.29.25,4.62909,4.62909,0,0,1,1.09.2.60089.60089,0,0,1,.47.53c-.03.31-.36.56-1.02.74a5.17554,5.17554,0,0,1-1.29.16,12.49787,12.49787,0,0,1-1.46-.12,4.085,4.085,0,0,1-2.03-1,3.85357,3.85357,0,0,1-1.23-2.83q0-3.48,3.59-7.27a38.08474,38.08474,0,0,1,9.12-6.88,41.75729,41.75729,0,0,1,11.27-4.38,23.3303,23.3303,0,0,1,5-.59,17.58029,17.58029,0,0,1,5.88,1.15q3.225,1.155,4.2,6.5a13.351,13.351,0,0,1,.12,1.76q0,8.085-10.66,20.04-7.935,8.79-11.17,11.95c-1.88,1.85-2.81,2.93-2.81,3.24,0,.26.56.4,1.68.43q6.795,0,14.3,5.2.78.465.78.9,0,.12-.27.12l-.7-.08a46.81946,46.81946,0,0,0-7.03-.43c-2.19,0-4.97.1-8.36.31a.662.662,0,0,0-.51.74,3.3637,3.3637,0,0,0,.55,1.74,3.60849,3.60849,0,0,0,1.21,1.31c.21.1.31.22.31.35C224.727,84.22385,224.497,84.35384,224.027,84.35384Zm-.47-21.8c.49,0,1.42-.81,2.77-2.42.75-.83,1.69-1.81,2.81-2.93q13.395-13.665,13.4-19.45a6.95332,6.95332,0,0,0-.51-2.07q-.705-1.875-5.43-1.88a24.51479,24.51479,0,0,0-5.39.72,27.58328,27.58328,0,0,0-5.82,2.03c-1.8.87-2.75,1.66-2.85,2.36a11.866,11.866,0,0,0,.08,1.33q.195,1.335.2,11.84l-.04,5.39C222.777,60.86385,223.037,62.55385,223.557,62.55385Z" transform="translate(-2.70505 -3)"/>
      <path class="cls-4" d="M252.057,76.89385q-1.755,0-3.13-3.16a17.67849,17.67849,0,0,1-1.21-6.56c0-.91.05-2.32.14-4.22s.25-4.03.47-6.39a36.20255,36.20255,0,0,1,.8-5.33,2.11431,2.11431,0,0,1,.94-1.17,1.6085,1.6085,0,0,1,.86-.23,2.79124,2.79124,0,0,1,.9.23c.39.15.78.77,1.17,1.84q.825,2.22.82,13.4c0,2.03-.07,3.93-.2,5.7a11.89275,11.89275,0,0,1-.55,2.23,7.63643,7.63643,0,0,0-.51,2.23,1.48635,1.48635,0,0,0,.1.59,1.19853,1.19853,0,0,1,.1.35C252.757,76.72385,252.517,76.89385,252.057,76.89385Zm.23-35.35c-.16,0-.23-.19-.23-.57a8.12917,8.12917,0,0,0-.16-1.45,10.15561,10.15561,0,0,1-.16-1.7c0-.26.02-.64.06-1.15s.46-.84,1.27-1a1.91949,1.91949,0,0,1,1.46.51,1.773,1.773,0,0,1,.49,1.29,5.59969,5.59969,0,0,1-1.56,3.09C252.937,41.21385,252.547,41.54385,252.287,41.54385Z" transform="translate(-2.70505 -3)"/>
      <path class="cls-4" d="M267.657,79.86385a8.58954,8.58954,0,0,1-3.73-1.25q-2.325-1.245-3.3-8.48a27.655,27.655,0,0,1-.23-3.79,80.5354,80.5354,0,0,1,2.38-17.15,2.0321,2.0321,0,0,0,.08-.55,1.592,1.592,0,0,0-.39-1.02,4.4891,4.4891,0,0,1-1.21-2.97,4.99,4.99,0,0,1,.55-2.19,6.38592,6.38592,0,0,1,2.52-2.77,10.3323,10.3323,0,0,1,2.6-.98,10.2284,10.2284,0,0,0,1-.27,2.62953,2.62953,0,0,1,.8-.16,2.44957,2.44957,0,0,1,1.17.47,7.70984,7.70984,0,0,0,1.13.66,9.16164,9.16164,0,0,1,3.55,3.01,27.54764,27.54764,0,0,1,2.23,3.91,4.52651,4.52651,0,0,0,.39.76c.1.14.34.21.7.21l1.45-.12c.39,0,.59.09.59.27,0,.26-.44.52-1.33.78-.52.16-.78.35-.78.59a2.14488,2.14488,0,0,0,.2.74q.63,1.17,1.48,6.72a36.219,36.219,0,0,1,.23,4.1,27.072,27.072,0,0,1-2.05,10.39,16.36229,16.36229,0,0,1-5.76,7.54A7.55167,7.55167,0,0,1,267.657,79.86385Zm.9-6.53a1.556,1.556,0,0,0,.74-.2,12.59937,12.59937,0,0,0,5.08-6.02,27.41509,27.41509,0,0,0,2.07-10.74,20.48366,20.48366,0,0,0-.39-4.22c-.39-1.85-.94-2.77-1.64-2.77a30.66883,30.66883,0,0,1-4.18.55c-.26,0-.47.01-.63.02s-.29.15-.41.41-.25.39-.41.39q-.315,0-.78-.51-.39,1.95-.82,5.98a85.59154,85.59154,0,0,0-.63,9.96C266.567,70.95385,267.227,73.33385,268.557,73.33385Zm4.33-25.74c.78,0,1.17-.18,1.17-.55a6.01408,6.01408,0,0,0-1.52-2.66,6.46816,6.46816,0,0,0-2.38-1.95,13.89009,13.89009,0,0,0-.47,3.63c0,.68.14,1.07.43,1.17A15.22205,15.22205,0,0,0,272.887,47.59385Z" transform="translate(-2.70505 -3)"/>
    </g>
    <g class="cls-5">
      <path class="cls-6" d="M27.22046,189.08908a9.56035,9.56035,0,0,1,.687-3.85546,7.0715,7.0715,0,0,1,1.39941-2.06055,5.8533,5.8533,0,0,1,1.94336-1.35352,8.25249,8.25249,0,0,1,3.24023-.5957,7.05762,7.05762,0,0,1,5.31641,2.06152,9.20966,9.20966,0,0,1,.01562,11.42774,7.00139,7.00139,0,0,1-5.291,2.05566,7.07615,7.07615,0,0,1-5.332-2.04492A7.76462,7.76462,0,0,1,27.22046,189.08908Zm3.12744-.10253a5.63412,5.63412,0,0,0,1.1792,3.87109,4.05423,4.05423,0,0,0,5.97315.00977,5.74558,5.74558,0,0,0,1.16357-3.92188,5.65237,5.65237,0,0,0-1.1333-3.85547,4.19745,4.19745,0,0,0-6.03418.01563A5.6779,5.6779,0,0,0,30.3479,188.98655Z" transform="translate(-2.70505 -3)"/>
      <path class="cls-6" d="M47.1355,191.62229l2.95313-.28711a3.59872,3.59872,0,0,0,1.082,2.18359,3.26927,3.26927,0,0,0,2.19922.69727,3.38486,3.38486,0,0,0,2.21-.62012,1.848,1.848,0,0,0,.74316-1.45117,1.36924,1.36924,0,0,0-.3125-.90723,2.49908,2.49908,0,0,0-1.09228-.65136q-.5332-.18457-2.43018-.65625a8.231,8.231,0,0,1-3.4248-1.48731,3.909,3.909,0,0,1-1.38428-3.02441,3.86593,3.86593,0,0,1,.65088-2.14844,4.078,4.078,0,0,1,1.877-1.52246,7.51748,7.51748,0,0,1,2.958-.52344,6.347,6.347,0,0,1,4.26074,1.24121,4.38117,4.38117,0,0,1,1.502,3.31152l-3.03515.13379a2.57563,2.57563,0,0,0-.83594-1.666,3.05582,3.05582,0,0,0-1.92236-.50781,3.468,3.468,0,0,0-2.07129.54394,1.09424,1.09424,0,0,0-.48193.93262,1.15552,1.15552,0,0,0,.45117.91308,7.96424,7.96424,0,0,0,2.78906,1.00391,14.80553,14.80553,0,0,1,3.27637,1.082,4.23006,4.23006,0,0,1,1.66113,1.52832,4.47144,4.47144,0,0,1,.59961,2.39356,4.42455,4.42455,0,0,1-.71777,2.41992,4.29377,4.29377,0,0,1-2.03028,1.67676,8.50447,8.50447,0,0,1-3.271.54882,6.51452,6.51452,0,0,1-4.37842-1.31738A5.73189,5.73189,0,0,1,47.1355,191.62229Z" transform="translate(-2.70505 -3)"/>
      <path class="cls-6" d="M60.86158,196.51291V181.48069h11.146v2.543H63.89673v3.333h7.54688v2.53223H63.89673v4.09082h8.398v2.5332Z" transform="translate(-2.70505 -3)"/>
      <path class="cls-6" d="M73.79761,181.48069h3.03516v8.1416a16.872,16.872,0,0,0,.11279,2.51172,2.437,2.437,0,0,0,.92774,1.48242,3.23676,3.23676,0,0,0,2.00488.55859,3.05566,3.05566,0,0,0,1.94824-.52832,2.08449,2.08449,0,0,0,.78955-1.29687,16.91881,16.91881,0,0,0,.1333-2.55371v-8.31543h3.03516v7.8955a20.27335,20.27335,0,0,1-.2461,3.82422,4.22785,4.22785,0,0,1-.90722,1.88672,4.57462,4.57462,0,0,1-1.769,1.22559,7.685,7.685,0,0,1-2.89161.456,8.31844,8.31844,0,0,1-3.26611-.49707,4.659,4.659,0,0,1-1.7583-1.292,4.13751,4.13751,0,0,1-.85107-1.666,18.25582,18.25582,0,0,1-.29737-3.81445Z" transform="translate(-2.70505 -3)"/>
      <path class="cls-6" d="M92.80054,196.51291V181.60373H95.8357v12.376h7.54687v2.5332Z" transform="translate(-2.70505 -3)"/>
      <path class="cls-6" d="M104.47535,181.48069h3.03515v8.1416a16.87008,16.87008,0,0,0,.1128,2.51172,2.437,2.437,0,0,0,.92773,1.48242,3.23678,3.23678,0,0,0,2.00488.55859,3.05566,3.05566,0,0,0,1.94824-.52832,2.0845,2.0845,0,0,0,.78956-1.29687,16.92017,16.92017,0,0,0,.1333-2.55371v-8.31543h3.03515v7.8955a20.27444,20.27444,0,0,1-.24609,3.82422,4.22786,4.22786,0,0,1-.90723,1.88672,4.57455,4.57455,0,0,1-1.769,1.22559,7.685,7.685,0,0,1-2.8916.456,8.31846,8.31846,0,0,1-3.26612-.49707,4.65913,4.65913,0,0,1-1.7583-1.292,4.13764,4.13764,0,0,1-.85107-1.666,18.25665,18.25665,0,0,1-.29736-3.81445Z" transform="translate(-2.70505 -3)"/>
      <path class="cls-6" d="M125.60474,190.98557v-2.53223h6.542v5.98828a8.23064,8.23064,0,0,1-2.76318,1.625,10.05055,10.05055,0,0,1-3.666.70215,8.22243,8.22243,0,0,1-4.11181-.98926,6.28669,6.28669,0,0,1-2.63526-2.83007,9.14333,9.14333,0,0,1-.88183-4.00391,8.65045,8.65045,0,0,1,.98437-4.17285,6.63079,6.63079,0,0,1,2.88135-2.79981,7.77442,7.77442,0,0,1,3.59912-.749,7.1766,7.1766,0,0,1,4.37305,1.17481,5.3,5.3,0,0,1,2.02539,3.24511l-3.01465.56446a3.18912,3.18912,0,0,0-1.19434-1.749,3.61568,3.61568,0,0,0-2.18945-.64062,4.115,4.115,0,0,0-3.16308,1.26074,5.31349,5.31349,0,0,0-1.17432,3.74316,5.88722,5.88722,0,0,0,1.18945,4.01465,3.973,3.973,0,0,0,3.11719,1.33789,5.23975,5.23975,0,0,0,1.9126-.374,6.57524,6.57524,0,0,0,1.64551-.90723v-1.9082Z" transform="translate(-2.70505 -3)"/>
      <path class="cls-6" d="M147.45142,196.51291h-3.30176l-1.3125-3.41406h-6.00879l-1.24072,3.41406h-3.21973l5.855-15.03222h3.20948Zm-5.58838-5.94726-2.07129-5.57813-2.03027,5.57813Z" transform="translate(-2.70505 -3)"/>
      <path class="cls-6" d="M148.02173,196.51291V181.48069h6.38819a10.91466,10.91466,0,0,1,3.50146.40527,3.45,3.45,0,0,1,1.74854,1.44043,4.331,4.331,0,0,1,.65625,2.36816,4.014,4.014,0,0,1-.99463,2.79493,4.77367,4.77367,0,0,1-2.97364,1.38867,7.10741,7.10741,0,0,1,1.625,1.26172,17.1276,17.1276,0,0,1,1.728,2.44043l1.83545,2.93261H157.9065l-2.19434-3.27148a21.23492,21.23492,0,0,0-1.59961-2.209,2.33079,2.33079,0,0,0-.91259-.626,5.01979,5.01979,0,0,0-1.52784-.169h-.61523v6.27539Zm3.03516-8.6748h2.2456a11.59654,11.59654,0,0,0,2.72754-.18457,1.63472,1.63472,0,0,0,.85108-.63574,1.95729,1.95729,0,0,0,.30762-1.12793,1.80409,1.80409,0,0,0-.40528-1.22559,1.85979,1.85979,0,0,0-1.14306-.58887q-.36915-.05127-2.21485-.05175h-2.36865Z" transform="translate(-2.70505 -3)"/>
      <path class="cls-6" d="M166.94214,196.51291V181.48069h2.95313l6.15234,10.03808V181.48069h2.81983v15.03222H175.822l-6.06006-9.80273v9.80273Z" transform="translate(-2.70505 -3)"/>
      <path class="cls-6" d="M180.41187,189.08908a9.56036,9.56036,0,0,1,.687-3.85546,7.07172,7.07172,0,0,1,1.39942-2.06055,5.85316,5.85316,0,0,1,1.94335-1.35352,8.25258,8.25258,0,0,1,3.24024-.5957,7.05763,7.05763,0,0,1,5.31641,2.06152,9.2097,9.2097,0,0,1,.01562,11.42774,7.00143,7.00143,0,0,1-5.291,2.05566,7.07617,7.07617,0,0,1-5.332-2.04492A7.76466,7.76466,0,0,1,180.41187,189.08908Zm3.12744-.10253a5.63412,5.63412,0,0,0,1.1792,3.87109,4.05422,4.05422,0,0,0,5.97314.00977,5.74553,5.74553,0,0,0,1.16358-3.92188,5.65237,5.65237,0,0,0-1.1333-3.85547,4.19745,4.19745,0,0,0-6.03418.01563A5.67784,5.67784,0,0,0,183.53931,188.98655Z" transform="translate(-2.70505 -3)"/>
      <path class="cls-6" d="M201.10621,196.51291V181.48069h6.38818a10.91462,10.91462,0,0,1,3.50146.40527,3.45,3.45,0,0,1,1.74854,1.44043,4.331,4.331,0,0,1,.65625,2.36816,4.0139,4.0139,0,0,1-.99463,2.79493,4.77367,4.77367,0,0,1-2.97363,1.38867,7.10763,7.10763,0,0,1,1.625,1.26172,17.12774,17.12774,0,0,1,1.728,2.44043l1.83545,2.93261H210.991l-2.19433-3.27148a21.23648,21.23648,0,0,0-1.59961-2.209,2.33075,2.33075,0,0,0-.9126-.626,5.01975,5.01975,0,0,0-1.52783-.169h-.61524v6.27539Zm3.03515-8.6748H206.387a11.59666,11.59666,0,0,0,2.72754-.18457,1.63473,1.63473,0,0,0,.85107-.63574,1.95729,1.95729,0,0,0,.30762-1.12793,1.80409,1.80409,0,0,0-.40528-1.22559,1.85976,1.85976,0,0,0-1.14306-.58887q-.36915-.05127-2.21485-.05175h-2.36865Z" transform="translate(-2.70505 -3)"/>
      <path class="cls-6" d="M215.11939,196.51291V181.48069h3.03516v15.03222Z" transform="translate(-2.70505 -3)"/>
      <path class="cls-6" d="M219.38062,189.08908a9.56036,9.56036,0,0,1,.687-3.85546,7.07172,7.07172,0,0,1,1.39942-2.06055,5.85316,5.85316,0,0,1,1.94335-1.35352,8.25258,8.25258,0,0,1,3.24024-.5957,7.05763,7.05763,0,0,1,5.31641,2.06152,9.2097,9.2097,0,0,1,.01562,11.42774,7.00143,7.00143,0,0,1-5.291,2.05566,7.07617,7.07617,0,0,1-5.332-2.04492A7.76466,7.76466,0,0,1,219.38062,189.08908Zm3.12744-.10253a5.63412,5.63412,0,0,0,1.1792,3.87109,4.05422,4.05422,0,0,0,5.97314.00977,5.74553,5.74553,0,0,0,1.16358-3.92188,5.65237,5.65237,0,0,0-1.1333-3.85547,4.19745,4.19745,0,0,0-6.03418.01563A5.67784,5.67784,0,0,0,222.50806,188.98655Z" transform="translate(-2.70505 -3)"/>
    </g>
  </g>
</svg>
