<svg xmlns="http://www.w3.org/2000/svg" viewBox="0 0 250 250">
  <defs>
    <style>
      .cls-1 {
        fill: #fff;
      }
    </style>
  </defs>
  <title>imagensPrancheta 8 cópia 8</title>
  <g id="Modais_e_Paletas" data-name="Modais e Paletas">
    <g>
      <path class="cls-1" d="M141.77232,138.07528q51.98909,0,103.97817.00168c4.08439.00035,4.20644.0553,4.215,4.06273.03285,15.43571.06167,30.87175-.00978,46.3072-.03145,6.79907-2.95577,9.53053-9.82177,9.55471q-6.96012.02453-13.9202.04368c-5.69555.01563-8.82363-2.7997-9.04-8.60568-.21146-5.67427-.18163-11.3646-.03485-17.04212.0704-2.724-.87689-3.59454-3.59577-3.59182q-88.49527.0888-176.99071.04926c-3.48912.00037-3.62142.15039-3.63316,3.73809-.01734,5.303.02812,10.60654-.0261,15.90909-.03182,3.11206-.60466,6.06995-3.34611,8.06928a6.76594,6.76594,0,0,1-4.199,1.45222c-5.5863-.07-11.17436.01343-16.76111-.03532-5.17455-.04514-7.85231-2.48185-8.43682-7.60886a32.65271,32.65271,0,0,1-.1431-3.68591Q-.003,124.903.003,63.11247a19.49545,19.49545,0,0,1,.38232-5.08315,7.37877,7.37877,0,0,1,7.12414-5.86783c5.5821-.15558,11.17048-.26163,16.753-.17675,5.19486.079,7.95261,2.80519,8.39413,8.04969.19818,2.35405.24616,4.72636.248,7.09046q.02638,33.239.011,66.47807c.0003,4.46769.00438,4.47154,4.594,4.47168Q89.641,138.07632,141.77232,138.07528Z"/>
      <path class="cls-1" d="M174.71912,130.23744q-35.50524.00164-71.01051-.00064c-3.81945-.00057-3.93914-.1639-3.93052-4.014.02667-11.92962.01346-23.85933.0458-35.78893.0214-7.89267,4.23816-12.15687,12.06079-12.16156,29.54034-.01767,59.08231.1786,88.6205-.0742,22.28408-.19072,44.74511,16.30545,48.87987,42.33238.33989,2.13954.22762,4.347.44723,6.51056.23037,2.26918-.521,3.26354-2.96705,3.23148-7.95177-.10431-15.90583-.03663-23.859-.03639Q198.86268,130.23691,174.71912,130.23744Z"/>
      <path class="cls-1" d="M66.6132,83.44793a20.83806,20.83806,0,0,1,20.39962,20.86291A21.06417,21.06417,0,0,1,66.05308,125.0085c-11.17759-.13931-20.74588-9.9565-20.613-21.14925A20.88805,20.88805,0,0,1,66.6132,83.44793Z"/>
    </g>
  </g>
</svg>
