<svg id="Base" xmlns="http://www.w3.org/2000/svg" viewBox="0 0 702 250">
  <defs>
    <style>
      .cls-1 {
        fill: #fff;
      }
    </style>
  </defs>
  <title>imagensPrancheta 8 cópia 19</title>
  <g>
    <g>
      <path class="cls-1" d="M19.49809,154.7582C4.3571,153.31541-.0083,144.50082,1.15433,130.80354c.86538-10.19545-.19778-20.53976.25452-30.78876C2.094,84.49063,8.23281,71.46391,22.6639,64.54667,27.70985,62.128,34.5167,63.002,40.51423,63.04822c7.10949.05472,14.54975,2.42932,21.25685,1.01043,20.42857-4.32177,37.94136,3.32635,41.61291,23.327,3.27144,17.82095,2.73755,36.63845,1.37213,54.82765-.39937,5.32028-9.38986,9.99555-17.13569,17.616,0,20.571.31733,45.34364-.2456,70.09625-.125,5.49462-1.89767,12.52054-5.59893,15.886-3.15957,2.87289-11.05881,3.40376-15.23367,1.46514-4.0082-1.86118-8.07665-8.08743-8.37069-12.63766-1.01882-15.766-.28166-31.63923-.50539-47.46751-.05241-3.70612-1.2556-7.396-1.92934-11.09343l-4.09251.07714c-.54023,3.79713-1.49841,7.58893-1.54662,11.39233-.18438,14.5454-.138,29.095-.05625,43.64231.05911,10.50824-4.04308,17.84937-15.38043,17.80994-11.38343-.03966-15.24965-7.46491-15.20083-17.96719C19.57739,205.82122,19.49809,180.60892,19.49809,154.7582Z"/>
      <path class="cls-1" d="M81.95444,30.37728c-.28613,16.25163-12.53767,28.22908-28.63366,27.993C37.72988,58.14165,24.676,44.98,24.7672,29.58094,24.86212,13.55468,38.57631.478,54.72462,1.016,70.90617,1.55521,82.24657,13.78327,81.95444,30.37728Z"/>
    </g>
    <g>
      <path class="cls-1" d="M168.29809,154.7582c-15.141-1.44279-19.50639-10.25738-18.34376-23.95466.86538-10.19545-.19778-20.53976.25452-30.78876.68512-15.52415,6.824-28.55087,21.255-35.46811,5.046-2.41869,11.8528-1.54466,17.85033-1.49845,7.10949.05472,14.54975,2.42932,21.25685,1.01043,20.42857-4.32177,37.94136,3.32635,41.61291,23.327,3.27144,17.82095,2.73755,36.63845,1.37213,54.82765-.39937,5.32028-9.38986,9.99555-17.13569,17.616,0,20.571.31733,45.34364-.2456,70.09625-.125,5.49462-1.89767,12.52054-5.59893,15.886-3.15957,2.87289-11.05881,3.40376-15.23367,1.46514-4.0082-1.86118-8.07665-8.08743-8.37069-12.63766-1.01882-15.766-.28166-31.63923-.50539-47.46751-.05241-3.70612-1.2556-7.396-1.92934-11.09343l-4.09251.07714c-.54023,3.79713-1.49841,7.58893-1.54662,11.39233-.18438,14.5454-.13805,29.095-.05625,43.64231.05911,10.50824-4.04308,17.84937-15.38043,17.80994-11.38343-.03966-15.24965-7.46491-15.20083-17.96719C168.37739,205.82122,168.29809,180.60892,168.29809,154.7582Z"/>
      <path class="cls-1" d="M230.75444,30.37728c-.28613,16.25163-12.53767,28.22908-28.63366,27.993C186.52988,58.14165,173.476,44.98,173.5672,29.58094,173.66212,13.55468,187.37631.478,203.52462,1.016,219.70617,1.55521,231.04657,13.78327,230.75444,30.37728Z"/>
    </g>
    <g>
      <path class="cls-1" d="M317.09809,154.7582c-15.141-1.44279-19.50639-10.25738-18.34376-23.95466.86538-10.19545-.19778-20.53976.25452-30.78876.68512-15.52415,6.824-28.55087,21.255-35.46811,5.046-2.41869,11.8528-1.54466,17.85033-1.49845,7.10949.05472,14.54975,2.42932,21.25685,1.01043,20.42857-4.32177,37.94136,3.32635,41.61291,23.327,3.27144,17.82095,2.73755,36.63845,1.37213,54.82765-.39937,5.32028-9.38986,9.99555-17.13569,17.616,0,20.571.31733,45.34364-.2456,70.09625-.125,5.49462-1.89767,12.52054-5.59893,15.886-3.15957,2.87289-11.05881,3.40376-15.23367,1.46514-4.0082-1.86118-8.07665-8.08743-8.37069-12.63766-1.01882-15.766-.28166-31.63923-.50539-47.46751-.05241-3.70612-1.2556-7.396-1.92934-11.09343l-4.09251.07714c-.54023,3.79713-1.49841,7.58893-1.54662,11.39233-.18438,14.5454-.138,29.095-.05625,43.64231.05911,10.50824-4.04308,17.84937-15.38043,17.80994-11.38343-.03966-15.24965-7.46491-15.20083-17.96719C317.17739,205.82122,317.09809,180.60892,317.09809,154.7582Z"/>
      <path class="cls-1" d="M379.55444,30.37728c-.28613,16.25163-12.53767,28.22908-28.63366,27.993C335.32988,58.14165,322.276,44.98,322.3672,29.58094,322.46212,13.55468,336.17631.478,352.32462,1.016,368.50617,1.55521,379.84657,13.78327,379.55444,30.37728Z"/>
    </g>
    <g>
      <path class="cls-1" d="M465.89809,154.7582c-15.141-1.44279-19.50639-10.25738-18.34376-23.95466.86538-10.19545-.19778-20.53976.25452-30.78876.68512-15.52415,6.824-28.55087,21.255-35.46811,5.046-2.41869,11.8528-1.54466,17.85033-1.49845,7.10949.05472,14.54975,2.42932,21.25685,1.01043,20.42857-4.32177,37.94136,3.32635,41.61291,23.327,3.27144,17.82095,2.73755,36.63845,1.37213,54.82765-.39937,5.32028-9.38986,9.99555-17.13569,17.616,0,20.571.31733,45.34364-.2456,70.09625-.125,5.49462-1.89767,12.52054-5.59893,15.886-3.15957,2.87289-11.05881,3.40376-15.23367,1.46514-4.0082-1.86118-8.07665-8.08743-8.37069-12.63766-1.01882-15.766-.28166-31.63923-.50539-47.46751-.05241-3.70612-1.2556-7.396-1.92934-11.09343l-4.09251.07714c-.54023,3.79713-1.49841,7.58893-1.54662,11.39233-.18438,14.5454-.13805,29.095-.05625,43.64231.05911,10.50824-4.04308,17.84937-15.38043,17.80994-11.38343-.03966-15.24965-7.46491-15.20083-17.96719C465.97739,205.82122,465.89809,180.60892,465.89809,154.7582Z"/>
      <path class="cls-1" d="M528.35444,30.37728c-.28613,16.25163-12.53767,28.22908-28.63366,27.993C484.12988,58.14165,471.076,44.98,471.1672,29.58094,471.26212,13.55468,484.97631.478,501.12462,1.016,517.30617,1.55521,528.64657,13.78327,528.35444,30.37728Z"/>
    </g>
    <g>
      <path class="cls-1" d="M614.69809,154.7582c-15.141-1.44279-19.50639-10.25738-18.34376-23.95466.86538-10.19545-.19778-20.53976.25452-30.78876.68512-15.52415,6.824-28.55087,21.255-35.46811,5.046-2.41869,11.8528-1.54466,17.85033-1.49845,7.10949.05472,14.54975,2.42932,21.25685,1.01043,20.42857-4.32177,37.94136,3.32635,41.61291,23.327,3.27144,17.82095,2.73755,36.63845,1.37213,54.82765-.39937,5.32028-9.38986,9.99555-17.13569,17.616,0,20.571.31733,45.34364-.2456,70.09625-.125,5.49462-1.89767,12.52054-5.59893,15.886-3.15957,2.87289-11.05881,3.40376-15.23367,1.46514-4.0082-1.86118-8.07665-8.08743-8.37069-12.63766-1.01882-15.766-.28166-31.63923-.50539-47.46751-.05241-3.70612-1.2556-7.396-1.92934-11.09343l-4.09251.07714c-.54023,3.79713-1.49841,7.58893-1.54662,11.39233-.18438,14.5454-.13805,29.095-.05625,43.64231.05911,10.50824-4.04308,17.84937-15.38043,17.80994-11.38343-.03966-15.24965-7.46491-15.20083-17.96719C614.77739,205.82122,614.69809,180.60892,614.69809,154.7582Z"/>
      <path class="cls-1" d="M677.15444,30.37728c-.28613,16.25163-12.53767,28.22908-28.63366,27.993C632.92988,58.14165,619.876,44.98,619.9672,29.58094,620.06212,13.55468,633.77631.478,649.92462,1.016,666.10617,1.55521,677.44657,13.78327,677.15444,30.37728Z"/>
    </g>
  </g>
</svg>
