<svg id="Base" xmlns="http://www.w3.org/2000/svg" viewBox="0 0 255 250">
  <defs>
    <style>
      .cls-1 {
        fill: #fff;
      }
    </style>
  </defs>
  <title>imagensPrancheta 8 cópia 16</title>
  <g>
    <g>
      <path class="cls-1" d="M19.19809,154.7582C4.0571,153.31541-.3083,144.50082.85433,130.80354c.86538-10.19545-.19778-20.53976.25452-30.78876C1.794,84.49063,7.93281,71.46391,22.3639,64.54667,27.40985,62.128,34.2167,63.002,40.21423,63.04822c7.10949.05472,14.54975,2.42932,21.25685,1.01043,20.42857-4.32177,37.94136,3.32635,41.61291,23.327,3.27144,17.82095,2.73755,36.63845,1.37213,54.82765-.39937,5.32028-9.38986,9.99555-17.13569,17.616,0,20.571.31733,45.34364-.2456,70.09625-.125,5.49462-1.89767,12.52054-5.59893,15.886-3.15957,2.87289-11.05881,3.40376-15.23367,1.46514-4.0082-1.86118-8.07665-8.08743-8.37069-12.63766-1.01882-15.766-.28166-31.63923-.50539-47.46751-.05241-3.70612-1.2556-7.396-1.92934-11.09343l-4.09251.07714c-.54023,3.79713-1.49841,7.58893-1.54662,11.39233-.18438,14.5454-.138,29.095-.05625,43.64231.05911,10.50824-4.04308,17.84937-15.38043,17.80994-11.38343-.03966-15.24965-7.46491-15.20083-17.96719C19.27739,205.82122,19.19809,180.60892,19.19809,154.7582Z"/>
      <path class="cls-1" d="M81.65444,30.37728c-.28613,16.25163-12.53767,28.22908-28.63366,27.993C37.42988,58.14165,24.376,44.98,24.4672,29.58094,24.56212,13.55468,38.27631.478,54.42462,1.016,70.60617,1.55521,81.94657,13.78327,81.65444,30.37728Z"/>
    </g>
    <g>
      <path class="cls-1" d="M167.99809,154.7582c-15.141-1.44279-19.50639-10.25738-18.34376-23.95466.86538-10.19545-.19778-20.53976.25452-30.78876.68512-15.52415,6.824-28.55087,21.25505-35.46811,5.04595-2.41869,11.8528-1.54466,17.85033-1.49845,7.10949.05472,14.54975,2.42932,21.25685,1.01043,20.42857-4.32177,37.94136,3.32635,41.61291,23.327,3.27144,17.82095,2.73755,36.63845,1.37213,54.82765-.39937,5.32028-9.38986,9.99555-17.13569,17.616,0,20.571.31733,45.34364-.2456,70.09625-.125,5.49462-1.89767,12.52054-5.59893,15.886-3.15957,2.87289-11.05881,3.40376-15.23367,1.46514-4.0082-1.86118-8.07665-8.08743-8.37069-12.63766-1.01882-15.766-.28166-31.63923-.50539-47.46751-.05241-3.70612-1.2556-7.396-1.92934-11.09343l-4.09251.07714c-.54023,3.79713-1.49841,7.58893-1.54662,11.39233-.18438,14.5454-.138,29.095-.05625,43.64231.05911,10.50824-4.04308,17.84937-15.38043,17.80994-11.38343-.03966-15.24965-7.46491-15.20083-17.96719C168.07739,205.82122,167.99809,180.60892,167.99809,154.7582Z"/>
      <path class="cls-1" d="M230.45444,30.37728c-.28613,16.25163-12.53767,28.22908-28.63366,27.993C186.22988,58.14165,173.176,44.98,173.2672,29.58094,173.36212,13.55468,187.07631.478,203.22462,1.016,219.40617,1.55521,230.74657,13.78327,230.45444,30.37728Z"/>
    </g>
  </g>
</svg>
