<svg id="Base" xmlns="http://www.w3.org/2000/svg" viewBox="0 0 250 250">
  <defs>
    <style>
      .cls-1 {
        fill: #fff;
      }
    </style>
  </defs>
  <title>imagensPrancheta 8 cópia 4</title>
  <g>
    <path class="cls-1" d="M42.353,39.54373c.08246-4.779.059-9.54915.45838-14.33448a16.9441,16.9441,0,0,1,7.71708-13.27059C57.78913,6.94907,66.10959,4.85715,74.594,3.24577c1.913-.36332,3.8538-.58019,5.76636-.94538,2.0329-.38817,3.01051.23776,3.48429,2.41791C87.60615,22.0281,91.49086,39.31113,95.33937,56.602c.98137,4.40918,1.91238,8.8307,2.97791,13.21951.4974,2.04872.09949,2.96109-2.227,2.87411-3.71783-.139-7.4451-.06566-11.16775-.02455-3.93926.0435-5.4179,1.73192-5.13221,5.67456.17867,2.46557,1.3366,4.58148,2.37248,6.7246q13.71067,28.36546,27.47925,56.70292,9.81888,20.20641,19.70051,40.38239c.23324.47791.45813.96028.70478,1.43121,2.42217,4.62479,5.70126,5.16448,9.59823,1.59309a35.693,35.693,0,0,0,6.9116-8.71871c.99876-1.75555,1.7436-1.85412,3.07713-.32968q22.40644,25.61421,44.88913,51.16173c.83289.94739,1.34032,1.79043.56507,3.04934-4.19237,6.80775-9.16629,12.87113-16.32226,16.75316-7.46813,4.05134-14.983,3.79218-22.32943-.32785A217.13544,217.13544,0,0,1,90.644,189.63028c-16.78128-21.62622-27.491-46.1831-35.90982-71.92934A252.84077,252.84077,0,0,1,43.36638,60.23376,203.91526,203.91526,0,0,1,42.353,39.54373Z"/>
    <path class="cls-1" d="M207.63861,211.89035c-.24638,5.20358-3.37984,8.7604-6.995,12.00877-1.24384,1.11761-1.90873-.14363-2.56062-.88622q-11.30151-12.87384-22.56406-25.78193-10.83979-12.39549-21.68191-24.789c-2.315-2.64386-2.259-2.94119.96249-4.41833a35.41874,35.41874,0,0,1,8.53986-2.85567,8.54436,8.54436,0,0,1,8.59382,2.83847c11.03443,12.57811,22.162,25.07445,33.24379,37.611A8.25348,8.25348,0,0,1,207.63861,211.89035Z"/>
    <path class="cls-1" d="M94.26246.08491c1.152,0,2.31317-.09431,3.45455.016,5.47646.52939,7.50207,2.26681,8.76851,7.56707,3.99522,16.72053,7.10376,33.62761,10.59538,50.45422a9.34645,9.34645,0,0,1-3.3226,9.50583,25.93929,25.93929,0,0,1-6.54389,4.02639c-2.60509,1.19157-2.92292,1.03827-3.53894-1.76906q-2.70571-12.33069-5.3803-24.6682Q93.87529,24.964,89.44414,4.71333C88.4105.01053,88.37645.01793,93.19844.00061c.35466-.00127.70933-.00016,1.064-.00016Z"/>
  </g>
</svg>
