<svg id="Base" xmlns="http://www.w3.org/2000/svg" viewBox="0 0 250 250">
  <defs>
    <style>
      .cls-1 {
        fill: #fff;
      }
    </style>
  </defs>
  <title>imagensPrancheta 8 cópia 11</title>
  <g>
    <path class="cls-1" d="M124.92985.02765c17.97312,0,35.9466-.07139,53.91931.01526,34.59155.16676,65.834,27.72956,70.44521,61.99413a79.54969,79.54969,0,0,1,.69457,10.6742c-.01348,34.86354.0398,69.72717-.02131,104.59061a72.85,72.85,0,0,1-63.05666,72.103,63.31264,63.31264,0,0,1-8.73191.56638c-35.40489.00541-70.81.07011-106.21466-.01454-35.69077-.08534-66.5849-27.39379-71.34566-62.809a70.175,70.175,0,0,1-.59327-9.38C.02224,142.57936-.0328,107.39088.03919,72.20266.11275,36.24347,27.25353,5.47671,62.928.6A104.10274,104.10274,0,0,1,76.85718.034C92.88131-.00786,108.90561.01789,124.92985.01789Zm.142,228.70461c16.67452,0,33.34932.0514,50.02332-.04114a59.26288,59.26288,0,0,0,10.65013-.914c25.64771-4.85771,42.91416-25.71013,42.9701-51.93956q.10842-50.83541-.0228-101.67118a54.03116,54.03116,0,0,0-.929-9.999c-4.88837-25.53271-25.6419-42.80217-51.67725-42.87533q-51.16008-.14377-102.32081.01433a52.285,52.285,0,0,0-9.35847.86025C39.0526,26.85155,21.46142,47.54737,21.31955,73.336q-.28413,51.64614.00478,103.29495a50.47282,50.47282,0,0,0,10.557,31.45346c10.67129,13.772,24.93271,20.42826,42.19285,20.60831C91.07169,228.87006,108.07249,228.73141,125.07185,228.73226Z"/>
    <path class="cls-1" d="M67.59713,124.88426a57.40433,57.40433,0,1,1,57.2104,57.51907A57.13159,57.13159,0,0,1,67.59713,124.88426Zm93.49867.13031c-.59334-20.11791-15.42021-35.87867-35.99748-35.97922-19.84639-.097-35.90445,14.95521-36.05767,35.78424-.14916,20.27742,15.41749,35.95626,36.02539,36.19947C144.75558,161.25141,161.06574,144.63681,161.0958,125.01457Z"/>
    <path class="cls-1" d="M208.38849,57.495a15.81314,15.81314,0,1,1-31.6259-.15351,15.81314,15.81314,0,0,1,31.6259.15351Z"/>
  </g>
</svg>
