<svg id="Base" xmlns="http://www.w3.org/2000/svg" viewBox="0 0 250 250">
  <defs>
    <style>
      .cls-1 {
        fill: #fff;
      }
    </style>
  </defs>
  <title>imagensPrancheta 8 cópia 5</title>
  <g>
    <path class="cls-1" d="M124.61512,249.99993C55.609,249.97151-.07652,193.94013.00008,124.61083.07639,55.54063,55.9946-.03187,125.386.00007c69.01642.03177,124.69358,56.05372,124.61391,125.38564C249.92056,194.45057,193.99892,250.02851,124.61512,249.99993ZM229.20788,120.10834c-.75177-53.50611-49.81075-106.376-116.91375-98.89154-50.9968,5.688-97.97655,52.651-91.1078,116.13551,5.52825,51.095,52.3955,97.88225,116.53108,91.6092C189.7291,223.87429,233.285,172.99,229.20788,120.10834Z"/>
    <path class="cls-1" d="M114.62184,86.22226c.00247-11.56086-.0768-23.12245.02906-34.68234.07636-8.33873,4.09161-13.29014,10.41847-13.24568,6.29588.04423,10.24869,5.00109,10.283,13.38794.08521,20.85458.13411,41.7105-.03716,62.564a14.57691,14.57691,0,0,0,4.6977,11.407q21.84891,21.42526,43.34319,43.21147c5.754,5.80457,5.75355,13.21194.06651,16.94557-4.80009,3.15137-9.56059,2.50188-13.60416-1.52366q-25.78348-25.66862-51.459-51.44565c-3.13334-3.13348-3.78579-7.03478-3.76258-11.25611C114.66165,109.7976,114.61936,98.00982,114.62184,86.22226Z"/>
  </g>
</svg>
