<svg id="Base" xmlns="http://www.w3.org/2000/svg" viewBox="0 0 250 250">
  <defs>
    <style>
      .cls-1 {
        fill: #fff;
      }
    </style>
  </defs>
  <title>imagensPrancheta 8 cópia 7</title>
  <g>
    <path class="cls-1" d="M43.25685,33.437c.02089.48289.05954.96576.05993,1.44867q.00663,8.24935-.00307,16.49871c-.00114.60094.02777,1.0795.79432,1.18867a23.1565,23.1565,0,0,1,7.87433,3.08261,1.22556,1.22556,0,0,0,1.76344-.2453c3.90509-3.92062,7.87184-7.77982,11.779-11.69841.65067-.65256,1.04727-.68006,1.64761.01854a35.0858,35.0858,0,0,0,2.65437,2.77021c.64779.60508.56291,1.005-.02986,1.59318-3.92821,3.89809-7.81071,7.84233-11.74813,11.731-.67907.67067-.85962,1.13223-.24023,1.98238a22.09147,22.09147,0,0,1,3.09934,7.2016c.426,1.5086.42405,1.50971,2.02574,1.50983,5.18828.00037,10.37677.02436,15.56466-.02013,1.02785-.00881,1.439.26727,1.36733,1.34005-.08285,1.23968-.05061,2.49012-.00913,3.73391.02646.79319-.253,1.10009-1.07248,1.1085-3.90673.04-7.81312.12121-11.7193.20351-1.6932.03568-3.38533.124-5.07855.15746a.99666.99666,0,0,0-1.0666.76471A35.30557,35.30557,0,0,1,57.95,84.979a1.36194,1.36194,0,0,0,.29313,1.633c.72154.83786,1.43631,1.68557,2.21125,2.47269,3.05754,3.10554,6.1423,6.18426,9.20605,9.28371.97687.98824.95929,1.00142.009,1.94964-1.00384,1.00163-2.03378,1.97964-2.99227,3.02312-.53344.58074-.87584.53293-1.41872-.00212-3.59622-3.54436-7.08156-7.20154-10.78969-10.63212-.22846-.21136-.45443-.42612-.69261-.62614-1.30687-1.09754-1.54624-1.11719-3.014-.28241a34.05345,34.05345,0,0,1-6.0579,2.42044,1.334,1.334,0,0,0-1.10559,1.38618c.00113.51783-.05173,1.03557-.06016,1.55367-.08043,4.944-.17612,9.88793-.2168,14.83228-.00782.95093-.32933,1.27963-1.27386,1.23837-1.45-.06333-2.906-.05316-4.357-.0035-.85476.02925-1.14232-.28727-1.15008-1.13684-.02934-3.215-.116-6.42954-.18766-9.6441-.05162-2.31554-.13819-4.63065-.15624-6.94637a1.16331,1.16331,0,0,0-.95921-1.24613,31.8667,31.8667,0,0,1-6.87849-2.86038,1.38677,1.38677,0,0,0-1.72316.2438c-.85159.70485-1.69705,1.42348-2.4857,2.19687-3.13628,3.07558-6.2689,6.15549-9.35667,9.27947-.69749.70568-1.15722.7569-1.83126.00607a31.74,31.74,0,0,0-2.665-2.61454c-.66637-.586-.58656-.9715.011-1.569,3.86436-3.86366,7.6741-7.78206,11.55018-11.63378a1.47315,1.47315,0,0,0,.30893-2.12591A21.84989,21.84989,0,0,1,19.14454,77.391c-.12544-.84422-.71929-.69907-1.249-.69972q-7.98994-.00985-15.9799-.00433c-.31129,0-.62435-.02333-.93352.00188-.71019.05791-.99343-.24028-.97473-.96144.035-1.348.04637-2.69906-.00511-4.04606-.03256-.852.281-1.14947,1.1327-1.15805,4.70223-.04734,9.40384-.15348,14.106-.20961,3.40786-.04069,3.41894-.01646,4.45491-3.182A31.20665,31.20665,0,0,1,22.18845,61.666a1.1901,1.1901,0,0,0-.28523-1.68533c-3.95533-3.91983-7.86049-7.89034-11.82165-11.8042-.71069-.7022-.74589-1.15025.00927-1.82149a36.06556,36.06556,0,0,0,2.93029-2.93221c.61947-.69368,1.04816-.64032,1.67306-.01477,3.88661,3.89065,7.82352,7.73129,11.68718,11.64437a1.58792,1.58792,0,0,0,2.20975.36926,33.47616,33.47616,0,0,1,6.87048-2.88819c.86722-.21553.83215-.94589.86764-1.57246.10162-1.79463.18205-3.59237.19775-5.38953.03142-3.59695.01175-7.19434.02019-10.79152.001-.44773.04467-.89535.06856-1.343Z"/>
    <path class="cls-1" d="M109.51314,216.56305a8.537,8.537,0,0,0-1.17664-.16557c-9.68176-.04615-19.34837-.54486-29.00479-1.15353a285.8938,285.8938,0,0,1-30.30108-3.13726,38.98971,38.98971,0,0,1-6.5973-1.57057,7.62107,7.62107,0,0,1-1.55978-.73334c-.82669-.53229-.83473-1.08283.08759-1.56351a58.83106,58.83106,0,0,1,6.36934-2.71549,273.31893,273.31893,0,0,1,34.39927-10.8464,179.41975,179.41975,0,0,1,28.5231-4.351c7.97817-.56057,15.96347-.74771,23.95647-.78154,3.84854-.01629,3.86864-.01674,5.35913-3.58137q12.41087-29.68131,24.80371-59.37017a70.12839,70.12839,0,0,1,3.43835-7.21217c.90708-1.62332,1.15878-1.71377,2.84638-1.03248,1.35787.54816,2.67153,1.206,4.03036,1.75157.93514.37544.991.89122.6239,1.76087q-7.7448,18.34884-15.4337,36.72124-6.29118,15.05783-12.50652,30.14735c-.56982,1.375-.46868,1.70863,1.04067,2.01,2.82581.56427,5.69263.92338,8.51792,1.48986A293.50208,293.50208,0,0,1,206.00723,206.347a15.54142,15.54142,0,0,1,3.53416,1.84473c.79032.57395.74165,1.14765-.04982,1.67586a9.50144,9.50144,0,0,1-2.96386,1.15986,117.26549,117.26549,0,0,1-16.67616,2.66516c-7.3216.812-14.67032,1.30987-22.01888,1.7879-4.16272.2708-8.333.4438-12.50226.5904-4.304.15135-8.61109.2136-12.9165.32683a10.14052,10.14052,0,0,0-1.17793.16533Z"/>
    <path class="cls-1" d="M250,123.26058c-.41454,2.98251-.55,5.99888-1.18366,8.95656-.54982,2.56621-1.32194,5.06289-2.08277,7.56878-.34172,1.12559-.846,1.35551-1.93732.94949-6.15947-2.29156-12.24938-4.75811-18.3299-7.2467-5.09457-2.085-10.16251-4.23576-15.22806-6.39078-1.93432-.82292-1.95952-.8818-1.21527-2.8221a194.38649,194.38649,0,0,0,9.37333-33.68733c1.29183-6.84549,1.322-13.77158,1.283-20.6962-.027-4.78814.09191-9.59537-1.0204-14.30993-.07173-.30408-.17813-.6568.12948-.85815.35781-.23419.69678.00987.96469.23373,1.73712,1.4515,3.53666,2.83888,5.17788,4.3929a79.78682,79.78682,0,0,1,22.66133,39.25171,48.76153,48.76153,0,0,1,1.227,8.82022c.02574.39424.1188.78409.18069,1.176Z"/>
    <path class="cls-1" d="M212.73912,70.29974a121.31839,121.31839,0,0,1-5.99273,38.23767c-1.28,3.92443-2.42784,7.892-3.89715,11.75351-.82422,2.16615-.84118,2.21369-3.071,1.4142-9.4072-3.37276-18.6268-7.22209-27.848-11.06336-7.09013-2.95352-14.20181-5.86289-21.13031-9.1868-2.6138-1.254-2.43-.9984-1.26781-3.47366,5.35482-11.40494,11.41959-22.39575,19.22586-32.33765,5.54138-7.05737,11.63936-13.54671,19.49484-18.12281a24.40889,24.40889,0,0,1,9.0642-3.33929,10.46275,10.46275,0,0,1,9.98135,3.79373c3.04607,3.64161,4.17055,8.08185,4.90144,12.63216A52.30284,52.30284,0,0,1,212.73912,70.29974Z"/>
    <path class="cls-1" d="M175.11966,38.734a41.92467,41.92467,0,0,1,6.51027.32608c.70391.078,1.71639.046,1.88741.93505.14941.77677-.71287,1.16981-1.28211,1.54948a68.31244,68.31244,0,0,0-11.44274,9.73626,135.654,135.654,0,0,0-22.52544,31.06125c-2.3397,4.48807-4.83562,8.89609-6.93223,13.50715-.47168,1.03737-1.18357.868-1.98668.63217a113.90817,113.90817,0,0,1-11.22908-4.17581c-7.51181-3.09429-15.001-6.2435-22.4967-9.37691-1.69834-.70994-1.7124-.755-.88606-2.40682a70.61358,70.61358,0,0,1,10.36611-14.95615c7.05071-8.02153,15.017-14.84676,24.79114-19.38554,9.449-4.38782,19.27863-7.15664,29.77293-7.26808C171.48263,38.89285,173.29687,38.65589,175.11966,38.734Z"/>
    <path class="cls-1" d="M207.77352,41.78888a32.54527,32.54527,0,0,1-6.238-2.2062.7578.7578,0,0,1-.3648-1.11361,29.1213,29.1213,0,0,1,2.01649-4.1808,1.66271,1.66271,0,0,1,2.0589-.7559,51.89947,51.89947,0,0,1,5.09579,1.90106c.55189.21822.76669.56624.52076,1.13726-.64763,1.50367-1.29044,3.00944-1.94631,4.50952A.98463.98463,0,0,1,207.77352,41.78888Z"/>
  </g>
</svg>
