<svg id="Base" xmlns="http://www.w3.org/2000/svg" viewBox="0 0 250 250">
  <defs>
    <style>
      .cls-1 {
        fill: #f46b09;
      }

      .cls-2 {
        fill: #fdfeff;
      }

      .cls-3 {
        fill: none;
        stroke: #f46b09;
        stroke-miterlimit: 10;
        stroke-width: 2px;
      }
    </style>
  </defs>
  <title>imagensPrancheta 8 cópia</title>
  <g>
    <circle class="cls-1" cx="125" cy="125" r="123"/>
    <g>
      <path class="cls-2" d="M179.80688,78.91713c-18.52232.27474-37.05142.08719-55.57785.079-17.965,0-35.93457.23855-53.8928-.11022-7.79712-.15218-11.23478,2.40933-11.12435,10.61456.31731,23.57511.248,47.15845.04359,70.7352-.069,7.96339,3.33587,10.928,11.18194,10.88437q54.73532-.30725,109.473,0c8.10282.04688,10.94318-3.48938,10.87922-11.19284q-.2901-34.94562-.002-69.8937C190.853,82.24857,187.81407,78.79868,179.80688,78.91713Zm-86.97847,64.8916c-3.42933,2.88808-4.93423-3.20641-7.84226-4.43288-1.50192-.63338-3.03377-1.81954-2.57518-3.83486.51781-2.27525,2.42157-2.8634,4.479-3.00817a47.45563,47.45563,0,0,0,5.837-.39977c.89332-.17686,2.21-1.20261,2.25047-1.90674a3.34708,3.34708,0,0,0-1.83291-2.38219c-2.015-.92705-4.25921-1.34574-6.30949-2.20945-8.48191-3.57493-9.44207-11.2973-3.00518-17.94456,5.21844-5.38953,9.60782-7.69358,14.88158-.42609.90648,1.24867,3.16744,1.69122,2.57529,3.788-.60809,2.15352-2.47956,2.88643-4.55534,3.00982-1.3918.08308-2.798-.05347-4.18724.04853-1.614.11845-3.789-.21551-4.28059,1.75456-.69735,2.7943,2.02467,2.90206,3.68772,3.52229,4.67708,1.74469,9.94087,2.60839,11.6216,8.42485a20.90049,20.90049,0,0,1,.47977,2.8017C103.448,138.05808,97.02778,140.27164,92.82841,143.80873Zm79.21836-24.88712q-23.42762.16656-46.85676-.00741c-2.69549-.02138-6.27011-.16122-6.22158-3.96812.04833-3.78139,3.61842-3.81676,6.3209-3.8727,7.80628-.162,15.618-.05758,23.42777-.05347,7.80946.00494,15.62046-.08061,23.42756.05512,2.45756.04277,5.48382.19577,5.71466,3.56259C178.1356,118.66825,174.78185,118.90269,172.04677,118.92161Z"/>
      <path class="cls-2" d="M75,94c-18.76831,18.6525-1.13062,56.64066,0,59,1.51172,3.15494,3.09009,5.78674,6,7,8.52954,3.55624,22.407-7.61563,29-19,.98462-1.70029,11.58325-20.69173,2-38-.62329-1.12563-9.53784-16.71552-23-16C81.65039,87.39063,76.56055,92.449,75,94Z"/>
      <path class="cls-1" d="M80.65234,129.88929l7.14649-.6412a10.10009,10.10009,0,0,0,.94531,3.79963,3.62183,3.62183,0,0,0,3.31641,2.11308A3.00038,3.00038,0,0,0,94.54,134.08049a3.99758,3.99758,0,0,0,.041-4.92749q-.8291-1.06878-3.84667-2.018-4.9424-1.59111-7.04786-4.22686a10.37643,10.37643,0,0,1-2.12207-6.72033,12.0873,12.0873,0,0,1,1.08594-5.07014,8.45574,8.45574,0,0,1,3.2666-3.75208A11.21612,11.21612,0,0,1,91.89453,106Q96.55421,106,99,108.48158q2.44629,2.48157,2.91016,7.89573l-7.08008.59365a6.50954,6.50954,0,0,0-1.18555-3.41925,3.0933,3.0933,0,0,0-2.49609-1.06842,2.42115,2.42115,0,0,0-1.97266.795,2.92356,2.92356,0,0,0-.66406,1.93548,2.29171,2.29171,0,0,0,.54785,1.49636,5.18883,5.18883,0,0,0,2.52051,1.28239,25.22893,25.22893,0,0,1,7.05566,3.07523,9.09356,9.09356,0,0,1,3.10059,3.85836,13.16317,13.16317,0,0,1,.9707,5.15335,14.65973,14.65973,0,0,1-1.29394,6.17422,9.62955,9.62955,0,0,1-3.61524,4.2856A10.80578,10.80578,0,0,1,91.94434,142q-6.20216,0-8.58985-3.41925A16.63235,16.63235,0,0,1,80.65234,129.88929Z"/>
      <line class="cls-3" x1="91.67969" y1="101.5" x2="91.67969" y2="146.5"/>
    </g>
  </g>
</svg>
