<svg id="Base" xmlns="http://www.w3.org/2000/svg" viewBox="0 0 250 250">
  <defs>
    <style>
      .cls-1 {
        fill: #f46b09;
      }

      .cls-2 {
        fill: #fdfeff;
      }
    </style>
  </defs>
  <title>imagensPrancheta 8 cópia 2</title>
  <g>
    <circle class="cls-1" cx="125" cy="125" r="124"/>
    <g>
      <path class="cls-2" d="M185.74667,163.88986c-3.15912-2.32442-6.27655-4.70716-9.39173-7.09072-8.85683-6.777-8.80981-6.7474-2.002-15.10957,2.64659-3.25173,5.17943-6.6127,7.53055-10.08208,2.74188-4.04516,2.83962-8.02214.246-12.53464C167.73979,94.03479,138.805,79.73179,111.31063,88.2032,96.594,92.73788,86.9546,89.7843,77.1374,80.1975A58.11831,58.11831,0,0,0,70.515,75.03284a33.31123,33.31123,0,0,0-3.3932-1.94906c-3.53427.55195-4.96291,3.02585-6.3473,5.44145-1.64178,2.86405.05318,4.75315,2.17494,6.39668q9.63429,7.46238,19.29086,14.89684Q130.138,136.798,178.03193,173.783c3.19526,2.46816,6.318,5.269,9.98.671C191.56,169.99907,189.64809,166.7613,185.74667,163.88986ZM154.87,129.52618c-.422,2.59219-.26016,6.5741-3.81681,6.54371-3.55994-.03121-5.99689-2.96672-6.28313-6.74411-.31643-4.17493-.00308-8.38928-2.02463-12.303-3.155-6.10921-7.61-10.3983-14.84325-10.72027a9.8632,9.8632,0,0,0-4.77636,1.002c-1.89978.9848-.30451,6.39257-4.26035,4.45747-3.90993-1.91375-7.38651-5.03324-10.47314-8.19051-1.94352-1.98849.6386-3.36179,2.14167-4.5084,3.05666-2.331,8.96371-3.91373,14.37395-3.91373C143.94977,95.14772,157.87824,111.05975,154.87,129.52618Z"/>
      <path class="cls-2" d="M124.01888,155.2049a11.23334,11.23334,0,0,1-1.67946-.05832c-11.11575-1.39876-20.967-6.487-23.8472-17.204-3.18017-11.83238-12.31862-16.69724-20.24959-23.43807-2.23161-1.8965-4.40983-2.54372-6.50345.0616-4.209,5.23858-7.41608,10.4714-2.97227,17.42742q19.52393,30.56042,55.161,32.73576c4.89751-.89609,12.83176,1.11047,12.89726-3.29033C136.90792,155.88826,129.55519,155.06362,124.01888,155.2049Z"/>
    </g>
  </g>
</svg>
