<svg id="Base" xmlns="http://www.w3.org/2000/svg" viewBox="0 0 250 250">
  <defs>
    <style>
      .cls-1 {
        fill: #f46b09;
      }

      .cls-2 {
        fill: #fdfeff;
      }
    </style>
  </defs>
  <title>imagensPrancheta 8</title>
  <g>
    <circle class="cls-1" cx="125" cy="125" r="123"/>
    <g>
      <path class="cls-2" d="M180.60931,151.80539q-55.6684.06912-111.33693,0C63.29,151.797,58.56074,152.857,58.59544,160.37354c.03391,7.329,4.95706,7.54061,10.2666,7.53328q27.8342-.04086,55.66853-.00524,27.8342,0,55.66853-.00943c5.42725-.00628,11.21324.55306,11.20564-7.638C191.39767,152.69572,186.52938,151.7991,180.60931,151.80539Z"/>
      <path class="cls-2" d="M79.09315,142.3647c14.98407.11,29.9697.02619,44.95468.02933,15.34176,0,30.68379.06075,46.02516-.01885,12.77119-.065,15.15886-3.09941,11.20263-15.61646-6.34271-20.06918-19.48025-33.574-39.835-39.92259-4.27072-1.33131-11.76838-2.21536-3.03446-9.01332,5.408-4.20866,3.35538-8.69909-2.84711-9.47211a104.55733,104.55733,0,0,0-21.34288-.0199c-4.91451.40327-7.826,5.04977-3.94771,8.1209,11.21323,8.87925,1.59631,9.0814-3.9616,11.07261-19.58408,7.01688-32.2115,20.65575-37.94067,40.47459C65.08034,139.3648,67.47652,142.27881,79.09315,142.3647Z"/>
    </g>
  </g>
</svg>
