<svg id="Base" xmlns="http://www.w3.org/2000/svg" xmlns:xlink="http://www.w3.org/1999/xlink" viewBox="0 0 1920 350">
  <defs>
    <style>
      .cls-1 {
        fill: url(#Gradiente_sem_nome_15);
      }
    </style>
    <linearGradient id="Gradiente_sem_nome_15" data-name="Gradiente sem nome 15" x1="960" x2="960" y2="350" gradientUnits="userSpaceOnUse">
      <stop offset="0" stop-color="#2b99d4"/>
      <stop offset="1" stop-color="#265bc8"/>
    </linearGradient>
  </defs>
  <title>imagensPrancheta 31</title>
  <path class="cls-1" d="M1918.31543,2c-22.48145,4.894-45.18408,7.63477-68.05566,10.1416-20.15528,2.20947-40.2251,3.2334-60.54932,12.166-22.86621,10.0498-48.83643,18.26318-76.34473,5.32861-23.57129-11.0835-49.64746-17.56152-74.96728-.95752-3.63428,2.38379-9.19556,1.5669-13.84229,2.37158-39.67041,6.87256-77.49927-10.437-116.7749-9.51758-11.43628.26807-22.14331-5.0957-33.14087-8.11621-30.67529-8.42529-66.8435-19.61474-92.13623.14112-26.00561,20.3125-49.37964,17.51562-75.75122,14.35254a182.51139,182.51139,0,0,0-32.28931-.61817c-16.30127.91211-31.97143-.40234-46.15136-11.80224-9.71607-7.811-22.72339-9.20166-35.09644-6.41407-20.62109,4.646-40.32935,3.13428-59.42554-6.62207A38.109,38.109,0,0,0,1127.811,0h-18.543c-.92041.28564-1.84449.60156-2.77686.97607,11.46948,17.78321,9.83936,21.51905-9.96948,22.21924-37.19458,1.31494-74.24634,3.398-110.70069,12.06446a25.2136,25.2136,0,0,1-13.93432-1.26709c-15.43335-5.81641-32.87891-6.9668-41.51856-26.42237C925.90918-2.4707,879.251-.59521,864.717,9.77783c-20.58862,14.69385-39.3667,11.99414-57.60229-3.30517-4.89649-4.1084-7.58814-8.26612-15.26954-3.68311-32.55273,19.4209-69.47094,21.1709-105.56,25.86475-4.49756.585-11.52564,1.3457-13.03882-3.34815-4.47046-13.86865-12.98218-7.46338-19.186-4.20166-32.88061,17.28809-67.916,17.82129-103.35864,15.273-8.63965-.62158-21.29907-1.59765-21.67432-11.62256C528.30615,5.50293,518.57178,9.78467,507.375,11.55273a263.456,263.456,0,0,1-36.39209,3.168c-23.01343.40088-46.7085,13.31739-69.07227-3.877-1.89355-1.45557-7.82885,1.2124-11.04443,3.33057C370.42285,27.64063,348.73,28.0415,326.53906,20.78906c-15.99511-5.227-31.40527-5.083-47.9685-1.65625-19.02881,3.9375-41.14722,10.53662-57.58643,4.11573-17.22632-6.728-29.13037-4.31641-45.04053-.39551-19.7124,4.85742-42.10717,16.64306-60.05249-6.89844-4.75732-6.24121-12.48364-2.29053-19.18139-1.041C65.96338,20.64941,34.95483,20.77,3.89453,19H0V350H1920V2Z"/>
</svg>
