<svg id="Camada_1" data-name="Camada 1" xmlns="http://www.w3.org/2000/svg" viewBox="0 0 394.51655 366.96957">
  <title>certificateIcon</title>
  <g>
    <path d="M5.91969,361.46322V85.85305c11.68882,0,23.13239-.002,34.576.00037q49.94183.0102,99.88351.07656a7.38662,7.38662,0,0,0,6.80986-3.45735c10.88717-15.24044,21.9419-30.36173,33.02006-45.46456,1.45415-1.98242,1.91-3.43431.70273-5.96184a17.70665,17.70665,0,0,1,5.452-22.07532c6.0674-4.64649,15.4388-4.61576,21.6922.07114a17.6508,17.6508,0,0,1,5.4485,21.624,5.61208,5.61208,0,0,0,.694,6.51183c11.07811,15.10106,22.15834,30.20284,32.99682,45.47545,2.18239,3.07519,4.81214,3.23519,7.935,3.23362q64.00335-.03205,128.00667-.01132c1.7454.00006,3.4908,0,5.45984,0V361.46322Zm370.32194-27.23074V112.90925c-8.8872-1.08688-15.38421-5.56365-17.14988-14.38884-.82878-4.1426-2.55651-4.2953-5.71482-4.29388q-140.58414.06309-281.16823.03844c-11.93671.00025-23.87342,0-35.965,0-1.55023,11.01227-7.44157,17.4203-18.49381,18.6801V334.14458c10.72084,1.804,17.23888,7.69567,18.57961,18.492H358.2678C359.31728,341.51428,365.978,336.19892,376.24163,334.23248ZM161.48752,85.51568h71.29174c-10.8061-14.65684-21.06721-28.67275-31.46894-42.58348-1.68329-2.25113-6.78691-2.043-8.50987.26525C182.48828,57.01281,172.27981,70.90558,161.48752,85.51568Z"/>
    <path d="M236.55775,206.19378c-.56023-28.29161,22.7157-54.74626,54.4552-54.66442,30.22236.07792,54.54287,22.94409,54.73162,54.45984.19158,31.98992-25.16353,54.84122-54.7865,54.94217C260.89646,261.03384,236.55047,236.42567,236.55775,206.19378Zm54.51937,41.21294c21.738.65954,41.44043-17.49224,41.45248-41.22943.012-23.68029-19.83132-41.63251-41.45518-41.34375-23.09029.30835-41.152,18.05251-41.39219,41.322A41.01713,41.01713,0,0,0,291.07712,247.40672Z"/>
    <path d="M41.94608,161.03062V149.704H214.892v11.32661Z"/>
    <path d="M41.86256,263.94244H214.92788v11.3048H41.86256Z"/>
    <path d="M186.81633,245.26181H70.751v-11.256H186.81633Z"/>
    <path d="M82.32515,184.98512V174.95619h92.83834v10.02893Z"/>
    <path d="M175.26489,287.389V297.6178H82.30871V287.389Z"/>
    <path d="M302.01762,309.01628c-2.43755-13.71746-4.66376-26.2456-6.99831-39.38338,6.74312-1.26579,13.28707-2.49416,20.49153-3.84656,2.21911,12.25271,4.39765,24.28126,6.71059,37.05205l-11.71056-6.39584Z"/>
    <path d="M259.989,302.77446c2.31433-12.77028,4.499-24.82524,6.6994-36.96666l20.48665,3.83481c-2.375,13.22332-4.63577,25.81006-7.07071,39.36683-3.04342-4.60108-5.57689-8.43115-8.34585-12.61729Z"/>
    <path d="M306.82138,228.3467c-4.89063-2.53433-8.73758-4.83507-12.84061-6.50766a8.58422,8.58422,0,0,0-5.9471.07192c-4.11457,1.70766-7.98052,4.01433-12.62058,6.42968.79024-5.12766,1.732-9.59137,2.051-14.09912a8.51892,8.51892,0,0,0-1.76428-5.66024c-2.92121-3.36409-6.36444-6.27488-10.30063-10.04132,5.739-.96389,10.41455-1.55194,14.97626-2.62434a7.19376,7.19376,0,0,0,4.13215-3.03143c2.31744-3.95825,4.19215-8.17572,6.5602-12.933,1.96884,3.89055,4.02569,6.94965,5.10324,10.3217,1.58643,4.96448,5.1722,6.21692,9.66057,6.64293,3.29293.31249,6.56594.83463,10.03912,1.28837-2.89581,3.11147-5.31113,6.32253-8.33422,8.78855-3.28337,2.67841-3.59024,5.69679-2.811,9.39744C305.49826,220.0599,306.03245,223.77987,306.82138,228.3467Z"/>
  </g>
</svg>
