<svg id="Camada_1" data-name="Camada 1" xmlns="http://www.w3.org/2000/svg" viewBox="0 0 500 500">
  <defs>
    <style>
      .cls-1 {
        fill: #fff;
      }
    </style>
  </defs>
  <title>informationsBalloon</title>
  <g>
    <path class="cls-1" d="M342.06492,211.63988c50.23811,1.83891,95.20528,18.21333,128.64623,59.69285,30.877,38.2992,32.56114,94.38463,3.64089,134.57038-4.47332,6.21589-6.06384,11.85657-4.66495,19.57138,3.88453,21.42245,11.71612,41.35034,20.843,60.91481,1.12414,2.40984,3.6554,5.17,1.3383,7.65217-1.8631,1.99581-4.82906.33582-7.289-.1711-30.93337-6.37433-61.265-14.6574-89.71336-28.71046-3.74357-1.84926-7.17108-1.09428-10.74372-.33032-35.75244,7.64495-71.33858,7.262-105.62466-5.87-45.881-17.57281-79.18687-48.01457-89.0381-97.99717-8.75794-44.43577,7.82261-80.81864,41.20271-109.73165C261.98986,224.09566,299.5591,212.84291,342.06492,211.63988ZM386.59566,342.375a20.17723,20.17723,0,0,0,19.73368,20.22373c9.6654.0897,19.516-9.63789,19.87255-19.62451.3558-9.96315-9.00015-19.55822-19.28476-19.77774C395.35633,322.94973,386.67182,331.1458,386.59566,342.375Zm-105.3098,19.51792c10.65229.137,20.17379-8.62285,20.347-18.71934a19.77212,19.77212,0,0,0-19.10128-19.92315c-11.6027-.26065-20.29824,7.9371-20.36318,19.19746C262.10372,353.66079,270.05524,361.74854,281.28586,361.89294Zm82.39937-19.45938c-.05532-11.24947-8.01716-19.18856-19.2398-19.18485-11.16713.00368-19.42659,8.07807-19.50685,19.06969-.08411,11.51818,8.26585,19.77016,19.80189,19.56953C356.06706,361.69093,363.74117,353.81038,363.68523,342.43356Z"/>
    <path class="cls-1" d="M450.71973,190.75689c-.16864-7.35667.14076-14.71583-1.09049-22.0369-9.582-56.97638-41.74236-98.37235-90.24435-127.60628C308.25812,10.29767,252.62085-.476,193.37525,7.56618c-56.51782,7.672-105.25316,30.59693-144.3723,72.733C-3.73042,137.09946-9.9372,223.19042,35.09774,286.2298c7.20676,10.08786,8.22245,19.80745,6.2434,31.04646-5.50777,31.27781-17.54671,60.24614-31.01664,88.74367-1.25278,2.65054-4.581,5.68126-2.24319,8.36117,2.05686,2.35794,5.93442.65264,8.93321.03695q35.872-7.36653,70.89753-18.061c20.10877-6.13607,39.92561-13.05951,58.70337-22.59872,4.08074-2.073,9.73125-3.58975,8.58188-10.03305a86.04717,86.04717,0,0,1-1.14427-10.40587l-.2064-8.12784c.00333-4.84335.162-9.68888.22534-14.529.08385-6.40022-1.47271-8.79813-7.60261-4.82414-1.18683.76941-2.47508,1.38707-3.73369,2.0419a393.27894,393.27894,0,0,1-65.11239,27.2596c1.39884-5.1295,2.16984-8.10812,3.024-11.06287,3.9303-13.596,7.14174-27.37471,10.63916-41.07411,3.25731-12.75852-.22971-21.49427-8.99043-30.941C54.11748,241.6767,44.17389,205.615,53.81266,165.15567c8.0613-33.83773,28.56352-59.67227,56.82243-78.99719C165.51906,48.626,226.00048,41.239,288.81465,59.45053,347.72391,76.53,391.34888,111.1194,404.3828,174.97927c.76975,3.77159,3.04976,5.77892,6.62479,6.88971a204.51166,204.51166,0,0,1,33.17546,13.20524C449.17368,197.646,450.83614,195.83211,450.71973,190.75689Z"/>
  </g>
</svg>
