<svg width="112" height="159" viewBox="0 0 112 159" fill="none" xmlns="http://www.w3.org/2000/svg">
<path d="M1.6437 51.278L1.643 51.2856L1.64243 51.2932C0.947445 60.5025 2.86122 69.3319 5.95537 77.7564C11.4439 93.0213 19.6673 106.719 28.7049 120.021C36.8984 132.312 45.9398 144.083 55.136 155.664L55.1382 155.667C55.3857 155.976 55.5951 156.25 55.7801 156.493L55.8123 156.535C55.9808 156.756 56.1385 156.963 56.2798 157.135C56.4249 157.311 56.5956 157.505 56.7881 157.657C56.9842 157.813 57.2954 158 57.7064 158C58.121 158 58.4351 157.81 58.6367 157.645C58.8329 157.485 59.0045 157.281 59.152 157.09C59.3369 156.851 59.5641 156.523 59.8305 156.138C59.9645 155.944 60.1085 155.736 60.262 155.518C60.3376 155.441 60.4401 155.334 60.5279 155.217C60.5958 155.126 60.7011 154.971 60.7688 154.765C63.1372 151.278 65.5297 147.798 67.9262 144.312C74.9532 134.091 82.0147 123.82 88.6009 113.18C94.7375 103.292 100.56 93.1918 105.018 82.2179C108.45 73.808 110.88 64.9923 110.88 55.7946C110.88 40.7227 105.159 27.0114 94.4038 16.7728C83.6686 6.21259 70.9942 1 56.4298 1C40.302 1 24.7056 8.28154 14.1349 20.7577C6.66544 29.4452 2.68145 39.8617 1.6437 51.278ZM99.5173 55.7946C99.5173 79.7564 80.049 99.2262 56.0893 99.2262C32.1372 99.2262 12.8316 79.5937 12.8316 55.7946C12.8316 32.0006 32.3024 12.363 56.2596 12.363C80.2142 12.363 99.5173 31.8278 99.5173 55.7946Z" fill="white" stroke="white" stroke-width="2"/>
</svg>
