<svg id="Camada_1" data-name="Camada 1" xmlns="http://www.w3.org/2000/svg" viewBox="0 0 232.44094 289.13386">
  <title>passwordIcon</title>
  <path d="M116.1968,286.2576q-40.76083,0-81.52167-.00511c-17.83-.01287-31.75226-13.69636-31.803-31.57479-.09607-33.81194.0266-67.62445-.00273-101.43666-.009-10.33866,3.83107-18.86974,11.7189-25.35379,2.09-1.71808,2.47431-3.1403,2.19122-5.73075-4.49371-41.11986,8.6552-75.23773,41.68909-100.06444C107.10392-14.46,176.78046,2.98017,204.66639,57.84668c10.40911,20.4803,13.91295,42.0627,11.12011,64.8318a6.29562,6.29562,0,0,0,1.80206,4.78925c8.276,7.041,12.04921,15.90028,12.01744,26.7745-.0973,33.31948.06343,66.63975-.03032,99.95926-.052,18.4747-13.90054,32.08034-32.3459,32.09018q-40.51648.02164-81.033.00372Zm62.08425-165.72887c5.51046-26.45834-5.95-55.21082-27.53648-69.5928-22.20379-14.79327-48.64181-14.43868-70.367.94377-20.94674,14.8313-32.14911,44.12523-26.09541,68.649Zm-33.49411,68.12339c.206-11.92453-7.61792-22.80534-20.20578-26.7011a28.685,28.685,0,0,0-32.50145,11.7565c-6.94625,10.58847-6.68312,26.34477,3.06646,34.82746,7.25006,6.308,7.75615,12.98168,7.335,20.99755-.129,2.45555-.07482,4.92551-.00716,7.38611.23173,8.427,5.76719,14.049,13.77111,14.04006,7.99267-.00893,13.52805-5.61436,13.71236-14.086.125-5.74314.18138-11.49706-.03371-17.23462a7.20264,7.20264,0,0,1,3.32467-6.90475C140.81241,207.202,144.75393,199.56544,144.78694,188.65212Z"/>
</svg>
