<svg xmlns="http://www.w3.org/2000/svg" viewBox="0 0 850.3937 850.3937">
  <defs>
    <style>
      .cls-1 {
        fill: #0a466e;
      }

      .cls-2 {
        fill: #aa1400;
      }
    </style>
  </defs>
  <title>primeLogoV2</title>
  <g id="Marca">
    <g>
      <g>
        <path class="cls-1" d="M124.65194,822.04724a1.0898,1.0898,0,0,1-.51933-.13777l-18.8869-9.9301a6.58545,6.58545,0,0,0-6.07306,0l-18.8869,9.9301-1.37784-.27554,3.381-21.91618a6.53217,6.53217,0,0,0-1.85477-5.75459L65.14019,779.0521a1.09429,1.09429,0,0,1,.59353-1.8758L86.86754,774.103a6.54629,6.54629,0,0,0,4.90721-3.56085l9.454-19.15017a1.031,1.031,0,0,1,.97509-.60407,1.05738,1.05738,0,0,1,.99627.60407l9.44345,19.13957a6.5222,6.5222,0,0,0,4.91781,3.57145L138.674,777.1763a1.09946,1.09946,0,0,1,.61473,1.8758l-15.28334,14.90046a6.49805,6.49805,0,0,0-1.876,5.76519l3.61416,21.03657Z"/>
        <path class="cls-1" d="M286.15507,822.04724a1.05993,1.05993,0,0,1-.51934-.13777l-18.89749-9.9301a6.58545,6.58545,0,0,0-6.07306,0l-18.8869,9.9301-1.37784-.27554,3.381-21.91618a6.53217,6.53217,0,0,0-1.85477-5.75459L226.63272,779.0521a1.09429,1.09429,0,0,1,.59353-1.8758l21.13382-3.07335a6.54629,6.54629,0,0,0,4.90721-3.56085l9.454-19.15017a1.03533,1.03533,0,0,1,.98568-.60407,1.05307,1.05307,0,0,1,.98568.60407l9.44345,19.13957a6.5222,6.5222,0,0,0,4.91781,3.57145l21.11262,3.07335a1.09946,1.09946,0,0,1,.61473,1.8758L285.498,793.95256a6.49805,6.49805,0,0,0-1.876,5.76519l3.61416,21.03657Z"/>
        <path class="cls-1" d="M447.6476,822.04724a1.05993,1.05993,0,0,1-.51934-.13777l-18.89749-9.9301a6.58547,6.58547,0,0,0-6.07307,0l-18.88689,9.9301-1.37784-.27554,3.381-21.91618a6.53217,6.53217,0,0,0-1.85477-5.75459L388.12525,779.0521a1.09429,1.09429,0,0,1,.59353-1.8758L409.8526,774.103a6.54629,6.54629,0,0,0,4.90721-3.56085l9.454-19.15017a1.031,1.031,0,0,1,.97509-.60407,1.05738,1.05738,0,0,1,.99627.60407l9.44345,19.13957a6.5222,6.5222,0,0,0,4.91781,3.57145l21.11262,3.07335a1.09946,1.09946,0,0,1,.61473,1.8758l-15.28334,14.90046a6.49805,6.49805,0,0,0-1.876,5.76519l3.61416,21.03657Z"/>
        <path class="cls-1" d="M609.14013,822.04724a1.05993,1.05993,0,0,1-.51934-.13777l-18.8975-9.9301a6.58545,6.58545,0,0,0-6.07306,0l-18.88689,9.9301-1.37784-.27554,3.381-21.91618a6.48205,6.48205,0,0,0-1.86537-5.76519L549.61778,779.0521a1.09429,1.09429,0,0,1,.59353-1.8758l21.13382-3.07335a6.54629,6.54629,0,0,0,4.90721-3.56085l9.454-19.15017a1.03533,1.03533,0,0,1,.98568-.60407,1.05307,1.05307,0,0,1,.98568.60407l9.44345,19.13957a6.5222,6.5222,0,0,0,4.9178,3.57145l21.11263,3.07335a1.09947,1.09947,0,0,1,.61473,1.8758L608.483,793.95256a6.49805,6.49805,0,0,0-1.876,5.76519l3.61416,21.03657Z"/>
        <path class="cls-1" d="M770.63266,822.04724a1.05993,1.05993,0,0,1-.51934-.13777l-18.8975-9.9301a6.58545,6.58545,0,0,0-6.07306,0l-18.8869,9.9301-1.37783-.27554,3.381-21.91618a6.48205,6.48205,0,0,0-1.86537-5.76519L711.11031,779.0521a1.09429,1.09429,0,0,1,.59353-1.8758l21.13382-3.07335a6.54629,6.54629,0,0,0,4.90721-3.56085l9.454-19.15017a1.031,1.031,0,0,1,.97509-.60407,1.05738,1.05738,0,0,1,.99627.60407l9.44345,19.13957a6.5222,6.5222,0,0,0,4.9178,3.57145l21.11263,3.07335a1.09947,1.09947,0,0,1,.61473,1.8758l-15.28334,14.90046a6.49805,6.49805,0,0,0-1.876,5.76519l3.61416,21.03657Z"/>
      </g>
      <g>
        <path class="cls-1" d="M43.27746,610.55137h6.41279V669.7862h28.636v5.76057H43.27746Z"/>
        <path class="cls-1" d="M120.45251,675.54677l-.09124-8.1847a17.613,17.613,0,0,1-7.53372,6.37312,25.80968,25.80968,0,0,1-10.688,2.08527,18.89334,18.89334,0,0,1-8.69377-1.90281,13.88846,13.88846,0,0,1-7.85957-12.78534,11.72534,11.72534,0,0,1,4.87476-9.94415q4.8878-3.63621,13.43818-3.62317H120.27v-3.72743c0-3.83169-1.147-6.81624-3.441-8.91455q-3.441-3.167-10.04931-3.167-7.80092,0-15.70612,5.8518l-2.7893-4.27481a41.87111,41.87111,0,0,1,9.38457-5.06982,29.89319,29.89319,0,0,1,10.23179-1.61609q8.83713,0,13.67279,4.40514,4.82914,4.41817,4.9269,12.238l.09124,32.25659Zm-6.17817-7.95011a14.82663,14.82663,0,0,0,6.08693-8.51053v-6.68591H104.64212c-4.2752,0-7.52069.70378-9.76256,2.13741a7.09111,7.09111,0,0,0-3.33674,6.41222,8.66267,8.66267,0,0,0,3.2064,7.02477,12.94544,12.94544,0,0,0,8.49825,2.64569A19.33655,19.33655,0,0,0,114.27434,667.59666Z"/>
        <path class="cls-1" d="M182.41674,631.70387q4.966,5.08285,4.979,13.90618v29.93672h-6.32155v-28.451q0-6.8814-3.819-10.77826-3.81248-3.90989-10.59674-3.90989-7.52721.09775-12.04353,4.65277t-5.16151,12.264v26.22233h-6.23031V626.82954h6.23031v11.33868a18.09178,18.09178,0,0,1,7.39034-8.54962,23.54964,23.54964,0,0,1,11.86106-2.97152Q177.44422,626.64708,182.41674,631.70387Z"/>
        <path class="cls-1" d="M246.16664,626.82954v43.60831a24.70347,24.70347,0,0,1-2.98482,12.35525,19.88177,19.88177,0,0,1-8.49825,8.1456,27.6617,27.6617,0,0,1-12.78647,2.82815,31.18964,31.18964,0,0,1-19.99435-7.42879l2.97178-4.4703a27.47181,27.47181,0,0,0,7.82048,4.92646,23.20584,23.20584,0,0,0,8.91534,1.68125q8.3679,0,13.34694-4.88736,4.966-4.88736,4.979-13.059v-7.911a19.27256,19.27256,0,0,1-7.44249,8.00224,21.42414,21.42414,0,0,1-11.15721,2.88028,22.09709,22.09709,0,0,1-11.5743-3.02365,20.92165,20.92165,0,0,1-7.91171-8.36716,25.48621,25.48621,0,0,1-2.82841-12.13369,25.2035,25.2035,0,0,1,2.82841-12.08156,20.68551,20.68551,0,0,1,7.95081-8.27593,22.73107,22.73107,0,0,1,11.62644-2.97152,21.11586,21.11586,0,0,1,11.066,2.82815,19.66509,19.66509,0,0,1,7.44249,8.04134v-10.687ZM231.47718,666.1109a16.58238,16.58238,0,0,0,6.23031-6.55558,21.08765,21.08765,0,0,0,0-18.87174,16.58238,16.58238,0,0,0-6.23031-6.55558,18.3347,18.3347,0,0,0-18.03923,0,16.8,16.8,0,0,0-6.28245,6.55558,19.55277,19.55277,0,0,0-2.281,9.475,19.34241,19.34241,0,0,0,2.281,9.4489,17.07952,17.07952,0,0,0,6.23032,6.50345,18.43384,18.43384,0,0,0,18.09136,0Z"/>
        <path class="cls-1" d="M304.92447,626.82954v48.71723h-6.32155V663.92136a18.18441,18.18441,0,0,1-7.20787,8.74512,22.15516,22.15516,0,0,1-11.5743,3.06275q-8.64163,0-13.52942-5.06982-4.86825-5.06331-4.87477-13.89315V626.82954h6.32155v28.451c0,4.5876,1.25128,8.15863,3.76687,10.73916q3.75382,3.85123,10.36212,3.85776,7.82048-.09776,12.27815-5.34352,4.45767-5.2588,4.45767-13.81494V626.82954Z"/>
        <path class="cls-1" d="M353.646,675.54677l-.09124-8.1847a17.613,17.613,0,0,1-7.53373,6.37312,25.80965,25.80965,0,0,1-10.688,2.08527,18.89327,18.89327,0,0,1-8.69376-1.90281,13.88845,13.88845,0,0,1-7.85958-12.78534,11.72535,11.72535,0,0,1,4.87477-9.94415q4.8878-3.63621,13.43818-3.62317h16.37086v-3.72743c0-3.83169-1.147-6.81624-3.441-8.91455q-3.441-3.167-10.04931-3.167-7.80093,0-15.70612,5.8518l-2.7893-4.27481a41.87111,41.87111,0,0,1,9.38457-5.06982,29.89313,29.89313,0,0,1,10.23178-1.61609q8.83715,0,13.6728,4.40514,4.82914,4.41817,4.9269,12.238l.09124,32.25659Zm-6.17818-7.95011a14.82664,14.82664,0,0,0,6.08694-8.51053v-6.68591H337.83563c-4.27519,0-7.52069.70378-9.76256,2.13741a7.09112,7.09112,0,0,0-3.33673,6.41222,8.6627,8.6627,0,0,0,3.20639,7.02477,12.94545,12.94545,0,0,0,8.49825,2.64569A19.3365,19.3365,0,0,0,347.46785,667.59666Z"/>
        <path class="cls-1" d="M418.556,626.82954v43.60831a24.70347,24.70347,0,0,1-2.98481,12.35525,19.88182,19.88182,0,0,1-8.49825,8.1456,27.66177,27.66177,0,0,1-12.78648,2.82815,31.18963,31.18963,0,0,1-19.99434-7.42879l2.97178-4.4703a27.47176,27.47176,0,0,0,7.82047,4.92646,23.20591,23.20591,0,0,0,8.91534,1.68125q8.36792,0,13.34695-4.88736,4.966-4.88736,4.979-13.059v-7.911a19.27254,19.27254,0,0,1-7.44248,8.00224,21.42414,21.42414,0,0,1-11.15721,2.88028,22.097,22.097,0,0,1-11.5743-3.02365,20.92174,20.92174,0,0,1-7.91172-8.36716,25.4862,25.4862,0,0,1-2.8284-12.13369,25.2035,25.2035,0,0,1,2.8284-12.08156,20.68553,20.68553,0,0,1,7.95082-8.27593,22.731,22.731,0,0,1,11.62644-2.97152,21.11588,21.11588,0,0,1,11.066,2.82815,19.66506,19.66506,0,0,1,7.44248,8.04134v-10.687ZM403.86651,666.1109a16.58245,16.58245,0,0,0,6.23031-6.55558,21.08774,21.08774,0,0,0,0-18.87174,16.58245,16.58245,0,0,0-6.23031-6.55558,18.3347,18.3347,0,0,0-18.03923,0,16.79985,16.79985,0,0,0-6.28245,6.55558,19.55266,19.55266,0,0,0-2.281,9.475,19.3423,19.3423,0,0,0,2.281,9.4489,17.07949,17.07949,0,0,0,6.23031,6.50345,18.43386,18.43386,0,0,0,18.09137,0Z"/>
        <path class="cls-1" d="M471.73519,633.84128q5.96312,7.21374,5.48737,19.39305H436.59519a18.68376,18.68376,0,0,0,5.76108,12.60288,17.79881,17.79881,0,0,0,12.64311,4.7831A22.1298,22.1298,0,0,0,463.654,668.939a19.81106,19.81106,0,0,0,6.882-4.731L474.0683,667.74A24.36645,24.36645,0,0,1,465.557,673.644a27.93375,27.93375,0,0,1-10.9226,2.08527,24.8429,24.8429,0,0,1-12.55186-3.11488,22.15852,22.15852,0,0,1-8.60252-8.693,27.50114,27.50114,0,0,1,0-25.42731,22.08925,22.08925,0,0,1,8.60252-8.73209,24.45077,24.45077,0,0,1,12.35635-3.11488Q465.79814,626.64708,471.73519,633.84128ZM471.644,648.3991q-.46923-7.62429-5.07027-12.13369-4.59453-4.51593-12.0305-4.50941a17.40165,17.40165,0,0,0-12.27814,4.56154,18.24679,18.24679,0,0,0-5.66985,12.08156Z"/>
        <path class="cls-1" d="M544.25706,617.30244a32.68487,32.68487,0,0,0-8.92838-1.35542q-6.68651,0-10.74012,2.65872a8.177,8.177,0,0,0-4.04057,7.1942,9.46043,9.46043,0,0,0,2.22883,6.51648,15.93057,15.93057,0,0,0,5.48737,3.949,84.42824,84.42824,0,0,0,8.92837,3.20611,77.68825,77.68825,0,0,1,10.64888,3.85776,18.94839,18.94839,0,0,1,6.882,5.539q2.83492,3.61665,2.8284,9.56619a15.17756,15.17756,0,0,1-2.93267,9.21431,18.75962,18.75962,0,0,1-8.22454,6.17763,31.6479,31.6479,0,0,1-12.17387,2.18954,34.1001,34.1001,0,0,1-13.2557-2.69783A35.3572,35.3572,0,0,1,509.86,666.15l2.97178-5.29138a31.73534,31.73534,0,0,0,10.12752,6.68591,29.13729,29.13729,0,0,0,11.35272,2.42413q7.42946,0,11.80892-3.02365a9.40617,9.40617,0,0,0,4.36643-8.13257,9.94543,9.94543,0,0,0-2.22884-6.69894,14.77515,14.77515,0,0,0-5.48736-3.98809q-3.265-1.40757-9.11086-3.25824a92.98584,92.98584,0,0,1-10.59674-3.85776,17.81259,17.81259,0,0,1-6.79078-5.39565,14.73943,14.73943,0,0,1-2.7893-9.34464,13.96711,13.96711,0,0,1,2.7893-8.64085,17.45884,17.45884,0,0,1,7.80744-5.72147,31.35367,31.35367,0,0,1,11.62644-1.99405,39.13073,39.13073,0,0,1,20.08559,5.76057L553.003,621.1602A33.442,33.442,0,0,0,544.25706,617.30244Z"/>
        <path class="cls-1" d="M591.6752,632.134a18.41473,18.41473,0,0,0-9.3976,2.4111,16.85851,16.85851,0,0,0-6.504,6.738,20.5842,20.5842,0,0,0-2.32007,9.90506,20.81361,20.81361,0,0,0,2.32007,9.94415,16.74688,16.74688,0,0,0,6.504,6.79017,18.42358,18.42358,0,0,0,9.3976,2.42413,21.95578,21.95578,0,0,0,8.69376-1.68125,17.67713,17.67713,0,0,0,6.64741-4.83523l3.53224,3.7144a21.61047,21.61047,0,0,1-8.18543,6.04729,27.10089,27.10089,0,0,1-10.9617,2.13741,24.6703,24.6703,0,0,1-12.46062-3.11488,22.08932,22.08932,0,0,1-8.60252-8.73209,27.42147,27.42147,0,0,1,0-25.38821,22.08932,22.08932,0,0,1,8.60252-8.73209,24.6704,24.6704,0,0,1,12.46062-3.11488,27.923,27.923,0,0,1,10.36213,1.85068,23.42981,23.42981,0,0,1,8.04206,5.21319l-3.53225,4.18358A20.16977,20.16977,0,0,0,591.6752,632.134Z"/>
        <path class="cls-1" d="M664.2492,631.70387q4.966,5.08285,4.966,13.90618v29.93672h-6.32155v-28.451q0-6.8814-3.806-10.77826-3.81248-3.90989-10.59674-3.90989-8.0942.09775-12.69524,5.34352-4.61408,5.2588-4.601,13.90617v23.88943h-6.23032V606.56328h6.23032v31.7874q4.9269-11.51462,19.34264-11.7036Q659.27669,626.64708,664.2492,631.70387Z"/>
        <path class="cls-1" d="M718.041,629.762a22.34441,22.34441,0,0,1,8.74589,8.693,25.11385,25.11385,0,0,1,3.16729,12.642,25.622,25.622,0,0,1-3.16729,12.78534,22.27227,22.27227,0,0,1-8.74589,8.73209,27.21623,27.21623,0,0,1-25.28621,0,22.357,22.357,0,0,1-8.74589-8.73209,25.75187,25.75187,0,0,1-3.15426-12.78534,25.24072,25.24072,0,0,1,3.15426-12.642,22.43,22.43,0,0,1,8.74589-8.693,27.21623,27.21623,0,0,1,25.28621,0Zm-22.11891,4.69187a16.77774,16.77774,0,0,0-6.51707,6.79017,22.66664,22.66664,0,0,0,0,19.97954,16.697,16.697,0,0,0,6.51707,6.79017,19.75771,19.75771,0,0,0,18.96465,0,16.66651,16.66651,0,0,0,6.504-6.79017,22.553,22.553,0,0,0,0-19.97954,16.747,16.747,0,0,0-6.504-6.79017,19.75778,19.75778,0,0,0-18.96465,0Z"/>
        <path class="cls-1" d="M775.313,629.762a22.34428,22.34428,0,0,1,8.74589,8.693,25.11385,25.11385,0,0,1,3.1673,12.642,25.622,25.622,0,0,1-3.1673,12.78534,22.27214,22.27214,0,0,1-8.74589,8.73209,27.21621,27.21621,0,0,1-25.2862,0,22.357,22.357,0,0,1-8.7459-8.73209,25.75187,25.75187,0,0,1-3.15426-12.78534,25.24072,25.24072,0,0,1,3.15426-12.642,22.43,22.43,0,0,1,8.7459-8.693,27.21621,27.21621,0,0,1,25.2862,0Zm-22.11891,4.69187A16.77771,16.77771,0,0,0,746.677,641.244a22.66655,22.66655,0,0,0,0,19.97954,16.697,16.697,0,0,0,6.51706,6.79017,19.75771,19.75771,0,0,0,18.96465,0,16.66645,16.66645,0,0,0,6.504-6.79017,22.553,22.553,0,0,0,0-19.97954,16.74694,16.74694,0,0,0-6.504-6.79017,19.75778,19.75778,0,0,0-18.96465,0Z"/>
        <path class="cls-1" d="M800.88593,606.56328h6.23031v68.98349h-6.23031Z"/>
      </g>
      <g>
        <path class="cls-2" d="M547.38934,302.60668c35.79794-39.72463,49.39377-86.5949,40.3233-139.02469-7.88531-45.57864-31.96788-81.36858-69.94652-106.93129-.43456-.29449-.877-.57967-1.31553-.86974-1.26023-.834-2.48885-1.688-3.78068-2.49948a158.40972,158.40972,0,0,0-86.0707-24.89484c-.53333-.00539-1.05677-.04018-1.58812-.04018-.802,0-1.59405.049-2.394.06027-.12049.00294-.241.00539-.36147.00882a165.41914,165.41914,0,0,0-63.69279,13.78952,155.95217,155.95217,0,0,0-31.798,18.31956q-3.60586,2.65627-7.06358,5.49581c-1.08246.90209-2.1491,1.82574-3.20983,2.75918a165.02379,165.02379,0,0,0-29.17286,33.05282c-.56493.83643-1.0864,1.68853-1.63553,2.53084-.642,1.00253-1.30763,1.98743-1.92984,3.00467a156.22353,156.22353,0,0,0-22.88753,67.555c-.04346.42826-.079.8575-.12247,1.28674-.18172,1.95558-.33579,3.921-.45036,5.89712q-.10074,1.65742-.16592,3.32317-.08889,2.27481-.11654,4.56825c-.00988.71148-.05531,1.41316-.05531,2.1261,0,.42532.02963.84329.03358,1.26763.0158,3.23986.08493,6.49639.27061,9.78869a10.24813,10.24813,0,0,0,.21531,1.33279,162.32726,162.32726,0,0,0,3.2592,22.22925H343.1181q-.04742-20.15141-.07309-40.3038c.00593-13.90419.42666-27.80788.63209-41.71206.04346-3.02231-.21925-6.05932-.01975-9.06742.86715-13.155-4.51548-23.43072-14.04027-31.85379-2.78119-2.46077-2.76143-2.48037-4.52733-6.78549a15.28193,15.28193,0,0,1,3.28093-.76293q59.07756-.24843,118.15907-.42287a110.90938,110.90938,0,0,1,36.06855,5.80795,70.40137,70.40137,0,0,1,25.97093,15.577A101.90661,101.90661,0,0,1,533.039,151.4761a82.47016,82.47016,0,0,1,5.71645,47.91249c-3.94858,22.42525-13.69459,41.68217-31.17777,56.58154-11.04179,9.408-23.81195,14.91554-37.77913,17.61984a206.11091,206.11091,0,0,1-39.15986,3.63089c-7.16235.00294-14.32471-.05047-21.48508.00882-3.24341.02646-6.48484.26607-10.627.44884-.33777,3.10168-.7269,5.15233-.75653,7.20836-.16,10.78828-.25284,21.57657-.35555,32.36486V353.712a163.83914,163.83914,0,0,0,54.18973.41895,168.37579,168.37579,0,0,0,48.69255-15.58733l65.02215,20.135c13.0625,1.43716,8.30011-10.28163,8.30011-10.28163Z"/>
        <path class="cls-2" d="M343.13785,275.58966H283.0934a161.20649,161.20649,0,0,0,25.13144,32.26489c.05728.05782.11654.11564.17382.17395,1.15357,1.13582,2.26565,2.29711,3.45674,3.40843.81381.761,1.52689,2.1016,2.60934,2.29172a164.92729,164.92729,0,0,0,28.67311,20.54415Z"/>
        <path class="cls-2" d="M402.44948,224.61663q20.53-.55566,41.05415-1.2735a30.2239,30.2239,0,0,0,5.32139-.58849c16.68516-3.59561,29.12348-12.344,33.37625-29.92418,3.37377-13.94583.02173-26.33347-10.63292-36.16724a36.93585,36.93585,0,0,0-25.22033-10.0185c-14.88173-.19306-29.76544-.173-44.64915-.16464a12.13023,12.13023,0,0,0-3.30858,1.02752c-.33778,24.445-.67752,48.52892-.97382,72.6133a23.55018,23.55018,0,0,0,.62419,3.8063A24.95708,24.95708,0,0,0,402.44948,224.61663Z"/>
      </g>
      <g>
        <path class="cls-1" d="M183.00957,465.31149l.00447.00138-.007-.04161a52.13438,52.13438,0,0,0-4.48736-18.34967,61.39539,61.39539,0,0,0-5.30919-9.55891c-11.33091-17.94762-27.52347-22.111-27.52347-22.111a73.79214,73.79214,0,0,0-23.4789-3.69125q-38.45536.14289-76.91071.26877h-4.1181A38.38082,38.38082,0,0,1,50.81458,421.19c.05088.06968.09812.14268.14815.21319.218.318.42993.64067.63734.97165.19679.30983.38995.6216.573.94345.1037.18194.19847.37066.298.55606.18589.34826.37513.69335.54509,1.05433.267.56159.51574,1.1359.73741,1.72569a24.71509,24.71509,0,0,1,1.23694,4.69429c.04193.25038.07464.5049.10818.759.03969.29545.09672.58371.12607.88317a24.0715,24.0715,0,0,1,.10734,2.70592v119.486h-.01006a17.24,17.24,0,0,1-.10008,1.87445,16.48925,16.48925,0,0,1-2.373,6.86212l.00783.00359a6.58413,6.58413,0,0,1-.961,1.356c-.12132.15333-.24152.30665-.36815.45375-1.21933,1.4767-3.56462,4.12192-8.02654,8.76616l-.07379.08184-.00084.001c-.00951.00982-2.52364,2.57665.67675,2.74476l-.002.00166.014-.00055a7.62092,7.62092,0,0,0,.7676-.00193c.02376-.00111.038-.00457.0615-.00581.10482.00152.20713.00857.31335.00608.14592-.00359.29156-.00829.43748-.01189,7.71234-.02862,41.64665-.00069,53.5643.01023l.0151.00139c2.33606.1171,2.58457-.67552,2.3151-1.43868l.00531-.001c-.00587-.0159-.01565-.0318-.0218-.04769a4.421,4.421,0,0,0-.84336-1.25757l-.00056.00028c-.02655-.029-.05031-.05254-.076-.08005l-.01006-.01369-.00364-.009-.08721-.08309c-.248-.25412-.44027-.41988-.44362-.42292-1.55589-1.48472-3.154-3.02625-4.83119-4.51816A14.5682,14.5682,0,0,1,90.242,558.21689c-.01034-.96059-.04668-1.92118-.03717-2.8815q.01719-1.7254.03438-3.451V526.83122h11.22636c3.46623-.00595,6.93245.00414,10.39895.00276a137.32186,137.32186,0,0,0,25.491-2.30719A53.021,53.021,0,0,0,161.945,513.32888c11.38067-9.46876,17.725-21.7069,20.29529-35.95816A51.96492,51.96492,0,0,0,183.00957,465.31149Zm-35.28921,3.39207a23.21547,23.21547,0,0,1-7.53848,17.59369q-7.54238,7.1107-21.20209,7.10738H90.23922V443.53574h28.03391q13.65915,0,21.55542,6.29223,7.88958,6.29112,7.89181,18.40884Z"/>
        <path class="cls-1" d="M440.15542,575.88587c-.00615-.01589-.01621-.03179-.02236-.04769a4.42417,4.42417,0,0,0-.86488-1.25756l-.00056.00027c-.02711-.029-.05143-.05253-.07771-.08l-.01034-.01368-.00391-.009-.08917-.08309c-.25438-.25411-.45145-.41988-.45509-.42292-1.595-1.48472-3.23337-3.02625-4.95278-4.51815a14.41544,14.41544,0,0,1-5.16243-11.23718c-.01063-.96059-.0478-1.92118-.038-2.8815q.01761-1.72541.03522-3.451V527.386h-.00224V461.511h.00224v-24.4984q-.01719-1.72541-.03522-3.45082c-.00978-.96032.02739-1.92091.038-2.8815a14.41572,14.41572,0,0,1,5.16243-11.23732c1.71941-1.49176,3.35776-3.0333,4.95278-4.51815.00364-.003.20071-.16867.45509-.42278l.08917-.08323.00391-.00885.01034-.01382c.02628-.02738.0506-.05088.07771-.07991l.00056.00027a4.42417,4.42417,0,0,0,.86488-1.25756c.00615-.016.01621-.0318.02236-.04783l-.00559-.00083c.27618-.76317.02153-1.55592-2.37352-1.43868l-.01538.00138c-12.21787.01079-47.007.03872-54.91333.01024-.14983-.0036-.29911-.0083-.44866-.01189-.10873-.00249-.21384.00442-.32118.00608-.024-.00138-.03858-.0047-.06318-.00581-.29518-.01438-.554-.01355-.78688-.00193l-.01426-.00056.002.00166c-3.28089.16812-.70359,2.735-.69381,2.74463l.00084.0011.07576.08185c4.57429,4.64424,6.97856,7.28932,8.22864,8.76616.1297.1471.253.30028.37737.45375a6.58018,6.58018,0,0,1,.98536,1.356l-.00811.0036a16.22363,16.22363,0,0,1,2.43279,6.86212,16.83463,16.83463,0,0,1,.10258,1.87445h.01035V555.1827h-.01035a16.83476,16.83476,0,0,1-.10258,1.87445,16.225,16.225,0,0,1-2.43279,6.86212l.00811.00359a6.58556,6.58556,0,0,1-.98536,1.356c-.12439.15333-.24767.30665-.37737.45375-1.25008,1.4767-3.65435,4.12192-8.22864,8.76616l-.07576.08185-.00084.001c-.00978.00982-2.58708,2.57665.69381,2.74477l-.002.00166.01426-.00056c.23285.01148.4917.01245.78688-.00193.0246-.00111.03914-.00456.06318-.00581.10734.00152.21245.00857.32118.00608.14955-.00359.29883-.00829.44866-.01189,7.90634-.02861,42.69546-.00069,54.91333.01023l.01538.00139c2.395.1171,2.6497-.67551,2.37352-1.43868Z"/>
        <path class="cls-1" d="M659.79061,574.58062l-.07492-.08185c-4.51671-4.64424-6.89051-7.28946-8.12493-8.76616-.128-.1471-.24991-.30042-.37262-.45375a6.594,6.594,0,0,1-.97306-1.356l.00811-.00359a16.358,16.358,0,0,1-2.402-6.86212,17.03292,17.03292,0,0,1-.10147-1.87445h-.01034v-6.02734q.09057-19.531.16352-39.06183c.03467-14.98635-.01257-29.97285.03047-44.9592.00336-1.20779.01286-2.41558.021-3.62337h.00363v-.63321q.00672-.97635.01118-1.95256l-.01118.00484V433.71437h.01035a16.83463,16.83463,0,0,1,.10258-1.87445,16.22363,16.22363,0,0,1,2.43279-6.86212l-.00811-.0036a6.58018,6.58018,0,0,1,.98536-1.356c.12439-.15347.24767-.30665.37737-.45375,1.25008-1.47684,3.65435-4.12192,8.22864-8.76616l.07576-.08185.00084-.0011c.0095-.0094,2.43781-2.43743-.464-2.72016H647.68315c-2.65054.00069-5.60857.00069-8.7223,0H626.51292c-3.77287-.08668-7.546-.168-11.31861-.26475a4.82716,4.82716,0,0,0-4.68052,2.74822c-.33348.58039-.66976,1.1594-1.0038,1.73951l-50.95961,80.94571-.175-.27817-2.24606-3.56945-.00056-.0011L550.62615,484.17,535.18888,459.636c-.77906-1.24069-1.56455-2.47752-2.34054-3.72015l-9.14579-14.53523-14.69594-23.356h0s-2.2114-3.65364-2.89262-4.63083a.42557.42557,0,0,0-.08051-.07687,5.0299,5.0299,0,0,0-3.62583-1.72956h-4.50357l-.009.00788H479.91858c-3.11373.00069-6.07176.00069-8.7223,0H459.18c-2.90184.28273-.47353,2.71076-.464,2.72016l.00084.0011.07575.08185c4.5743,4.64424,6.97857,7.28932,8.22865,8.76616.1297.1471.253.30028.37737.45375a6.58018,6.58018,0,0,1,.98536,1.356l-.00811.0036a16.10277,16.10277,0,0,1,1.97854,4.56516,23.46368,23.46368,0,0,1,.36675,2.681c.066.89727.14061,1.79537.20043,2.69374V461.511h.00083q-.38617,42.70275-.7908,85.40524c-.02488,2.69-.07994,5.38086-.03494,8.07018a19.44835,19.44835,0,0,1-.67591,5.51773,16.11661,16.11661,0,0,1-1.61655,3.41516l.00811.00359a6.594,6.594,0,0,1-.97306,1.356c-.12271.15333-.24459.30665-.37262.45375-1.23442,1.4767-3.60822,4.12192-8.12493,8.76616l-.07492.08185-.00084.001c-.0095.00982-2.55438,2.57665.68514,2.74477l-.002.00166.01426-.00056c.22978.01148.48527.01245.77683-.00193.02431-.00111.03857-.00456.06233-.00581.10594.00152.20965.00857.31727.00608.1476-.00359.29491-.00829.44306-.01189,7.80655-.02861,42.15737-.00069,54.22122.01023l.01537.00139c2.36486.1171,2.61616-.67551,2.34361-1.43868l.00531-.001c-.00587-.01589-.01593-.03179-.0218-.04769a4.42421,4.42421,0,0,0-.85425-1.25756l-.00056.00027c-.02656-.029-.0506-.05253-.0766-.08l-.01006-.01368-.00391-.009-.08806-.08309c-.2513-.25411-.44585-.41988-.44949-.42292-1.57489-1.48472-3.19255-3.02625-4.89044-4.51815a14.86243,14.86243,0,0,1-3.6032-4.66374c-.11405-.253-.24319-.5002-.3455-.75777-.03662-.08807-.06737-.17862-.10231-.26752-.19651-.51873-.36479-1.04825-.5149-1.58481-.04864-.18485-.104-.36665-.14564-.55454-.03215-.12968-.05227-.26379-.0819-.39458a16.85138,16.85138,0,0,1-.30386-3.01422c-.01034-.96059-.04724-1.92118-.03745-2.8815q.01719-1.72541.03466-3.451V484.57524H508.345l.86739,1.3795c.10679.111.21916.21858.31588.33527l17.82588,28.51717,29.62753,47.11929h3.985l48.6364-77.35123h2.69219v63.095l.04165-.02323c-.00726.54431-.02879,1.08848-.04165,1.63278v.19149l-.00531.0076c-.06737,2.71684-.17415,5.43353-.17918,8.15065a19.78153,19.78153,0,0,1-1.3809,7.50444,14.96748,14.96748,0,0,1-3.426,4.32c-1.69761,1.4919-3.31555,3.03343-4.89044,4.51815-.00336.003-.19791.16881-.44921.42292l-.08806.08309-.00391.009-.01006.01368c-.026.02752-.05.051-.07688.08l-.00056-.00027a4.426,4.426,0,0,0-.854,1.25756c-.00615.0159-.01594.0318-.02209.04769l.0056.001c-.27283.76317-.02125,1.55578,2.34361,1.43868l.01509-.00139c12.06385-.01092,46.41467-.03884,54.2215-.01023.14815.0036.29546.0083.44306.01189.10734.00249.211-.00456.31727-.00608.02348.00125.038.0047.06233.00581.29156.01438.54705.01341.77683.00193l.014.00056-.00168-.00166c3.23952-.16812.69464-2.735.68486-2.74477Z"/>
        <path class="cls-1" d="M319.0227,518.553l-.01286-.03207a50.56361,50.56361,0,0,0,7.81577-5.192c11.66775-9.46876,18.172-21.707,20.80684-35.95829a50.70257,50.70257,0,0,0,.78884-12.0591l.00448.00138c-.00224-.01438-.00559-.02737-.00671-.04175a51.0971,51.0971,0,0,0-4.60113-18.34967,60.96834,60.96834,0,0,0-5.44253-9.55891c-11.61631-17.94762-28.21672-22.111-28.21672-22.111a77.39454,77.39454,0,0,0-24.07012-3.69112q-39.42435.14268-78.84815.26877h-4.22153a38.98339,38.98339,0,0,1,9.87762,9.36065c.05255.06968.10063.14267.15206.21318.22363.318.44055.64067.653.97166.20239.31.4003.62159.58758.94344.10679.182.20351.3708.30581.55606.19009.3484.38464.69349.55851,1.05433.27339.56159.52888,1.1359.75642,1.72569a24.3141,24.3141,0,0,1,1.268,4.69429c.04249.25052.076.5049.11069.759.04026.29558.09952.58371.12915.88316a23.502,23.502,0,0,1,.11014,2.70592v119.486h-.01007a16.90088,16.90088,0,0,1-.10287,1.87445,16.21258,16.21258,0,0,1-2.43306,6.86212l.00839.00359a6.59708,6.59708,0,0,1-.98564,1.356c-.12411.15346-.24711.30665-.37681.45375-1.25008,1.47684-3.65463,4.12192-8.22893,8.76616-.02515.02737-.05087.05447-.07547.08184l-.00112.00111c-.01006.00968-2.58736,2.57651.69381,2.74463l-.00168.00166.014-.00056c.23313.01162.49142.01245.7866-.00193.0246-.00111.03914-.00443.06374-.00581.10734.00166.21244.00857.3209.00608.14983-.00359.29855-.00829.44838-.01189,7.90634-.02848,42.696-.00055,54.91389.01023l.01566.00139c2.39449.11724,2.64886-.67551,2.37268-1.43868l.00559-.00083c-.00559-.016-.01565-.0318-.02236-.04783a4.42169,4.42169,0,0,0-.86432-1.25757l-.00112.00028c-.02683-.029-.05143-.05254-.07715-.07991l-.01062-.01383-.00391-.00884-.08946-.08323c-.25381-.25411-.45116-.41974-.45452-.42278-1.595-1.48486-3.23309-3.02639-4.95278-4.51816a14.41305,14.41305,0,0,1-5.16244-11.23731c-.01062-.96059-.04808-1.92118-.038-2.8815q.01677-1.72541.03466-3.45083V526.96118h28.40848l31.35421,49.69193h49.35844l-42.20684-56.49135Zm-8.45926-49.61617q0,10.25626-6.43934,16.54407-6.44214,6.29279-18.47385,6.29223H252.71388V445.16707h32.30351q12.03395,0,18.79028,5.82659,6.75326,5.8266,6.75577,17.47646Z"/>
        <path class="cls-1" d="M809.19214,544.27276c.00335-4.18454.0067-7.83556.00894-10.43848l.00168-.0152c.118-2.36913-.68318-2.621-1.4547-2.34784l-.00111-.00553c-.01566.00608-.03187.016-.04808.02212a4.4717,4.4717,0,0,0-1.27133.85552l.00056.00055c-.02963.02682-.05311.05088-.08106.07687l-.014.01023-.00894.00387-.08386.08821c-.25717.25162-.42489.44656-.42769.45016-1.5011,1.57775-3.05922,3.19837-4.56759,4.89918a14.51374,14.51374,0,0,1-9.50974,4.98462c-.06709.00332-.13027.01493-.19791.0177-1.02142.0412-2.04284.0871-3.06425.1283v.00138h-.03467l-.02292.001c-.48136.00912-.96271.0159-1.44351.01119q-.34719-.00331-.69492-.00691l-22.71885.05482h-33.7856V509.23386h63.41173v-32.7087H729.77261V443.99357h60.64546a16.68258,16.68258,0,0,1,10.28909,3.621c.16828.15678.34718.29241.50819.4628l.00336-.0085.01509.01383c.29016.32068.58311.63106.87494.94739l.03634.04908v-.00954c1.01583,1.1005,2.035,2.18282,3.03239,3.23169.00335.0036.17107.19853.42769.45016l.08386.0882.0095.00388.01342.01023c.02795.026.052.05.08106.07687v.00055a4.472,4.472,0,0,0,1.27132.85552c.01566.00608.03187.016.04808.02212l.00112-.00553a.88264.88264,0,0,0,1.2266-.45431l.01062-.00456.00279-.01783a3.95657,3.95657,0,0,0,.21525-1.63472c.00335-.0383.00615-.076.01062-.11393v-40.018h-3.29291l-.005-.00014-.00783.00014H683.84909v.01244c-.08666.00055-.1722.0036-.25885.005-.024-.00138-.03858-.0047-.06318-.00581-.29519-.01438-.554-.01355-.78661-.00193l-.01453-.00056.00223.00166c-3.28117.16812-.70386,2.73495-.6938,2.74463l.00056.0011c.02516.02738.05032.05448.076.08185,4.5743,4.64424,6.97829,7.28932,8.22837,8.76615.1297.14711.25325.30029.37737.45376a6.59675,6.59675,0,0,1,.98563,1.356l-.00838.0036a16.22782,16.22782,0,0,1,2.43306,6.86211,16.89919,16.89919,0,0,1,.10231,1.87446h.01062V555.18269h-.01062a16.899,16.899,0,0,1-.10231,1.87445,16.22918,16.22918,0,0,1-2.43306,6.86212l.00838.00359a6.60215,6.60215,0,0,1-.98563,1.356c-.12412.15333-.24767.30665-.37737.45375-1.25008,1.4767-3.65407,4.12192-8.22837,8.76616-.02571.02737-.05087.05447-.076.08184l-.00056.001c-.01006.00982-2.58737,2.57665.6938,2.74477l-.00223.00166.01453-.00056c.23258.01148.49142.01245.78661-.00193.0246-.00111.03914-.00457.06318-.00581.08665.00124.17219.00442.25885.005v.01244H809.21394V544.28728C809.20723,544.28189,809.1994,544.278,809.19214,544.27276Z"/>
      </g>
      <rect class="cls-2" x="28.34646" y="709.42429" width="793.70079" height="13.70871" rx="0.66947"/>
    </g>
  </g>
</svg>
