<svg id="Camada_1" data-name="Camada 1" xmlns="http://www.w3.org/2000/svg" viewBox="0 0 572.59843 572.59843">
  <defs>
    <style>
      .cls-1 {
        fill: #aa1400;
      }
    </style>
  </defs>
  <title>primeIcon</title>
  <g>
    <path class="cls-1" d="M495.91465,472.92555c61.40967-67.99462,84.73267-148.22008,69.17271-237.96147C551.56049,156.94945,510.248,95.68962,445.09742,51.93524c-.74547-.50406-1.50449-.99219-2.25674-1.4887-2.16186-1.42748-4.2695-2.88934-6.48557-4.27823C390.5359,17.4259,340.99951,3.44385,288.70489,3.55708c-.91489-.00923-1.81284-.06877-2.72435-.06877-1.37572,0-2.73451.08387-4.10685.10316-.2067.005-.4134.00922-.62009.01509a284.303,284.303,0,0,0-109.262,23.60283,267.677,267.677,0,0,0-54.548,31.35665q-6.1857,4.54662-12.11725,9.40691c-1.8569,1.54406-3.68668,3.125-5.50631,4.72275a282.66064,282.66064,0,0,0-50.04466,56.57482c-.9691,1.43167-1.86367,2.89017-2.80567,4.33191-1.10126,1.716-2.24318,3.40178-3.31056,5.14293A267.00284,267.00284,0,0,0,4.39674,254.3759c-.07455.733-.13554,1.46773-.21009,2.20243-.31174,3.34727-.576,6.71132-.77257,10.09381q-.17281,2.83692-.28464,5.6881-.15248,3.89369-.19992,7.81924c-.01694,1.2178-.09487,2.41883-.09487,3.63914,0,.728.05082,1.44341.0576,2.16973.02711,5.54552.14571,11.11955.46422,16.7548a17.50592,17.50592,0,0,0,.36935,2.28128,277.27225,277.27225,0,0,0,5.591,38.04867H145.497q-.08133-34.49214-.12538-68.986c.01017-23.79908.73192-47.59733,1.08432-71.39641.07455-5.17313-.37612-10.37142-.03389-15.52023,1.48755-22.5167-7.74609-40.10518-24.08541-54.52251-4.771-4.212-4.73711-4.24552-7.76642-11.61438,1.9721-.47638,3.7985-1.29832,5.62828-1.30586q101.34476-.42524,202.69629-.72381a190.64518,190.64518,0,0,1,61.87389,9.94117,120.823,120.823,0,0,1,44.55191,26.66242c17.898,16.71455,32.167,35.962,41.97666,58.63552a140.87347,140.87347,0,0,1,9.8063,82.00938c-6.7736,38.38415-23.49243,71.34525-53.484,96.84774-18.94168,16.10313-40.84829,25.53017-64.80833,30.159a354.33517,354.33517,0,0,1-67.17688,6.2148c-12.28668.005-24.57335-.08639-36.85664.0151-5.56391.04529-11.12442.45541-18.2301.76825-.57943,5.309-1.247,8.819-1.29779,12.33818-.27447,18.46576-.43373,36.93152-.60993,55.39728v62.40718a281.674,281.674,0,0,0,92.95993.71709,289.29661,289.29661,0,0,0,83.52975-26.68L526.672,568.901c22.40811,2.45992,14.23845-17.59854,14.23845-17.59854Z"/>
    <path class="cls-1" d="M145.53088,426.68189H42.52746a276.01272,276.01272,0,0,0,43.1118,55.22619c.09827.099.19992.19793.29819.29774,1.97888,1.94411,3.8866,3.93184,5.92986,5.834,1.39606,1.30251,2.61931,3.5972,4.4762,3.92262a282.913,282.913,0,0,0,49.18737,35.16437Z"/>
    <path class="cls-1" d="M247.27717,339.434q35.2183-.95111,70.42645-2.1798a51.95849,51.95849,0,0,0,9.1286-1.00728c28.6226-6.15442,49.95995-21.12865,57.25537-51.21969,5.78755-23.87038.03728-45.07367-18.24026-61.90563a63.43793,63.43793,0,0,0-43.26428-17.14816c-25.52891-.33045-51.06121-.29606-76.59351-.2818-1.82978.00167-3.65618,1.10541-5.67572,1.75876-.57943,41.8413-1.16225,83.06447-1.67053,124.28848-.02711,1.945.62348,3.89914,1.07077,6.51506C242.452,338.70261,244.87473,339.49855,247.27717,339.434Z"/>
  </g>
</svg>
