<svg xmlns="http://www.w3.org/2000/svg" viewBox="0 0 1190.55118 510.23622">
  <defs>
    <style>
      .cls-1 {
        fill: #aa1400;
      }

      .cls-2 {
        fill: #0a466e;
      }
    </style>
  </defs>
  <title>primeLogoV1</title>
  <g id="Marca">
    <rect class="cls-1" x="381.65646" y="371.08449" width="780.54826" height="13.48273" rx="0.66947"/>
    <g>
      <path class="cls-2" d="M475.57265,481.88976a1.07648,1.07648,0,0,1-.51211-.13555l-18.62378-9.77005a6.50653,6.50653,0,0,0-5.98845,0l-18.62378,9.77005-1.35864-.2711,3.33389-21.56294a6.418,6.418,0,0,0-1.82894-5.66184L416.89,439.5876a1.076,1.076,0,0,1,.58526-1.84557l20.8394-3.02382a6.45411,6.45411,0,0,0,4.83884-3.50345l9.32234-18.84151a1.017,1.017,0,0,1,.9615-.59434,1.04311,1.04311,0,0,1,.9824.59434l9.31189,18.83108a6.43028,6.43028,0,0,0,4.84929,3.51388l20.8185,3.02382a1.08113,1.08113,0,0,1,.60616,1.84557l-15.07042,14.6603a6.38457,6.38457,0,0,0-1.84984,5.67227l3.56381,20.69751Z"/>
      <path class="cls-2" d="M634.82584,481.88976a1.04692,1.04692,0,0,1-.51211-.13555l-18.63423-9.77005a6.50653,6.50653,0,0,0-5.98845,0l-18.62378,9.77005-1.35864-.2711,3.33388-21.56294a6.418,6.418,0,0,0-1.82893-5.66184L576.13271,439.5876a1.076,1.076,0,0,1,.58526-1.84557l20.8394-3.02382a6.45411,6.45411,0,0,0,4.83884-3.50345l9.32234-18.84151a1.0213,1.0213,0,0,1,.97195-.59434,1.03883,1.03883,0,0,1,.97195.59434l9.31189,18.83108a6.43028,6.43028,0,0,0,4.84929,3.51388l20.8185,3.02382a1.08113,1.08113,0,0,1,.60616,1.84557l-15.07042,14.6603a6.38457,6.38457,0,0,0-1.84984,5.67227l3.56381,20.69751Z"/>
      <path class="cls-2" d="M794.06858,481.88976a1.04692,1.04692,0,0,1-.51211-.13555l-18.63423-9.77005a6.50653,6.50653,0,0,0-5.98845,0L750.31,481.75421l-1.35863-.2711,3.33388-21.56294a6.418,6.418,0,0,0-1.82893-5.66184L735.37545,439.5876a1.076,1.076,0,0,1,.58525-1.84557l20.83941-3.02382a6.45411,6.45411,0,0,0,4.83884-3.50345l9.32234-18.84151a1.017,1.017,0,0,1,.9615-.59434,1.04312,1.04312,0,0,1,.9824.59434l9.31189,18.83108a6.43028,6.43028,0,0,0,4.84929,3.51388l20.8185,3.02382a1.08113,1.08113,0,0,1,.60616,1.84557l-15.07042,14.6603a6.38457,6.38457,0,0,0-1.84984,5.67227l3.56381,20.69751Z"/>
      <path class="cls-2" d="M953.31131,481.88976a1.04691,1.04691,0,0,1-.5121-.13555L934.165,471.98416a6.50653,6.50653,0,0,0-5.98845,0l-18.62379,9.77005-1.35863-.2711,3.33388-21.56294a6.36879,6.36879,0,0,0-1.83938-5.67227l-15.07043-14.6603a1.076,1.076,0,0,1,.58526-1.84557l20.83941-3.02382a6.45411,6.45411,0,0,0,4.83884-3.50345l9.32234-18.84151a1.0213,1.0213,0,0,1,.97195-.59434,1.03884,1.03884,0,0,1,.97195.59434l9.31189,18.83108a6.43028,6.43028,0,0,0,4.84929,3.51388l20.8185,3.02382a1.08113,1.08113,0,0,1,.60616,1.84557l-15.07042,14.6603a6.38457,6.38457,0,0,0-1.84984,5.67227l3.56381,20.69751Z"/>
      <path class="cls-2" d="M1112.55405,481.88976a1.04691,1.04691,0,0,1-.5121-.13555l-18.63423-9.77005a6.50655,6.50655,0,0,0-5.98846,0l-18.62378,9.77005-1.35863-.2711,3.33388-21.56294a6.36879,6.36879,0,0,0-1.83938-5.67227l-15.07043-14.6603a1.076,1.076,0,0,1,.58526-1.84557l20.83941-3.02382a6.45411,6.45411,0,0,0,4.83884-3.50345l9.32234-18.84151a1.017,1.017,0,0,1,.9615-.59434,1.04312,1.04312,0,0,1,.9824.59434l9.31189,18.83108a6.43027,6.43027,0,0,0,4.84929,3.51388l20.8185,3.02382a1.08113,1.08113,0,0,1,.60616,1.84557l-15.07042,14.6603a6.38457,6.38457,0,0,0-1.84984,5.67227l3.56381,20.69751Z"/>
    </g>
    <g>
      <path class="cls-2" d="M556.927,291.467h4.96461v45.75631h22.16919v4.44979H556.927Z"/>
      <path class="cls-2" d="M616.67384,341.67315l-.07064-6.32232a13.62773,13.62773,0,0,1-5.8324,4.923,20.01953,20.01953,0,0,1-8.27434,1.61078,14.65371,14.65371,0,0,1-6.73048-1.46984,10.72572,10.72572,0,0,1-6.08467-9.87611,9.05049,9.05049,0,0,1,3.77391-7.68142q3.784-2.80881,10.40348-2.79874h12.67387v-2.87927a8.86534,8.86534,0,0,0-2.66394-6.8861q-2.66393-2.44638-7.7799-2.44638-6.03926,0-12.15925,4.52026l-2.1594-3.3021a32.43893,32.43893,0,0,1,7.26528-3.91622,23.18941,23.18941,0,0,1,7.92117-1.24835q6.84147,0,10.58511,3.40277,3.73858,3.41286,3.81427,9.45329l.07063,24.9168Zm-4.783-6.14111a11.45394,11.45394,0,0,0,4.71234-6.574v-5.16457H604.43386c-3.30973,0-5.82231.54364-7.5579,1.651a5.47428,5.47428,0,0,0-2.58321,4.95316,6.68544,6.68544,0,0,0,2.4823,5.42632,10.037,10.037,0,0,0,6.57911,2.04368A14.99462,14.99462,0,0,0,611.89086,335.532Z"/>
      <path class="cls-2" d="M664.64485,307.80643q3.84455,3.9263,3.85463,10.74191v23.12481h-4.894V319.696q0-5.31559-2.95656-8.32574-2.95152-3.02022-8.20371-3.02022a12.80553,12.80553,0,0,0-9.32377,3.59406,14.68828,14.68828,0,0,0-3.99591,9.47342v20.2556h-4.82333V304.04123h4.82333v8.75863a13.98448,13.98448,0,0,1,5.72141-6.60421,18.26331,18.26331,0,0,1,9.1825-2.29536Q660.79527,303.90029,664.64485,307.80643Z"/>
      <path class="cls-2" d="M713.99828,304.04123v33.6855a19.04849,19.04849,0,0,1-2.31076,9.54389,15.37694,15.37694,0,0,1-6.57911,6.29212,21.45454,21.45454,0,0,1-9.89894,2.18463,24.17818,24.17818,0,0,1-15.47908-5.73842l2.30067-3.45311a21.275,21.275,0,0,0,6.0544,3.80547,18.00023,18.00023,0,0,0,6.902,1.29869q6.47821,0,10.33284-3.77527A13.50321,13.50321,0,0,0,709.175,337.7972v-6.11091a14.90027,14.90027,0,0,1-5.76177,6.18138,16.61457,16.61457,0,0,1-8.63761,2.2249,17.1363,17.1363,0,0,1-8.96051-2.33564,16.17628,16.17628,0,0,1-6.125-6.46326,19.65141,19.65141,0,0,1-2.18968-9.37275,19.43348,19.43348,0,0,1,2.18968-9.33247,15.9944,15.9944,0,0,1,6.1553-6.3928,17.62839,17.62839,0,0,1,9.00087-2.29536,16.37565,16.37565,0,0,1,8.567,2.18462,15.20369,15.20369,0,0,1,5.76177,6.21158v-8.25526Zm-11.37217,30.34313a12.82138,12.82138,0,0,0,4.82333-5.0639,16.257,16.257,0,0,0,0-14.57759,12.82132,12.82132,0,0,0-4.82333-5.0639,14.22167,14.22167,0,0,0-13.96548,0,12.98984,12.98984,0,0,0-4.8637,5.0639,15.07657,15.07657,0,0,0-1.76587,7.319,14.9145,14.9145,0,0,0,1.76587,7.29887,13.20615,13.20615,0,0,0,4.82333,5.02363,14.29867,14.29867,0,0,0,14.00585,0Z"/>
      <path class="cls-2" d="M759.487,304.04123v37.63192h-4.894V332.693a14.05387,14.05387,0,0,1-5.58014,6.75522,17.181,17.181,0,0,1-8.96051,2.36584q-6.69011,0-10.4741-3.91621-3.76887-3.91119-3.77391-10.73185v-23.1248h4.894v21.97712c0,3.54372.9687,6.30219,2.9162,8.29553a10.701,10.701,0,0,0,8.02208,2.98,12.04285,12.04285,0,0,0,9.5054-4.12763q3.451-4.06219,3.451-10.67144V304.04123Z"/>
      <path class="cls-2" d="M797.20589,341.67315l-.07064-6.32232a13.62773,13.62773,0,0,1-5.8324,4.923,20.01953,20.01953,0,0,1-8.27434,1.61078,14.65364,14.65364,0,0,1-6.73047-1.46984,10.72568,10.72568,0,0,1-6.08467-9.87611,9.05048,9.05048,0,0,1,3.7739-7.68142q3.784-2.80881,10.40348-2.79874h12.67387v-2.87927a8.86534,8.86534,0,0,0-2.66394-6.8861q-2.66392-2.44638-7.7799-2.44638-6.03925,0-12.15925,4.52026l-2.1594-3.3021a32.43893,32.43893,0,0,1,7.26528-3.91622,23.18945,23.18945,0,0,1,7.92117-1.24835q6.84147,0,10.58511,3.40277,3.73858,3.41286,3.81427,9.45329l.07063,24.9168Zm-4.783-6.14111a11.45394,11.45394,0,0,0,4.71234-6.574v-5.16457H784.96591c-3.30973,0-5.82231.54364-7.5579,1.651a5.4743,5.4743,0,0,0-2.58321,4.95316,6.68544,6.68544,0,0,0,2.4823,5.42632,10.037,10.037,0,0,0,6.57911,2.04368A14.99462,14.99462,0,0,0,792.42291,335.532Z"/>
      <path class="cls-2" d="M847.45739,304.04123v33.6855a19.04849,19.04849,0,0,1-2.31076,9.54389,15.377,15.377,0,0,1-6.57911,6.29212,21.45454,21.45454,0,0,1-9.89894,2.18463A24.17818,24.17818,0,0,1,813.1895,350.009l2.30067-3.45311a21.275,21.275,0,0,0,6.0544,3.80547,18.00023,18.00023,0,0,0,6.902,1.29869q6.47821,0,10.33284-3.77527a13.5032,13.5032,0,0,0,3.85463-10.08753v-6.11091a14.90018,14.90018,0,0,1-5.76176,6.18138,16.61457,16.61457,0,0,1-8.63761,2.2249,17.1363,17.1363,0,0,1-8.96051-2.33564,16.17628,16.17628,0,0,1-6.125-6.46326,19.65141,19.65141,0,0,1-2.18968-9.37275,19.43348,19.43348,0,0,1,2.18968-9.33247,15.9944,15.9944,0,0,1,6.1553-6.3928,17.62836,17.62836,0,0,1,9.00087-2.29536,16.37568,16.37568,0,0,1,8.567,2.18462,15.2036,15.2036,0,0,1,5.76176,6.21158v-8.25526Zm-11.37218,30.34313a12.82141,12.82141,0,0,0,4.82334-5.0639,16.257,16.257,0,0,0,0-14.57759,12.82134,12.82134,0,0,0-4.82334-5.0639,14.22165,14.22165,0,0,0-13.96547,0,12.98977,12.98977,0,0,0-4.8637,5.0639,15.07657,15.07657,0,0,0-1.76587,7.319,14.9145,14.9145,0,0,0,1.76587,7.29887,13.20608,13.20608,0,0,0,4.82333,5.02363,14.29866,14.29866,0,0,0,14.00584,0Z"/>
      <path class="cls-2" d="M888.6273,309.45749q4.61648,5.57231,4.24816,14.98028H861.42287a14.41873,14.41873,0,0,0,4.46007,9.73517,13.7966,13.7966,0,0,0,9.78794,3.69473,17.16546,17.16546,0,0,0,6.7002-1.29869,15.33812,15.33812,0,0,0,5.32787-3.65446l2.73457,2.72826a18.86445,18.86445,0,0,1-6.5892,4.56053,21.66741,21.66741,0,0,1-8.456,1.61078,19.26662,19.26662,0,0,1-9.71731-2.4061,17.13509,17.13509,0,0,1-6.65984-6.715,21.20167,21.20167,0,0,1,0-19.64148,17.08133,17.08133,0,0,1,6.65984-6.74516,18.96222,18.96222,0,0,1,9.566-2.4061Q884.031,303.90029,888.6273,309.45749Zm-.07064,11.24528a13.73884,13.73884,0,0,0-3.92527-9.37275,12.7338,12.7338,0,0,0-9.31368-3.48332,13.48909,13.48909,0,0,0-9.5054,3.52359,14.08217,14.08217,0,0,0-4.38944,9.33248Z"/>
      <path class="cls-2" d="M944.77174,296.682a25.35559,25.35559,0,0,0-6.9121-1.047,14.9693,14.9693,0,0,0-8.31471,2.05374,6.31334,6.31334,0,0,0-3.1281,5.55721,7.29773,7.29773,0,0,0,1.7255,5.03369A12.33206,12.33206,0,0,0,932.3905,311.33a65.45448,65.45448,0,0,0,6.9121,2.47658,60.23035,60.23035,0,0,1,8.24408,2.97995,14.66354,14.66354,0,0,1,5.32787,4.27864,12.9058,12.9058,0,0,1-.08073,14.50712,14.51987,14.51987,0,0,1-6.36721,4.77194,24.54906,24.54906,0,0,1-9.42468,1.69132,26.45,26.45,0,0,1-10.2622-2.084,27.37924,27.37924,0,0,1-8.59725-5.53706l2.30068-4.08736a24.57319,24.57319,0,0,0,7.84044,5.16457,22.60006,22.60006,0,0,0,8.789,1.87253q5.75167,0,9.14214-2.33563a7.26165,7.26165,0,0,0,3.38037-6.28206,7.67159,7.67159,0,0,0-1.7255-5.17464,11.43753,11.43753,0,0,0-4.24817-3.08062q-2.52771-1.08727-7.05337-2.51685a72.08684,72.08684,0,0,1-8.20371-2.97995,13.78468,13.78468,0,0,1-5.25724-4.1679,11.368,11.368,0,0,1-2.1594-7.21832,10.773,10.773,0,0,1,2.1594-6.67468,13.51416,13.51416,0,0,1,6.04431-4.41959,24.32159,24.32159,0,0,1,9.00087-1.54031,30.34372,30.34372,0,0,1,15.54971,4.44979l-2.1594,4.23837A25.91886,25.91886,0,0,0,944.77174,296.682Z"/>
      <path class="cls-2" d="M981.48158,308.13866a14.281,14.281,0,0,0-7.27537,1.86247A13.03545,13.03545,0,0,0,969.171,315.206a15.8717,15.8717,0,0,0-1.79614,7.65122,16.04855,16.04855,0,0,0,1.79614,7.68142,12.94885,12.94885,0,0,0,5.03524,5.24511,14.28775,14.28775,0,0,0,7.27537,1.87254,17.03048,17.03048,0,0,0,6.73047-1.2987,13.68379,13.68379,0,0,0,5.14624-3.735l2.73457,2.86921a16.72773,16.72773,0,0,1-6.33694,4.67127,21.02135,21.02135,0,0,1-8.48625,1.651,19.13266,19.13266,0,0,1-9.64667-2.4061,17.08133,17.08133,0,0,1-6.65984-6.74516,21.14027,21.14027,0,0,1,0-19.61128,17.08133,17.08133,0,0,1,6.65984-6.74516,19.13266,19.13266,0,0,1,9.64667-2.4061,21.65975,21.65975,0,0,1,8.02208,1.42957,18.14289,18.14289,0,0,1,6.22594,4.02695l-2.73457,3.23164A15.63346,15.63346,0,0,0,981.48158,308.13866Z"/>
      <path class="cls-2" d="M1037.66639,307.80643q3.84454,3.9263,3.84454,10.74191v23.12481h-4.894V319.696q0-5.31559-2.94648-8.32574-2.9515-3.02022-8.2037-3.02022-6.26631.07551-9.82831,4.12764-3.5721,4.06218-3.562,10.74191v18.45353h-4.82334V288.38643h4.82334v24.55438q3.81426-8.89455,14.97454-9.04052Q1033.81681,303.90029,1037.66639,307.80643Z"/>
      <path class="cls-2" d="M1079.31055,306.30639a17.27971,17.27971,0,0,1,6.77084,6.71495,19.36544,19.36544,0,0,1,2.452,9.76538,19.757,19.757,0,0,1-2.452,9.87611,17.22369,17.22369,0,0,1-6.77084,6.74516,21.11157,21.11157,0,0,1-19.57588,0,17.28926,17.28926,0,0,1-6.77084-6.74516,19.85726,19.85726,0,0,1-2.44194-9.87611,19.46333,19.46333,0,0,1,2.44194-9.76538,17.34592,17.34592,0,0,1,6.77084-6.71495,21.11157,21.11157,0,0,1,19.57588,0Zm-17.12385,3.62426a12.97282,12.97282,0,0,0-5.04533,5.24512,17.47407,17.47407,0,0,0,0,15.43331,12.91034,12.91034,0,0,0,5.04533,5.24511,15.32571,15.32571,0,0,0,14.68191,0,12.88663,12.88663,0,0,0,5.03524-5.24511,17.38652,17.38652,0,0,0,0-15.43331,12.94893,12.94893,0,0,0-5.03524-5.24512,15.32578,15.32578,0,0,0-14.68191,0Z"/>
      <path class="cls-2" d="M1123.64893,306.30639a17.27969,17.27969,0,0,1,6.77083,6.71495,19.36544,19.36544,0,0,1,2.452,9.76538,19.757,19.757,0,0,1-2.452,9.87611,17.22366,17.22366,0,0,1-6.77083,6.74516,21.11159,21.11159,0,0,1-19.57589,0,17.28917,17.28917,0,0,1-6.77083-6.74516,19.85716,19.85716,0,0,1-2.44194-9.87611,19.46322,19.46322,0,0,1,2.44194-9.76538,17.34583,17.34583,0,0,1,6.77083-6.71495,21.11159,21.11159,0,0,1,19.57589,0Zm-17.12386,3.62426a12.97282,12.97282,0,0,0-5.04533,5.24512,17.47407,17.47407,0,0,0,0,15.43331,12.91034,12.91034,0,0,0,5.04533,5.24511,15.32573,15.32573,0,0,0,14.68192,0,12.88663,12.88663,0,0,0,5.03524-5.24511,17.38652,17.38652,0,0,0,0-15.43331,12.94893,12.94893,0,0,0-5.03524-5.24512,15.3258,15.3258,0,0,0-14.68192,0Z"/>
      <path class="cls-2" d="M1143.44681,288.38643h4.82333v53.28672h-4.82333Z"/>
    </g>
    <g>
      <path class="cls-1" d="M311.77648,298.18625c35.29922-39.08436,48.70564-85.19919,39.76154-136.78394-7.77546-44.844-31.52253-80.05711-68.97208-105.20781-.4285-.28974-.8648-.57032-1.29721-.85572-1.24266-.82054-2.45417-1.66084-3.728-2.4592A156.45828,156.45828,0,0,0,192.6691,28.386c-.5259-.0053-1.042-.03953-1.566-.03953-.79079,0-1.57184.04821-2.36068.0593-.11882.00289-.23763.0053-.35644.00867A163.42173,163.42173,0,0,0,125.58051,41.9817,153.86526,153.86526,0,0,0,94.22549,60.006q-3.55563,2.61347-6.96518,5.40724c-1.06738.88755-2.11916,1.7963-3.16511,2.71471A162.47786,162.47786,0,0,0,55.32875,100.648c-.557.82294-1.07126,1.66132-1.61274,2.49-.633.98637-1.28942,1.9554-1.903,2.95624a153.47727,153.47727,0,0,0-22.56868,66.46622c-.04285.42135-.07791.84367-.12076,1.266-.17919,1.92406-.33112,3.85777-.44409,5.80208q-.09933,1.63071-.16361,3.2696-.08765,2.23817-.11492,4.49463c-.00973.7-.05453,1.39037-.05453,2.09183,0,.41846.02921.8297.03311,1.24719.01558,3.18765.08375,6.39169.26684,9.63092a10.062,10.062,0,0,0,.21231,1.31132,159.3798,159.3798,0,0,0,3.2138,21.871H110.351q-.04674-19.82661-.07206-39.6542c.00584-13.68008.42071-27.35968.62328-41.03976.04285-2.9736-.2162-5.96166-.01948-8.92127.85507-12.943-4.45257-23.05308-13.84467-31.34038-2.74244-2.42111-2.723-2.4404-4.46426-6.67613a15.09754,15.09754,0,0,1,3.23523-.75063q58.25453-.24442,116.513-.416a109.58585,109.58585,0,0,1,35.56607,5.71433,69.451,69.451,0,0,1,25.60913,15.326,100.269,100.269,0,0,1,24.12883,33.7046,80.97624,80.97624,0,0,1,5.63681,47.14026c-3.89357,22.06381-13.50381,41.01035-30.74342,55.66958-10.888,9.25633-23.48022,14.67514-37.25282,17.33585a203.67707,203.67707,0,0,1-38.61432,3.57236c-7.06257.00289-14.12514-.04965-21.18576.00868-3.19822.026-6.3945.26178-10.47894.4416-.33307,3.0517-.71678,5.06929-.746,7.09218-.15776,10.61441-.24931,21.22881-.35059,31.84322v35.87261a161.91058,161.91058,0,0,0,53.4348.41219A166.29246,166.29246,0,0,0,265.34,333.544l64.11631,19.81046c12.88053,1.414,8.18448-10.11591,8.18448-10.11591Z"/>
      <path class="cls-1" d="M110.37046,271.60468H51.1625a158.65623,158.65623,0,0,0,24.78133,31.74486c.05648.05689.11492.11378.1714.17115,1.13749,1.11751,2.23408,2.26009,3.40858,3.35349.80248.7487,1.50562,2.06773,2.573,2.25478a162.623,162.623,0,0,0,28.27366,20.213Z"/>
      <path class="cls-1" d="M168.8558,221.45322q20.244-.5467,40.48222-1.253a29.8672,29.8672,0,0,0,5.24726-.579c16.45271-3.53765,28.71775-12.14507,32.91127-29.44187,3.32677-13.72106.02143-25.909-10.48478-35.58432a36.46515,36.46515,0,0,0-24.869-9.857c-14.67441-.19-29.35077-.17018-44.02713-.162a11.9806,11.9806,0,0,0-3.2625,1.011c-.33307,24.051-.66808,47.74674-.96024,71.44294a23.12119,23.12119,0,0,0,.61549,3.745A24.66041,24.66041,0,0,0,168.8558,221.45322Z"/>
    </g>
    <g>
      <path class="cls-2" d="M533.75663,151.14342l.0044.00136-.00687-.04093a51.27891,51.27891,0,0,0-4.413-18.0472,60.38583,60.38583,0,0,0-5.22121-9.40134c-11.14315-17.65178-27.06739-21.74655-27.06739-21.74655a72.56337,72.56337,0,0,0-23.08982-3.6304q-37.81811.14052-75.63621.26433h-4.04986a37.74622,37.74622,0,0,1,9.47559,9.20649c.05.06853.09649.14033.1457.20967.21442.31275.4228.63011.62678.95564.19353.30472.38348.61134.56355.92789.102.179.19518.36455.293.5469.18281.34252.36892.68191.53606,1.037.26253.55233.50719,1.11717.72519,1.69724a24.30949,24.30949,0,0,1,1.21644,4.61691c.04124.24625.0734.49658.10639.7465.039.29058.09511.57409.124.86862a23.67656,23.67656,0,0,1,.10556,2.66131V239.53327h-.0099a16.95393,16.95393,0,0,1-.09841,1.84356,16.21843,16.21843,0,0,1-2.33364,6.749l.0077.00354a6.47534,6.47534,0,0,1-.94512,1.33364c-.1193.1508-.23751.3016-.362.44627-1.19912,1.45236-3.50555,4.054-7.89353,8.62166l-.07258.0805-.00082.00095c-.00935.00965-2.48182,2.53417.66554,2.69952l-.00193.00163.01375-.00054a7.4954,7.4954,0,0,0,.75488-.00191c.02336-.00108.03738-.00448.06047-.00571.10309.0015.20371.00843.30817.006.1435-.00353.28672-.00815.43022-.01169,7.58454-.02815,40.95652-.00068,52.67669.01006l.01484.00136c2.29736.11517,2.54174-.66437,2.27674-1.415l.00522-.001c-.00577-.01564-.01539-.03127-.02144-.04691a4.34793,4.34793,0,0,0-.82938-1.23683l-.00055.00027c-.02612-.02856-.04948-.05167-.07477-.07873l-.0099-.01346-.00357-.00884-.08577-.08172c-.24384-.24992-.433-.413-.43627-.416-1.5301-1.46024-3.10172-2.97637-4.75113-4.44368a14.32862,14.32862,0,0,1-4.95208-11.05194c-.01017-.94476-.04591-1.88952-.03656-2.834q.01691-1.697.03381-3.39408V211.64907h11.04033c3.40878-.00585,6.81757.00408,10.22662.00272a135.03525,135.03525,0,0,0,25.06858-2.26916,52.14026,52.14026,0,0,0,24.182-11.01333c11.19208-9.31268,17.43125-21.34909,19.959-35.36543A51.11264,51.11264,0,0,0,533.75663,151.14342Zm-34.70443,3.33615a22.8338,22.8338,0,0,1-7.41355,17.30369q-7.41741,6.99348-20.85075,6.99022H442.52359V129.72661h27.56935q13.43282,0,21.19823,6.18851,7.75883,6.18742,7.761,18.1054Z"/>
      <path class="cls-2" d="M786.64128,259.89512c-.006-.01563-.01594-.03127-.022-.04691a4.35115,4.35115,0,0,0-.85054-1.23683l-.00055.00027c-.02667-.02855-.05059-.05167-.07643-.07873l-.01017-.01346-.00385-.00884-.08769-.08172c-.25016-.24992-.444-.413-.44754-.416-1.56859-1.46024-3.17979-2.97636-4.87071-4.44367a14.17843,14.17843,0,0,1-5.07689-11.052c-.01044-.94475-.047-1.88951-.03738-2.834q.01731-1.697.03463-3.39408V212.19468H775.19V147.40553h.0022V123.311q-.01691-1.697-.03463-3.39394c-.00963-.94449.02694-1.88925.03738-2.834a14.17869,14.17869,0,0,1,5.07689-11.05208c1.69092-1.46718,3.30212-2.9833,4.87071-4.44368.00357-.003.19738-.16589.44754-.41581l.08769-.08186.00385-.0087.01017-.0136c.02584-.02692.04976-.05.07643-.07859l.00055.00027a4.35115,4.35115,0,0,0,.85054-1.23683c.00605-.01578.01595-.03128.022-.047l-.00549-.00082c.2716-.75058.02116-1.53026-2.33419-1.415l-.01512.00136c-12.01541.01061-46.228.03808-54.00337.01007-.14734-.00354-.29414-.00816-.44121-.0117-.10694-.00245-.2103.00435-.31587.006-.02364-.00136-.03793-.00462-.06212-.00571-.2903-.01414-.54486-.01332-.77385-.0019l-.014-.00054.00192.00163c-3.22652.16534-.69193,2.68986-.6823,2.69938l.00082.00109.0745.0805c4.49849,4.56768,6.86292,7.16916,8.09228,8.62165.12756.14468.24879.29534.37112.44627a6.47139,6.47139,0,0,1,.969,1.33365l-.008.00354a15.95714,15.95714,0,0,1,2.39247,6.749,16.55822,16.55822,0,0,1,.10089,1.84355h.01017V239.53322h-.01017a16.55822,16.55822,0,0,1-.10089,1.84355,15.95845,15.95845,0,0,1-2.39247,6.749l.008.00354a6.477,6.477,0,0,1-.969,1.33365c-.12233.15079-.24356.30159-.37112.44627-1.22936,1.45235-3.59379,4.054-8.09228,8.62165l-.0745.0805-.00082.00095c-.00963.00966-2.54422,2.53418.6823,2.69952l-.00192.00163.014-.00054c.229.01129.48355.01224.77385-.0019.02419-.00109.03848-.00449.06212-.00571.10557.00149.20893.00843.31587.006.14707-.00354.29387-.00816.44121-.0117,7.77533-.02814,41.988-.00068,54.00337.01007l.01512.00136c2.35535.11517,2.60579-.66438,2.33419-1.415Z"/>
      <path class="cls-2" d="M1002.63686,258.61138l-.07367-.0805c-4.44186-4.56768-6.77633-7.1693-7.9903-8.62165-.1259-.14468-.24576-.29548-.36644-.44627a6.48516,6.48516,0,0,1-.95693-1.33365l.008-.00354a16.08931,16.08931,0,0,1-2.36223-6.749,16.754,16.754,0,0,1-.09979-1.84355h-.01017v-5.928q.08907-19.209.16082-38.41794c.03408-14.73933-.01238-29.47879.03-44.21812.0033-1.18788.01264-2.37576.02062-3.56364h.00357v-.62277q.0066-.96025.011-1.92038l-.011.00476v-24.8h.01017a16.55822,16.55822,0,0,1,.10089-1.84355,15.95714,15.95714,0,0,1,2.39247-6.749l-.008-.00354a6.47139,6.47139,0,0,1,.969-1.33365c.12233-.15093.24356-.30159.37112-.44627,1.22936-1.45249,3.59379-4.054,8.09228-8.62165l.0745-.0805.00082-.00109c.00935-.00924,2.39742-2.39724-.45633-2.67531H990.73c-2.60662.00068-5.51563.00068-8.57776,0H969.91063c-3.71035-.08526-7.421-.16521-11.131-.2604a4.74712,4.74712,0,0,0-4.603,2.70292c-.328.57083-.65866,1.14029-.98717,1.71084L903.0743,182.07735l-.17209-.27358-2.20884-3.51061-.00054-.00109-5.41145-8.601-15.18145-24.12965c-.76615-1.22024-1.53863-2.43668-2.30175-3.65882L868.80394,127.607l-14.45241-22.971h0s-2.17475-3.59343-2.84469-4.5545a.41805.41805,0,0,0-.07917-.0756,4.94636,4.94636,0,0,0-3.56575-1.70106H843.433l-.0088.00776H825.74552c-3.06213.00068-5.97114.00068-8.57776,0H805.35055c-2.85375.27807-.46568,2.66607-.45633,2.67531l.00082.00109.0745.0805c4.49849,4.56768,6.86292,7.16916,8.09228,8.62165.12756.14468.24879.29534.37112.44627a6.47139,6.47139,0,0,1,.969,1.33365l-.008.00354a15.838,15.838,0,0,1,1.94575,4.4899,23.07765,23.07765,0,0,1,.36067,2.63684c.06488.88248.13828,1.76578.19711,2.64934v26.15487h.00082q-.37977,41.99886-.77769,83.99745c-.02447,2.64567-.07863,5.29216-.03437,7.93715a19.12948,19.12948,0,0,1-.66471,5.42678,15.85125,15.85125,0,0,1-1.58976,3.35886l.008.00354a6.48578,6.48578,0,0,1-.95694,1.33365c-.12068.15079-.24054.30159-.36644.44627-1.214,1.45235-3.54843,4.054-7.9903,8.62165l-.07367.0805-.00083.00095c-.00934.00966-2.51205,2.53418.67379,2.69952l-.00193.00163.014-.00054c.226.01129.47723.01224.764-.0019.02391-.00109.03793-.00449.0613-.00571.10419.00149.20618.00843.312.006.14515-.00354.29-.00816.43572-.0117,7.67718-.02814,41.45877-.00068,53.32271.01007l.01512.00136c2.32567.11517,2.5728-.66438,2.30477-1.415l.00523-.001c-.00578-.01563-.01567-.03127-.02145-.04691a4.3513,4.3513,0,0,0-.8401-1.23683l-.00055.00027c-.02611-.02855-.04975-.05167-.07532-.07873l-.0099-.01346-.00384-.00884-.0866-.08172c-.24713-.24992-.43847-.413-.442-.416-1.5488-1.46024-3.13965-2.97636-4.80941-4.44367a14.61739,14.61739,0,0,1-3.54348-4.58686c-.11216-.24884-.23917-.492-.33978-.74528-.036-.08662-.06625-.17568-.10061-.26311-.19326-.51018-.35875-1.031-.50637-1.55869-.04784-.1818-.10227-.36061-.14323-.5454-.03161-.12754-.0514-.25944-.08054-.38807a16.57525,16.57525,0,0,1-.29882-2.96454c-.01017-.94475-.04646-1.88951-.03684-2.834q.0169-1.697.03409-3.39408V170.08963h2.6473l.853,1.35676c.105.10919.21553.215.31064.32974l17.53049,28.0471,29.13657,46.34259h3.919L953.281,170.08963h2.64758v62.05495l.041-.02284c-.00715.53534-.02831,1.07054-.041,1.60587v.18833l-.00522.00748c-.06625,2.67205-.17126,5.344-.17621,8.01629a19.457,19.457,0,0,1-1.358,7.38074,14.72078,14.72078,0,0,1-3.36919,4.24883c-1.66948,1.46731-3.26062,2.98343-4.80941,4.44367-.0033.003-.19463.166-.44177.416l-.08659.08172-.00385.00884-.0099.01346c-.02556.02706-.04921.05018-.0756.07873l-.00055-.00027a4.35312,4.35312,0,0,0-.83982,1.23683c-.006.01564-.01567.03128-.02172.04691l.0055.001c-.2683.75058-.02089,1.53013,2.30478,1.415l.01484-.00136c11.86394-.01075,45.64552-.03821,53.323-.01007.1457.00354.29057.00816.43572.0117.10556.00245.20755-.00449.312-.006.0231.00122.03739.00462.06131.00571.28672.01414.538.01319.764.0019l.01374.00054-.00165-.00163c3.18584-.16534.68314-2.68986.67351-2.69952Z"/>
      <path class="cls-2" d="M667.51587,203.50734l-.01264-.03155a49.72472,49.72472,0,0,0,7.68625-5.10642c11.4744-9.31268,17.87082-21.34922,20.462-35.36557a49.871,49.871,0,0,0,.77577-11.86032l.0044.00136c-.0022-.01414-.0055-.02692-.00659-.04106a50.25819,50.25819,0,0,0-4.52489-18.0472,59.96477,59.96477,0,0,0-5.35234-9.40134c-11.42382-17.65178-27.74914-21.74654-27.74914-21.74654a76.10573,76.10573,0,0,0-23.67124-3.63028q-38.77105.14034-77.54156.26434h-4.15156a38.33867,38.33867,0,0,1,9.71393,9.20635c.05168.06853.099.14033.14954.20968.21992.31274.43325.63011.64217.95563.199.30486.39366.61135.57785.9279.105.17894.20013.36468.30074.54689.18693.34266.37826.682.54925,1.03695.26886.55233.52012,1.11717.74389,1.69724a23.915,23.915,0,0,1,1.24695,4.61691c.04179.24639.07478.49658.10886.74651.03959.29071.09787.57409.127.86861a23.11384,23.11384,0,0,1,.10831,2.66131V239.53321h-.0099a16.6267,16.6267,0,0,1-.10116,1.84355,15.94623,15.94623,0,0,1-2.39275,6.749l.00825.00354a6.488,6.488,0,0,1-.9693,1.33365c-.12206.15093-.243.30159-.37057.44627-1.22936,1.45249-3.59407,4.054-8.09256,8.62165-.02474.02693-.05.05358-.07422.0805l-.0011.00109c-.0099.00952-2.54449,2.534.6823,2.69938l-.00165.00163.01375-.00054c.22927.01142.48328.01224.77357-.0019.02419-.00109.03849-.00436.06268-.00572.10556.00164.20893.00844.31559.006.14734-.00354.29359-.00816.44094-.0117,7.77532-.028,41.9885-.00054,54.00391.01007l.0154.00136c2.35481.1153,2.605-.66438,2.33336-1.415l.0055-.00082c-.0055-.01577-.01539-.03127-.022-.047a4.34865,4.34865,0,0,0-.85-1.23683l-.0011.00027c-.02639-.02855-.05058-.05167-.07587-.07859l-.01045-.0136-.00384-.0087-.088-.08186c-.24961-.24992-.44369-.41282-.447-.41581-1.56859-1.46038-3.17952-2.9765-4.87071-4.44368a14.176,14.176,0,0,1-5.07689-11.05208c-.01045-.94476-.04728-1.88951-.03739-2.834q.0165-1.697.03409-3.39394V211.77689h27.93772l30.83464,48.87282h48.54051l-41.50742-55.56016ZM659.19679,154.709q0,10.0872-6.33264,16.27136-6.33538,6.18906-18.16771,6.18851H602.30586V131.33105h31.7682q11.83453,0,18.4789,5.73055,6.64136,5.73055,6.64383,17.18838Z"/>
      <path class="cls-2" d="M1149.56264,228.80311c.0033-4.11556.0066-7.7064.0088-10.26641l.00165-.015c.116-2.33007-.67186-2.57782-1.43059-2.30913l-.0011-.00544c-.0154.006-.03134.01577-.04729.02176a4.39775,4.39775,0,0,0-1.25025.84141l.00055.00055c-.02914.02637-.05223.05-.07972.0756l-.01375.01006-.00879.00381-.08247.08675c-.25291.24747-.41785.4392-.4206.44274-1.47623,1.55175-3.00853,3.14565-4.4919,4.81842a14.27287,14.27287,0,0,1-9.35216,4.90246c-.066.00326-.1281.01468-.19463.0174-1.00449.04052-2.009.08567-3.01347.12619v.00136h-.03409l-.02254.001c-.47338.009-.94676.01564-1.4196.011q-.34142-.00325-.6834-.0068l-22.34237.05392h-33.22573v-33.273h62.36092V162.17225h-62.36092V130.17689h59.64049a16.40528,16.40528,0,0,1,10.11859,3.56127c.16549.15419.34143.28759.49977.45518l.0033-.00837.01485.0136c.28534.3154.57344.62066.86044.93177l.03574.04827v-.00938c.999,1.08236,2.00128,2.14685,2.98213,3.17843.0033.00353.16824.19526.4206.44273l.08247.08675.00935.00381.01319.01006c.02749.02557.05113.04923.07972.07561v.00054a4.39781,4.39781,0,0,0,1.25026.84142c.01539.006.03134.01577.04728.02175l.0011-.00544a.868.868,0,0,0,1.20627-.44681l.01045-.00449.00274-.01754a3.89174,3.89174,0,0,0,.21168-1.60777c.0033-.03767.00605-.07479.01045-.112V98.27788h-3.23835l-.005-.00013-.00769.00013h-119.4124v.01224c-.08522.00054-.16934.00353-.25456.00489-.02364-.00136-.03794-.00462-.06213-.00571-.2903-.01414-.54486-.01332-.77357-.0019l-.0143-.00054.0022.00163c-3.2268.16534-.6922,2.68986-.68231,2.69938l.00055.00109c.02474.02692.04949.05357.07478.0805,4.49849,4.56768,6.86265,7.16916,8.092,8.62165.12755.14468.24906.29534.37111.44627a6.48857,6.48857,0,0,1,.96931,1.33365l-.00825.00354a15.9612,15.9612,0,0,1,2.39275,6.749,16.62487,16.62487,0,0,1,.10061,1.84355h.01045V239.53321h-.01045a16.62487,16.62487,0,0,1-.10061,1.84355,15.96251,15.96251,0,0,1-2.39275,6.749l.00825.00354a6.49426,6.49426,0,0,1-.96931,1.33365c-.122.15079-.24356.30159-.37111.44627-1.22936,1.45235-3.59352,4.054-8.092,8.62165-.02529.02693-.05.05358-.07478.0805l-.00055.00095c-.00989.00966-2.54449,2.53418.68231,2.69952l-.0022.00163.0143-.00054c.22871.01129.48327.01224.77357-.0019.02419-.00109.03849-.00449.06213-.00572.08522.00123.16934.00436.25456.0049v.01224h123.28741V228.81739Z"/>
    </g>
  </g>
</svg>
