<svg width="45" height="45" viewBox="0 0 45 45" fill="none" xmlns="http://www.w3.org/2000/svg">
<path d="M0 45L3.17821 33.4444C1.21414 30.0544 0.182875 26.2089 0.188394 22.2957C0.194046 10.0032 10.2449 6.6898e-05 22.5941 6.6898e-05C25.5393 -0.0071348 28.4566 0.56719 31.1772 1.68979C33.8979 2.81239 36.3677 4.46096 38.4438 6.54006C40.5303 8.60772 42.1841 11.0667 43.3094 13.7747C44.4348 16.4826 45.0093 19.3858 44.9999 22.3163C44.9942 34.6106 34.9434 44.6138 22.5941 44.6138C18.8504 44.6134 15.1664 43.68 11.8783 41.8988L0 45ZM12.4284 37.8619C15.5859 39.7275 18.6002 40.845 22.5866 40.8469C32.8503 40.8469 41.2113 32.5331 41.2169 22.3125C41.2207 12.0713 32.8993 3.76881 22.6017 3.76506C12.3304 3.76506 3.97512 12.0788 3.96947 22.2975C3.96947 26.4694 5.1978 29.5931 7.26072 32.8613L5.37678 39.7013L12.4284 37.8619ZM33.8808 27.6169C33.7414 27.3844 33.3684 27.2456 32.807 26.9663C32.2456 26.6869 29.495 25.3388 28.9807 25.1532C28.4683 24.9675 28.0953 24.8738 27.7185 25.4325C27.3473 25.9894 26.2735 27.2456 25.9476 27.6169C25.6216 27.9881 25.2938 28.035 24.7343 27.7556C24.1748 27.4763 22.3699 26.8894 20.2317 24.99C18.5681 23.5125 17.4434 21.6882 17.1175 21.1294C16.7916 20.5725 17.0836 20.2707 17.3624 19.9932C17.6149 19.7438 17.922 19.3425 18.2027 19.0163C18.4853 18.6938 18.5795 18.4613 18.7678 18.0882C18.9544 17.7169 18.862 17.3907 18.7208 17.1113C18.5795 16.8338 17.4585 14.0907 16.9951 12.975C16.5391 11.8894 16.0776 12.0357 15.7328 12.0188L14.659 12C14.2878 12 13.6793 12.1388 13.1688 12.6975C12.6563 13.2563 11.2095 14.6025 11.2095 17.3457C11.2095 20.0888 13.2159 22.7382 13.4947 23.1094C13.7735 23.4807 17.4416 29.1094 23.0576 31.5225C24.3933 32.0963 25.437 32.4394 26.249 32.6963C27.5904 33.12 28.8112 33.06 29.7757 32.9175C30.8496 32.7581 33.0877 31.5694 33.5549 30.2681C34.0221 28.9669 34.0221 27.8494 33.8808 27.6169Z" fill="white"/>
</svg>
