<svg xmlns="http://www.w3.org/2000/svg" xmlns:xlink="http://www.w3.org/1999/xlink" viewBox="0 0 396.85039 297.6378">
  <defs>
    <style>
      .cls-1 {
        fill: none;
      }

      .cls-2 {
        clip-path: url(#clip-path);
      }

      .cls-3 {
        fill: #009a3f;
      }

      .cls-4 {
        clip-path: url(#clip-path-2);
      }

      .cls-5 {
        fill: #fff;
      }

      .cls-6 {
        fill: #005627;
      }
    </style>
    <clipPath id="clip-path">
      <rect class="cls-1" x="4.25197" y="2.83465" width="388.34646" height="291.9685"/>
    </clipPath>
    <clipPath id="clip-path-2">
      <circle class="cls-1" cx="181.89269" cy="104.51744" r="190.28571"/>
    </clipPath>
  </defs>
  <title>simboloCapivara</title>
  <g id="Camada_1" data-name="Camada 1">
    <g class="cls-2">
      <g>
        <path class="cls-3" d="M392.30065,3.10925a2.48439,2.48439,0,0,0-1.54773,1.35083c-3.44165,7.72419-8.57934,14.28547-14.31787,20.36206-12.28973,13.01374-27.40973,21.55451-44.23846,27.18067-20.4607,6.84033-41.15534,13.02435-61.415,20.40826a456.90183,456.90183,0,0,0-43.46735,18.61121,200.91,200.91,0,0,0-48.99554,33.46911c-14.84375,13.79126-25.95893,30.10914-32.20612,49.44812-7.11316,22.0196-7.58069,44.20643-.54632,66.40058,3.67273,11.58771,11.59216,18.44549,23.52972,21.18335.059-1.916.12531-3.68768.16626-5.46.30023-12.98975,1.48706-25.94623,5.32324-38.34839,6.52191-21.08527,18.23676-39.23224,33.47046-55.11359,18.83569-19.63641,41.22461-34.23065,65.77118-45.6026,17.05664-7.902,34.25983-15.47888,50.03986-25.836q14.17584-9.30423,28.35046-18.61047l.1228.12823c-.82116.77625-1.63122,1.56452-2.465,2.32691-21.14209,19.33118-43.93213,36.31287-69.24414,49.929-11.37385,6.11835-22.39106,12.99244-33.12177,20.1919-15.9541,10.70392-28.71173,24.73462-40.369,39.95245A96.90522,96.90522,0,0,0,187.90862,232.018c-2.22168,16.3482-1.38116,32.62634.63471,48.91589.31341,2.53241,1.70233,3.85211,3.65265,4.93451a47.58929,47.58929,0,0,0,24.91192,5.855c22.58917-4.05658,89.09339-21.92676,131.47479-95.36322,3.08942-5.35315,5.86316-9.82745,8.35431-13.52612a283.70323,283.70323,0,0,0,17.14746-41.32611c11.78632-35.83484,17.24109-72.723,18.20429-110.33429C392.52819,21.82483,392.309,12.46436,392.30065,3.10925Z"/>
        <path class="cls-3" d="M77.33678,159.74457c-1.77819-13.19586-7.17828-24.88416-15.09259-35.50092A169.61021,169.61021,0,0,0,35.03393,95.9809c-2.01807-1.697-4.10681-3.31-6.463-5.20276-.582,1.05035-1.01245,1.91052-1.5169,2.72485a157.78437,157.78437,0,0,0-14.7674,30.52735c-5.537,15.66-8.6455,31.63269-6.22821,48.33325a65.06212,65.06212,0,0,0,2.2594,10.05853l.00885-.00732,11.625,15.9107-2.94958,1.16895c7.82415,10.51611,18.33758,17.42523,30.65619,21.82458,2.80181,1.00067,5.70813,1.709,8.56628,2.55194l.24255-.36316a193.93559,193.93559,0,0,1-13.64465-25.36145,107.12772,107.12772,0,0,1-7.91125-27.7218c-1.05463-7.57123-1.05164-25.66156.04974-28.63782,5.68439,25.79291,14.3515,50.33466,29.90381,72.33478a5.74651,5.74651,0,0,0,1.01983-1.73413c2.30188-4.82446,4.93872-9.51831,6.861-14.48883A76.18922,76.18922,0,0,0,77.33678,159.74457Z"/>
        <ellipse class="cls-3" cx="30.2039" cy="153.47353" rx="10.13579" ry="14.77299"/>
        <circle class="cls-3" cx="346.45869" cy="75.3899" r="10.13579"/>
        <g class="cls-4">
          <polygon class="cls-5" points="357.678 94.753 292.921 47.67 255.748 42.255 242.33 44.708 219.425 26.748 206.322 31.824 204.616 49.714 217.343 70.542 197.736 98.128 189.063 128.172 179.05 145.623 151.75 154.402 150.802 182.379 185.68 176.334 276.122 139.89 357.678 94.753"/>
          <ellipse class="cls-5" cx="263.27318" cy="81.67698" rx="6.12047" ry="6.4205" transform="translate(-0.19302 0.6248) rotate(-0.13592)"/>
          <path class="cls-6" d="M363.94411,103.87324c-.76-2.79771-.8446-6.07379-2.38085-8.49913-15.09278-17.64034-33.51192-29.24728-51.32355-41.65751-3.32774-2.31855-5.03827-4.25024-4.396-9.30044a24.59417,24.59417,0,0,0-4.66159-17.58247c-3.44746-4.64869-8.24841-6.17829-13.63625-5.09536-5.5555,1.11658-10.24444,4.44383-11.21808,10.26937-1.08733,6.50493-4.14666,7.36348-9.54656,7.09335-7.53583-.37694-15.25911-1.19749-22.336,3.08827-2.75121,1.66613-3.84979-.97931-5.02191-2.92043-4.56522-7.56-10.27265-13.5867-18.76977-16.21838a15.83615,15.83615,0,0,0-20.2777,12.87405c-1.71539,12.6054-.10881,24.57514,9.07488,34.11391,1.35128,1.40344,2.3798,2.33582.43516,4.12694-10.61743,9.77953-15.2986,23.0468-19.47371,36.63028-2.28255,7.426-3.76371,15.15368-7.42291,22.07755a25.10216,25.10216,0,0,1-11.75214,11.32289c-6.42194,3.05228-12.74785,6.37474-19.51765,9.81763.00878.13021.02613.2544.03031.38789q.18051,5.77829.272,11.5643c1.54983-1.7715,4.28114-3.27136,8.87117-5.77524,6.14118-3.35,12.61632-5.96942,18.54865-9.80632,5.27411-3.41126,8.68856-8.00484,11.08843-14.00273,5.15192-12.87559,7.85824-26.64369,13.72285-39.28526a65.72887,65.72887,0,0,1,12.4697-17.90911c2.67071-2.798,6.03672-2.76934,9.46695-2.28444,1.41231-4.5196-1.15324-7.31511-4.05972-9.787-3.41417-2.90361-6.88755-5.725-9.58234-9.40687-1.12209-1.5333-2.16775-3.18187-2.01734-5.28811-1.8528-4.79518-1.45388-9.85317-.80664-14.691.54667-4.08747,3.70541-5.76495,7.60082-4.71782,4.52252,1.21565,8.42019,3.5335,10.77474,8.03555,3.34877,2.26109,4.38415,6.39764,6.88556,9.34587,1.50842,1.8229,2.90994,3.77621,4.56346,5.45658,1.73329,1.76156,3.72884,3.059,5.99989.70643-1.24849-3.95226,1.31855-5.04071,4.08369-5.82358,14.82456-4.197,29.11712-2.27234,42.95714,4.3137,14.4809,6.891,26.68,17.48444,39.38111,27.19729,6.80875,5.20679,14.08246,10.04763,19.04387,17.54194a12.47891,12.47891,0,0,1,3.41526,5.61873c-1.68105.62649-3.389,1.15474-5.01212,1.889-4.31415,1.95153-7.60718,4.0824-7.342,10.35847.29764,7.04779-.70589,14.23688-1.81842,21.24647-1.15572,7.28337-3.129,14.46064-11.28239,16.7018-8.38878,2.30578-13.28173-3.20246-17.90215-9.09977a60.84144,60.84144,0,0,1-3.41847-5.293c-.6331-1.01-.9853-2.50286-2.4739-2.26865-1.46258.23017-2.19469,1.41721-2.72173,2.86083a10.18517,10.18517,0,0,0-.1067,7.19773c2.03211,6.05275,6.73951,9.61459,11.529,14.13848a121.34753,121.34753,0,0,1-24.48735,3.55527c-17.91326.96629-34.53953-3.9734-50.04451-13.17558a18.45507,18.45507,0,0,1-7.371-7.84454c-1.7395-3.53975-3.41111-7.33576-7.18245-9.99033-1.59094,4.64967-.29509,8.7747,1.22636,12.52181a96.453,96.453,0,0,0,14.3729,24.45568c7.855,9.72212,17.22535,18.48206,21.3916,30.82029,6.4595,19.1299,3.46506,42.0417-19.21834,50.00228-5.78333,2.02961-11.37749,4.64468-17.10923,6.84547-7.959,3.05593-13.12093,8.78175-14.87,17.47009a45.99052,45.99052,0,0,0-.87322,11.67407c.25313,4.24225-1.59025,5.78017-5.11136,6.24963-3.701.49341-7.38964,1.09193-11.09457,1.5474-3.71352.45672-5.91538-.7788-6.55856-5.19713-.94394-6.48352-2.557-12.86-3.97179-19.702-3.1361,5.34206-2.7626,10.9848-2.73961,16.57977.03433,8.3821,1.3838,8.02732-7.64278,7.87-5.93183-.10336-11.85511-.693-17.78542-.99282a4.30811,4.30811,0,0,1-2.7275-.83l.02682,11.30141a167.40847,167.40847,0,0,0,17.09368,1.61566c28.58828,1.19532,56.118-4.048,81.86071-16.72737a208.02023,208.02023,0,0,0,39.58755-25.45516,22.28186,22.28186,0,0,1,1.07788-2.09127c.60026-1.02474,1.22893-2.03636,1.84353-3.05141.1316-.21728.22942-.398.29872-.52961.163-.64862.37464-1.53783.20483-.05509a11.59289,11.59289,0,0,1,1.48621-4.65093,32.815,32.815,0,0,0,.67134-7.278,8.46145,8.46145,0,0,1,.86032-4.25326c.236-4.87584.45806-9.62964.723-14.37322a152.36282,152.36282,0,0,0-4.67571-48.51943c-.64685-2.39721-1.15464-3.75752,2.16212-4.17693a157.78578,157.78578,0,0,0,42.10689-11.28021,20.9833,20.9833,0,0,1,6.48484-1.99417,8.72528,8.72528,0,0,1,1.32309-.13546,38.80635,38.80635,0,0,0,14.00864-2.751,6.079,6.079,0,0,1,.958-1.711c3.75395-4.46318,5.94542-9.75905,7.75057-15.28788q.97295-8.89822,1.93941-17.79713a58.3461,58.3461,0,0,0-1.36613-8.0339C367.32986,113.01083,365.22416,108.58514,363.94411,103.87324ZM284.93544,40.92129c-1.24123-.41806-1.67907-1.37464-.86564-2.40172,1.66931-2.10821,2.87242-5.26737,6.11071-4.85614,3.01807.38335,4.647,2.68346,5.07738,5.8298.20744,1.51777.35613,3.04437.59134,5.08778C291.89452,43.25559,288.41362,42.09279,284.93544,40.92129ZM356.28478,145.1289a12.51676,12.51676,0,0,1-2.2762,4.11763c-1.20776,1.725-2.5817,3.73229-4.9561,2.77991-2.1721-.87121-1.77948-3.283-1.73335-5.15044a153.05083,153.05083,0,0,0-.7684-23.45c-.32119-2.48773-.28408-4.79662,3.17451-4.27292,3.77934.57232,4.73074-3.18347,7.59855-6.1462C357.59332,124.47955,358.56178,134.84254,356.28478,145.1289ZM294.5964,257.52545s11.07087-35.46822-1.731-77.64262S280.537,230.96219,280.537,230.96219Z"/>
          <path class="cls-5" d="M226.18952,76.90286c1.41225-4.51964-1.15324-7.31515-4.05978-9.787-3.41411-2.90361-6.88749-5.725-9.58221-9.40688-1.12222-1.53333-2.16788-3.18189-2.01559-5.28118,2.41965,1.31534,2.97369.30762,2.57371-2.16395-.55384-3.423-1.22686-6.8792.47679-10.18491a8.47484,8.47484,0,0,1,.90806,2.48829c.21671,10.09519,7.123,15.58681,13.34406,21.57387,1.65649,1.59422,3.73361,2.47242,5.56064,1.31531,1.60212-1.01468.852-3.33729.44051-4.98145-.90186-3.60309-2.08826-7.12789-3.15844-10.68467q2.15169.29638,4.30345.59272c1.5123,1.83334,2.91382,3.78666,4.56735,5.46705,1.73328,1.76156,3.72883,3.059,5.99882.70412.84156-.08583,1.68628-.15125,2.52668-.25553,12.64482-1.56965,25.30792-3.40647,37.67564,1.67433,10.65717,4.37815,20.22507,10.89761,29.22626,18.06906,5.6721,4.519,13.0058,7.64073,15.65575,15.67433.10818.328,1.18808.50858,1.77314.42672,5.61973-.786,9.702,2.261,13.6617,5.79572,1.3684,1.2216,2.79316,2.73815,4.9477,1.847a12.47943,12.47943,0,0,1,3.41533,5.61869c-1.681.62652-3.389,1.15474-5.01219,1.889-4.31409,1.95156-7.60712,4.08243-7.34206,10.3585.2977,7.04779-.70589,14.23687-1.8183,21.24644-1.15577,7.28336-3.12916,14.46063-11.28244,16.70179-8.38873,2.30578-13.28173-3.20246-17.90209-9.09976a60.794,60.794,0,0,1-3.41848-5.293c-.63316-1.01-.98536-2.50287-2.474-2.26865-1.46246.23017-2.19469,1.41723-2.72173,2.86082a10.18526,10.18526,0,0,0-.1067,7.19776c2.03223,6.05272,6.73963,9.61456,11.52907,14.13849a121.35011,121.35011,0,0,1-24.48741,3.55524c-17.9132.96628-34.5394-3.97337-50.04445-13.17558a18.45478,18.45478,0,0,1-7.371-7.84452c-1.73956-3.53975-3.41118-7.33578-7.18245-9.99033-1.59094,4.64968-.29509,8.77467,1.2263,12.52181a96.4564,96.4564,0,0,0,14.373,24.45565c7.855,9.72216,17.22535,18.48209,21.3916,30.82029,6.45943,19.12993,3.46506,42.04173-19.21828,50.00232-5.78339,2.0296-11.37755,4.64467-17.10935,6.84547-7.959,3.05593-13.12081,8.78174-14.87,17.47009a45.99048,45.99048,0,0,0-.87322,11.67406c.25313,4.24226-1.59025,5.78018-5.11136,6.24964-3.701.4934-7.38964,1.09193-11.09457,1.54739-3.71358.45673-5.91538-.7788-6.55862-5.19713-.94388-6.48352-2.55693-12.86-3.97172-19.702-3.13617,5.34206-2.76255,10.98479-2.73962,16.57976.03433,8.38211,1.38374,8.02733-7.64278,7.87-5.93186-.10336-11.85507-.693-17.78545-.99282-2.36921-.11985-3.68407-.842-3.68822-3.77359q-.07974-56.12975-.32978-112.25412c3.15521-2.61772,6.23044-5.35532,9.4855-7.83291,3.73411-2.84226,8.81271-6.81025,12.18857-5.62247,5.52245,1.94295,7.14572-2.01484,10.17107-3.99636,1.39323-.9125,2.36352-2.53041,3.53851-3.81561,9.80181-10.72137,12.96963-24.82011,17.36729-38.20867a140.17093,140.17093,0,0,1,13.96736-30.6489C220.25162,85.26465,224.92863,82.34135,226.18952,76.90286ZM262.036,70.46043c-5.63834-.33951-10.87081,3.7016-16.94528,3.12672-1.44427-.13664-2.69693,1.58305-2.6846,3.31724.01094,1.53917.52594,3.6566,2.12957,3.67415,4.79122.05245,4.72911,3.44818,5.45326,7.01359,1.47305,7.25208,7.92164,11.525,14.42194,10.11573,7.50019-1.62606,12.31139-7.61206,11.48981-14.29551C274.98591,75.97043,268.74514,69.988,262.036,70.46043Zm66.94983,34.38687c-3.26483.07933-4.96344,1.8858-5.00136,5.27063-.03735,3.3347,5.46451,10.238,8.10616,9.65334,2.7419-.60689,5.41822-2.42721,5.83136-5.74239C338.41515,110.071,333.05978,104.81765,328.98581,104.8473Z"/>
          <path class="cls-5" d="M357.3237,113.00688c.26953,11.47265,1.23812,21.83566-1.03895,32.122a12.51706,12.51706,0,0,1-2.27614,4.11762c-1.20775,1.725-2.58182,3.73229-4.95615,2.77992-2.17211-.87125-1.77942-3.283-1.7333-5.15045a153.0595,153.0595,0,0,0-.76845-23.45c-.32119-2.48775-.284-4.79662,3.1745-4.27292C353.50456,119.7254,354.456,115.96962,357.3237,113.00688Z"/>
          <path class="cls-5" d="M295.84927,44.581c-3.95484-1.32541-7.43568-2.48825-10.91386-3.65974-1.24122-.41807-1.679-1.37464-.8657-2.40172,1.66931-2.10821,2.87254-5.26738,6.11083-4.85611,3.018.38334,4.647,2.68342,5.07726,5.82976C295.4653,41.011,295.614,42.5376,295.84927,44.581Z"/>
          <path class="cls-6" d="M262.036,70.46043c6.70916-.47245,12.94993,5.51,13.8647,12.95192.82158,6.68345-3.98962,12.66945-11.48981,14.29551-6.5003,1.40926-12.94889-2.86365-14.42194-10.11573-.72415-3.56541-.662-6.96114-5.45326-7.01359-1.60363-.01755-2.11863-2.135-2.12957-3.67415-.01233-1.73419,1.24033-3.45388,2.6846-3.31724C251.16517,74.162,256.39764,70.12092,262.036,70.46043Zm1.33876,15.54892a4.64243,4.64243,0,0,0,3.375-4.37c.06846-2.08469-1.01763-3.35092-3.00945-3.36507-2.97705-.02112-3.42968,2.37381-3.545,4.70875C260.11754,84.55711,260.39737,86.25109,263.37474,86.00935Z"/>
          <path class="cls-6" d="M225.68144,42.35258q2.5051,3.72894,5.003,7.44781c1.063,3.54671,2.24945,7.07151,3.15131,10.6746.41152,1.64416,1.16161,3.96677-.44051,4.98145-1.827,1.15711-3.90415.27891-5.56064-1.31531-6.22111-5.98706-13.12735-11.47868-13.34406-21.57387a8.47484,8.47484,0,0,0-.90806-2.48829c3.75417-2.82313,6.80778.81212,10.21153,1.20846.13614.54148.4223.83419.99193.65241A.9754.9754,0,0,0,225.68144,42.35258Z"/>
          <path class="cls-6" d="M328.98581,104.8473c4.074-.02965,9.42934,5.22369,8.93616,9.18158-.41314,3.31518-3.08946,5.1355-5.83136,5.74239-2.64165.58465-8.14351-6.31864-8.10616-9.65334C324.02237,106.7331,325.721,104.92663,328.98581,104.8473Z"/>
          <polygon class="cls-5" points="214.147 106.057 144.921 63.301 106.837 60.658 93.428 64.172 68.843 47.725 55.953 53.871 55.593 72.13 70.085 92.263 52.326 121.718 45.837 152.828 37.025 171.278 10.033 182.263 11.213 210.687 46.095 201.892 134.956 158.039 214.147 106.057"/>
          <ellipse class="cls-5" cx="117.48049" cy="100.0317" rx="6.21991" ry="6.52481" transform="matrix(0.99698, -0.07767, 0.07767, 0.99698, -7.41465, 9.42701)"/>
          <path class="cls-6" d="M221.173,114.822c-.98708-2.7767-1.32382-6.09006-3.072-8.42979-16.701-16.71658-36.32358-27.06362-55.38975-38.27134-3.56212-2.09389-5.44974-3.92-5.18293-9.087a24.92474,24.92474,0,0,0-6.0868-17.45928c-3.86219-4.446-8.86236-5.62719-14.25958-4.11588-5.56516,1.55828-10.07976,5.2902-10.62429,11.26837-.60819,6.67538-3.65419,7.78042-9.1672,7.92151-7.69366.19694-15.61194-.04126-22.482,4.84543-2.67081,1.89974-3.99063-.69665-5.33135-2.57367C84.3553,51.61,78.089,45.94127,69.24506,43.92719A16.15313,16.15313,0,0,0,49.60537,58.531C48.82518,71.43663,51.37519,83.44287,61.446,92.40359c1.4818,1.31839,2.59927,2.18421.7584,4.14865-10.05084,10.72585-13.79693,24.53-17.00411,38.61572-1.75338,7.70057-2.66857,15.64528-5.8606,22.94277a25.56339,25.56339,0,0,1-11.08688,12.377c-6.29831,3.58641-12.47827,7.43922-19.1005,11.44818.01889.13128.046.25579.0605.39075q.62575,5.84163,1.16156,11.69792c1.4408-1.91423,4.1041-3.64395,8.5811-6.5339,5.99-3.86651,12.37551-7.01839,18.11578-11.36229,5.10337-3.862,8.22476-8.77927,10.20676-15.04166,4.25487-13.4434,5.954-27.60337,10.95165-40.86437A66.79484,66.79484,0,0,1,69.5424,101.116c2.50231-3.04056,5.92814-3.2701,9.45419-3.04223,1.09065-4.68849-1.73274-7.32426-4.87811-9.60586-3.6948-2.68013-7.44353-5.27237-10.46619-8.79644-1.25862-1.46758-2.44833-3.05785-2.45652-5.20378-2.25144-4.71692-2.23273-9.87314-1.9446-14.82532.24325-4.18408,3.32771-6.12663,7.36992-5.36476,4.693.88446,8.83472,2.93386,11.57407,7.31518,3.57911,2.034,4.94874,6.14632,7.71857,8.94178,1.67373,1.73137,3.24871,3.60312,5.05912,5.17891,1.89775,1.65194,4.02674,2.81345,6.15665.255-1.57229-3.90915.95541-5.20935,3.708-6.2151,14.75717-5.3919,29.44166-4.53953,44.02255,1.07129,15.25609,5.87059,28.47465,15.66845,42.13638,24.53536,7.32373,4.75329,15.09237,9.1,20.71218,16.31334a12.67377,12.67377,0,0,1,3.90367,5.43144c-1.66189.764-3.35863,1.43051-4.95338,2.29926-4.23867,2.309-7.425,4.72134-6.675,11.06089.842,7.1191.37144,14.48133-.22376,21.67005-.61818,7.46946-2.07608,14.89423-10.1975,17.79168-8.35594,2.981-13.75414-2.22492-18.90491-7.84607a61.804,61.804,0,0,1-3.882-5.10112c-.72122-.97485-1.19368-2.46061-2.68984-2.10891-1.47.3456-2.12382,1.60474-2.54941,3.10814a10.3149,10.3149,0,0,0,.44224,7.30209c2.53,5.97752,7.59059,9.22532,12.80824,13.44172a124.20619,124.20619,0,0,1-24.63447,5.48393c-18.146,2.35532-35.43482-1.3731-51.90937-9.50711a18.78364,18.78364,0,0,1-8.09743-7.38311c-2.04014-3.45342-4.03084-7.17172-8.06986-9.572-1.26238,4.834.37129,8.91461,2.20552,12.59491a97.937,97.937,0,0,0,16.49029,23.67829c8.73338,9.24859,18.93446,17.40572,24.11615,29.58875,8.03389,18.88927,6.74141,42.33724-15.72115,52.14677-5.727,2.501-11.21683,5.58077-16.87828,8.25129-7.86143,3.70819-12.67356,9.907-13.78776,18.84585a46.56972,46.56972,0,0,0,.00514,11.89713c.58208,4.27949-1.17518,5.97957-4.72064,6.7258-3.72658.78431-7.43258,1.67421-11.16608,2.42038-3.74214.7481-6.07623-.33478-7.06851-4.76273-1.45622-6.49764-3.58488-12.83544-5.54737-19.66012-2.781,5.65436-1.96934,11.34379-1.51783,17.01175.67631,8.49147,2.02174,8.02828-7.17139,8.56233-6.04128.35095-12.11107.20848-18.16584.36022a4.40532,4.40532,0,0,1-2.8377-.63155l.89206,11.45036a171.37322,171.37322,0,0,0,17.50992.32407c29.16912-.9849,56.76892-8.41315,81.982-23.23955a212.28407,212.28407,0,0,0,38.31739-28.83646,22.61129,22.61129,0,0,1,.9363-2.202c.53212-1.08455,1.09415-2.158,1.64159-3.2338.11723-.2303.2029-.42092.26331-.55964.11611-.6698.26338-1.58716.20412-.07156a11.75086,11.75086,0,0,1,1.15577-4.82724,33.22969,33.22969,0,0,0,.12592-7.42679,8.5722,8.5722,0,0,1,.54958-4.37617c-.13308-4.95912-.271-9.79349-.36447-14.62081a154.28822,154.28822,0,0,0-8.46846-48.80852c-.84136-2.37955-1.46193-3.719,1.87951-4.39883a161.41861,161.41861,0,0,0,41.96452-14.66565,21.46122,21.46122,0,0,1,6.44325-2.519,8.93119,8.93119,0,0,1,1.33538-.23892,39.71153,39.71153,0,0,0,14.03793-3.86389,6.17181,6.17181,0,0,1,.84347-1.80744c3.47669-4.8112,5.30043-10.34618,6.71341-16.08756q.30872-9.09185.61078-18.18391a59.09305,59.09305,0,0,0-2.00427-8.0363C225.31593,123.82158,222.83553,119.49851,221.173,114.822ZM135.99479,57.09851c-1.29447-.3283-1.813-1.264-1.06425-2.36731,1.53658-2.26462,2.51854-5.55842,5.84373-5.39046,3.09906.15661,4.93192,2.36232,5.61039,5.51764.32713,1.52211.59518,3.05768.99078,5.11032C143.25161,58.92938,139.62215,58.01845,135.99479,57.09851Zm80.54466,100.11878a12.70636,12.70636,0,0,1-2.00008,4.3475c-1.09643,1.8408-2.34029,3.98049-4.82821,3.19779-2.27595-.716-2.06116-3.19013-2.15714-5.0861a154.96646,154.96646,0,0,0-2.57594-23.70429c-.51705-2.49629-.656-4.83889,2.90188-4.57388,3.88783.28963,4.56813-3.58943,7.25831-6.81206C216.29031,136.19151,218.06833,146.61856,216.53945,157.21729ZM9.45937,181.74991l-4.7756,2.75421,5.69059,9.52046-.33345-11.98475Z"/>
          <path class="cls-5" d="M79.536,98.03177c1.08524-4.6881-1.72847-7.32463-4.863-9.607-3.68194-2.68113-7.41764-5.27439-10.43014-8.79924-1.25455-1.46794-2.44035-3.05851-2.44668-5.1975,2.55264,1.14775,3.037.08416,2.44249-2.38982-.82319-3.42638-1.7697-6.87722-.29628-10.35747a8.61234,8.61234,0,0,1,1.11062,2.452c.99218,10.21349,8.411,15.24994,15.17337,20.84091,1.80063,1.48874,3.9727,2.21971,5.7356.90732,1.54587-1.15084.608-3.44708.06517-5.08171C84.8375,77.217,83.3655,73.736,82.00883,70.21354q2.20313.13569,4.4063.27131c1.67282,1.74209,3.24255,3.61425,5.04676,5.19056,1.89126,1.65244,4.01276,2.81454,6.13286.25444.84623-.15138,1.69724-.28232,2.54088-.45231,12.69364-2.55831,25.38536-5.38877,38.30714-1.18657,11.13462,3.621,21.32928,9.49539,30.99955,16.07381,6.09372,4.14529,13.7643,6.74749,17.06446,14.68563.13473.32411,1.24288.42445,1.82949.29673,5.63466-1.22662,10.00465,1.5487,14.28777,4.82763,1.48017,1.1332,3.04,2.561,5.15516,1.49307a12.68224,12.68224,0,0,1,3.891,5.4324c-1.65556.76354-3.34589,1.42952-4.93459,2.2978-4.22238,2.30778-7.39633,4.71914-6.64743,11.05877.841,7.11918.37421,14.48111-.21662,21.66946-.61383,7.46912-2.06432,14.89331-10.155,17.78837-8.32434,2.97858-13.70426-2.2288-18.83767-7.85131a61.78286,61.78286,0,0,1-3.86921-5.10211c-.71891-.975-1.19007-2.4609-2.6807-2.10963-1.46438.34517-2.11555,1.60413-2.53916,3.10734a10.3507,10.3507,0,0,0,.44272,7.30209c2.52259,5.97806,7.56547,9.22724,12.76511,13.44508a123.32142,123.32142,0,0,1-24.5425,5.47673c-18.07858,2.35007-35.305-1.38319-51.72139-9.52176a18.75448,18.75448,0,0,1-8.0698-7.38523c-2.0337-3.45391-4.01815-7.17274-8.043-9.57414-1.25637,4.83355.37248,8.91449,2.201,12.59527a98.02368,98.02368,0,0,0,16.43656,23.68244c8.704,9.25091,18.8699,17.41078,24.03605,29.595,8.00973,18.89119,6.72877,42.33826-15.64842,52.14114-5.70534,2.49932-11.17411,5.57745-16.81407,8.2463-7.83143,3.70584-12.624,9.90319-13.73166,18.84148a46.73752,46.73752,0,0,0,.00852,11.89686c.58116,4.27956-1.16915,5.9791-4.70137,6.7243-3.71267.78323-7.40481,1.672-11.12438,2.41713-3.72825.747-6.054-.33651-7.044-4.76464-1.45267-6.49792-3.57526-12.83619-5.53257-19.66128-2.76924,5.65345-1.95879,11.343-1.50738,17.01094.67626,8.49147,2.01655,8.02868-7.1426,8.56009-6.019.34922-12.06651.205-18.09906.355-2.41.05987-3.79773-.57134-4.02629-3.54175q-4.37635-56.87356-8.92488-113.72867c2.997-2.89415,5.90384-5.90367,9.01279-8.66348,3.56648-3.166,8.40927-7.57566,11.92114-6.63037,5.74492,1.54629,7.087-2.58861,10.00112-4.82813,1.342-1.03131,2.20145-2.74509,3.29378-4.13739,9.11228-11.61474,11.24346-26.14427,14.67526-40.04826a142.44764,142.44764,0,0,1,11.80844-32.12729C74.1587,106.9597,78.67448,103.63942,79.536,98.03177ZM115.36837,88.76c-5.73965.08745-10.73276,4.583-16.93239,4.4653-1.474-.02793-2.61182,1.8106-2.4666,3.567.12887,1.5589.8128,3.66521,2.4392,3.56027,4.85925-.31352,5.05618,3.13233,6.06285,6.69,2.04773,7.23624,8.90948,11.07274,15.38878,9.14718,7.476-2.22176,11.89333-8.65594,10.54931-15.3658C128.913,93.35254,122.131,87.76776,115.36837,88.76Zm70.47592,29.7227c-3.30238.33024-4.88544,2.29084-4.66483,5.7238.21735,3.38211,6.321,9.95658,8.95323,9.162,2.73208-.82484,5.30485-2.87429,5.46981-6.26539C195.79938,123.05453,189.97042,118.14085,185.84429,118.48267Z"/>
          <path class="cls-5" d="M215.18523,124.5826c1.15113,11.60529,2.92572,22.03264,1.40544,32.6307a12.72058,12.72058,0,0,1-1.99143,4.34683c-1.09188,1.84045-2.33069,3.97974-4.80963,3.19635-2.2678-.71666-2.05444-3.1907-2.15061-5.08661a155.54471,155.54471,0,0,0-2.57333-23.7045c-.51587-2.49641-.65489-4.839,2.88992-4.573C211.82922,131.68316,212.50591,127.80438,215.18523,124.5826Z"/>
          <path class="cls-5" d="M147.6529,59.94709c-4.10911-1.04046-7.72544-1.95245-11.33975-2.87341-1.2898-.32866-1.80664-1.26452-1.06107-2.36756,1.53028-2.26413,2.50782-5.55758,5.82085-5.38865,3.08766.15751,4.91448,2.36365,5.59123,5.5191C146.99059,56.35874,147.2581,57.89439,147.6529,59.94709Z"/>
          <path class="cls-6" d="M115.36837,88.76c6.76265-.99221,13.54463,4.59257,15.04115,12.06392,1.344,6.70986-3.07335,13.144-10.54931,15.3658-6.4793,1.92556-13.341-1.91094-15.38878-9.14718-1.00667-3.55763-1.2036-7.00348-6.06285-6.69-1.6264.10494-2.31033-2.00137-2.4392-3.56027-.14522-1.75641.99257-3.59494,2.4666-3.567C104.63561,93.343,109.62872,88.84742,115.36837,88.76Zm2.54659,15.65422a4.71788,4.71788,0,0,0,3.08567-4.68663c-.09017-2.11778-1.28767-3.31781-3.30719-3.17971-3.01844.20642-3.29383,2.668-3.232,5.043C114.50311,103.19181,114.91632,104.887,117.915,104.41419Z"/>
          <path class="cls-6" d="M76.37705,63.05876q2.82395,3.58705,5.63977,7.16444C83.3655,73.736,84.8375,77.217,86.02716,80.79926c.54284,1.63463,1.4807,3.93087-.06517,5.08171-1.7629,1.31239-3.935.58142-5.7356-.90732C73.464,79.38268,66.0452,74.34623,65.053,64.13274a8.61234,8.61234,0,0,0-1.11062-2.452c3.58828-3.14816,6.96089.302,10.44044.44313.1794.53829.49179.813,1.05511.58521A.99128.99128,0,0,0,76.37705,63.05876Z"/>
          <path class="cls-6" d="M185.84429,118.48267c4.12613-.34182,9.95509,4.57186,9.75821,8.62037-.165,3.3911-2.73773,5.44055-5.46981,6.26539-2.6322.79462-8.73588-5.77985-8.95323-9.162C180.95885,120.77351,182.54191,118.81291,185.84429,118.48267Z"/>
        </g>
      </g>
    </g>
  </g>
</svg>
