<svg xmlns="http://www.w3.org/2000/svg" viewBox="0 0 572.59843 147.40157">
  <defs>
    <style>
      .cls-1 {
        fill: #009a3f;
      }

      .cls-2 {
        fill: #005627;
      }
    </style>
  </defs>
  <title>Logo Capiwara Comida Fit</title>
  <g id="Camada_1" data-name="Camada 1">
    <g>
      <g>
        <path class="cls-1" d="M48.63605,29.186c-16.91711,0-27.94435,14.97317-27.94435,36.06353,0,21.08947,11.02724,36.06354,27.94435,36.06354,11.96765,0,20.9271-7.52172,25.12545-19.26242l15.22512,9.91275C81.5308,108.55368,66.8689,119.0286,48.63605,119.0286c-26.81651,0-45.8014-22.56606-45.8014-53.77909,0-31.28329,18.98489-53.77908,45.8014-53.77908,18.23285,0,32.89475,10.47491,40.35057,27.06522L73.7615,48.44749C69.56315,36.63743,60.6037,29.186,48.63605,29.186Z"/>
        <path class="cls-1" d="M82.87457,90.13521c.605-15.139,14.68257-26.109,33.37321-25.37336a27.25585,27.25585,0,0,1,14.13693,4.27186l.02419-.60532c.363-9.08379-3.7216-13.94518-13.7346-14.33931a37.49731,37.49731,0,0,0-17.0175,3.165,5.157,5.157,0,0,1-6.77949-2.47265L89.68383,48.0819a5.09023,5.09023,0,0,1,2.33827-6.75671,52.74489,52.74489,0,0,1,25.37517-5.327c18.0901.71206,31.99984,8.99255,30.94106,35.48629l-.95593,23.92012c-.125,3.12921.81876,5.72514,2.8595,7.09353a5.12055,5.12055,0,0,1,2.1254,5.64956l-2.10738,7.42332a5.16529,5.16529,0,0,1-6.65129,3.45211,22.43046,22.43046,0,0,1-7.96567-4.72261,5.152,5.152,0,0,0-6.39317-.35677,29.624,29.624,0,0,1-18.10227,4.826C92.45688,118.034,82.26952,105.27518,82.87457,90.13521Zm32.70769-8.72007c-9.34557-.36786-14.42738,2.996-14.66936,9.05116-.242,6.05619,4.5524,9.88355,13.898,10.25141,8.34417.32844,14.43037-3.07064,14.67239-9.12683C129.72524,85.53567,124.92733,81.783,115.58226,81.41514Z"/>
        <path class="cls-1" d="M167.24845,144.16339l-13.2988.40243a2.35888,2.35888,0,0,1-2.43747-2.27591L148.40893,41.28123a2.35623,2.35623,0,0,1,2.29322-2.419L163.33281,38.48a2.35889,2.35889,0,0,1,2.43747,2.2759h0a2.36271,2.36271,0,0,0,3.96493,1.6524A23.21663,23.21663,0,0,1,184.741,36.04569c20.03244-.60619,33.28865,15.36313,33.982,37.93225s-11.55787,39.3103-31.59031,39.91649a21.102,21.102,0,0,1-14.62362-5.41949,2.367,2.367,0,0,0-3.93343,1.82542l.966,31.444A2.35624,2.35624,0,0,1,167.24845,144.16339Zm17.15391-47.34376c10.617-.32127,16.68657-9.44094,16.29163-22.29613-.395-12.85611-7.01316-21.59184-17.63012-21.27057-10.3498.31319-16.36347,9.07387-15.9685,21.93C167.49032,88.0381,173.85231,97.13888,184.40236,96.81963Z"/>
        <g>
          <path class="cls-1" d="M223.02708,37.52131h8.54231a5.46452,5.46452,0,0,1,5.48512,5.44368v67.89909a5.46452,5.46452,0,0,1-5.48512,5.44368h-8.54231a5.46452,5.46452,0,0,1-5.48511-5.44368V42.965A5.46452,5.46452,0,0,1,223.02708,37.52131Z"/>
          <path class="cls-1" d="M237.87392,2.83465c.3319.78663.6368,1.47191.9086,2.15976A41.853,41.853,0,0,1,241.56437,15.269a14.31362,14.31362,0,0,1-1.71073,9.3831,15.58641,15.58641,0,0,1-7.51412,6.243c-1.34.56891-2.82949.9545-4.249,1.4262a1.68325,1.68325,0,0,1-.56273.134c-.63047-6.959,1.03386-13.11951,3.717-18.962-.78884.34982-3.75875,3.71112-4.71377,5.3128a19.271,19.271,0,0,0-2.39239,6.612,38.16411,38.16411,0,0,0-.44144,7.23157l-.12576.02271c-.6411-.6842-1.31741-1.35226-1.91727-2.05537-2.76367-3.23932-4.53812-6.62443-4.831-10.20323a10.92355,10.92355,0,0,1,1.52119-6.5728c2.08177-3.54976,5.551-5.94434,9.63121-7.83256A42.91653,42.91653,0,0,1,237.013,3.061C237.28425,3.00281,237.54282,2.92241,237.87392,2.83465Z"/>
        </g>
      </g>
      <g>
        <path class="cls-1" d="M339.35267,89.95607c.69541-15.1356,14.9525-26.0344,33.79525-25.20447a27.63322,27.63322,0,0,1,14.231,4.34305l.02781-.60519c.41726-9.08175-3.67409-13.96362-13.76858-14.40823a38.22169,38.22169,0,0,0-16.82843,2.92649,5.62785,5.62785,0,0,1-7.32486-2.67794l-2.89617-6.11152a5.38151,5.38151,0,0,1,2.56547-7.1706,53.62629,53.62629,0,0,1,25.315-5.05331c18.23731.80327,32.21665,9.15371,30.99966,35.64149l-1.09878,23.91475c-.139,3.0266.73343,5.55915,2.64663,6.9692a5.55524,5.55524,0,0,1,2.24484,6.01515l-1.9993,6.83937a5.55847,5.55847,0,0,1-7.208,3.64017,22.60669,22.60669,0,0,1-7.4278-4.444,5.64729,5.64729,0,0,0-6.87489-.4209,30.14709,30.14709,0,0,1-18.051,4.58284C348.8578,117.90251,338.65721,105.09264,339.35267,89.95607ZM372.383,81.40115c-9.42162-.415-14.56488,2.92312-14.843,8.977-.27819,6.05482,4.53474,9.90627,13.95636,10.32125,8.41207.37051,14.56831-2.9978,14.8465-9.05262C386.62093,85.5929,381.80407,81.8161,372.383,81.40115Z"/>
        <path class="cls-1" d="M446.26729,91.07778c.20065-15.14963,14.09445-26.4893,32.95466-26.24983a27.66278,27.66278,0,0,1,14.36561,3.89519l.008-.60575c.12039-9.09016-4.12834-13.84142-14.23218-13.96971a38.23463,38.23463,0,0,0-16.60316,3.39558,5.7806,5.7806,0,0,1-7.58839-2.505L452.204,49.26643a5.54639,5.54639,0,0,1,2.4788-7.49019,53.61319,53.61319,0,0,1,24.9204-5.7322c18.25422.23177,32.49917,8.14019,32.148,34.65253l-.317,23.93692c-.04012,3.02941.91464,5.53334,2.87292,6.88276a5.56194,5.56194,0,0,1,2.44018,5.94178l-1.73355,6.73784a5.76165,5.76165,0,0,1-7.53314,3.88593,22.60837,22.60837,0,0,1-6.95992-3.90043,5.8934,5.8934,0,0,0-7.088-.37537,30.11672,30.11672,0,0,1-17.892,5.14575C456.68043,118.71228,446.06662,106.22838,446.26729,91.07778Zm32.73394-9.58485c-9.43036-.11974-14.462,3.37771-14.5422,9.43717-.08027,6.06044,4.856,9.75921,14.28636,9.879,8.41987.1069,14.46293-3.45246,14.5432-9.5129C493.36885,85.23669,488.43109,81.61266,479.00123,81.49293Z"/>
        <path class="cls-1" d="M438.3947,55.55467c-10.43814.24827-14.11142,7.00434-13.8014,19.5002l1.01311,40.83464a2.50955,2.50955,0,0,1-2.47637,2.54535l-13.10684.31173a2.51576,2.51576,0,0,1-2.59967-2.42462l-1.83082-73.79324a2.50956,2.50956,0,0,1,2.47637-2.54535l12.299-.29252a2.51578,2.51578,0,0,1,2.59968,2.42462h0a2.54051,2.54051,0,0,0,4.29665,1.72373,22.42348,22.42348,0,0,1,15.2593-6.569,28.59325,28.59325,0,0,1,10.2607,1.45282A2.45952,2.45952,0,0,1,454.3582,41.611l-3.33849,14.14319a2.55146,2.55146,0,0,1-3.72006,1.5961A17.50312,17.50312,0,0,0,438.3947,55.55467Z"/>
        <path class="cls-1" d="M564.45422,59.91514l-6.73212,2.45775a5.74556,5.74556,0,0,1-6.95495-2.58875c-1.63715-2.87813-4.5895-4.85367-9.90159-5.00176-6.80121-.18961-9.64326,2.5351-9.75338,6.32178s2.45166,6.055,9.33716,7.99034c17.58181,4.886,29.78084,9.47033,29.30076,25.97857-.48006,16.50728-13.72065,24.551-30.75642,24.076-13.31927-.37133-23.25232-7.19881-27.61745-16.71557a5.50449,5.50449,0,0,1,3.17964-7.46722l6.90077-2.51747a5.77514,5.77514,0,0,1,6.98493,2.63858c1.8841,3.30852,5.40273,5.65313,11.08285,5.81149,8.08029.22527,11.91268-1.79,12.04479-6.33269.13214-4.54362-4.79832-6.50019-11.61536-8.4336C522.7715,81.4093,512.51728,74.83373,512.93129,60.5973c.41182-14.16074,11.62845-24.45777,28.46279-23.98845,14.0351.39128,22.45431,7.15778,26.32975,16.06149A5.45982,5.45982,0,0,1,564.45422,59.91514Z"/>
      </g>
      <path class="cls-2" d="M239.146,37.52131h13.81942a3.06823,3.06823,0,0,1,2.98793,2.31148l9.621,38.72285a3.08724,3.08724,0,0,0,5.96354.04783L281.86437,39.785A3.06915,3.06915,0,0,1,284.84,37.52131h14.46412a3.06951,3.06951,0,0,1,2.97071,2.24541l10.63953,39.00481a3.08737,3.08737,0,0,0,5.95863-.06607l9.65823-38.87267a3.06823,3.06823,0,0,1,2.98793-2.31148h13.88273a3.04233,3.04233,0,0,1,2.96622,3.8373l-20.27646,72.72a3.06982,3.06982,0,0,1-2.96622,2.22914h-17.1872a3.06934,3.06934,0,0,1-2.97321-2.25462l-9.82394-36.47182a3.08785,3.08785,0,0,0-5.94113-.01933l-10.09647,36.51048a3.06969,3.06969,0,0,1-2.96792,2.23529H259.29192a3.06972,3.06972,0,0,1-2.96756-2.234l-20.14592-72.72A3.0424,3.0424,0,0,1,239.146,37.52131Z"/>
    </g>
  </g>
</svg>
