<svg width="306" height="75" viewBox="0 0 306 75" fill="none" xmlns="http://www.w3.org/2000/svg">
<path d="M25.1146 13.9442C16.1679 13.9442 10.336 21.8675 10.336 33.0278C10.336 44.1876 16.1679 52.1114 25.1146 52.1114C31.4438 52.1114 36.1821 48.1312 38.4024 41.9184L46.4543 47.1639C42.5113 55.9429 34.7572 61.4859 25.1146 61.4859C10.9325 61.4859 0.892212 49.5447 0.892212 33.0278C0.892212 16.4738 10.9325 4.56976 25.1146 4.56976C34.7572 4.56976 42.5113 10.1127 46.4543 18.8917L38.4024 24.1368C36.1821 17.8873 31.4438 13.9442 25.1146 13.9442Z" fill="white"/>
<path d="M43.222 46.1965C43.5419 38.1854 50.987 32.3805 60.8716 32.7697C63.5242 32.8205 66.1113 33.6027 68.3481 35.0303L68.3609 34.71C68.5528 29.9031 66.3927 27.3306 61.0972 27.1221C58.0078 26.9704 54.9257 27.544 52.0974 28.7969C51.4475 29.0914 50.7081 29.1193 50.0379 28.8747C49.3676 28.6301 48.8198 28.1324 48.512 27.4884L46.8231 23.9433C46.5182 23.3043 46.477 22.5709 46.7084 21.9018C46.9398 21.2326 47.4253 20.6816 48.0597 20.3679C52.2289 18.3256 56.8415 17.3567 61.4796 17.549C71.0466 17.9258 78.4029 22.3075 77.843 36.3271L77.3374 48.9848C77.2713 50.6407 77.7704 52.0144 78.8497 52.7385C79.3294 53.0534 79.6967 53.5126 79.8988 54.0499C80.1008 54.5872 80.127 55.1748 79.9737 55.728L78.8592 59.6562C78.7566 60.0127 78.5825 60.3446 78.3476 60.6316C78.1126 60.9186 77.8217 61.1548 77.4926 61.3257C77.1635 61.4966 76.8031 61.5987 76.4333 61.6257C76.0635 61.6527 75.6921 61.6042 75.3416 61.4829C73.779 60.9522 72.3442 60.101 71.1289 58.9839C70.6693 58.5754 70.0851 58.3344 69.4713 58.3001C68.8574 58.2659 68.2501 58.4403 67.7479 58.7951C64.9168 60.6602 61.5576 61.5563 58.1743 61.3489C48.2897 60.9595 42.902 54.208 43.222 46.1965ZM60.5197 41.5821C55.5772 41.3874 52.8897 43.1675 52.7617 46.3717C52.6337 49.5764 55.1692 51.6017 60.1117 51.7964C64.5246 51.9701 67.7433 50.1715 67.8713 46.9667C67.9993 43.7625 65.4619 41.7768 60.5197 41.5821Z" fill="white"/>
<path d="M87.8437 74.7863L80.8105 74.9993C80.48 75.0105 80.1585 74.8899 79.9168 74.6641C79.6751 74.4383 79.5329 74.1257 79.5214 73.7949L77.8803 20.3446C77.8759 20.1809 77.9037 20.0179 77.9623 19.8649C78.0209 19.7119 78.109 19.572 78.2216 19.4532C78.3342 19.3343 78.4692 19.2388 78.6187 19.1721C78.7682 19.1054 78.9294 19.0689 79.0931 19.0646L85.7729 18.8623C86.1034 18.8511 86.4249 18.9716 86.6666 19.1975C86.9083 19.4233 87.0505 19.7359 87.062 20.0666C87.0703 20.3058 87.1472 20.5376 87.2833 20.7344C87.4195 20.9313 87.6092 21.0848 87.83 21.1769C88.0509 21.269 88.2935 21.2957 88.529 21.2539C88.7646 21.2121 88.9832 21.1035 89.1588 20.941C91.3106 18.896 94.1297 17.6999 97.0948 17.5741C107.689 17.2534 114.7 25.7038 115.066 37.6466C115.433 49.5894 108.954 58.4483 98.3596 58.769C95.5103 58.8363 92.7432 57.8102 90.6258 55.9012C90.4435 55.7401 90.2181 55.6356 89.9774 55.6005C89.7366 55.5654 89.4908 55.6014 89.2701 55.7038C89.0494 55.8063 88.8634 55.9709 88.7347 56.1775C88.606 56.3841 88.5403 56.6238 88.5456 56.8672L89.0565 73.5063C89.0609 73.67 89.033 73.833 88.9745 73.986C88.9159 74.1389 88.8278 74.2788 88.7151 74.3977C88.6025 74.5166 88.4676 74.6121 88.3181 74.6788C88.1685 74.7455 88.0073 74.782 87.8437 74.7863ZM96.9157 49.7336C102.531 49.5636 105.74 44.7378 105.532 37.9353C105.323 31.1323 101.823 26.5096 96.2078 26.6796C90.7342 26.8454 87.5539 31.4812 87.7627 38.2842C87.9716 45.0867 91.3362 49.9026 96.9157 49.7336Z" fill="white"/>
<path d="M117.343 18.355H121.86C122.627 18.3521 123.363 18.654 123.907 19.1942C124.451 19.7344 124.758 20.4687 124.761 21.2356V57.1655C124.758 57.9324 124.451 58.6667 123.907 59.2069C123.363 59.7471 122.627 60.049 121.86 60.0461H117.343C116.576 60.049 115.84 59.7471 115.296 59.2069C114.752 58.6667 114.445 57.9324 114.442 57.1655V21.2356C114.445 20.4687 114.752 19.7344 115.296 19.1942C115.84 18.654 116.576 18.3521 117.343 18.355Z" fill="white"/>
<path d="M125.194 0C125.37 0.416258 125.531 0.778884 125.675 1.14287C126.395 2.88515 126.889 4.71225 127.146 6.57983C127.421 8.28973 127.101 10.0421 126.241 11.545C125.305 13.0439 123.912 14.202 122.268 14.8486C121.559 15.1497 120.771 15.3537 120.02 15.6033C119.926 15.644 119.825 15.668 119.723 15.6742C119.389 11.9918 120.27 8.73184 121.689 5.64019C121.271 5.82531 119.701 7.60399 119.196 8.45154C118.563 9.53032 118.134 10.7163 117.93 11.9504C117.731 13.2157 117.653 14.497 117.697 15.7771L117.63 15.7891C117.291 15.427 116.934 15.0735 116.616 14.7015C115.155 12.9873 114.216 11.1961 114.062 9.30227C113.956 8.08701 114.238 6.86956 114.866 5.82417C115.967 3.94576 117.802 2.67863 119.96 1.67945C121.49 0.984073 123.093 0.460974 124.739 0.119777C124.883 0.0889845 125.019 0.0464396 125.194 0Z" fill="white"/>
<path d="M179.166 46.1017C179.534 38.0924 187.074 32.3252 197.039 32.7643C199.711 32.8275 202.314 33.6224 204.565 35.0625L204.58 34.7423C204.801 29.9365 202.637 27.3532 197.299 27.1179C194.253 26.9558 191.211 27.4852 188.399 28.6665C187.695 28.9767 186.899 29.0024 186.177 28.7383C185.455 28.4741 184.863 27.9406 184.525 27.2495L182.993 24.0155C182.833 23.6772 182.741 23.3107 182.723 22.9369C182.704 22.563 182.76 22.1892 182.886 21.8368C183.012 21.4844 183.206 21.1603 183.457 20.883C183.708 20.6058 184.012 20.3808 184.35 20.221C188.529 18.2522 193.124 17.3343 197.738 17.547C207.383 17.972 214.776 22.3908 214.132 36.4072L213.551 49.0621C213.478 50.6637 213.939 52.0038 214.951 52.75C215.454 53.0923 215.838 53.5824 216.051 54.1525C216.263 54.7226 216.294 55.3447 216.138 55.933L215.081 59.5521C214.967 59.9354 214.775 60.2912 214.519 60.598C214.262 60.9048 213.946 61.156 213.589 61.3363C213.233 61.5165 212.843 61.6221 212.444 61.6466C212.045 61.671 211.645 61.6138 211.269 61.4784C209.82 60.955 208.486 60.1565 207.341 59.1268C206.844 58.6936 206.218 58.4369 205.561 58.3966C204.903 58.3563 204.251 58.5347 203.705 58.904C200.858 60.7003 197.517 61.5491 194.158 61.3291C184.193 60.89 178.799 54.1114 179.166 46.1017ZM196.635 41.5747C191.652 41.3551 188.932 43.1215 188.785 46.325C188.638 49.529 191.183 51.5671 196.166 51.7867C200.615 51.9827 203.87 50.2003 204.018 46.9963C204.165 43.7928 201.617 41.7943 196.635 41.5747Z" fill="white"/>
<path d="M237.249 46.6952C237.356 38.6786 244.703 32.678 254.678 32.8047C257.351 32.7844 259.978 33.4973 262.275 34.8659L262.279 34.5454C262.343 29.7352 260.096 27.221 254.753 27.1531C251.728 27.0873 248.728 27.7013 245.972 28.9499C245.261 29.2885 244.447 29.3397 243.699 29.0927C242.952 28.8458 242.328 28.3198 241.959 27.6244L240.389 24.5701C240.213 24.2242 240.107 23.8467 240.077 23.4595C240.048 23.0723 240.095 22.6831 240.217 22.3144C240.339 21.9458 240.533 21.605 240.788 21.3118C241.042 21.0186 241.352 20.7789 241.7 20.6066C245.784 18.5466 250.306 17.506 254.879 17.5733C264.533 17.6959 272.067 21.8808 271.881 35.9102L271.713 48.5768C271.692 50.1799 272.197 51.5049 273.233 52.2189C273.746 52.5451 274.146 53.0227 274.378 53.5858C274.609 54.1489 274.66 54.7698 274.523 55.3631L273.607 58.9285C273.495 59.335 273.3 59.7139 273.035 60.0413C272.77 60.3687 272.44 60.6375 272.065 60.8307C271.691 61.024 271.28 61.1374 270.86 61.1639C270.44 61.1905 270.018 61.1295 269.623 60.9848C268.283 60.5206 267.037 59.8218 265.942 58.9209C265.423 58.4847 264.777 58.2294 264.101 58.1936C263.424 58.1577 262.755 58.3433 262.193 58.7222C259.406 60.607 256.093 61.5603 252.731 61.4452C242.757 61.3185 237.143 54.7124 237.249 46.6952ZM254.561 41.6233C249.574 41.5599 246.913 43.4106 246.87 46.6171C246.828 49.8241 249.438 51.7813 254.426 51.8447C258.879 51.9013 262.075 50.0178 262.117 46.8108C262.159 43.6043 259.548 41.6866 254.561 41.6233Z" fill="white"/>
<path d="M233.086 27.8976C227.566 28.029 225.623 31.6041 225.787 38.2165L226.323 59.8248C226.325 59.9993 226.293 60.1726 226.229 60.3347C226.164 60.4969 226.069 60.6447 225.947 60.7698C225.825 60.8949 225.68 60.9948 225.52 61.0638C225.36 61.1327 225.188 61.1694 225.013 61.1717L218.082 61.3366C217.729 61.3486 217.387 61.2202 217.129 60.9797C216.871 60.7391 216.719 60.4061 216.707 60.0536L215.738 21.0047C215.736 20.8302 215.768 20.6569 215.832 20.4948C215.897 20.3326 215.993 20.1848 216.114 20.0597C216.236 19.9346 216.381 19.8347 216.541 19.7657C216.701 19.6968 216.874 19.6601 217.048 19.6578L223.552 19.503C223.905 19.4911 224.247 19.6194 224.505 19.86C224.763 20.1005 224.915 20.4336 224.927 20.7861C224.939 21.0444 225.024 21.294 225.173 21.505C225.323 21.716 225.53 21.8794 225.769 21.9757C226.009 22.0719 226.272 22.097 226.525 22.0477C226.779 21.9985 227.013 21.8772 227.2 21.6982C229.346 19.5484 232.234 18.3042 235.27 18.2221C237.11 18.1455 238.949 18.4061 240.696 18.9909C240.999 19.0979 241.251 19.3132 241.405 19.5953C241.559 19.8775 241.603 20.2065 241.528 20.5191L239.763 28.0032C239.712 28.2039 239.615 28.3901 239.481 28.5475C239.346 28.7048 239.177 28.8292 238.987 28.9108C238.797 28.9925 238.591 29.0292 238.384 29.0183C238.177 29.0074 237.976 28.949 237.795 28.8478C236.337 28.1219 234.712 27.7941 233.086 27.8976Z" fill="white"/>
<path d="M302.3 30.205L298.739 31.5056C298.063 31.7493 297.323 31.7453 296.65 31.4946C295.976 31.2438 295.413 30.7623 295.061 30.1357C294.195 28.6127 292.634 27.5673 289.825 27.489C286.228 27.3886 284.725 28.8305 284.667 30.8342C284.608 32.838 285.963 34.0383 289.605 35.0624C298.903 37.648 305.354 40.0738 305.1 48.8094C304.847 57.5445 297.844 61.801 288.835 61.5496C281.791 61.3531 276.538 57.7403 274.229 52.7043C274.062 52.3366 273.973 51.9382 273.969 51.5343C273.964 51.1305 274.043 50.7301 274.201 50.3585C274.359 49.9869 274.593 49.6523 274.887 49.3759C275.181 49.0995 275.53 48.8873 275.911 48.7529L279.56 47.4207C280.241 47.1783 280.987 47.1855 281.663 47.4412C282.339 47.6969 282.903 48.1844 283.254 48.817C284.251 50.5677 286.111 51.8084 289.115 51.8922C293.389 52.0114 295.416 50.945 295.485 48.5412C295.555 46.1369 292.948 45.1015 289.343 44.0784C280.255 41.579 274.832 38.0995 275.051 30.566C275.269 23.0726 281.201 17.6238 290.104 17.8722C297.527 18.0792 301.979 21.6598 304.029 26.3713C304.179 26.7355 304.253 27.1265 304.247 27.5204C304.24 27.9143 304.153 28.3027 303.992 28.6618C303.83 29.0208 303.596 29.3429 303.305 29.6083C303.014 29.8737 302.672 30.0768 302.3 30.205Z" fill="white"/>
<path d="M125.36 18.355H132.668C133.03 18.3533 133.382 18.4727 133.669 18.6944C133.955 18.916 134.159 19.2271 134.248 19.5781L139.336 40.0689C139.427 40.417 139.629 40.7255 139.913 40.9466C140.196 41.1677 140.544 41.2892 140.904 41.292C141.263 41.2949 141.613 41.1791 141.9 40.9626C142.187 40.746 142.394 40.4408 142.49 40.0943L147.952 19.5528C148.045 19.2076 148.25 18.9031 148.535 18.6865C148.82 18.4699 149.168 18.3533 149.525 18.355H157.175C157.531 18.3534 157.877 18.4688 158.161 18.6835C158.445 18.8982 158.65 19.2002 158.746 19.5432L164.373 40.1832C164.47 40.5283 164.679 40.8316 164.966 41.0463C165.253 41.2611 165.603 41.3753 165.962 41.3713C166.32 41.3673 166.667 41.2454 166.95 41.0243C167.232 40.8033 167.434 40.4954 167.524 40.1482L172.632 19.5781C172.721 19.2271 172.925 18.916 173.211 18.6944C173.498 18.4727 173.85 18.3533 174.212 18.355H181.554C181.802 18.3526 182.048 18.4078 182.272 18.5162C182.495 18.6247 182.691 18.7835 182.842 18.9802C182.994 19.1769 183.099 19.4062 183.147 19.65C183.196 19.8938 183.187 20.1456 183.123 20.3855L172.399 58.8665C172.302 59.2074 172.096 59.5073 171.813 59.7202C171.53 59.9332 171.185 60.0476 170.83 60.0461H161.741C161.384 60.0477 161.037 59.9317 160.753 59.7161C160.468 59.5004 160.263 59.1971 160.168 58.853L154.973 39.5534C154.877 39.211 154.672 38.9092 154.389 38.6939C154.107 38.4786 153.761 38.3615 153.406 38.3603C153.05 38.3591 152.704 38.474 152.42 38.6875C152.136 38.9009 151.929 39.2014 151.831 39.5431L146.491 58.8632C146.395 59.2049 146.189 59.5056 145.906 59.7192C145.622 59.9329 145.277 60.0477 144.922 60.0461H136.014C135.659 60.0477 135.314 59.9329 135.03 59.7194C134.747 59.506 134.541 59.2055 134.445 58.8639L123.79 20.383C123.726 20.1431 123.718 19.8916 123.766 19.648C123.815 19.4045 123.92 19.1756 124.072 18.9792C124.224 18.7828 124.419 18.6242 124.643 18.5159C124.866 18.4077 125.111 18.3526 125.36 18.355Z" fill="#191919"/>
</svg>
